<?xml version="1.0" encoding="utf-8"?>
<!-- Generator: Adobe Illustrator 22.0.1, SVG Export Plug-In . SVG Version: 6.00 Build 0)  -->
<svg version="1.1" id="Layer_1" xmlns="http://www.w3.org/2000/svg" xmlns:xlink="http://www.w3.org/1999/xlink" x="0px" y="0px"
	 viewBox="0 0 494.8 304" style="enable-background:new 0 0 494.8 304;" xml:space="preserve">
<g>
	<path d="M19.8,78.6c-6.2-3.6-11.1-8.6-14.5-15C1.8,57.3,0.1,50.1,0.1,42c0-8,1.8-15.2,5.3-21.6C8.9,14,13.7,9,20,5.4
		C26.2,1.8,33.2,0,41,0c7.9,0,15,1.8,21.2,5.5c6.2,3.7,11.1,8.7,14.5,15.1c3.4,6.4,5.1,13.6,5.1,21.5c0,11.8-4.4,22.6-11.5,30
		c-3.6,3.7-7.9,6.6-13,8.8C52.3,83,46.8,84,41,84C33.1,84,26.1,82.3,19.8,78.6z M66,42c-0.1-8.1-2.5-14.8-7.2-20.2
		c-4.7-5.4-10.6-8-17.8-8c-7.3,0-13.3,2.6-18,7.8S16,33.6,16,42c0,8.3,2.3,15.1,6.9,20.4c4.6,5.3,10.6,7.9,18.2,7.9
		C55.3,70.6,66.5,57.9,66,42z"/>
	<path d="M150.3,81.2c0.4,0.6,0.2,1-0.5,1h-17.1c-0.4,0-0.7-0.2-1-0.5l-23-32.4h-2.3v32.2c0,0.6-0.3,0.8-0.8,0.8h-14
		c-0.6,0-0.9-0.3-0.9-0.8V2.6c0-0.6,0.3-0.8,0.9-0.8h18.4c9.7,0,17.3,2.1,22.6,6.2c5.3,4.1,8,10,8,17.6c0,11.1-5.1,18.4-15.3,21.7
		L150.3,81.2z M106.3,15.1V36h5.7c8,0,12.5-3.8,12.5-10.4c0-6.7-4.9-10.5-13.5-10.5H106.3z"/>
	<path d="M154.9,82.3c-0.6,0-0.9-0.3-0.9-0.8V2.6c0-0.6,0.3-0.8,0.9-0.8h14.2c0.6,0,0.9,0.3,0.9,0.8v78.9c0,0.6-0.3,0.8-0.9,0.8
		H154.9z"/>
	<path d="M260.4,39.2c0.6,0,0.8,0.3,0.8,0.8c-0.2,14.2-5.8,27.1-15.5,35.3c-6.5,5.5-15.6,8.7-25.7,8.7c-8,0-15.2-1.8-21.6-5.5
		c-6.4-3.6-11.4-8.7-14.9-15.1c-3.6-6.4-5.4-13.5-5.4-21.5c0-8.2,1.8-15.5,5.4-21.9c3.6-6.3,8.7-11.3,15.1-14.8
		c6.5-3.5,13.8-5.2,22-5.2c7.2,0,13.8,1.7,19.9,5.1c6,3.4,10.9,8.3,14.7,14.5c0.4,0.5,0.3,0.9-0.3,1.2l-11.7,6.9
		c-0.5,0.4-0.9,0.3-1.2-0.3c-4.8-8.8-12.6-13.7-21.7-13.7c-4.8,0-9.1,1.2-13.1,3.7c-4,2.5-7.2,5.8-9.6,10.2
		c-2.4,4.4-3.6,9.2-3.6,14.4c0,8.1,2.4,14.9,7.2,20.2c4.8,5.4,10.9,8,18.5,8c11.9,0,20.3-6.2,23.2-16.9h-22.8
		c-0.6,0-0.8-0.3-0.8-0.8V40.1c0-0.6,0.3-0.8,0.8-0.8H260.4z"/>
	<path d="M269,82.3c-0.6,0-0.9-0.3-0.9-0.8V2.6c0-0.6,0.3-0.8,0.9-0.8h14.2c0.6,0,0.9,0.3,0.9,0.8v78.9c0,0.6-0.3,0.8-0.9,0.8H269z"
		/>
	<path d="M295.5,82.3c-0.6,0-0.9-0.3-0.9-0.8V2.6c0-0.6,0.3-0.8,0.9-0.8h13.2c0.5,0,0.8,0.2,1,0.5l37.1,51.7
		c-0.3-1.5-0.4-3.8-0.4-6.9V2.6c0-0.6,0.3-0.8,0.8-0.8h14c0.6,0,0.9,0.3,0.9,0.8v78.9c0,0.6-0.3,0.8-0.9,0.8h-13
		c-0.5,0-0.8-0.2-1-0.5l-37.4-51.5c0.3,1.5,0.4,3.8,0.4,6.9v44.3c0,0.6-0.3,0.8-0.8,0.8H295.5z"/>
	<path d="M439.3,81.3c0.2,0.6-0.1,1-0.7,1h-15.8c-0.5,0-0.8-0.3-1-0.7l-8.9-28h-19.9l-8.8,28c-0.2,0.5-0.5,0.7-1,0.7h-15.6
		c-0.6,0-0.9-0.4-0.7-1L395,2.4c0.2-0.5,0.5-0.7,1-0.7h14.2c0.5,0,0.8,0.2,0.9,0.7L439.3,81.3z M397,40.7h11.8l-3.1-9.8
		c-1.4-4.5-2.3-8.6-2.8-12.3c-0.2,2.8-1.2,6.9-2.8,12.2L397,40.7z"/>
	<path d="M489,67.7c0.6,0,0.9,0.3,0.9,0.9v12.9c0,0.6-0.3,0.8-0.9,0.8h-43.8c-0.6,0-0.9-0.3-0.9-0.8V2.6c0-0.6,0.3-0.8,0.9-0.8h14.2
		c0.6,0,0.9,0.3,0.9,0.8v65.1H489z"/>
	<path d="M69.4,182.8c0.4,0.4,0.3,0.8-0.1,1.2c-6.7,6.5-16.8,10.1-28,10.1c-8.2,0-15.5-1.8-21.8-5.3c-6.3-3.5-11.1-8.5-14.5-14.8
		c-3.4-6.3-5-13.6-5-21.9c0-7.9,1.8-15.1,5.4-21.5c3.5-6.3,8.6-11.4,15-15.1c6.5-3.6,13.8-5.5,22-5.5c10.3,0,19.9,3.7,26.2,10.3
		c0.4,0.4,0.4,0.8,0,1.2l-8.5,10c-0.4,0.5-0.8,0.5-1.2,0c-4.1-5-10.3-7.8-17-7.8c-7.3,0-13.5,2.7-18.4,8.1c-5,5.4-7.4,12.1-7.4,20.1
		c0,8.2,2.4,14.9,7.1,20.1c4.8,5.2,10.8,7.8,18.1,7.8c7.4,0,14-2.8,18.1-7.9c0.4-0.5,0.8-0.5,1.2,0L69.4,182.8z"/>
	<path d="M134.2,111.7c0.6,0,0.8,0.3,0.8,0.8v78.9c0,0.6-0.3,0.8-0.8,0.8h-14c-0.6,0-0.9-0.3-0.9-0.8v-34.3H90.6v34.3
		c0,0.6-0.3,0.8-0.8,0.8h-14c-0.6,0-0.9-0.3-0.9-0.8v-78.9c0-0.6,0.3-0.8,0.9-0.8h14c0.6,0,0.8,0.3,0.8,0.8v31.1h28.7v-31.1
		c0-0.6,0.3-0.8,0.9-0.8H134.2z"/>
	<path d="M154.7,184.7c-6-6.2-9-14.5-9-24.8v-47.3c0-0.6,0.3-0.8,0.9-0.8h14c0.6,0,0.8,0.3,0.8,0.8v46.2c0,13.8,5.8,21.5,17.1,21.5
		c11.3,0,17.1-7.7,17.1-21.5v-46.2c0-0.6,0.3-0.8,0.8-0.8h14.2c0.6,0,0.9,0.3,0.9,0.8v47.3c0,10.3-3,18.6-9,24.8
		c-6,6.2-14.1,9.3-24,9.3S160.7,190.9,154.7,184.7z"/>
	<path d="M262.7,111.7c0.6,0,0.8,0.3,0.8,0.8v12.3c0,0.6-0.3,0.8-0.8,0.8h-14.2v65.8c0,0.6-0.3,0.8-0.8,0.8h-14.2
		c-0.6,0-0.8-0.3-0.8-0.8v-65.8h-14.2c-0.6,0-0.9-0.3-0.9-0.8v-12.3c0-0.6,0.3-0.8,0.9-0.8H262.7z"/>
	<path d="M283.4,188.6c-6.2-3.6-11.1-8.6-14.5-15c-3.5-6.3-5.2-13.6-5.2-21.7c0-8,1.8-15.2,5.3-21.6c3.5-6.4,8.3-11.4,14.6-15
		c6.2-3.6,13.2-5.4,21-5.4c7.9,0,15,1.8,21.2,5.5c6.2,3.7,11.1,8.7,14.5,15.1c3.4,6.4,5.1,13.6,5.1,21.5c0,11.8-4.4,22.6-11.5,30
		c-3.6,3.7-7.9,6.6-13,8.8c-5.1,2.2-10.5,3.3-16.4,3.3C296.6,194,289.6,192.3,283.4,188.6z M329.6,152c-0.1-8.1-2.5-14.8-7.2-20.2
		c-4.7-5.4-10.6-8-17.8-8c-7.3,0-13.3,2.6-18,7.8s-7,12.1-7,20.5c0,8.3,2.3,15.1,6.9,20.4c4.6,5.3,10.6,7.9,18.2,7.9
		C318.9,180.6,330.1,167.9,329.6,152z"/>
	<path d="M413.8,191.2c0.4,0.6,0.2,1-0.5,1h-17.1c-0.4,0-0.7-0.2-1-0.5l-23-32.4h-2.3v32.2c0,0.6-0.3,0.8-0.8,0.8h-14
		c-0.6,0-0.9-0.3-0.9-0.8v-78.9c0-0.6,0.3-0.8,0.9-0.8h18.4c9.7,0,17.3,2.1,22.6,6.2c5.3,4.1,8,10,8,17.6c0,11.1-5.1,18.4-15.3,21.7
		L413.8,191.2z M369.9,125.1V146h5.7c8,0,12.5-3.8,12.5-10.4c0-6.7-4.9-10.5-13.5-10.5H369.9z"/>
	<path d="M432.7,188.6c-6.2-3.6-11.1-8.6-14.5-15c-3.5-6.3-5.2-13.6-5.2-21.7c0-8,1.8-15.2,5.3-21.6c3.5-6.4,8.3-11.4,14.6-15
		c6.2-3.6,13.2-5.4,21-5.4c7.9,0,15,1.8,21.2,5.5c6.2,3.7,11.1,8.7,14.5,15.1c3.4,6.4,5.1,13.6,5.1,21.5c0,11.8-4.4,22.6-11.5,30
		c-3.6,3.7-7.9,6.6-13,8.8c-5.1,2.2-10.5,3.3-16.4,3.3C445.9,194,438.9,192.3,432.7,188.6z M478.9,152c-0.1-8.1-2.5-14.8-7.2-20.2
		c-4.7-5.4-10.6-8-17.8-8c-7.3,0-13.3,2.6-18,7.8s-7,12.1-7,20.5c0,8.3,2.3,15.1,6.9,20.4c4.6,5.3,10.6,7.9,18.2,7.9
		C468.2,180.6,479.3,167.9,478.9,152z"/>
	<path d="M3.1,302.3c-0.6,0-0.9-0.3-0.9-0.8v-78.9c0-0.6,0.3-0.8,0.9-0.8h13.2c0.5,0,0.8,0.2,1,0.5l37.1,51.7
		c-0.3-1.5-0.4-3.8-0.4-6.9v-44.5c0-0.6,0.3-0.8,0.8-0.8h14c0.6,0,0.9,0.3,0.9,0.8v78.9c0,0.6-0.3,0.8-0.9,0.8h-13
		c-0.5,0-0.8-0.2-1-0.5l-37.4-51.5c0.3,1.5,0.4,3.8,0.4,6.9v44.3c0,0.6-0.3,0.8-0.8,0.8H3.1z"/>
	<path d="M81.2,302.3c-0.6,0-0.9-0.3-0.9-0.8v-78.9c0-0.6,0.3-0.8,0.9-0.8h14.2c0.6,0,0.9,0.3,0.9,0.8v78.9c0,0.6-0.3,0.8-0.9,0.8
		H81.2z"/>
	<path d="M186.7,259.2c0.6,0,0.8,0.3,0.8,0.8c-0.2,14.2-5.8,27.1-15.5,35.3c-6.5,5.5-15.6,8.7-25.7,8.7c-8,0-15.2-1.8-21.6-5.5
		c-6.4-3.6-11.4-8.7-14.9-15.1c-3.6-6.4-5.4-13.5-5.4-21.5c0-8.2,1.8-15.5,5.4-21.9c3.6-6.3,8.7-11.3,15.1-14.8
		c6.5-3.5,13.8-5.2,22-5.2c7.2,0,13.8,1.7,19.9,5.1c6,3.4,10.9,8.3,14.7,14.5c0.4,0.5,0.3,0.9-0.3,1.2l-11.7,6.9
		c-0.5,0.4-0.9,0.3-1.2-0.3c-4.8-8.8-12.6-13.7-21.7-13.7c-4.8,0-9.1,1.2-13.1,3.7c-4,2.5-7.2,5.8-9.6,10.2
		c-2.4,4.4-3.6,9.2-3.6,14.4c0,8.1,2.4,14.9,7.2,20.2c4.8,5.4,10.9,8,18.5,8c11.9,0,20.3-6.2,23.2-16.9h-22.8
		c-0.6,0-0.8-0.3-0.8-0.8v-12.5c0-0.6,0.3-0.8,0.8-0.8H186.7z"/>
	<path d="M195.3,302.3c-0.6,0-0.9-0.3-0.9-0.8v-78.9c0-0.6,0.3-0.8,0.9-0.8h14.2c0.6,0,0.9,0.3,0.9,0.8v78.9c0,0.6-0.3,0.8-0.9,0.8
		H195.3z"/>
	<path d="M280.5,301.2c0.4,0.6,0.2,1-0.5,1h-17.1c-0.4,0-0.7-0.2-1-0.5l-23-32.4h-2.3v32.2c0,0.6-0.3,0.8-0.8,0.8h-14
		c-0.6,0-0.9-0.3-0.9-0.8v-78.9c0-0.6,0.3-0.8,0.9-0.8h18.4c9.7,0,17.3,2.1,22.6,6.2c5.3,4.1,8,10,8,17.6c0,11.1-5.1,18.4-15.3,21.7
		L280.5,301.2z M236.6,235.1V256h5.7c8,0,12.5-3.8,12.5-10.4c0-6.7-4.9-10.5-13.5-10.5H236.6z"/>
	<path d="M285.1,302.3c-0.6,0-0.9-0.3-0.9-0.8v-78.9c0-0.6,0.3-0.8,0.9-0.8h14.2c0.6,0,0.9,0.3,0.9,0.8v78.9c0,0.6-0.3,0.8-0.9,0.8
		H285.1z"/>
</g>
</svg>
