<?xml version="1.0" encoding="utf-8"?>
<!-- Generator: Adobe Illustrator 22.0.1, SVG Export Plug-In . SVG Version: 6.00 Build 0)  -->
<svg version="1.1" id="svg2" xmlns:svg="http://www.w3.org/2000/svg"
	 xmlns="http://www.w3.org/2000/svg" xmlns:xlink="http://www.w3.org/1999/xlink" x="0px" y="0px" viewBox="0 0 800 97"
	 style="enable-background:new 0 0 800 97;" xml:space="preserve">
<style type="text/css">
	.st0{fill:#FFFFFF;}
</style>
<g id="g11" transform="matrix(1.25,0,0,-1.25,-386.73125,784.70936)">
	<path id="path39" class="st0" d="M373.1,625.8l0.1-19.9c-0.3-0.2-1.5-0.3-1.5-0.2c-4.7,11.7-8.5,17.9-22.7,17.9h-1.6v-61.9
		c0-3.1,0.4-5.3,1.9-6.7c1.1-1,5.1-1.5,8.3-1.5c0.2,0,0.2-1.7,0-1.7h-30.7c-0.2,0-0.2,1.7,0,1.7c3.2,0,7.2,0.5,8.3,1.5
		c1.6,1.5,1.9,3.6,1.9,6.7v61.9h-1.6c-14.2,0-18-6.1-22.7-17.9c-0.1-0.2-1.3,0-1.5,0.2l0.1,19.9H373.1"/>
	<path id="path41" class="st0" d="M391.5,561c0-2.8-0.4-5.1-1.8-6.3c-1.2-1-3.7-1.3-7.2-1.3c-0.2,0-0.2-1.6,0-1.6h27.8
		c0.2,0,0.2,1.6,0,1.6c-3.6,0-6,0.3-7.2,1.3c-1.4,1.2-1.8,3.5-1.8,6.3v39.8c0,2.9,0.3,5.1,1.8,6.3c1.2,1,3.7,1.3,7.2,1.3
		c0.2,0,0.2,1.6,0,1.6h-27.8c-0.2,0-0.2-1.6,0-1.6c3.6,0,6-0.3,7.2-1.3c1.4-1.2,1.8-3.5,1.8-6.3V561"/>
	<path id="path43" class="st0" d="M465.2,610h-43.2c-0.2,0-0.2-1.6,0-1.6c3.2,0,5.6-0.3,6.7-1.3c1.3-1.2,1.6-3.5,1.6-6.3V561
		c0-2.8-0.3-5.1-1.6-6.3c-1.1-1-3.4-1.3-6.7-1.3c-0.2,0-0.2-1.6,0-1.6h27.6c0.2,0,0.2,1.6,0,1.6c-3.6,0-6.6,0.3-7.8,1.3
		c-1.4,1.2-1.8,3.5-1.8,6.3v18.9h4.4c4.5,0,6.6-0.7,8.5-2.1c1.6-1.2,2.8-3.7,2.8-6c0-0.2,0.9-0.2,1.4,0v18.5c-0.5,0.2-1.4,0.2-1.4,0
		c0-2.4-1.2-5.1-2.8-6.3c-1.9-1.4-4-2.2-8.5-2.2h-4.4v26.1h5.1c13.2,0,17.2-6.3,19.2-13.6c0-0.2,1.2,0,1.2,0.2L465.2,610"/>
	<path id="path45" class="st0" d="M517.8,610h-43.2c-0.2,0-0.2-1.6,0-1.6c3.2,0,5.6-0.3,6.7-1.3c1.3-1.2,1.6-3.5,1.6-6.3V561
		c0-2.8-0.3-5.1-1.6-6.3c-1.1-1-3.4-1.3-6.7-1.3c-0.2,0-0.2-1.6,0-1.6h27.6c0.2,0,0.2,1.6,0,1.6c-3.6,0-6.6,0.3-7.8,1.3
		c-1.4,1.2-1.8,3.5-1.8,6.3v18.9h4.4c4.5,0,6.6-0.7,8.5-2.1c1.6-1.2,2.8-3.7,2.8-6c0-0.2,0.9-0.2,1.4,0v18.5c-0.5,0.2-1.4,0.2-1.4,0
		c0-2.4-1.2-5.1-2.8-6.3c-1.9-1.4-4-2.2-8.5-2.2h-4.4v26.1h5.1c13.2,0,17.2-6.3,19.2-13.6c0-0.2,1.2,0,1.2,0.2L517.8,610"/>
	<path id="path47" class="st0" d="M535.7,574.4l8.8,24.2l8.9-24.2H535.7 M576.6,553.3c-4.6,0.6-6.1,2.2-8.2,7.6l-18.7,50.4
		c0,0.2-2.9,0.2-2.9,0l-18.3-49.3c-2.5-6.4-4.4-7.6-10-8.7c-0.2,0-0.2-1.6,0-1.6h17.7c0.2,0,0.2,1.6,0,1.6c-5.2,0.4-7.4,2.4-5,8.7
		l3.7,10.3h19.2l4-10.5c2.1-5.4,0.2-8-5.4-8.4c-0.2,0-0.2-1.6,0-1.6h23.7C576.8,551.8,576.8,553.3,576.6,553.3"/>
	<path id="path49" class="st0" d="M639.5,610h-20.4c-0.2,0-0.2-1.6,0-1.6c4.4-0.4,6.5-0.8,7.7-2.7c1.3-2.2,1.9-6.1,1.9-11.1v-27.6
		L595.8,610H579c-0.2,0-0.2-1.6,0-1.6c6.1,0,9.1-3.4,9.1-8.4V567c0-5.1-0.3-8.6-1.6-10.8c-1.1-1.9-2.3-2.4-6.5-2.8
		c-0.2,0-0.2-1.6,0-1.6h20.2c0.2,0,0.2,1.6,0,1.6c-4.4,0.4-6.5,0.8-7.7,2.8c-1.3,2.2-1.9,5.8-1.9,10.8v33.6l38.5-49.3
		c0.3-0.4,2.1-0.4,2.1,0v43.2c0,5.1,0.3,8.9,1.6,11.1c1.1,2,2.3,2.4,6.7,2.7C639.7,608.3,639.7,610,639.5,610"/>
	<path id="path51" class="st0" d="M698.8,610h-17.7c-0.2,0-0.2-1.6,0-1.6c5.4-0.2,7.3-2.2,5.3-6l-11.6-21.7l-12.8,22
		c-1.9,3.7,0.2,5.7,5.5,5.7c0.2,0,0.2,1.6,0,1.6h-24.3c-0.2,0-0.2-1.6,0-1.6c4.6-0.3,5.9-1.5,7.8-5.1l15.2-26.6V561
		c0-2.8-0.4-5.1-1.7-6.3c-1.1-1-3.6-1.3-6.9-1.3c-0.2,0-0.2-1.6,0-1.6h26.9c0.2,0,0.2,1.6,0,1.6c-3.3,0-5.8,0.3-6.9,1.3
		c-1.3,1.2-1.7,3.5-1.7,6.3v17.4l13.4,24.2c2.2,4.2,4.7,5.4,9.4,5.8C699,608.3,699,610,698.8,610"/>
	<path id="path53" class="st0" d="M723.2,572.1c0,7.4,3.5,12.8,10,15.8l19-25c-4.5-4.2-9.7-6.8-14.5-6.8
		C729.5,556.2,723.2,562.2,723.2,572.1 M742.5,618.6c5.4,0,8.6-4,8.6-10.5c0-5.9-4.6-12.4-11.1-15c-5,6.7-6.3,11.1-6.3,15.1
		C733.7,615.3,737.4,618.6,742.5,618.6 M781,587.8h-23.3c-0.2-0.6-0.2-1.5,0-1.5c5.9-0.2,8.5-2.5,6.4-7c-1.7-3.5-3.4-6.6-5.6-9.6
		l-16.9,21.6c10.1,4.9,15.3,9.9,15.3,17.8c0,5.8-5.8,12-14.8,12c-9,0-16.8-7.2-16.8-15.3c0-5.2,1.6-9.1,6.6-16
		c-10.2-3.4-18.8-11.6-18.8-20.9c0-10.5,8.4-18,19.5-18c8.2,0,15.5,4.3,21.1,10.5l6.9-9.5h18c0.2,0,0.1,1.6,0,1.6
		c-3,0.1-4.3,0.4-6.3,1.4c-2.5,1.2-4.4,3.1-7,6.2l-5.5,7c3.2,4.2,5.9,8.7,8.8,12.8c2.3,3.2,4.8,4.7,12.3,5.3
		C781.1,586.2,781.2,587.2,781,587.8"/>
	<path id="path55" class="st0" d="M862.4,574.1c0,0.2-1.4,0.4-1.5-0.1c-2.7-12.9-12.3-20.9-21.1-20.9c-16.7,0-27.3,14.6-27.3,35.5
		c0,20.9,9.3,35.9,25.6,35.9c9.9,0,19.6-8,22.3-20c0-0.2,1.6,0,1.5,0.2l-0.6,22.4c0,0.2-1.6,0.2-1.6,0c-0.4-3.2-2.4-5-5.7-3.7
		c-4.7,1.8-10,3.5-15.5,3.5c-21,0-38.9-17.2-38.9-38.3c0-21.1,17.5-37.9,38.9-37.9c9.4,0,16.7,1.9,22.8,6.1L862.4,574.1"/>
	<path id="path57" class="st0" d="M918.9,580.9c0-16.4-6.1-27.9-17.7-27.9c-11.6,0-17.7,11.5-17.7,27.9c0,16.4,6.1,27.9,17.7,27.9
		C912.8,608.8,918.9,597.3,918.9,580.9 M872,580.9c0-16.4,12.9-29.9,29.2-29.9c16.3,0,29.2,13.5,29.2,29.9
		c0,16.4-12.9,29.9-29.2,29.9C884.9,610.8,872,597.2,872,580.9"/>
	<path id="path59" class="st0" d="M941.4,563.5c3.4,0,6.1-2.8,6.1-6.3s-2.7-6.3-6.1-6.3c-3.4,0-6.1,2.8-6.1,6.3
		S938,563.5,941.4,563.5"/>
</g>
</svg>
