<?xml version="1.0" encoding="utf-8"?>
<!-- Generator: Adobe Illustrator 22.0.1, SVG Export Plug-In . SVG Version: 6.00 Build 0)  -->
<svg version="1.1" id="Layer_1" xmlns="http://www.w3.org/2000/svg" xmlns:xlink="http://www.w3.org/1999/xlink" x="0px" y="0px"
	 viewBox="0 0 86.4 97.7" style="enable-background:new 0 0 86.4 97.7;" xml:space="preserve">
<style type="text/css">
	.st0{fill:#FFFFFF;}
</style>
<path class="st0" d="M43.2,43.5c-12,0-21.7-9.7-21.7-21.7C21.5,9.7,31.2,0,43.2,0s21.7,9.7,21.7,21.7C64.9,33.7,55.2,43.5,43.2,43.5
	z M43.2,8c-7.6,0-13.7,6.2-13.7,13.7c0,7.6,6.2,13.7,13.7,13.7s13.7-6.2,13.7-13.7C56.9,14.2,50.8,8,43.2,8z"/>
<path class="st0" d="M86.4,97.7H0v-4c0-29.2,19.4-52.9,43.2-52.9s43.2,23.7,43.2,52.9V97.7z M8.1,89.7h70.1
	c-1.6-22.9-16.7-40.9-35.1-40.9S9.7,66.8,8.1,89.7z"/>
</svg>
