<?xml version="1.0" encoding="utf-8"?>
<!-- Generator: Adobe Illustrator 22.0.1, SVG Export Plug-In . SVG Version: 6.00 Build 0)  -->
<svg version="1.1" id="Layer_1" xmlns="http://www.w3.org/2000/svg" xmlns:xlink="http://www.w3.org/1999/xlink" x="0px" y="0px"
	 viewBox="0 0 287.4 287.3" style="enable-background:new 0 0 287.4 287.3;" xml:space="preserve">
<style type="text/css">
	.st0{fill:#DD3620;}
</style>
<g>
	<g>
		<g>
			<g>
				<g>
					<path class="st0" d="M138.5,264.9c0.1-0.2,0.1-0.4,0.2-0.6C138.6,264.5,138.5,264.7,138.5,264.9z"/>
					<path class="st0" d="M85.2,243.4l0.7,0.1C85.5,243.3,85.3,243.3,85.2,243.4z"/>
					<path class="st0" d="M174.1,263.6c0,0.1,0,0.1,0,0.2c0.6-0.1,1.3-0.2,2.5-0.5C175.7,263.4,174.9,263.6,174.1,263.6z"/>
					<path class="st0" d="M35.9,141l0,0.7C35.9,141.5,36,141.2,35.9,141z"/>
					<path class="st0" d="M51.3,208.3c-0.3,0-0.6-0.3-0.9-0.6C50.6,208.1,50.8,208.4,51.3,208.3z"/>
					<path class="st0" d="M197.5,270.9c-0.5-0.1-0.9-0.3-1.4-0.5C196.3,270.8,196.8,271.1,197.5,270.9z"/>
					<path class="st0" d="M229.8,247.1c-0.1,0-0.1-0.1-0.2-0.1C229.6,247.1,229.7,247.1,229.8,247.1z"/>
					<path class="st0" d="M215.3,253c-0.2,0.2-0.5,0.6-0.7,0.9C214.9,253.6,215.4,253.3,215.3,253z"/>
					<path class="st0" d="M214.3,254.4c0.1-0.2,0.2-0.3,0.3-0.5C214.3,254.1,214.2,254.2,214.3,254.4z"/>
					<path class="st0" d="M231.2,223.3c-0.7,0.7-0.8,1.8-1,2.9L231.2,223.3z"/>
					<path class="st0" d="M86.8,53.5l0,0.4C86.9,53.7,86.9,53.6,86.8,53.5z"/>
					<path class="st0" d="M236.4,229.8l-0.7,0.4C236,230.1,236.2,230,236.4,229.8z"/>
					<path class="st0" d="M177.6,279.9c-1,1.2-3.6,0.6-3.4,1.5C175.4,281,177.3,281.3,177.6,279.9z"/>
					<path class="st0" d="M93.9,10.6l0.8-0.3C94.2,10.4,94,10.5,93.9,10.6z"/>
					<path class="st0" d="M236.4,229.8l0.8-0.5c-0.2-0.1-0.4-0.1-0.5-0.1C236.6,229.4,236.5,229.6,236.4,229.8z"/>
					<path class="st0" d="M191.2,46.2C191.2,46.2,191.2,46.2,191.2,46.2c-0.1,0-0.2,0-0.3,0.1L191.2,46.2z"/>
					<path class="st0" d="M195.7,50.1c-0.4-0.1-0.8-0.2-1.2-0.3C195,50.2,195.4,50.2,195.7,50.1z"/>
					<path class="st0" d="M230.2,226.1l-0.6,1.7C229.9,227.3,230.1,226.7,230.2,226.1z"/>
					<path class="st0" d="M240.7,91.3c-0.1-0.2-0.2-0.3-0.4-0.4C240.4,91.1,240.5,91.2,240.7,91.3z"/>
					<path class="st0" d="M53.4,212.3c0,0.2,0.1,0.4,0.1,0.6C53.8,212.8,53.9,212.7,53.4,212.3z"/>
					<path class="st0" d="M10.9,177.4L10.9,177.4L10.9,177.4C10.8,177.4,10.8,177.4,10.9,177.4z"/>
					<path class="st0" d="M12.7,179.9c0-0.9-1-2-1.8-2.5C11,178.3,11.4,179.1,12.7,179.9z"/>
					<path class="st0" d="M10,171.2c0,0.1,0,0.2-0.1,0.4C10,171.4,10.1,171.3,10,171.2z"/>
					<path class="st0" d="M30.9,225.8C30.9,225.8,30.9,225.8,30.9,225.8C30.9,225.8,30.9,225.8,30.9,225.8L30.9,225.8z"/>
					<path class="st0" d="M24.4,216c0.1-0.3,0-0.6,0-0.9C24.3,215.3,24.3,215.6,24.4,216z"/>
					<path class="st0" d="M5.2,142.4C5.2,142.4,5.2,142.4,5.2,142.4C5.2,142.4,5.2,142.4,5.2,142.4C5.2,142.4,5.2,142.4,5.2,142.4z"
						/>
					<path class="st0" d="M44.5,38.4c-1,1.1-2.1,2.2-3.1,3.3c-1,1.2-2,2.4-3,3.7c-0.5,0.6-1,1.3-1.5,1.9c-0.5,0.7-1,1.3-1.5,2
						c-1,1.3-2,2.7-3,4c-0.9,1.4-1.9,2.8-2.8,4.1c-0.5,0.7-0.9,1.3-1.4,2c-0.4,0.7-0.9,1.4-1.3,2c-0.9,1.3-1.7,2.6-2.6,3.9
						c-0.8,1.3-1.6,2.5-2.5,3.7c0.3,3.1-1.4,6.3-2.8,9.6l-2.4-0.9L16,81c-1.2,0.8,0.6-2.3-1.2-0.8l0.9,1.7c-0.5-0.1-1.5,1.6-2.3,2.6
						c-0.7,1.1-1.4,1.5-1.1-1.3c-1.6,3.6-3.3,7.3-4.6,11.1c-1,2.5,1.4,2.1-0.1,4.7c-0.9,0.3-0.2-1.2-1.1-1.2
						c-1.1,1.9-1.6,3.6-1.7,5.1c-0.1,1.5,0.2,2.9,0.5,4.3c0.3,1.4,0.7,2.7,0.8,4.1c0.1,1.5,0,3-0.7,4.9l-0.2-0.7
						c0.2,0.7,0.1,1.7,0.1,2.5c-0.1,0.8-0.1,1.5,0.1,1.5c2.7-0.5-1.1-1.7,0.9-3.7c2.1,0.7,0.5,3.2,2.2,3.3c-1.1,1.7,0,2.9-0.2,4.5
						c-0.4,0.6-0.8,1.3-1,2.1c-0.2,0.8-0.4,1.5-0.5,2.3c-0.3,1.5-0.7,3-1.7,3.9c0.6,1.4,2.6,3.1,2.5,5.9c-1.8,1.9-1.6-0.6-2.4,2.2
						l1.2,0.5c-0.3,2.3-0.6,1.9-1.2,1.8c-0.1,1.2,0.4,1.7,0.7,2.3c0.3,0.6,0.5,1.2,0.2,2.8l-1.3-1.7c0.5,2.3,0.3,3.2,0.3,6.4
						c-0.7,0-0.7-1.3-0.5-2.3c-1.8,1.8,0.9,2.9,0.7,3.9c0.3-0.1,0.4-0.8,0.7-1.2c0.3-0.5,0.6-0.7,1.3-0.2c-0.1,1.6,1.9,3.2,0.5,4.4
						l-1.3-1.6c1.2,3.2,1.6,1.6,1.5,5.3c-0.1-0.2-0.4-0.1-0.7-0.1c1.9,2.2,0.7,5.4,1.2,8.8l-0.4-0.6c0.7,1.3,1.9,1.9,1.9,2.6
						c0.4-2.1,0.8-1.6,2-2c-0.8,1.4-0.1,2.3,0.9,3.3c0.9,1,2,2.2,1.9,4.3c-0.7,0.1-1.8-0.7-1.3-2c-2.4-1-4.2-0.8-5.7-3.2
						c0.7,1.5,1.5,3.3,0.5,3.1l2,0.1c0.3,0.9,0.3,1.7,0.5,2.4c1.3,0.1,1.6-2.4,2.9-0.4c1.2,2.3-1.7,1.8-0.7,2
						c1.7,3.2,2.4,0.8,2.7,4.2c-0.2-0.3-0.7-0.8-0.6-1.1c-0.2,2.5,2,5.5,0,6.9c-0.6-0.2-1.3,0-1.4-1l0.4-0.1c-2.5-2,1.1,2-1.2,1.8
						c1.2-0.6,1.9,2.8,2.3,4.3l1.2-1c5.9,3.2-2.8,0.7-0.5,5.3c2.2,2.6-0.1-1.3,1.6,0.2c0.6,2.1-0.2,3.4,1.6,6c-0.2,1,0,3-1.4,3.9
						c0.7,0.7,1.2,2.2,1.8,3.5c0.6,1.3,1.3,2.4,2.2,2.5c-0.4-3.6-3.1-2.2-3-6.7l1.9,0.3c0.6,1.2,1.4,2.5,2.2,3.7
						c0.8,1.2,1.5,2.3,1.7,3.3c0.1-0.5,0.4-0.8,0.8-0.8c0.6,0.8,1.2,1.3,1.7,1.8c0.6,0.5,1.1,0.9,1.6,1.3c1,0.8,1.8,1.7,2.6,3.3
						c-1,1.2-1.9-0.8-2.8-2c0.1,1.3,0.4,1.9,0.9,2.5c0.2,0.3,0.5,0.7,0.8,1.1c0.3,0.5,0.7,1,1.1,1.9c-0.9,0.9-1.4-2.1-2.6-1.8
						c0.8,1.1,1.8,2.1,2.7,3.2c-0.1,0-0.1,0.1-0.2,0.1c1-0.4,1.5,0.3,1.9,1.3c0.2,0.5,0.4,1.1,0.7,1.6c0.3,0.5,0.7,1.1,1.2,1.5
						c3.6,4.8,6.5,3.6,9.9,4.9c0.1,1-0.1,1.6-0.7,1.7c-0.2-1.7-0.6-1-1.4-1c0.7,0.7,1,1.8,1,2.8c0,1-0.4,1.7-1.1,1.6
						c2.7,1.9,0-1.6,1.9-0.6l2.9,3.2c0.4-1.1-0.4-2.4,1.7-1.4c1.5,1.2,2,1.9,3.7,3.6c-0.6,0.1-0.6,1.7-1.9,0.4
						c0.6,1.1,1.9,2.5,3.1,2.2c-0.6-1.3,0.3-0.7,1.4-0.1c1.1,0.5,2.3,1,2.1-0.2l1.4,2.5c-0.4-0.4-1,0.1-1.5-0.7
						c-0.5,1.8,2,1.1,2.8,1.5c0.5,0.9,2.4,2.4,2.1,3.1c1,0.2,2.4,1.7,2.2,2.6c1.2,0.5,0.7-0.8,1.3-1c1.1,0.9,2.3,1.7,3.4,2.6
						c-0.3,0.9-1.5,3.2-2.2,3.1c1.8,0.2,2-1.9,4-0.4c-2.2,0.7,2,2.9-0.9,3.6c0.5,1.8,4,4.1,6.3,4.7c1.9-0.5-1.8-1.9-0.9-3.1
						c2.9,1.3,4.9,1.2,6.6,1c1.7-0.2,3.2-0.4,5.1,0.9l-0.9-0.9c2.9,0.5,2.5,0.6,4.5,0.1c-0.7,0.7-0.5,2.1,0.5,3.5
						c0.5,0.7,1.2,1.5,2,2.1c0.4,0.3,0.9,0.6,1.4,0.9c0.5,0.2,1,0.5,1.6,0.6c0.7-0.7-1.8-2.5-0.6-3.6l2.9,0.8
						c0.2,0.2-0.3,0.4-0.7,0.4c1.4,0.2,2.4,1.2,3.2,1.9c0.8,0.7,1.5,1.2,2.2,0.3l1.9,3.4l-0.7-1.4c0.6-0.7,3.6,0,4.4-0.2
						c3.3-0.1,4.2,0.9,5.6,2.4c-0.2-0.4-0.5-1.1-0.5-1.7c0-0.6,0.4-0.9,1.6-0.8c-0.7,2.8,4.8,2.2,4.4,3.6c1,0.2,2.6,1.3,2.9,0.2
						l-0.5,1.8c0.7-2.5,4.2-1.6,7-1.8c-1,3.3,3,0.1,4,3.3c0.7-2.3,5.1-0.6,5.7-2.5c2.1,0,1.8,2.1,2.4,2.9l1-0.8
						c0.5,0.6,1.8,0.9,3.3,1.2c1.5,0.3,3.1,0.4,4.3,0.8l2.2-2.1c0.3,0.3,0.6,0.6,0.9,0.9c0.3-0.5,2.2-1,1-1.7l1.2,0
						c-0.1-2.3,1.6-0.7,4-1.9c0.6,0.3,0.5,0.8,0,1.2c1.2-0.1,0.8,1.1,1.5,1.8c-0.5-0.2,0.5-1.4,1.2-2.5c0.7-1.1,1-2.3-0.7-2.6
						c-0.3-0.9,1.4-1.8,2.6-1.5l1,1.9c0.4-0.7,0.7-1.5,1.1-2.3c1.7-0.6,2.7,0.6,4.2,0.5c-1.4,0.4-2.7,4.4,1.2,3.7
						c-2,0.6-2.9,1.9-3.9,2.5c0.8-0.1,1.3,0.1,0.1,1.1c3-1.1,0.8-1.4,3.9-2.2c0.2,1.8,1.1,2.3,4,2.3l-2.3-0.9
						c0.1-0.2,0.2-0.4,0.3-0.6c-0.8,0-1.1-0.3-1.4-0.9c0.6-0.1,3.1-2.9,3.8-2c-1.8-1-0.6-1.9,0.7-2.6c1.4-0.7,2.8-1.4,1.7-2
						c0.2-0.6,2.2-1.2,2.6-0.4c-2.1,2,2.4,1.5,2.3,2.8c0.8-0.7-2.3-0.8-1.2-1.8c1.4-0.5,2.8,0.3,3.8,0.5l-0.5,0.5l2.5,0
						c0.1-1-2.6-0.8-0.7-1.9c0.7,0.2,2.6-0.9,2.7-0.2c-0.6,1.5,0.7,2.8-1.1,3.7c0.7-0.3,2.3-0.9,3.3-1.5c1-0.7,1.6-1.4,0.3-1.8
						l1.8-0.6c-1.4-0.3-4.8-0.5-1.5-2l0.1,0.4l1.9-2.2l1.4,0.5c-0.2-0.4,0-0.9,0.9-1.3c0.4,0.4,1.3,0.3,1.5,0.9
						c2.5-1.2,1.9-1.9,2-2.5c1.3-0.7,2-0.6,1.8,0.6c2-0.7,5.2-2.5,6.9-2.3c2.1-2.1-0.7-0.1,0.2-1.9c1.8,0.8,4,0,6.2-1.5
						c1.1-0.8,2.1-1.6,3.2-2.5c0.5-0.4,1-0.9,1.5-1.3c0.5-0.4,0.9-0.8,1.4-1.2c-2.6-1.6,0.9-1,0.1-3.5c-0.3,1.3,4.8-0.7,1.9,2.2
						l1.8-1.6c2.3,0.3-2.7,3.3,0.6,3.5c1.1-0.8,1.6-2.2,2.2-3.4c0.6-1.3,1.3-2.4,2.9-3c0.2,1.1,0.6,0.6,1,0.1c0.4-0.5,0.9-1.1,1.3,0
						c-0.1,1-0.9,1.4-1.6,2.1l0.7-0.1c5.1-3.5-0.1-2.9,1.5-6c2.6-2.6,3.2-0.7,4-0.2c0.7-0.1,1.8-1.6,2.2-2.7c-0.8,2.4-3.9,2-3.9,0.3
						c2.7,0.5,4.1-3.6,4.2-4.9c-2.7,0.9-3.4,1.5-4,2.1c-0.3,0.3-0.6,0.5-1.2,0.8c-0.6,0.3-1.4,0.6-2.7,0.9c0,1,1.4,2.4-1.4,3.7
						c0.7-1.9-0.8-0.8-1.4-0.7c0.6,0.3,0.3,0.7-0.2,1.2c-0.5,0.5-1.2,0.9-1.4,1.4c-1.2-0.2-0.3-3.1-2.9-1.7l1.2,2.5
						c-1.2,0.4-0.8-1.9-2.3,0.1c0.2-1.9-1.6-1.5,0.7-3.8c-2.2,0.2-3.1,1.4-3.8,2.8c-0.7,1.4-1.1,3-2,4.3c0.2-0.3,0-0.6,0.1-1
						c-0.1,0.9-1.1,1.6-1.8,2.2c-2,0.5,0.7-1.9-0.2-2.2c-0.9,0.6-1.8,1.2-2.6,1.8c-0.1,0-0.1-0.1-0.2-0.1c-0.5,0.8-1.1,1.4-1.7,1
						c0.3-1.2,0.2-2.2,0.3-3.1l-1.8,3.3c-0.1-0.9-3.1,0-1.4-1.7l-4,2.7l-1.2-1.4c-0.8,0.8-0.7,1.2,0.6,0.7c-0.8,0.2-2.1,1.7-3.3,2.8
						c-1.2,1-2.3,1.6-2.6-0.2c-1.4,1.5-2.5,2.2-3.7,2.9c-0.6,0.3-1.2,0.7-2,1.1c-0.7,0.4-1.6,0.8-2.6,1.5c2.7-2.8-4.5-0.6-1.3-2.6
						c-2.3,0-2,2.1-3.6,2.8c-1.8-0.2-1.6-2.2-0.2-3.3l-1.6,1.4l-0.1-0.4l-1.3,1.5c-2-0.4-0.9-1.6-2.8-1.3l0,1.7l-1.5-0.6
						c0.7,0.6-0.3,1.2-1.7,1.7l-0.1-0.4c-0.5,0.2-1,0.5-1.6,0.7c0.7-0.7,0.3-0.7-0.2-0.7c-0.5,0-1.1,0-0.9-0.6
						c-1.4,0.2-1.4,0.3-3.9,1.1l0.7,1c-1.6,0.8-1.7,0.4-1.7-0.1c-0.1-0.5-0.1-1.2-1.4-1l0.4,1.2c-2.1-0.7-3.7-0.1-5.2,0.5
						c-1.5,0.6-2.8,1.2-4.4,0.7c1.6-0.5,1-1.9,1-1.5c-0.6,0.2-1.3,0.3-2.1,0.5c-0.8,0.1-1.6,0.2-2.4,0.4c-1.6,0.3-3.3,0.7-4.5,1.5
						c-1-1.8-1.2-2.4-3.9-3.1c-1.9,0.1-2.2,0.2-2.8,1.3c-0.9-0.4-2.2-0.3-3.4-0.3c-1.1-0.1-2-0.2-2-0.9c-0.5,1-1.6-0.3-2.7,0.5
						l-0.2-0.6l0,1.3c-1.5-1.5-2.9-1.3-4.3-1c-1.4,0.3-2.9,0.6-4.3-0.9l0.6-0.2l-1.4,0.3c-0.1-0.6,0.5-0.8,0.7-1.5l-3.1-0.6
						c-1-0.2-2.1-0.5-3.1-0.8l1,1.2c-1.3-0.2-2.5,0.8-3.9-0.3c1.5-0.6,1-0.8,0.1-0.9c-0.9-0.2-2.1-0.4-2.1-1.2l1.4-0.1
						c-1.8-0.4-1.8-0.4-2,0.9c-2.5-0.2-1-2.7-3.5-2.1c0.5,0.2,1,0.4,1.5,0.5c0.3,0.8-1.2,1.6-2.2,1.2c-0.2-0.3-0.7-1,0.1-0.9
						c-2-0.1-4.5-1.6-5.5-1.5c-0.8-0.7-0.2-1.5,0.4-1.6c-2.1-0.2-2.5-0.4-2.9-0.6c-0.4-0.2-0.8-0.4-2.9-0.7l0.3-0.6l-1.6,0.2
						l-1.2-2.2l0.3,1.1c-0.6-0.2-1.2-0.3-1.8-0.4c-0.6-0.2-1.1-0.4-1.7-1l1-0.7c-1.8-0.6-2.6-1.5-3.4-2.2c-0.8-0.8-1.6-1.5-3.5-1.7
						c-0.1-0.3,0.5-0.3,0.9-0.3c-1.8-0.1-2.2-0.8-2.5-1.5c-0.3-0.7-0.6-1.4-2.6-1.4c0.4-0.2,0.3-0.8,0.6-1l-1.6-0.2l0.9-1.2
						l-2.2,1.1c0-0.6,0-1.2,0.1-1.8l-0.9,0.2c0.1-1.6-0.5-2.3-1.3-2.9c-0.4-0.3-0.8-0.6-1.2-1.1c-0.3-0.4-0.6-1-0.7-1.7l-0.8,1.7
						c-1.6-0.1-3-0.7-4.3-1.7c-1.2-1-2.2-2.3-3.2-3.7c-1-1.3-1.9-2.9-2.9-4.2c-0.5-0.7-1.1-1.3-1.7-1.9c-0.6-0.6-1.2-1.1-1.9-1.6
						l1.1-0.9l-3.1-0.8c-0.2-1.8,1.5-0.2,1.7-1c-2.5-1.6-2.4,0.5-4.9-1.8c-0.4-1.9,1.2-0.2,2.1,0c-2.6-1.9-6.1-5.1-6.8-7.4
						c-0.2,0.1-0.5,0.1-0.5,0.3c-1.7-1.4-2.9-4-4.1-6c0.6-0.3,1,0.1,1.4,0.5c-0.4-0.8-0.6-2-1.5-2.2l1.5,0.1
						c-0.3-0.8-1.3-1.8-1.9-2.7c-0.6-0.9-1-1.8-0.4-2.3c-0.4,0.5-1.4,0.9-2.1-0.5c1.5-1.7-2.7-3.3-2.8-6c0.6,0,1.5,1.6,1.3,1.1
						c0-1.3-1.4-1.9-2.5-2.6l0.9-0.1l-1.7-2.4c-0.6-0.8-1.1-1.6-1.7-2.4c1.8-1.6-2.2-5-0.5-5.1c-0.5-2-0.4,2-1.4-0.4
						c0.7-0.9-1.1-2.1,0.3-2.4l0.2,0.2l-0.7-1.7l1.7,0.7c-0.8-1.4-2.4-2.1-3.5-1.9c0.4-1.6-0.8-3.5,0.3-4.5c0.1,0.2,0.3,0.3,0.5,0.4
						c-0.7-1.9-0.1-3.8,0.3-5.5c0.4-1.7,0.7-3.2-0.7-4.6c0.2-0.3,0.5-0.3,0.6,0.2c-0.1-0.8-0.2-1.6-0.3-2.5l1.1,0.4l-2.1-3.9l0.7,0
						c0-1.4-0.1-3.1-0.3-4.9c-0.2-1.8-0.3-3.8-0.5-5.5l0.4,0.5c-0.6-1.9-0.4-2.8-0.1-3.6c0.2-0.8,0.5-1.4,0.1-2.9
						c0.2,0.1,0.3,0.2,0.3,0.3c0-0.8,0.1-1.7,0.1-2.5l0.7,0.6c-0.7-1-0.1-2.3,0.5-3.2c0.6-0.9,1.3-1.4,0.5-0.9c-0.6-1.1-1.2-3-2-3.4
						c0.3-2.7,1-0.6,1.8-2.1c0.4-1.9-0.8-2.5,0.3-5l0.7,0.2c0.1-1.2-0.2-2.1,0.1-3.8l0.2,0.6c-0.2-0.8-0.2-1.4,0-1.8
						c0.2-0.5,0.5-0.8,0.8-1.2c0.5-0.7,0.8-1.4-0.4-2.9c0.8-1,1.1-3.3,2.5-2.8c0.1-1.8,0.2-3.4,0.5-5c0.1-0.8,0.3-1.6,0.4-2.4
						c0.2-0.8,0.3-1.7,0.6-2.5c2.4,0.4,0.2-0.8,2.3-2.2l-1.2-0.4c0.4-1.2,1.2-2.3,2-3.4c0.8-1.1,1.7-2.2,2.7-3.2
						c1-1,1.9-2.1,2.8-3.1c0.9-1.1,1.7-2.2,2.3-3.4l1.2,0.6l-0.6-1.7c1.9-2.3,4-4.8,6.2-7.2c1-1.2,2.1-2.3,3.1-3.4
						c1-1.1,1.9-2.1,2.7-2.9c0.3-0.8,0.5-1.8,1-2.9c0.2-0.5,0.5-1.1,0.8-1.6c0.4-0.5,0.8-0.9,1.3-1.2l-0.1,0.3
						c1.3-1.7,2.6-3.5,4.3-5c0.8-0.8,1.6-1.6,2.6-2.2c0.9-0.7,1.9-1.3,2.9-1.9c0.1,0.6,0.7,0.6,0.5,1.2c0-0.9,0.5-1.3,1.2-1.6
						c0.6-0.3,1.4-0.3,1.8-0.6L81.5,57c0.4-1.7,2.6-1.9,3.7-1.5c0.3-0.8,0.6-1.6,1-2.3c0.2,0,0.5,0.1,0.6,0.2l0-0.8l1.8,0.8
						c0.3-0.6,2.3-2.4,2.3-4.2c0.5,0.4,2.4-0.2,1.2,0.8c1.2-0.5,2.3-1.1,3.5-1.6l3.5-1.5l-1.3,0c-0.7-1,1-2.9,2.4-2.8
						c-1,1.6,0.6,1.7,1.6,2.3c0.7-1-1.3-0.7-1.1-1.5c0.9-1.3,3.2-2.9,4.1-2.5c-0.2,0.3-0.4,0.5-0.5,0.8c1.5-1.1,3.1,0.7,4.6,0
						c1.1-1.5,2.5-0.9,1.5-2.9c2-1.1,1.3,1.1,2.1,1.1c0.3-0.7,1.3-1.1,2.3-1.2c1-0.1,2,0.1,2.3,0.6c0.2-1.7,1.7-1.9,3.2-1.8
						c1.5,0,2.9,0.2,2.8-1.2l2.1,1.1c-0.1-0.7,0-2.4,1.4-2.9c1.6,0.5,1.4,1.8,2,2.5l0.5-2.8c1.1,0.2,2.2,0.4,3.3,0.4
						c1.1,0.1,2.3,0.1,3.4,0.1c2.3,0.1,4.7,0,7.1,0.1c4.8,0,9.8,0.4,14.1,2c2,0,4.3-0.3,6.6-0.2c1.2,0,2.4,0.1,3.6,0.2
						c1.2,0.2,2.3,0.4,3.5,0.8l-0.6,0.2c0.7,0.3,1.5,0.5,2.2,0.9l2.1,1c-1-0.7-1.9-1.4-2.9-2c1.1-0.1,1.9-0.4,2.9-0.1
						c1.2,0.6,2.4,1.2,3.7,1.9c1.3,0.7,2.7,1.4,4.1,2c1.4,0.7,2.8,1.3,4.3,1.8c1.5,0.5,3,1.1,4.6,1.4c1.3-0.3,2-0.2,2.4,0.1
						c0.4,0.3,0.6,0.8,0.7,1.3c0.2,1,0.4,2.1,2.6,1.9c-0.4,0.1-0.7,0.4-1.1,0.6c2.1,0.5,3.6,1,5.3,1.3c1.6,0.4,3.3,0.8,5.6,1.1
						c-1,1.2-0.4,1.5,0.2,1.7c0.7,0.2,1.5,0.3,0.9,0.9l1-0.8c0.3,1.2,2,2.6,1.2,3.2c0.8-0.1,1.6-0.1,2.4-0.1l-0.6,1.1
						c0.9,0.8,2.6,1.8,3.9,2.9c1.3,1.2,2.3,2.6,1.9,4c2.9,1.3,5.9,3.7,8.7,6.7c0.7,0.7,1.4,1.5,2,2.3c0.6,0.8,1.3,1.6,1.9,2.4
						c1.2,1.6,2.3,3.3,3.4,4.9c1.4,0.3,2.8,2,3.9,3.4c-0.1,0.8-0.2,1.6-0.3,2.4c0.7,0.6,1.6,1.1,2.5,1.6c0.4,0.3,0.8,0.6,1.1,0.9
						c0.3,0.4,0.4,0.8,0.4,1.2c-0.2,0.1-0.3,0.1-0.4,0c1.1,1.4,1.3,3.2,3.3,4.1c0.8,1.8,0.9,3.9-0.6,3.9c1.2-0.5,1.6,0.5,1.6,1.6
						c0,1.1-0.2,2.3-0.2,2.3s0.1,0.4,0.4,1c0.1,0.3,0.3,0.8,0.5,1.3c0.2,0.5,0.3,1.1,0.6,1.7c0.4,1.3,1,2.9,1.5,4.8
						c0.3,0.9,0.5,1.9,0.8,3c0.3,1,0.5,2.2,0.8,3.3c2.2,9.3,3.7,22.4,2.6,36.1c-0.5,6.8-1.6,13.8-3.2,20.6
						c-1.6,6.7-3.7,13.3-5.9,19.2c-4.5,12-9.7,21.9-11.5,29c0.3,1.5-0.8,3.8,0.9,4.1c-1,1.7-3.2,0.8-2.5,2c2.4-1.3,1.7,2.9,4.6,2.1
						l-1,1.4c0.4,0.9,0.9-2.4,1.7-1l-1.4-2c1.2-0.7,2.1-0.9,3-0.8c0.2-1.5-1.6-4.3,1.4-5.6l-0.4,0.7c1.5-1.9,2.1-0.2,2.8-0.3
						l-0.4,0.4c0.7-0.3,1.5-0.6,2.3-0.9c-1.6,0.7-1.9,4-1.1,2.8c2.5-1.9-0.9,0.2,0.3-1.7c0.8-1.1,1.5-0.1,2,0.5l1.5-2.1
						c0.8,0.7-1.1,1.3,0.4,1.2l1.1-3.3c2.6,1.2,1-3.6,3.9-3.3c-0.8,2.3,0.9,0.4,1.4,1.2l1.6-2.4l1.5-2.5c0.6-0.3-0.1,1.7,0.3,0.9
						c1.2-0.5,0.4-1.9,0.7-2.4c0.4,0,1.1-0.9,1.6-1.7c0.6-0.8,1.3-1.5,2-1c1.5-1.4,1.2-2.1,0.9-2.7c-0.3-0.6-0.7-1.2,0.6-2.6
						c1.2,0.1-1.1,2.7,0.7,1.8l1.3-3.6c0.3,0.5,1.3,1.5,0.4,2.7c0.7-1.1,1.5-2.1,2.3-3c0.8-0.9,1.5-1.9,2.3-2.7
						c1.5-1.7,3.1-3.3,4.5-4.9c1.4-1.6,2.7-3.3,3.7-5.2c1-1.9,1.8-4,2.1-6.6c1.6-1,0.6,1.2,1.1,2.4c0.1-3.8,1.5-6.1,2.9-8.3
						c0.7-1.1,1.5-2.2,2.1-3.4c0.7-1.2,1.1-2.5,1.3-4.1l-1.1-0.3c0.6-1,1.1-2.1,1.6-3.2c0.4-1.1,0.8-2.3,1-3.5
						c0.3-1.2,0.6-2.4,0.7-3.6c0.2-1.2,0.3-2.5,0.4-3.8c0.5-5.1,0.3-10.3,0.8-15.4l-0.7,1.2c-1-1.4-1.3-3.6-1.9-5.2
						c0.5-0.3,2.4,1,1.7-1.9c-0.3,0.6-0.7,1.9-1.2,1.6c1.2-4.4,0.9-11.3-0.3-18.7c-1.1-7.5-3.3-15.4-5.3-22.5
						c-3.9-9-8.2-18.3-13.5-27.1c-5.2-8.8-11.5-17-18.5-23.7c2.1,2.1-0.7,3-1.8,1c-0.6-3.7-2.6-5.4-4.8-6.9
						c-1.1-0.7-2.3-1.4-3.3-2.3c-1-0.9-2-2-2.7-3.6c-2.5-1.4-4.6-3.2-6.8-4.7c-1.1-0.8-2.1-1.7-3.2-2.5c-1-0.8-2.1-1.6-3.2-2.4
						c-1.1-0.8-2.1-1.5-3.2-2.3c-1.1-0.7-2.3-1.3-3.5-1.9c-1.2-0.6-2.4-1.1-3.7-1.5c-1.3-0.4-2.6-0.7-4-0.9l0.4-1.2
						c-1.2-1.2-1.9-0.6-3.5-1.2l0.2-0.3c-1.7-1-3.8-1.7-5.6-2.3c-1.9-0.5-3.6-1-4.5-1.7l-0.6,1.3c-2.2-0.7-0.7-1.5-3.3-1.5l0.3-0.7
						l-3,0.5c0.5-1.2-1-1.7-2.9-2.1c-1.9-0.4-4-0.7-4.8-1.4c-3-0.3-8.7-0.5-13.1-1.6c-0.6-1.5-6.1-2.2-9.6-3.2
						c-7-0.4-16.8-0.1-25.7,0.2l0.3,1.6c-0.8,0.1-1.5,0.2-2.3,0.3c0-0.4-0.3-0.5,0-0.7c-2-1.6-5.2,1.2-7.2,0.3
						c1.4,1.3,1.6,0,2.9-0.1c2,0.6,0.4,2.3-2.2,1.8l0-0.4l-1.6,1.1c-0.4-1.2-2-1.6-2.4-2.8c-1.9,0.4-3.6,0.9-5.1,1.5
						c-1.6,0.6-3.1,1.2-4.6,1.8c-3,1.4-6,2.5-9.7,3.4c0.3-1.6-5.2,2.1-4.5-0.7c-4.1,2.5,1.4,1.6,0,4C96,11.9,95,13,94.5,12.3
						c0.4-0.8-1.5-1-0.6-1.6c-0.9,0.4-1.9,0.8-2.8,1.3c-0.3-0.1,0.2-0.7,0.4-0.9c-1.3,1-2.7,1.6-4,2.1c-1.4,0.5-2.7,0.9-4,1.3
						c-2.6,0.9-5.3,1.6-7.4,3.7c0.1,1,2.1-0.9,2.2,0.1c-4.1,4.4-5.3,1-9.2,5l0.3-1.6c-1,1.7-1.1,2.9-4,3.7c-0.6-0.5-0.3-1.1,0.3-1.7
						c0.6-0.6,1.5-1.3,1.9-1.9c-1.8,0.9-5.6,4.1-3.6,4.4c-1.6,1.7-3.1,1.2-4.4,1.6c0.2,0.3,2.4-0.5,1.6,0.9c-1.6,0.6-3.2,1.7-5,2.9
						c-1.8,1.2-3.5,2.6-5,3.8c-0.2-0.3-0.8-0.5-0.6-0.9C49.3,37.8,47.4,35.1,44.5,38.4z"/>
					<path class="st0" d="M31.6,227.2l-0.7-1.4c-0.3,0.2-0.6,0.3-1.3,0L31.6,227.2z"/>
					<path class="st0" d="M7.3,160.3c-0.1-0.2-0.3-0.3-0.5-0.5C7,160.2,7.1,160.3,7.3,160.3z"/>
					<path class="st0" d="M4.1,142.9c0.3,1.3,0.7,0.1,1.1-0.5C4.9,142.4,4.5,142.4,4.1,142.9z"/>
					<path class="st0" d="M62.1,253.6c-0.3,0-0.5,0-0.7,0.3C61.8,253.8,62,253.7,62.1,253.6z"/>
					<path class="st0" d="M165.5,282.2c-0.1-0.1-0.3-0.1-0.5-0.2C165.2,282.1,165.3,282.2,165.5,282.2z"/>
					<path class="st0" d="M159.2,280.6c-0.3,0-0.7,0.1-1.2,0.3C158.6,281,158.9,280.8,159.2,280.6z"/>
					<path class="st0" d="M42.4,235.6c-0.3-0.3-0.6-0.5-1.1-0.6C41.7,235.5,42.1,235.6,42.4,235.6z"/>
					<path class="st0" d="M156.8,281.4l-1.5,0c0,0.1,0,0.2,0,0.3L156.8,281.4z"/>
					<path class="st0" d="M167.5,282.1c-0.6,0-1.4,0.2-1.9,0.1C166.4,282.5,167,282.4,167.5,282.1z"/>
					<path class="st0" d="M97.7,271.6c-0.1,0-0.1,0-0.2,0C96.2,271.8,97,271.8,97.7,271.6z"/>
					<path class="st0" d="M150.2,284.2c-0.1,0-0.1,0-0.2-0.1l-0.4,0.4L150.2,284.2z"/>
					<path class="st0" d="M174.2,281.4c-0.3,0.1-0.5,0.2-0.7,0.4c0.2,0,0.5,0,0.9,0C174.2,281.6,174.2,281.5,174.2,281.4z"/>
					<path class="st0" d="M119,280.2c0.5-0.4,0.8-0.8,0.8-1C119.4,279.1,119,279.2,119,280.2z"/>
				</g>
			</g>
		</g>
	</g>
</g>
<g>
	<path d="M62,116.2c2.5,0.7,4.9,1,7.5,1.3c5.5,0.6,11.6,0.6,17.2,0.5c4.9-0.1,13.3-0.3,18-2.1c4.5-1.8,10.5-0.6,10,5.4
		c-0.4,5.5-6.7,5.9-11,3.8c-2.5-1.2-7.7-1.5-12.3-1.6c-0.1,3.4,0,7.3,0.3,10.7s-3.5,6-6.7,6c-2.7,0-4.4-0.9-4.2-3.6
		c0.2-3.9,0.3-8.6,0.3-12.7c-2.7,0.2-5.3,0.5-7.5,1c-3.4,0.9-5.5,1.8-7.4,1.8c-1.6,0-2.9-0.8-4-1.8c-1.8-1.4-3.1-2.9-4.2-4.3
		c-0.6-0.8-1.1-1.8-0.8-2.7c0.3-0.8,0.7-1.4,1.4-1.9C59.2,115.6,60.1,115.6,62,116.2z M105.8,107.4c0,3.7-3.1,6.6-6.5,6.6
		c-2,0-3.2-0.9-3.2-3.8v-0.6c-6.3,2-16,3.9-23.6,4.3c-1.5,0.1-2.1-0.1-3.1-0.9c-1.2-1.1-2.4-2.5-3.2-4.3c-0.5-0.9-0.3-1.8,0.3-2.6
		c1.2-1.6,1.3-7.5,0.8-9c-0.6-2.2-1.2-3.2-2.5-4.2c-1-0.8-0.9-1.8-0.4-2.7c0.4-0.7,1.1-1.8,2-2.9c0.5-0.6,1.2-0.9,2.3-0.5
		c1.8,0.6,3.4,1,5.1,1c4.9,0.2,16.3,0.1,20.3-1.9c1.1-0.5,1.8-0.8,2.9-0.8c0.6,0,1.6,0,2.7,0.5c2.3,1,4.1,1.9,6,3.4
		c0.8,0.6,1.2,1.3,1.2,2.4c0,1.2-0.4,2.1-0.7,3.1s-0.5,1.8-0.5,2.4V107.4z M76.8,105.6c5.1,0.1,14.2-0.3,19.2-1.1v-11
		c-2.8,0.1-16.5,0.6-19.2,1V105.6z"/>
	<path d="M131.6,95.7c-2.4,1.2-3.9,1.3-6.1,0.6c-2.4-0.8-4.4-2.2-6.2-4.2c-0.7-0.8-0.7-1.6-0.3-2.5c0.3-0.6,0.8-1.3,1.7-2.1
		c0.6-0.6,1.2-0.6,2.6-0.1c2,0.8,4,1,6.2,1c4.1-0.1,6.2-0.6,8.4-1.9c2.6-1.4,4-1.7,6.4-0.6c2.1,1,3.6,1.7,5.3,3
		c0.7,0.6,1.3,1.3,1,2.6c1.8,0.4,3.8,0.6,5.3,0.6c1.6,0,2.5-0.1,4-0.5c-0.3-2.8-1.8-4.4-4.7-5.5c-1-0.5-1.4-1.4-1.2-2.4
		c0.2-0.8,0.5-1.6,1-2.3c0.5-0.7,1-1,2.6-0.8c2.9,0.4,5.9,1.1,8.2,2.1c2.4,1.1,3.9,2.6,4.4,4.5s-0.3,4.2-0.3,6.2V106
		c0,3.4-2.8,5.7-6.3,5.7c-2.5,0-3.6-0.8-3.6-3.3v-0.5c-1.6,0.2-3.1,0.6-4.5,1.3c-1.2,0.6-2.1,0.6-3.1,0.3c-1.3-0.5-2.9-1.4-4.2-2.6
		c-0.6-0.6-0.9-1.2-0.9-1.9c0-0.8,0.3-1.8,0.6-2.7c0.3-0.6,0.7-0.8,1.4-0.6c2,0.5,4.4,0.9,6.1,0.9c1.6,0,2.9-0.1,4.5-0.5v-4.5
		c-1.5,0.2-2.7,0.6-4.1,1.2c-1.2,0.6-2.1,0.6-3.1,0.3c-1.3-0.5-2.8-1.3-4.1-2.5c-4.7,9.9-14.7,15.1-28.5,15.9
		c-2.1,0.1-2.5-2.3-0.6-2.9c9.3-2.9,16.9-8.6,19.6-15.6C136.6,93.9,133.8,94.6,131.6,95.7z M158.5,124.1l0.2-2.7l-13.7,0.4
		c-3.4,0.1-5.7,0.3-9,0.7c-2.9,0.4-5-0.6-7.9-4.4c-0.8-1.1-0.7-1.6-0.2-2.7c0.2-0.4,0.6-0.9,1-1.4c0.8-0.8,1.4-0.8,2.9-0.3
		c2.5,0.8,5.8,1.6,8.5,1.8c2.9,0.2,4.7,0.3,8.9,0.3c4,0,7.2-0.6,9.5-1.9c2.2-1.2,3.4-1.2,5.5-0.4c1.9,0.8,3.5,1.9,5.1,3.2
		c0.5,0.5,0.8,1.2,0.7,1.9c-0.5,3-1.5,6.9-3.4,9.6c-1.2,1.8-3,2.3-4.9,1.9c-3.1-0.6-4.9-0.3-7.8-0.3l-12.9,0.4v2.5h12.4
		c6.7,0,11.9-0.5,17.2-1.9c1.9-0.5,2.7,1.5,1.4,2.7c-4.4,4.2-11.2,5.9-17.1,5.9h-19.4c-2,0-3.1-0.5-4.1-1.6c-1-1-2.3-2.7-2.9-4.1
		c-0.5-1.2-0.4-1.8,0.4-2.8c1-1.2,0.9-2.7,0.1-4c-0.6-1-0.6-1.9,0-2.7c0.6-0.8,1.4-1.1,2.9-0.6c1,0.4,2.1,0.9,3.9,0.8L158.5,124.1z"
		/>
	<path d="M191.6,95.9c-2.3,1.4-3.9,1.5-6.1,0.8c-2.4-0.8-4.4-2.2-6.2-4.2c-0.7-0.8-0.7-1.6-0.3-2.5c0.3-0.6,0.8-1.3,1.7-2.1
		c0.6-0.6,1.2-0.6,2.6-0.1c2,0.8,4,1,6.2,1c3.2-0.1,4.7-0.8,6.9-2.1c2.6-1.4,4-1.7,6.4-0.6c2.1,1,3.6,1.7,5.3,3
		c0.8,0.6,1.3,1.4,0.8,2.9c-1.3,4.1-3.2,7.6-5.6,10.6c3.6,0.8,6.5,2.5,8.4,5.1c2.3,3.2,1,6.1-1.2,7.3c-2.3,1.3-5.8,0.8-6.8-2.9
		c-0.7-2.4-1.9-4.4-3.7-6c-5.2,4.8-12.1,8.1-20.5,10.1c-2.1,0.5-2.8-1.7-1.1-2.7c9.9-5.6,15.2-11.8,18.6-19.3
		C194.7,94,193.6,94.6,191.6,95.9z M219.9,136.2c-5.5,1.6-17.7,2.9-24.5,3.2c-1.5,0.1-2.1-0.1-3.1-0.8c-1.4-1-2.3-2.3-3.2-4
		c-0.5-0.9-0.2-1.8,0.3-2.6c1.1-1.8,1.2-3.1,0.6-5c-0.6-2.2-1-2.5-2.3-3.6c-1-0.8-0.9-1.8-0.4-2.7c0.4-0.7,1.1-1.8,2-2.9
		c0.5-0.6,1.2-0.9,2.3-0.5c1.8,0.6,3.4,1,5.1,1c4.9,0.2,16.6,0.1,21-1.6c1.2-0.5,1.8-0.8,2.9-0.8c0.6,0,1.6,0,2.7,0.5
		c2.3,1,4.1,1.9,6,3.4c0.8,0.6,1.2,1.3,1.2,2.4c0,1.2-0.4,2.1-0.7,3.1c-0.3,1-0.5,1.8-0.5,2.4v5.3c0,3.7-2.8,6.6-6.5,6.6
		c-2.3,0-3.1-1.4-3.1-3.1V136.2z M199.7,131.2c3.1,0.1,16.9-0.3,20.1-0.9v-6.1c-3-0.1-17.3,0.5-20.1,0.8V131.2z M230,108.6
		c0,3.4-2.7,5.7-6.3,5.7c-2.5,0-3.6-0.8-3.6-3.3v-8.2c-1.3,0.3-2.5,1-3.7,1.6c-1.2,0.6-2.1,0.6-3.1,0.3c-1.3-0.5-3-1.4-4.3-2.7
		c-0.6-0.6-0.9-1.2-0.9-1.9c0-1.2,0.4-2.5,1-3.8c0.3-0.6,0.7-0.8,1.4-0.6c2,0.5,4.4,0.9,6.1,0.9c1.3,0,2.3-0.1,3.5-0.3v-3.8
		c0-3.3-1.6-5.1-4.7-6.3c-1-0.5-1.4-1.4-1.2-2.4c0.2-0.8,0.5-1.6,1-2.3c0.5-0.7,1-1,2.6-0.8c2.9,0.4,5.9,1.1,8.2,2.1
		c2.4,1.1,3.9,2.6,4.4,4.5s-0.3,4.2-0.3,6.2V108.6z"/>
	<path d="M140,200.1c0,3.4-2.8,5.7-6.3,5.7c-2.5,0-3.6-0.8-3.6-3.3v-15.3c-4.4,1.2-10.2,2.3-15.6,3.4c-0.1,3,0,6.1,0.3,9.2
		c0.3,3.4-3.4,6-6.6,6c-2.7,0-4.4-0.9-4.2-3.6c0.1-3.1,0.3-6.2,0.3-9.3c-0.1,0.1-0.2,0.1-0.3,0.1c-2.6,0.6-5.3,2.3-7.9,1.9
		c-3.6-0.6-6.3-4-8-6.2c-0.8-1.1-0.9-1.8-0.8-2.7c0.1-0.9,0.5-1.6,1.2-2.1c0.6-0.5,1.4-0.5,2.5-0.1c4.6,1.8,8.8,1.9,15.3,1.2
		c5.8-0.6,15.3-1.8,23.6-3.6v-20.6c0-3.3-1.6-5.1-4.7-6.3c-1-0.5-1.4-1.4-1.2-2.4c0.2-0.8,0.5-1.6,1-2.3c0.5-0.7,1-1,2.6-0.8
		c2.9,0.4,5.9,1.1,8.2,2.1c2.4,1.1,3.9,2.6,4.4,4.5s-0.3,4.2-0.3,6.2V200.1z M124.7,167.9c0.6,5.6-3.7,12.9-16.2,12.9
		c-11.9,0-16.6-6.2-16.6-12.9c0-6.8,5.3-14,16.4-14.8c3.5-0.3,4.9,1.3,4.7,4.3C117.7,157.1,124,159.9,124.7,167.9z M108.6,174.5
		c3.7,0,7.2-1.9,7.2-6.9c0-4.9-3.5-6.9-7.2-6.9s-7.2,2.1-7.2,6.9C101.4,172.6,104.9,174.5,108.6,174.5z"/>
	<path d="M156.7,153.8c4,0.6,6.8,1.6,10.3,3.7c0.7,0.5,1,1.2,1,2.2c-0.1,2.7-0.5,5.3-1.2,7.8c4.9,1.7,8.6,5.3,9.2,10.4
		c0.3,3-1.4,4.8-4.1,5.1c-2.5,0.3-4.5-1.3-4.8-4.3c-0.3-3.1-0.8-5.2-2-7c-2.9,5.3-8.1,9.6-15.6,12.1c-1.6,0.6-2.5-1.2-1.2-2.4
		c6-5.2,8.6-11,9.1-17.8c0.2-3.2-0.5-3.7-2.6-4.5c-1-0.4-1.3-1-1.1-2c0.1-0.8,0.5-2,0.9-2.6C155,153.9,155.4,153.6,156.7,153.8z
		 M200,196c0.7,6.8-6.8,10.5-20.8,10.5s-21.2-3.8-21.2-10.9c0-7,7.9-11.1,21.2-11.1c3.7,0,5.5,1.2,5.1,4
		C190.2,187.4,199.4,190.1,200,196z M179.3,200.1c6.8,0,9.8-1.4,9.8-4.5c0-3.1-4-4.5-9.8-4.5c-6.8,0-9.8,1.4-9.8,4.5
		C169.5,198.7,172.5,200.1,179.3,200.1z M187.8,165.5c1.5,0.1,3,0.1,4.5,0v-6.2c0-3.2-1.6-5.1-4.7-6.3c-1-0.4-1.4-1.5-1.2-2.5
		c0.2-0.8,0.5-1.8,0.9-2.3c0.5-0.6,1-1,2.7-0.7c2.7,0.4,5.3,1,7.6,2.1c2.5,1.2,3.9,2.6,4.4,4.5c0.4,1.9-0.3,4.3-0.3,6.2v21.2
		c0,3.4-2.7,5.7-6.2,5.7c-2.5,0-3.1-0.8-3.1-3.3v-11.5c-1.5-0.1-3-0.1-4.5,0v4.5c0,3.4-2.7,5.7-6.2,5.7c-2.5,0-3.1-0.8-3.1-3.3
		v-17.2c0-3.2-1.6-5.1-4.7-6.3c-1-0.4-1.4-1.5-1.2-2.5c0.2-0.8,0.5-1.8,0.9-2.3c0.5-0.6,1-1,2.7-0.7c2.7,0.4,5.3,1,7.6,2.1
		c2.5,1.2,3.9,2.6,4.4,4.5c0.4,1.9-0.3,4.3-0.3,6.2V165.5z"/>
</g>
</svg>
