<?xml version="1.0" encoding="utf-8"?>
<!-- Generator: Adobe Illustrator 22.0.1, SVG Export Plug-In . SVG Version: 6.00 Build 0)  -->
<svg version="1.1" id="Layer_1" xmlns="http://www.w3.org/2000/svg" xmlns:xlink="http://www.w3.org/1999/xlink" x="0px" y="0px"
	 viewBox="0 0 287.4 287.3" style="enable-background:new 0 0 287.4 287.3;" xml:space="preserve">
<style type="text/css">
	.st0{fill:#DD3620;}
</style>
<g>
	<g>
		<g>
			<g>
				<g>
					<path class="st0" d="M247.2,234.9c0.1,0.2,0.2,0.3,0.4,0.5C247.5,235.2,247.3,235,247.2,234.9z"/>
					<path class="st0" d="M281.5,177.1l0.1,0.9C281.7,177.5,281.6,177.2,281.5,177.1z"/>
					<path class="st0" d="M215.8,259.1c0-0.1,0-0.1,0-0.2c-0.5,0.3-1.2,0.7-2.4,1.3C214.2,259.9,215,259.5,215.8,259.1z"/>
					<path class="st0" d="M243.1,39.9l0.7,0.6C243.5,40.3,243.4,40,243.1,39.9z"/>
					<path class="st0" d="M283.8,117.5c-0.3-0.2-0.5-0.6-0.7-1.1C283.1,117,283.3,117.5,283.8,117.5z"/>
					<path class="st0" d="M191.9,255.6c0.4,0.2,0.9,0.3,1.3,0.5C193,255.7,192.5,255.5,191.9,255.6z"/>
					<path class="st0" d="M157.7,268c0,0.1,0,0.1,0.1,0.2C157.8,268.1,157.8,268.1,157.7,268z"/>
					<path class="st0" d="M172.7,269.6c0.3-0.2,0.6-0.4,1-0.6C173.2,269.1,172.7,269.2,172.7,269.6z"/>
					<path class="st0" d="M174.1,268.6c-0.1,0.1-0.3,0.2-0.4,0.3C173.9,268.8,174.1,268.7,174.1,268.6z"/>
					<path class="st0" d="M139.6,284.7c1.2,0.1,2.3-0.6,3.3-1.2L139.6,284.7z"/>
					<path class="st0" d="M115.4,4.9l0.2-0.4C115.3,4.7,115.3,4.8,115.4,4.9z"/>
					<path class="st0" d="M141.3,276.5l0.8,0.2C141.8,276.5,141.6,276.5,141.3,276.5z"/>
					<path class="st0" d="M207.3,244.7c0.4-1.3,2.7-1.5,2.2-2.3C208.7,243.2,207.1,243.4,207.3,244.7z"/>
					<path class="st0" d="M102,46.2l-0.6,0.3C101.7,46.4,101.9,46.3,102,46.2z"/>
					<path class="st0" d="M141.3,276.5l-0.9-0.2c0.1,0.2,0.2,0.3,0.3,0.5C140.9,276.6,141.1,276.5,141.3,276.5z"/>
					<path class="st0" d="M10.7,94.9C10.7,94.9,10.7,94.8,10.7,94.9c0-0.2,0-0.3,0-0.4L10.7,94.9z"/>
					<path class="st0" d="M6.8,101.6c0.1-0.5,0.2-1.1,0.2-1.7C6.6,100.8,6.6,101.3,6.8,101.6z"/>
					<path class="st0" d="M142.9,283.5l1.9-0.7C144.1,282.9,143.5,283.2,142.9,283.5z"/>
					<path class="st0" d="M6.2,183.3c-0.1-0.2-0.2-0.5-0.3-0.7C6,183,6.1,183.2,6.2,183.3z"/>
					<path class="st0" d="M284.2,123.2c-0.1,0.2-0.1,0.4-0.1,0.7C284.3,123.9,284.5,123.8,284.2,123.2z"/>
					<path class="st0" d="M243.9,85.1L243.9,85.1L243.9,85.1C243.8,85.1,243.8,85.1,243.9,85.1z"/>
					<path class="st0" d="M246.1,86.5c-0.2-0.8-1.3-1.4-2.3-1.5C244.3,85.7,244.8,86.2,246.1,86.5z"/>
					<path class="st0" d="M241.4,80.5c0,0.1,0,0.2,0.1,0.3C241.5,80.6,241.5,80.5,241.4,80.5z"/>
					<path class="st0" d="M258,125.6C258,125.6,258.1,125.6,258,125.6C258.1,125.6,258.1,125.6,258,125.6L258,125.6z"/>
					<path class="st0" d="M255.8,116.4c0.1-0.2,0.2-0.5,0.2-0.7C255.9,115.8,255.8,116.1,255.8,116.4z"/>
					<path class="st0" d="M224,64.1C224,64.1,224,64.1,224,64.1C224,64,224,64,224,64.1C224,64,224,64.1,224,64.1z"/>
					<path class="st0" d="M143.1,39.9c1.1-0.1,2.1-0.2,3.3-0.3c1.1-0.1,2.3-0.2,3.5-0.3c0.6,0,1.2-0.1,1.8-0.1c0.6,0,1.2,0,1.8,0
						c1.2,0,2.4-0.1,3.7-0.1c1.2,0,2.4,0.1,3.7,0.1c0.6,0,1.2,0.1,1.8,0.1c0.6,0.1,1.2,0.1,1.8,0.2c1.2,0.2,2.3,0.3,3.4,0.5
						c1.1,0.2,2.2,0.5,3.2,0.8c2.3-1.5,4.9-0.8,7.7-0.4l-0.5,2.5l2.4-0.1c0.6,1-1.8-0.1-0.6,1.3l1.3-1.2c-0.1,0.5,1.3,1.1,2.1,1.6
						c0.8,0.6,1.1,1.1-1,1.3c2.7,1,5.4,2.1,8,3.3c1.7,0.9,2-1.5,3.6,0c0.1,0.9-0.9,0.1-1.2,1c1.2,1.2,2.3,1.6,3.5,1.8
						c1.1,0.2,2.2,0.1,3.3,0c1.1-0.1,2.2-0.3,3.4-0.1c1.1,0.2,2.3,0.7,3.4,1.7l-0.6,0c0.6,0,1.3,0.3,1.9,0.5c0.6,0.3,1,0.5,1.1,0.4
						c0.8-2.6-1.7,0.5-2.4-1.7c1.3-1.7,2.6,0.3,3.4-1.1c0.8,1.5,2.2,1,3.3,1.6c0.2,0.6,0.6,1.1,1.1,1.6c0.4,0.5,0.9,0.9,1.3,1.4
						c0.9,0.9,1.7,1.8,1.8,2.9c1.2,0.1,3.5-0.7,5.4,0.8c0.1,2.4-1.3,0.9-0.1,2.9l1.1-0.7c1.2,1.4,0.8,1.5,0.3,1.9
						c0.7,0.7,1.3,0.7,1.9,0.8c0.6,0.1,1.2,0.3,1.7,1.5l-1.8-0.1c1.6,1,2,1.7,3.6,3.6c-0.6,0.4-1.2-0.3-1.6-1
						c-0.4,2.3,2.2,1.1,2.6,1.9c0.1-0.3,0-0.8-0.1-1.2c0-0.5,0.1-0.9,0.8-1c0.7,1.1,3.1,0.9,2.6,2.6l-1.8-0.3c2.5,1.4,2.2,0,3.7,2.7
						c-0.2-0.1-0.4,0.2-0.6,0.3c2.4,0.5,2.9,3.4,4.4,5.8l-0.6-0.2c1,0.7,2.3,0.6,2.6,1.1c-0.4-1.8,0.2-1.6,1.1-2.4
						c-0.2,1.5,0.8,1.8,1.9,2.3c1.1,0.5,2.5,1.1,2.9,2.9c-0.6,0.3-1.9,0.1-1.7-1.2c-2.5,0.1-4,1-6-0.2c1.2,0.8,2.2,2,1.3,2.2
						l1.9-0.7c0.5,0.7,0.7,1.3,1.1,1.8c1.3-0.4,0.8-2.5,2.6-1.3c1.7,1.5-1.1,2-0.2,1.9c2.2,2.2,2.4,0,3.3,2.8
						c-0.3-0.2-0.9-0.5-0.8-0.8c0.4,2.1,2.7,4.3,0.9,5.9c-0.6,0-1.3,0.3-1.4-0.5l0.3-0.1c-2.5-1.2,1.3,1.4-1,1.8
						c1.1-0.7,2.1,1.9,2.4,3.2l1.2-1c5.7,2.1-2.7,1-0.5,4.6c1.9,2.1,0-1.1,1.6,0c0.4,1.8-0.5,2.9,1,5.1c-0.3,0.9-0.6,2.5-2.1,3.2
						c0.6,0.6,0.8,1.8,1,2.8c0.3,1.1,0.6,2,1.5,2.2c0.6-3-2.4-2-1.3-5.6l1.8,0.3c0.3,1.1,0.9,2.2,1.3,3.3c0.4,1.1,0.8,2.1,0.7,2.9
						c0.2-0.4,0.6-0.6,1-0.5c0.4,0.7,0.7,1.3,1.1,1.8c0.4,0.5,0.7,1,1,1.4c0.6,0.9,1.1,1.8,1.2,3.4c-1.3,0.7-1.5-1.1-1.9-2.4
						c-0.3,1.1-0.3,1.6,0,2.2c0.1,0.3,0.2,0.7,0.4,1.1c0.1,0.5,0.2,1,0.2,1.8c-1.2,0.4-0.3-2.1-1.6-2.1c0.4,1.1,0.7,2.2,1,3.2
						c-0.1,0-0.2,0-0.3,0c1.1,0.1,1.2,0.7,1.1,1.6c0,0.4-0.1,0.9-0.1,1.4c0,0.5,0,1,0.2,1.5c0.6,4.8,3.5,5.3,5.4,8
						c-0.5,0.8-1,1-1.6,0.8c0.9-1.3,0.1-1-0.5-1.4c0.2,0.8-0.3,1.8-0.9,2.4c-0.6,0.6-1.4,0.9-1.9,0.5c0.7,2.6,1.1-1,1.8,0.6
						l-0.1,3.6c1.1-0.4,1.3-1.8,2.2,0.2c0.4,1.6,0.1,2.4,0,4.5c-0.5-0.3-1.7,0.6-1.6-1c-0.4,1-0.5,2.6,0.5,3.2
						c0.5-1.1,0.8-0.2,1,0.9c0.2,1,0.6,2.2,1.5,1.4L264,156c0.1-0.5-0.7-0.6-0.4-1.4c-1.7,0.5,0.3,1.9,0.4,2.8
						c-0.4,0.8-0.8,2.9-1.5,3c0.4,0.8-0.2,2.5-1.1,2.7c0.2,1.1,1.1,0.2,1.6,0.6c-0.2,1.2-0.5,2.4-0.8,3.6c-0.9,0-3.5-0.1-3.7-0.7
						c0.6,1.5,2.6,1,2.1,3c-1.5-1.5-2,2.4-3.6,0.3c-0.8,0.4-1.3,1.4-1.7,2.6c-0.2,0.6-0.3,1.2-0.4,1.8c-0.1,0.6-0.2,1.1-0.2,1.6
						c1,1.5,1.3-1.7,2.7-1.2c-0.5,2.6,0.2,4.2,0.8,5.7c0.6,1.5,1,2.7,0,4.5l0.7-0.8c0,2.6-0.1,2.3,0.6,4.1c-0.7-0.6-2.1-0.4-3.4,0.5
						c-0.7,0.4-1.3,1-1.9,1.7c-0.3,0.4-0.5,0.7-0.8,1.2c-0.2,0.4-0.4,0.9-0.6,1.3c0.7,0.7,2.5-1.4,3.5-0.2l-0.9,2.6
						c-0.2,0.1-0.4-0.3-0.4-0.7c-0.2,1.2-1.2,2-1.9,2.7c-0.7,0.6-1.3,1.1-0.5,1.9c-1.2,0.3-2.3,0.7-3.4,1l1.4-0.3
						c0.6,0.7-0.3,3.2-0.4,3.9c-0.5,2.9-1.7,3.4-3.4,4.1c0.4,0,1.2,0,1.7,0.2c0.5,0.2,0.8,0.7,0.3,1.7c-2.5-1.6-3.4,3.3-4.6,2.4
						c-0.5,0.8-2.1,1.5-1.2,2.3l-1.4-1.2c1.9,1.6,0.1,4.2-1.2,6.4c-2.4-2.6-1.5,2.3-4.6,1.2c1.5,1.8-2.1,3.8-0.9,5.5
						c-1.2,1.5-2.7-0.1-3.5-0.3l0,1.2c-0.7,0-1.7,0.5-2.8,1.3c-1.1,0.7-2.2,1.5-3.2,1.9l0,2.8c-0.4-0.1-0.8-0.1-1.2-0.2
						c0.1,0.6-0.9,1.9,0.4,1.8l-0.9,0.6c1.4,1.7-0.7,1.4-1.7,3.6c-0.6,0-0.9-0.5-0.7-1c-0.8,0.6-1.2-0.5-2.1-0.8
						c0.5,0,0.4,1.4,0.5,2.6c0.1,1.3,0.4,2.4,1.9,1.9c0.7,0.6-0.2,2.2-1.3,2.5l-1.7-1.2c0.1,0.8,0.2,1.6,0.2,2.5
						c-1.2,1.2-2.5,0.6-3.8,1.2c1.1-0.9,0.2-4.9-2.6-2.9c1.3-1.3,1.4-2.7,1.9-3.6c-0.6,0.3-1,0.4-0.6-0.9c-1.8,2,0,1.5-2,3.3
						c-0.9-1.6-1.8-1.6-4.1-0.9l2.2,0.2c0.1,0.2,0,0.4,0,0.6c0.7-0.2,1,0,1.5,0.4c-0.4,0.3-1.4,3.5-2.3,2.9c1.9,0.5,1.2,1.5,0.3,2.6
						c-0.9,1.1-2,2-0.8,2.3c0,0.6-1.6,1.7-2.3,1c1.3-2.3-2.5-0.9-2.8-2.2c-0.5,0.9,2.2,0.3,1.5,1.4c-1.1,0.8-2.5,0.3-3.4,0.1
						l0.3-0.6l-2.2,0.2c0.1,1,2.5,0.4,1,1.7c-0.6-0.1-2.1,1.2-2.4,0.5c0.3-1.5-1.1-2.7,0.2-3.7c-0.6,0.3-1.7,1.1-2.5,1.8
						c-0.8,0.7-1.2,1.4,0,1.8l-1.5,0.6c1.2,0.3,4.4,0.4,1.5,1.9l-0.1-0.3l-1.5,2.2l-1.3-0.4c0.2,0.4,0.1,1-0.8,1.2
						c-0.4-0.4-1.2-0.3-1.4-1c-2.2,1-1.7,1.8-1.8,2.4c-1.2,0.6-1.8,0.5-1.6-0.8c-1.8,0.4-4.8,1.6-6.3,1.1c-2.1,1.4,0.6,0.2-0.4,1.8
						c-1.5-1.2-3.5-0.9-5.7-0.2c-1.1,0.3-2.2,0.8-3.3,1.2c-0.5,0.2-1.1,0.4-1.6,0.7c-0.5,0.2-1,0.3-1.5,0.5c1.6,2.5-1,0.5-1.3,3.1
						c0.7-1-4.2-1.4-0.8-2.8l-2.1,0.7c-1.7-1.2,3.3-1.7,0.8-3.4c-1.2,0.3-2,1.2-3,1.9c-0.9,0.8-2,1.4-3.5,1.1c0.4-1-0.2-0.8-0.7-0.6
						c-0.6,0.2-1.2,0.3-0.9-0.8c0.5-0.7,1.3-0.6,2.1-0.9l-0.5-0.3c-5.2-0.1-1.3,2.4-3.9,4c-3.2,0.5-2.6-1.3-2.9-2.3
						c-0.5-0.4-2.1,0-2.9,0.5c1.9-1.2,3.7,1.1,2.8,2.4c-1.5-2.2-4.8-0.1-5.7,0.8c2.3,1.1,3.2,1.1,4,1.2c0.4,0,0.8,0,1.3,0.2
						c0.6,0.2,1.3,0.5,2.5,1c0.6-0.7,0.3-2.7,3-2.1c-1.6,1.1,0.2,1.1,0.7,1.4c-0.3-0.6,0.1-0.7,0.8-0.8c0.6-0.1,1.4-0.2,1.8-0.4
						c0.9,0.8-1.3,2.8,1.5,3l0.2-2.7c1.1,0.3-0.2,2,2,1.1c-1,1.6,0.7,2.1-2.4,2.9c2,0.9,3.4,0.5,4.6-0.5c1.2-0.9,2.2-2.3,3.5-3
						c-0.3,0.2-0.2,0.6-0.5,0.8c0.5-0.8,1.6-0.9,2.4-1.3c2,0.2-1.2,1.5-0.6,2.1c1-0.2,2-0.5,3-0.7c0.1,0.1,0.1,0.1,0.1,0.2
						c0.7-0.5,1.4-1,1.9-0.4c-0.7,1.1-0.9,2-1.3,2.8l2.8-2.6c-0.1,1,3,0.8,0.9,2l4.7-1.7l0.9,1.6c1.1-0.6,1-1-0.5-0.8
						c0.9,0,2.4-1.4,3.8-2.3c1.3-0.9,2.5-1.3,2.7,0.6c1.6-1.3,2.7-2.1,4-2.7c0.6-0.3,1.3-0.7,2.1-1.1c0.7-0.4,1.6-1,2.5-1.7
						c-2.6,3,4.7,0.2,1.5,2.5c2.4-0.2,2-2.2,3.5-3.3c1.8-0.1,2,1.9,0.6,3.3l1.6-1.7l0.1,0.3l1.2-1.8c2.2-0.1,1.2,1.5,3.2,0.7
						l-0.4-1.6l1.7,0.1c-0.8-0.4,0.1-1.3,1.3-2.1l0.2,0.3c0.5-0.4,0.9-0.8,1.4-1.2c-0.5,0.9-0.1,0.7,0.4,0.6
						c0.5-0.2,1.1-0.4,1.1,0.3c1.4-0.8,1.4-0.8,3.6-2.6l-1-0.7c1.3-1.4,1.5-1.1,1.8-0.6c0.3,0.5,0.5,1.1,1.8,0.3l-0.9-0.9
						c2.3-0.4,3.7-1.6,4.8-3c1.1-1.4,2-2.7,3.6-3.1c-1.2,1.3,0,2.2-0.2,1.9c0.5-0.5,1.1-1,1.7-1.6c0.6-0.6,1.3-1.2,1.9-1.9
						c1.3-1.3,2.5-2.7,2.9-4.3c2,0.6,2.6,0.9,5.3-0.6c1.5-1.6,1.5-2,1.2-3.2c1-0.5,1.9-1.6,2.8-2.5c0.8-0.9,1.5-1.6,2.1-1.2
						c-0.5-1.1,1.4-1.3,1.4-2.7l0.6,0.2l-1.1-0.7c2.3-0.4,2.9-2,3.5-3.5c0.6-1.5,1.2-3,3.2-3.8l-0.1,0.7l0.5-1.6
						c0.6,0.1,0.5,0.8,1.1,1.3l2.2-2.9c0.7-1,1.4-2,2.1-3l-1.6,0.7c0.7-1.4,0.2-2.9,1.8-3.9c0,1.7,0.4,1.2,0.9,0.3
						c0.5-0.9,1.1-2.2,1.9-2l-0.4,1.6c1-1.9,1-1.9-0.2-2.4c1-2.6,3.1-0.4,3.1-3.4c-0.3,0.5-0.6,1.1-0.9,1.6
						c-0.9,0.1-1.2-1.5-0.6-2.6c0.3-0.2,1.2-0.7,0.9,0.2c0.6-2.2,2.7-4.8,2.6-5.9c0.8-0.9,1.5-0.2,1.5,0.6c0.5-2.4,0.7-2.8,1-3.3
						c0.3-0.5,0.6-0.9,0.9-3.3l0.6,0.3l-0.2-1.8l2.3-1.6l-1.2,0.4c0.2-0.7,0.3-1.4,0.5-2c0.1-0.7,0.3-1.3,0.8-2.1l0.8,1
						c0.4-2.2,1.3-3.2,2-4.3c0.7-1.1,1.2-2.2,1.1-4.4c0.3-0.2,0.4,0.5,0.5,0.9c-0.3-2.1,0.4-2.7,1-3.3c0.6-0.6,1.1-1.3,0.6-3.4
						c0.3,0.3,0.8,0,1.1,0.2l-0.3-1.9l1.4,0.4l-1.8-1.9c0.6-0.3,1.1-0.5,1.7-0.8l-0.6-0.8c1.5-0.7,1.9-1.8,2.2-3
						c0.2-0.6,0.3-1.2,0.5-1.9c0.2-0.6,0.6-1.3,1.2-1.8l-1.9,0.2c-0.7-1.8-0.8-3.6-0.6-5.4c0.2-1.8,0.6-3.7,1.2-5.7
						c0.6-1.9,1-3.9,1.3-6c0.1-1,0.3-2,0.2-3c0-1-0.2-2-0.4-3l1.4,0.1l-1.8-3.3c1.1-1.8,1.3,1,2,0.4c-0.4-1.8-1-2.1-1.5-2.5
						c-0.5-0.4-1-0.9-1.4-2.9c0.8-2.2,1.1,0.6,1.7,1.6c-0.9-3.8-2.4-9.4-2.1-12.2c-0.2,0-0.5-0.2-0.5,0c-1.1-2.4-1-5.9-1.8-8.6
						c0.7-0.1,0.9,0.6,1.2,1.2c-0.1-1,0-2.5-0.9-3.2l1.5,0.8c-0.1-1.1-0.7-2.6-1.1-4c-0.4-1.3-0.7-2.5,0-2.9c-0.5,0.4-1.5,0.6-2-1.2
						c1.9-1.7-2.4-4.6-2.3-7.9c0.6,0.2,1.4,2.2,1.3,1.6c0.1-1.6-1.4-2.6-2.5-3.6l1,0.1l-1.9-3.1c-0.6-1-1.2-2-1.9-3
						c1.6-1.9-3-5.9-1.4-6.2c-1.1-2.3,0.1,2.3-1.6-0.4c0.4-1.2-1.7-2.4-0.4-2.9l0.3,0.2l-1.1-1.9l1.9,0.6c-1.1-1.6-3.1-2.1-4.1-1.7
						c-0.2-2-2-3.9-1.4-5.2c0.2,0.1,0.4,0.3,0.6,0.4c-1.6-2-1.9-4.3-2.4-6.4c-0.5-2.1-1.2-3.9-3.4-4.9c0-0.4,0.3-0.5,0.7,0
						c-0.6-0.9-1.2-1.8-1.9-2.6l1.3,0l-4.6-3.2l0.6-0.4c-1-1.5-2.5-3.1-4.1-4.9c-1.6-1.8-3.5-3.4-5.1-5l0.7,0.3
						c-2.1-1.4-2.9-2.3-3.5-3.2c-0.6-0.9-1.1-1.6-2.6-2.6c0.2-0.1,0.4,0,0.5,0c-0.8-0.7-1.6-1.4-2.5-2.1l1-0.1c-1.4-0.2-2.4-1.7-3-3
						c-0.6-1.2-0.9-2.1-0.7-1.1c-1.5-0.3-3.9-1.1-4.7-0.7c-2.8-2.1-0.1-1.3-1.5-3.1c-2.1-1.6-3.1-0.8-5.6-3.3l0.5-0.6
						c-1.5-0.8-2.6-0.9-4.6-2l0.8,0.1c-1-0.2-1.6-0.5-2.2-1c-0.5-0.4-0.9-0.9-1.3-1.3c-0.7-0.8-1.5-1.4-3.6-0.7
						c-1-1.3-3.9-2.2-3.1-3.5c-2.3-0.6-4.3-1.3-6.3-1.8c-1-0.3-2-0.6-3-0.9c-1-0.3-2-0.6-3.2-0.9c0.2-2.5-1-0.2-3.1-2.5l-0.3,1.3
						c-1.5-0.6-3-1.3-4.6-2.1c-1.5-0.8-3.1-1.8-4.7-2.6c-1.6-0.8-3.3-1.7-5-2.4c-1.7-0.7-3.5-1.2-5.3-1.4l0.1-1.3l-1.7,1
						c-3.8-1-8.1-2.1-12.4-2.8c-2.1-0.4-4.2-0.6-6.1-0.8C155.3,0.2,153.5,0,152,0c-1,0.3-2.3,0.8-3.8,1.2c-0.7,0.2-1.5,0.3-2.2,0.4
						c-0.8,0.1-1.6,0.1-2.4,0l0.3-0.2c-2.8,0.4-5.6,0.8-8.5,1.2C134,2.9,132.5,3,131,3.1c-1.5,0.1-3,0.2-4.5,0.2
						c0.3-0.6-0.3-0.9,0.3-1.3c-0.6,0.8-1.5,0.9-2.4,0.9c-0.9,0-1.8-0.2-2.4-0.1l1.7,0.7c-1.5,1.5-4.1,0.8-5.2,0
						c-0.8,0.6-1.6,1.2-2.4,1.9c-0.2-0.1-0.5-0.2-0.6-0.4l-0.3,0.8l-1.8-1.3c-0.6,0.5-4.1,1.7-4.7,3.6c-0.4-0.5-3-0.2-1.2-1
						c-1.6,0.4-3.3,0.7-4.9,1.2l-4.8,1.4l1.7,0.1c0.6,1.2-2,2.8-3.6,2.9c1.5-1.7-0.5-1.8-1.6-2.3c-1,1.1,1.5,0.6,1.1,1.5
						c-1.3,1.4-4.4,3.1-5.5,3c0.2-0.3,0.5-0.6,0.7-0.9c-1.9,1.4-3.8-0.2-5.8,0.8c-1.5,1.8-3.2,1.7-1.8,3.4c-2.4,1.7-1.7-0.8-2.6-0.6
						c-0.4,0.8-1.6,1.5-2.8,1.9c-1.2,0.5-2.4,0.7-2.9,0.3c0.1,1.8-1.8,2.5-3.6,3.2c-1.8,0.7-3.5,1.3-3,2.6l-2.9,0
						c0.3,0.6,0.9,2.3-0.6,3.6c-2,0.4-2.3-0.8-3.2-1.1l0.6,2.9c-1.3,0.5-2.5,1.1-3.8,1.8c-1.3,0.7-2.5,1.5-3.8,2.3
						c-2.4,1.8-4.9,3.7-7.3,5.9c-4.8,4.2-9.2,9-13.9,12.8c-1.4,2.3-3,4.8-4.5,7.6c-0.8,1.4-1.6,2.7-2.4,4c-0.8,1.4-1.6,2.7-2.5,3.9
						l0.1-0.8c-0.6,0.8-1.3,1.6-1.9,2.4l-1.9,2.5c1.1-1.1,2.2-2.2,3.3-3.2c-0.5,1.3-0.5,2.5-1.2,3.5c-1.1,1.3-2.3,2.7-3.4,4.3
						c-1.1,1.6-2.2,3.3-3.3,5c-1,1.8-1.9,3.7-2.8,5.7c-0.8,2-1.4,4-1.8,6.1c0.2,1.5,0.1,2.4-0.1,3c-0.3,0.6-0.8,0.9-1.3,1.2
						c-1,0.6-2.2,1.1-1.9,3.9c-0.1-0.5-0.5-0.8-0.7-1.3c-0.4,2.8-0.5,5-0.6,7.2c-0.1,2.2,0,4.4,0.3,7.3c-1.4-0.6-1.6,0.2-1.6,1.2
						c0,0.9,0.2,1.9-0.5,1.5l1.1,0.7c-1,1.1-1.7,3.9-2.5,3.3c0.4,0.9,0.8,1.8,1.2,2.6l-1.3,0c-0.2,1.6-0.4,4.1-0.7,6.5
						c-0.3,2.3-0.8,4.5-2.2,5.2c0.7,4.1,0.9,9.3,1.2,14.7c0,1.4,0.1,2.7,0.2,4.1c0.1,1.4,0.1,2.8,0.2,4.1c0.2,2.7,0.4,5.4,0.6,7.9
						c1.3,1.2,1.9,4.1,2.4,6.3c-0.4,0.9-0.7,1.8-1,2.7c0.5,1.1,1.3,2.1,2,3.2c0.3,0.5,0.6,1.1,0.8,1.6c0.2,0.5,0.3,1.1,0.2,1.7
						c-0.2,0-0.3,0-0.4-0.1c1,2.2,0.7,4.6,2.8,6.3c0.7,2.5,0.8,5.1-0.8,4.8c1.2-0.3,1.6,1,1.7,2.4c0.1,1.4-0.1,2.9-0.1,2.9
						s0.2,0.5,0.5,1.4c0.2,0.5,0.4,1.1,0.6,1.7c0.3,0.7,0.6,1.5,0.9,2.3c0.7,1.7,1.5,3.9,2.7,6.3c0.6,1.2,1.2,2.5,1.8,3.8
						c0.7,1.3,1.4,2.7,2.2,4.2c3.2,5.8,7.3,12.5,12.6,19.2c5.3,6.7,11.7,13.5,19,19.7c7.3,6.2,15.5,11.7,24,16.1
						c8.5,4.4,17.3,7.7,25.7,9.8c8.4,2.1,16.3,3,23.1,2.9c1.7,0,3.3-0.1,4.9-0.2c1.5-0.1,3-0.2,4.4-0.5c2.8-0.5,5.2-1.1,7.1-1.8
						c1.1-1.2,4-1.9,2.9-3.5c2.2-0.4,3.2,1.8,3.6,0.6c-3-0.9,0.9-3.2-1.9-4.8l1.8-0.3c0.4-0.9-2.5,0.9-2-0.7l-0.6,2.3
						c-1.5-0.4-2.3-0.9-2.7-1.7c-1.4,0.9-2.5,4-5.7,2.3l0.9-0.1c-2.7-0.1-1.5-1.6-2.1-2.1l0.6,0.1c-0.7-0.5-1.4-0.9-2.1-1.4
						c1.6,1,4.6-0.8,3.1-0.7c-3.1-0.9,0.8,0.6-1.6,0.7c-1.5,0-0.9-1.2-0.8-1.9l-2.6-0.2c0.2-1.1,1.7,0.3,0.8-1l-3.4,0.7
						c-0.2-2.7-3.8,0.7-4.8-2.1c2.4-0.2,0-0.9,0.5-1.8l-2.8-0.4l-2.8-0.6c-0.4-0.5,1.6-0.5,0.8-0.5c-0.9-1-1.9,0.3-2.4,0.1
						c-0.3-0.8-4.1-1-3.5-2.8c-1.7-1.1-2.2-0.7-2.7-0.2c-0.5,0.5-1,1-2.6-0.1c-0.1-1.2,2.8,0.6,1.6-0.9l-3.6-0.8
						c0.5-0.4,1.3-1.5,2.5-0.8c-1.1-0.6-2.1-1.2-3.1-1.8c-0.9-0.6-1.8-1.4-2.6-2.1c-1.6-1.4-3-2.8-4.3-4.2c-1.3-1.4-2.7-2.6-4.1-3.8
						c-1.5-1.2-3.1-2-5.2-2.8c-0.4-1.7,1.2-0.3,2.3-0.7c-3.1-0.8-4.6-2.4-5.8-4.3c-0.6-0.9-1.1-1.9-1.8-2.8
						c-0.7-0.9-1.4-1.8-2.5-2.5l-0.7,0.8c-0.5-0.9-1-1.6-1.6-2.4c-0.6-0.8-1.2-1.5-1.8-2.2c-0.6-0.7-1.4-1.4-2.1-2.1
						c-0.7-0.7-1.4-1.4-2.1-2c-2.9-2.7-5.9-5.5-8.1-8.8l0.1,1.2c-1.5-0.1-2.8-1.3-4-2c0.3-0.5,2.4-0.8,0.5-2.2
						c0,0.6,0.3,1.6-0.2,1.7c-1.2-3.5-4-8-6.9-13c-2.9-5-5.8-10.6-7.4-15.9c-3.4-6.6-5.6-14.1-6.8-21.6c-1.3-7.6-1.7-15.1-2.1-22.4
						c0.1,2.2-2.6,1.3-2-0.4c2.3-2.3,2.2-4.2,1.9-6.2c-0.1-1-0.3-2-0.2-3.1c0.1-1,0.4-2.1,1.3-3.2c-0.1-2.1,0.1-4.2,0.6-6.1
						c0.2-1,0.5-1.9,0.8-2.9c0.3-1,0.6-1.9,0.9-2.8c0.3-0.9,0.6-1.8,0.8-2.8c0.3-0.9,0.6-1.8,0.8-2.8c0.2-0.9,0.3-1.9,0.4-2.9
						c0.1-1,0.1-2,0-3.1l1.3,0.3c0.9-0.9,0.2-1.5,0.5-2.7l0.3,0.2c0.8-1.3,1.1-2.8,1.5-4.2c0.4-1.4,0.8-2.6,1.4-3.3l-1.3-0.7
						c0.6-1.6,1.3-0.4,1.4-2.3l0.6,0.4l-0.3-2.5c1.1,0.7,1.7-0.4,2.2-1.7c0.6-1.3,1.2-2.8,2-3.1c0.7-2.1,2.1-6.4,4.6-8.8
						c1.4,0.2,3.9-3.1,6.1-4.7c3-4.2,7.8-9.8,13.2-13.6l-1.1-1.2c0.4-0.4,0.8-0.8,1.3-1.2c0.2,0.3,0.5,0.3,0.4,0.6
						c2.2,0.6,2.8-2.9,4.6-2.8c-1.6-0.7-1.1,0.6-1.9,1.1c-1.6,0.3-1.5-1.8,0.5-2.4l0.2,0.3l0.6-1.5c0.9,0.9,2.2,0.7,3,1.7
						c1.1-0.9,2-1.8,3-2.6c0.9-0.9,1.8-1.8,2.6-2.6c1.8-1.6,3.7-3.3,6.5-4.3c0.1,1.5,3.6-2.2,3.6,0.5c2.8-2.3-1.4-1.6-0.7-3.8
						c0.9-0.4,1.6-1.4,2.1-0.7c-0.2,0.7,1.3,1.1,0.7,1.6c0.7-0.4,1.4-0.8,2.1-1.1c0.3,0.1-0.1,0.6-0.2,0.8c1-0.8,2-1.2,3-1.6
						c1-0.3,2.1-0.6,3.1-0.7c2.1-0.3,4-0.6,5.9-1.8c0.1-0.9-1.7,0.2-1.7-0.7c3.7-2.9,4.1,0.4,7.7-1.7l-0.5,1.4
						c1.1-1.1,1.4-2.3,3.7-1.8c0.3,0.7-0.1,1.1-0.6,1.4c-0.6,0.3-1.3,0.6-1.7,1.1c1.4-0.3,4.9-1.3,3.6-2.4c1.6-0.8,2.5,0.4,3.5,0.6
						c0-0.4-1.8-0.7-0.9-1.5c1.2,0.2,2.8,0.3,4.4,0.1c1.6-0.1,3.2-0.2,4.7-0.2c0,0.4,0.2,0.9,0,1.1C140,37.1,140,40.3,143.1,39.9z"
						/>
					<path class="st0" d="M258,126.9l0-1.3c-0.3,0.1-0.7,0.1-1.1-0.4L258,126.9z"/>
					<path class="st0" d="M235,73.8c-0.2,0-0.4-0.1-0.6-0.1C234.6,73.9,234.8,73.8,235,73.8z"/>
					<path class="st0" d="M223.5,65.1c0.9,0.5,0.6-0.4,0.5-1C223.7,64.3,223.5,64.5,223.5,65.1z"/>
					<path class="st0" d="M262.6,160.3c-0.1-0.2-0.3-0.4-0.6-0.4C262.2,160.2,262.4,160.3,262.6,160.3z"/>
					<path class="st0" d="M215.9,238.9c0.1,0,0.2,0,0.4-0.1C216.2,238.8,216.1,238.9,215.9,238.9z"/>
					<path class="st0" d="M221.4,237.5c0.2-0.2,0.4-0.4,0.7-0.9C221.7,236.9,221.5,237.2,221.4,237.5z"/>
					<path class="st0" d="M262.6,137.5c-0.1-0.3-0.2-0.7-0.5-0.9C262.2,137,262.4,137.3,262.6,137.5z"/>
					<path class="st0" d="M222.7,235.7l1.1-0.8c-0.1-0.1-0.1-0.1-0.2-0.2L222.7,235.7z"/>
					<path class="st0" d="M214.5,239.7c0.4-0.3,1-0.6,1.4-0.8C215.1,239,214.7,239.3,214.5,239.7z"/>
					<path class="st0" d="M255.1,194.3c0,0,0-0.1,0-0.1C255,192.9,254.9,193.6,255.1,194.3z"/>
					<path class="st0" d="M225.3,230c0.1,0,0.1-0.1,0.2-0.1l0-0.6L225.3,230z"/>
					<path class="st0" d="M209.5,242.5c0.2-0.2,0.3-0.3,0.4-0.6c-0.2,0.1-0.4,0.1-0.7,0.3C209.4,242.3,209.5,242.4,209.5,242.5z"/>
					<path class="st0" d="M243.5,210.6c0.2,0.6,0.5,0.9,0.7,1.1C244.5,211.3,244.4,211,243.5,210.6z"/>
				</g>
			</g>
		</g>
	</g>
</g>
<g>
	<path d="M89.7,108.5c0,3.7-2.8,6.6-6.5,6.6c-2.3,0-3.1-1.4-3.1-3.1v-0.3c-3.6,1.2-9.1,2.2-13.8,2.7c-1.5,0.2-2,0.1-3.1-0.7
		c-1.4-1-2.3-2.3-3.2-4c-0.5-0.9-0.3-1.8,0.3-2.6c0.9-1.2,1.2-2.1,1.3-3.4c0.1-1.3-0.1-4.3-0.5-5.8c-0.6-2.2-1.2-3.2-2.5-4.2
		c-1-0.8-0.9-1.8-0.4-2.7c0.4-0.7,1.1-1.8,2-2.9c0.5-0.6,1.2-0.9,2.3-0.5c1.8,0.6,3.4,0.9,5.1,0.9c3.6,0,7.6-0.9,10.2-2.2
		c1.1-0.5,1.8-0.8,2.9-0.8c0.6,0,1.6,0,2.7,0.5c2.3,1,4.1,1.9,6,3.4c0.8,0.6,1.2,1.3,1.2,2.4c0,1.2-0.4,2.1-0.7,3.1
		c-0.3,1-0.5,1.8-0.5,2.4V108.5z M83.2,116.8c3.7,0.9,7,2.3,10.1,4.5c0.6,0.5,1,1.3,0.6,2.1c-0.7,1.6-1.6,2.9-2.6,4.2
		c4.5-0.5,8.7-0.3,12.7,0.7c3.6,0.9,6,4,4.7,7.4c-1.4,3.9-6.1,4.5-9.3,1.6c-3.2-2.9-7.6-4.5-12.3-5.4c-5.8,4.5-14,7-24.2,7.1
		c-1.9,0-2.2-2.1-0.3-2.7c9-3,14.9-7,19-12c0.6-0.8,0.2-1.8-0.9-2.3c-1.2-0.6-1.4-1.3-1.2-2.3c0.2-0.7,0.5-1.6,1-2.2
		C81.3,116.7,81.8,116.5,83.2,116.8z M70.7,106.6c3.1,0.1,6.2,0,9.4-0.6V93.6c-2.8,0.1-6.7,0.6-9.4,1V106.6z M105.7,99.9
		c0.5-0.3,1.1-0.6,1.7-1c0.8-0.6,2.3-1.2,3.2-1.2c3.2,0,5.3,1.8,5.3,4.8c0,3.4-1.6,5.3-4.9,5.3c-1.6,0-2.9-0.6-4.3-1.8
		c-0.3-0.3-0.6-0.5-0.9-0.6v9.7c0,3.4-2.7,5.7-6.3,5.7c-2.5,0-3.6-0.8-3.6-3.3V92.5c0-3.3-1.6-5.1-4.7-6.3c-1-0.5-1.4-1.4-1.2-2.4
		c0.2-0.8,0.5-1.6,1-2.3c0.5-0.7,1-1,2.6-0.8c2.9,0.4,5.9,1.1,8.2,2.1c2.4,1.1,3.9,2.6,4.4,4.5s-0.3,4.2-0.3,6.2V99.9z"/>
	<path d="M152.5,100.1c0.6,5.8-4,13.1-15.8,13.1c-11.8,0-16.3-6.4-16.3-13.2s4.8-14.2,16.1-15.1c3.6-0.3,4.9,1.3,4.7,4.3
		C145.8,89.1,151.7,92.3,152.5,100.1z M132.8,115.7c3.5,0.6,6.2,1.4,9.3,3.2c0.7,0.4,1,1,1,1.9c-0.1,2-0.4,3.8-0.9,5.5
		c3.7,1.2,6.8,3.1,8.2,6.1c2.2-2.8,3.6-5.6,4.2-8.2c0.6-2.6,0.1-3.1-2.1-3.8c-1-0.3-1.3-0.9-1.1-1.8c0.1-0.7,0.5-1.8,0.9-2.2
		c0.4-0.6,0.8-0.9,2.1-0.6c3.5,0.6,6.2,1.4,9.3,3.2c0.7,0.4,1,1,1,1.9c-0.1,2-0.4,3.8-0.9,5.5c4.2,1.4,7.6,3.7,8.6,7.9
		c0.5,2.3-0.8,4.8-4,5.3c-2.5,0.3-4.7-1.6-4.9-3.8c-0.2-2-0.6-3.8-1.6-5.3c-3.1,4.7-8.2,7.5-14.7,9c-2.5,0.5-4.9-1.5-5.1-3.7
		c-0.3-2.1-0.6-3.9-1.7-5.4c-2.9,4.5-8,7.5-15.1,9.1c-1.7,0.4-2.5-1.4-1.2-2.4c5-4,8-8.8,8.9-12.9c0.6-2.6,0.1-3.1-2.1-3.8
		c-1-0.3-1.3-0.9-1.1-1.8c0.1-0.7,0.5-1.8,0.9-2.2C131,115.7,131.5,115.4,132.8,115.7z M129.8,99.9c0,4.9,3.3,7.1,6.9,7.1
		s6.9-2.2,6.9-7.1c0-4.8-3.3-7.2-6.9-7.2S129.8,95.1,129.8,99.9z M170,110.1c0,3.4-2.7,5.7-6.3,5.7c-2.5,0-3.6-0.8-3.6-3.3V92.5
		c0-3.3-1.6-5.1-4.7-6.3c-1-0.5-1.4-1.4-1.2-2.4c0.2-0.8,0.5-1.6,1-2.3c0.5-0.7,1-1,2.6-0.8c2.9,0.4,5.9,1.1,8.2,2.1
		c2.4,1.1,3.9,2.6,4.4,4.5s-0.3,4.2-0.3,6.2V110.1z"/>
	<path d="M182,108c2.5,0.7,4.9,1,7.5,1.3c5.5,0.6,11.6,0.6,17.2,0.5c4.9-0.1,13.3-0.3,18-2.1c4.5-1.8,10.5-0.6,10,5.4
		c-0.4,5.5-6.7,5.9-11,3.8c-3.2-1.6-11.5-1.7-16.5-1.5c-4.7,0.2-9.8,0.3-13.6,1.4c-3.4,0.9-5.5,1.8-7.4,1.8c-1.6,0-2.9-0.8-4-1.8
		c-1.8-1.4-3.1-2.9-4.2-4.3c-0.6-0.8-1.1-1.8-0.8-2.7c0.3-0.8,0.7-1.4,1.4-1.9C179.1,107.4,180.1,107.4,182,108z M187.2,128.8
		c0-1.7-0.5-2.4-2-3.2c-1.2-0.6-1.4-1.3-1-2.3c0.3-0.8,0.6-1.4,1-2c0.6-0.8,1.2-0.9,2.9-0.6c2.7,0.5,5.9,1.5,7.9,2.6
		c1.6,0.8,2.1,1.8,2.1,4.2v4h12.3c7,0,12.3-0.6,17.7-2.9c1.4-0.6,2.7,0.8,1.7,2.3c-4.1,6.2-9.4,8.3-17.2,8.3h-20.5
		c-1.7,0-2.7-0.3-3.7-1.4c-0.6-0.6-1.7-2.1-2.2-3.2c-0.5-0.9-0.4-1.7,0.1-2.4c0.6-0.8,0.9-1.6,0.9-2.9V128.8z M187.8,92.1
		c0-1.7-0.6-2.4-2.1-3.2c-1.2-0.6-1.4-1.3-1-2.3c0.3-0.8,0.6-1.4,1-2c0.6-0.8,1.2-0.9,2.9-0.6c2.7,0.5,5.7,1.5,7.7,2.6
		c1.6,0.8,2.1,1.8,2.1,4.2v8.1h6.5c8,0,12.9-0.2,20.1-1.5c1.9-0.3,2.6,1.7,1.1,2.8c-6.1,4.5-13.2,5.9-21.2,5.9h-12.3
		c-1.7,0-2.7-0.3-3.7-1.4c-0.6-0.6-1.7-2-2.2-3.1c-0.5-0.9-0.4-1.7,0.1-2.4c0.6-0.8,1-1.6,1-2.9V92.1z"/>
	<path d="M101.5,169c3.4,0.1,7.6,0,11.2-0.1v-5.1c0-1.7-0.6-2.8-2.5-3.7c-1.1-0.6-1.2-1.1-1-1.9s0.5-1.5,0.9-2.3
		c0.4-0.6,0.8-0.9,2.1-0.6c2.9,0.5,5.8,1.5,8.4,2.7c1.4,0.6,1.8,1.9,1.6,3.9c-0.5,6.9-0.4,21.1-0.1,28c0.1,3.2-2.3,6.2-6.5,6.2
		c-1.8,0-2.9-0.8-2.9-3.2v-1.4c-4.2,2.5-9.3,4-15.5,5.1c-1.5,0.3-2.1,0.2-3.1-0.6c-1.2-1.1-2.7-2.8-3.5-4.5
		c-0.5-0.9-0.3-1.8,0.3-2.6c0.9-1.2,1.3-2.4,1.4-4.6c0.3-4.5,0.4-13.2-0.2-17.8c-0.3-2.3-1-3.2-2.3-4c-1.1-0.6-1.2-1.1-1-1.9
		c0.2-0.8,0.5-1.5,0.9-2.3c0.4-0.6,0.8-0.9,2.1-0.6c2.9,0.5,5.7,1.4,8.1,2.6c1.2,0.6,1.6,1.4,1.6,3.1V169z M101.3,187.6
		c3.5,0,8.6-0.5,11.4-1.4v-10.5c-3.5-0.1-8.1,0-11.4,0.3V187.6z M140,200.1c0,3.4-2.8,5.7-6.3,5.7c-2.5,0-3.6-0.8-3.6-3.3v-41.9
		c0-3.3-1.6-5.1-4.7-6.3c-1-0.5-1.4-1.4-1.2-2.4c0.2-0.8,0.5-1.6,1-2.3c0.5-0.7,1-1,2.6-0.8c2.9,0.4,5.9,1.1,8.2,2.1
		c2.4,1.1,3.9,2.6,4.4,4.5s-0.3,4.2-0.3,6.2V200.1z"/>
	<path d="M181.9,172.3c0,3.7-2.8,6.6-6.5,6.6c-2.3,0-3.1-1.4-3.1-3.1v-0.3c-3.6,1.2-10.7,2.2-15.4,2.7c-1.5,0.2-2,0.1-3.1-0.7
		c-1.4-1-2.3-2.3-3.2-4c-0.5-0.9-0.3-1.8,0.3-2.6c0.9-1.2,1.2-1.8,1.3-3.1c0.1-1.3-0.1-2-0.5-3.4c-0.6-2.2-1.2-3.2-2.5-4.2
		c-1-0.8-0.9-1.8-0.4-2.7c0.4-0.7,1.1-1.8,2-2.9c0.5-0.6,1.2-0.9,2.3-0.5c1.8,0.6,3.4,0.9,5.1,0.9c3.6,0,9.2-0.9,11.8-2.2
		c1.1-0.5,1.8-0.8,2.9-0.8c0.6,0,1.6,0,2.7,0.5c2.3,1,4.1,1.9,6,3.4c0.8,0.6,1.2,1.3,1.2,2.4c0,1.2-0.4,2.1-0.7,3.1
		c-0.3,1-0.5,1.6-0.5,2.2V172.3z M188.5,190.9l0.2-2.7l-13.7,0.4c-3.4,0-5.7,0.3-9,0.7c-2.9,0.4-5-0.6-7.9-4.4
		c-0.8-1.1-0.7-1.6-0.2-2.7c0.2-0.4,0.6-0.9,1-1.4c0.8-0.8,1.4-0.8,2.9-0.3c2.5,0.8,5.8,1.6,8.5,1.8c2.9,0.2,4.7,0.3,8.9,0.3
		c4,0,7.2-0.6,9.5-1.9c2.2-1.2,3.4-1.2,5.5-0.4c1.9,0.8,3.5,1.9,5.1,3.2c0.5,0.5,0.8,1.2,0.7,1.9c-0.5,3-1.5,6.9-3.4,9.6
		c-1.2,1.8-3,2.3-4.9,1.9c-3.1-0.6-4.9-0.3-7.8-0.3l-12.9,0.4v2.5h12.4c6.7,0,11.9-0.5,17.2-1.9c1.9-0.5,2.7,1.5,1.4,2.7
		c-4.4,4.2-11.2,5.9-17.1,5.9h-19.4c-2,0-3.1-0.5-4.1-1.6c-1-1-2.3-2.7-2.9-4.1c-0.5-1.2-0.4-1.8,0.4-2.8c1-1.2,0.9-2.7,0.1-4
		c-0.6-1-0.6-1.9,0-2.7c0.6-0.8,1.4-1.1,2.9-0.6c1,0.4,2.1,0.9,3.9,0.8L188.5,190.9z M161.4,170.5c3.1,0.1,7.9,0,11-0.6v-9.7
		c-2.8,0.1-8.3,0.6-11,1V170.5z M200,172.8c0,3.4-2.8,5.7-6.3,5.7c-2.5,0-3.6-0.8-3.6-3.3v-15.9c0-3.3-1.6-5.1-4.7-6.3
		c-1-0.5-1.4-1.4-1.2-2.4c0.2-0.8,0.5-1.6,1-2.3c0.5-0.7,1-1,2.6-0.8c2.9,0.4,5.9,1.1,8.2,2.1c2.4,1.1,3.9,2.6,4.4,4.5
		s-0.3,4.2-0.3,6.2V172.8z"/>
</g>
</svg>
