<?xml version="1.0" standalone="no"?>
<!DOCTYPE svg PUBLIC "-//W3C//DTD SVG 1.1//EN" "http://www.w3.org/Graphics/SVG/1.1/DTD/svg11.dtd" >
<svg xmlns="http://www.w3.org/2000/svg" xmlns:xlink="http://www.w3.org/1999/xlink" version="1.1">
<metadata>
Created by FontForge 20201107 at Wed Oct  4 15:35:46 2017
 By Jimmy Wärting
Copyright (c) 2017 by Roch Modrzejewski. All rights reserved.
</metadata>
<defs>
<font id="PaneuropaRetro-Light" horiz-adv-x="718" >
  <font-face 
    font-family="Paneuropa Retro Light"
    font-weight="300"
    font-stretch="normal"
    units-per-em="2048"
    panose-1="0 0 4 0 0 0 0 0 0 0"
    ascent="1638"
    descent="-410"
    x-height="860"
    cap-height="1536"
    bbox="0 -422 1873.64 1694"
    underline-thickness="102"
    underline-position="-816"
    unicode-range="U+0020-25FC"
  />
<missing-glyph horiz-adv-x="748" 
d="M68 0v1365h544v-1365h-544zM136 68h408v1229h-408v-1229z" />
    <glyph glyph-name=".notdef" horiz-adv-x="748" 
d="M68 0v1365h544v-1365h-544zM136 68h408v1229h-408v-1229z" />
    <glyph glyph-name="glyph1" horiz-adv-x="0" 
 />
    <glyph glyph-name="glyph2" horiz-adv-x="682" 
 />
    <glyph glyph-name="space" unicode=" " horiz-adv-x="399" 
 />
    <glyph glyph-name="exclam" unicode="!" horiz-adv-x="606" 
d="M260 308q-9 0 -9 10l-10 1208q0 10 9 10h107q9 0 9 -10l-10 -1208q0 -10 -9 -10h-87zM304 -20q-52 0 -87 34.5t-35 87.5q0 51 35 85.5t87 34.5t85.5 -35t33.5 -85q0 -52 -34 -87t-85 -35z" />
    <glyph glyph-name="quotedbl" unicode="&#x22;" horiz-adv-x="673" 
d="M233 952l11 584h-115l12 -584h92zM534 952l11 584h-115l12 -584h92z" />
    <glyph glyph-name="numbersign" unicode="#" horiz-adv-x="1419" 
d="M1361 1054q9 0 9 -9v-87q0 -10 -9 -10h-318l-71 -401h300q10 0 10 -10v-87q0 -9 -10 -9h-318l-77 -432q-1 -9 -10 -9h-94q-10 0 -8 10l76 431h-375l-77 -432q-1 -9 -10 -9h-94q-10 0 -8 10l76 431h-295q-10 0 -10 9v87q0 10 10 10h314l71 401h-297q-9 0 -9 10v87q0 9 9 9
h315l75 420q2 9 10 9h93q11 0 9 -11l-74 -418h375l75 420q2 9 10 9h94q10 0 8 -11l-74 -418h299zM860 547l71 401h-376l-71 -401h376z" />
    <glyph glyph-name="dollar" unicode="$" horiz-adv-x="1060" 
d="M978 385q0 -175 -110 -288.5t-292 -125.5v-183q0 -9 -10 -9h-69q-9 0 -9 9v183q-149 14 -260.5 105t-152.5 233q-3 9 5 12l80 44q9 4 12 -6q32 -117 116.5 -191.5t199.5 -88.5v644q-68 26 -112 46t-97.5 55.5t-84.5 75t-52.5 100t-21.5 134.5q0 154 101.5 255.5
t266.5 114.5v180q0 10 9 10h69q10 0 10 -10v-181q121 -12 214 -82t132 -180q2 -7 -5 -12l-80 -43q-9 -4 -12 6q-28 84 -94 138.5t-155 65.5v-580q2 0 5.5 -2t5.5 -2q49 -19 83 -34t78.5 -38.5t74 -46t61.5 -55t51 -68.5t31 -83.5t12 -101.5zM233 1136q0 -60 18.5 -106
t56.5 -79t78.5 -55t101.5 -46v546q-116 -12 -185.5 -82.5t-69.5 -177.5zM576 78q130 12 208 94t78 209q0 65 -21 114.5t-64.5 85.5t-88 59t-112.5 50v-612z" />
    <glyph glyph-name="percent" unicode="%" horiz-adv-x="1869" 
d="M463 -53q-11 0 -6 11l795 1571q3 7 11 7h93q12 0 7 -11l-796 -1571q-3 -7 -11 -7h-93zM399 813q-150 0 -250.5 100t-100.5 249t100.5 249t250.5 100t251 -100t101 -249t-101 -249t-251 -100zM399 914q107 0 179.5 71t72.5 177t-72.5 177t-179.5 71t-179 -71t-72 -177
t72 -177t179 -71zM1421 -29q-150 0 -250.5 100.5t-100.5 249.5q0 139 102 244t249 105q150 0 251 -100t101 -249t-101 -249.5t-251 -100.5zM1421 73q107 0 179.5 71t72.5 177t-72.5 177t-179.5 71t-179 -71t-72 -177t72 -177t179 -71z" />
    <glyph glyph-name="ampersand" unicode="&#x26;" horiz-adv-x="1482" 
d="M1446 12q5 -4 4 -8t-8 -4l-138 -3q-9 0 -17 7q-120 103 -197 176q-204 -209 -513 -209q-216 0 -347 121t-131 314q0 57 13 108.5t32.5 92t53.5 79.5t65 66.5t78.5 59t82.5 51.5t87 48q-94 191 -94 347q0 139 81.5 223t215.5 84q123 0 197.5 -78.5t74.5 -208.5
q0 -60 -18.5 -112.5t-46 -91.5t-73.5 -77.5t-87.5 -65t-100.5 -58.5q137 -236 423 -527q46 65 81 142t54.5 147t28.5 114t14 81q1 10 11 7l90 -35q8 -3 7 -13q-5 -32 -13 -69.5t-30 -118t-64.5 -170t-98.5 -165.5q123 -119 283 -254zM531 1258q0 -127 80 -294
q63 35 105 63.5t82 67t60 84.5t20 99q0 83 -45 133.5t-119 50.5q-83 0 -133 -56t-50 -148zM576 80q260 0 434 179q-295 297 -449 561q-64 -35 -106 -60.5t-92 -65.5t-79.5 -79t-49.5 -93.5t-20 -116.5q0 -142 100 -233.5t262 -91.5z" />
    <glyph glyph-name="quotesingle" unicode="'" horiz-adv-x="344" 
d="M218 952l11 584h-115l12 -584h92z" />
    <glyph glyph-name="parenleft" unicode="(" horiz-adv-x="595" 
d="M561 -298q0 -13 -12 -6q-23 14 -48.5 33.5t-72.5 63.5t-88.5 95.5t-88 131t-79 167.5t-54.5 208t-22 250t22 250t54.5 208t79 167.5t88 131t88.5 95.5t72.5 63.5t48.5 33.5q12 7 12 -6v-86q0 -7 -6 -13q-16 -14 -34 -32t-54 -61t-67 -90t-67 -119.5t-61.5 -150
t-42.5 -180.5t-17 -211t17 -211t42.5 -180.5t61.5 -150t67 -119.5t67 -90t54 -61t34 -32q6 -6 6 -12v-87z" />
    <glyph glyph-name="parenright" unicode=")" horiz-adv-x="595" 
d="M34 -298v87q0 5 7 12q16 14 34 32t54 61t67 90t67 119.5t61.5 150t42.5 180.5t17 211t-17 211t-42.5 180.5t-61.5 150t-67 119.5t-67 90t-54 61t-34 32q-7 7 -7 13v86q0 13 13 6q23 -14 48.5 -33.5t72.5 -63.5t88 -95.5t87.5 -131t79.5 -167.5t54.5 -208t21.5 -250
t-21.5 -250t-54.5 -208t-79.5 -167.5t-87.5 -131t-88 -95.5t-72.5 -63.5t-48.5 -33.5q-13 -7 -13 6z" />
    <glyph glyph-name="asterisk" unicode="*" horiz-adv-x="636" 
d="M393 1278q57 -61 87 -100l40 -51q6 -8 -1 -14l-63 -52q-7 -6 -13 1l-40 49q-38 46 -85 114q-72 -94 -87 -111l-43 -48q-6 -7 -13 -1l-62 53q-7 6 -1 13l42 50q29 36 90 97q-61 16 -125 37l-61 21q-9 3 -6 12l26 80q3 9 12 6l61 -23q18 -6 121 -46q-2 84 -2 125l1 65
q0 9 10 9h84q9 0 9 -10l-2 -64q0 -41 -6 -125q21 8 65 22.5t57 19.5l61 21q9 3 12 -6l25 -81q3 -9 -6 -12l-62 -18q-32 -10 -125 -33z" />
    <glyph glyph-name="plus" unicode="+" horiz-adv-x="862" 
d="M757 802q10 0 10 -9v-85q0 -10 -10 -10h-274v-269q0 -10 -9 -10h-84q-9 0 -9 10v269h-275q-10 0 -10 10v85q0 9 10 9h275v268q0 9 9 9h84q9 0 9 -9v-268h274z" />
    <glyph glyph-name="comma" unicode="," horiz-adv-x="417" 
d="M331 94q0 -15 -2 -22q1 -7 0 -17q-8 -65 -41.5 -145.5t-58 -121.5t-46.5 -73q-5 -8 -13 -3l-61 34q-10 5 -3 13q98 138 114 221h-12q-52 0 -86.5 34.5t-34.5 87.5q0 51 34.5 85.5t88.5 34.5q55 0 88 -35t33 -93z" />
    <glyph glyph-name="hyphen" unicode="-" 
d="M130 448q-9 0 -9 9v85q0 10 9 10h458q10 0 10 -10v-85q0 -9 -10 -9h-458z" />
    <glyph glyph-name="period" unicode="." horiz-adv-x="413" 
d="M208 -20q-52 0 -86.5 34.5t-34.5 87.5q0 51 34.5 85.5t86.5 34.5t85.5 -35t33.5 -85q0 -52 -34 -87t-85 -35z" />
    <glyph glyph-name="slash" unicode="/" horiz-adv-x="927" 
d="M27 -295q-11 0 -8 11l715 1903q3 7 11 7h99q10 0 7 -11l-714 -1902q-3 -8 -11 -8h-99z" />
    <glyph glyph-name="zero" unicode="0" horiz-adv-x="1366" 
d="M683 -29q-245 0 -392 210t-147 560q0 349 147.5 559.5t391.5 210.5q247 0 393 -209t146 -561q0 -230 -66.5 -405t-189 -270t-283.5 -95zM683 78q197 0 311.5 180t114.5 483q0 304 -115.5 484t-310.5 180q-194 0 -310 -181t-116 -483q0 -303 115 -483t311 -180z" />
    <glyph glyph-name="one" unicode="1" horiz-adv-x="604" 
d="M353 0q-10 0 -10 10v1246q-116 -136 -284 -177q-11 -4 -11 8v104q0 10 8 11q107 23 208.5 114.5t180.5 232.5q4 6 7.5 5t3.5 -8v-1536q0 -10 -10 -10h-93z" />
    <glyph glyph-name="two" unicode="2" horiz-adv-x="1185" 
d="M68 0q-7 0 -8 4t5 8q364 261 560.5 437t280 316t83.5 289q0 153 -91 252t-230 99q-132 0 -223.5 -79t-111.5 -211q-1 -9 -10 -9h-103q-10 0 -8 10q29 179 153.5 287t301.5 108q191 0 315 -129t124 -328q0 -236 -173.5 -457.5t-564.5 -485.5h717q10 0 10 -10v-91
q0 -10 -10 -10h-1017z" />
    <glyph glyph-name="three" unicode="3" horiz-adv-x="1064" 
d="M634 799q141 -20 232.5 -127.5t91.5 -261.5q0 -189 -127 -314t-320 -125q-160 0 -285.5 86t-174.5 229q-3 9 5 12l85 40q9 4 12 -6q37 -116 133 -185t222 -69q145 0 239.5 95.5t94.5 242.5t-98.5 236.5t-251.5 89.5h-150q-10 0 -10 9v85q0 10 10 10h150q133 0 218.5 80.5
t85.5 209.5q0 119 -80 194t-206 75q-104 0 -185 -54t-111 -145q-3 -9 -12 -5l-88 39q-8 3 -5 12q49 118 159.5 188.5t245.5 70.5q169 0 282 -105t113 -264q0 -135 -77.5 -230.5t-197.5 -112.5z" />
    <glyph glyph-name="four" unicode="4" horiz-adv-x="1167" 
d="M1101 499q9 0 9 -10v-83q0 -10 -9 -10h-224v-386q0 -10 -9 -10h-94q-10 0 -10 10v386h-702q-6 0 -8 4t2 8l809 1140q4 5 8 4.5t4 -7.5v-1046h224zM243 499h521v734z" />
    <glyph glyph-name="five" unicode="5" horiz-adv-x="1124" 
d="M550 991q206 0 342 -143t136 -359q0 -223 -141.5 -370.5t-356.5 -147.5q-138 0 -262 59t-191 157q-5 8 1 14l72 70q8 8 13 -2q49 -88 147.5 -139.5t216.5 -51.5q168 0 277 116t109 294q0 172 -105.5 284t-268.5 112q-127 0 -225.5 -68t-154.5 -188q-3 -7 -6.5 -6t-3.5 9
v842q0 10 9 10h771q9 0 9 -10v-87q0 -9 -9 -9h-668v-495q44 49 123 79t166 30z" />
    <glyph glyph-name="six" unicode="6" horiz-adv-x="1187" 
d="M647 991q206 0 330 -139.5t124 -370.5t-133 -370.5t-351 -139.5q-221 0 -354 139.5t-133 371.5q0 275 160 556t447 499q7 6 13 -2l63 -72q6 -7 -2 -13q-173 -119 -302.5 -277t-200.5 -336q53 73 142 113.5t197 40.5zM618 78q169 0 268.5 109t99.5 294t-95 294.5
t-256 109.5q-170 0 -280 -114t-110 -290q0 -184 101.5 -293.5t271.5 -109.5z" />
    <glyph glyph-name="seven" unicode="7" horiz-adv-x="925" 
d="M220 0q-12 0 -9 11q97 399 234.5 752t297.5 612h-709q-9 0 -9 10v88q0 10 9 10h867q13 0 6 -12q-197 -322 -349.5 -712.5t-219.5 -749.5q-2 -9 -10 -9h-108z" />
    <glyph glyph-name="eight" unicode="8" horiz-adv-x="1193" 
d="M808 792q147 -42 227 -144t80 -250q0 -193 -141.5 -310t-374.5 -117q-234 0 -375 117t-141 310q0 148 80 250t227 144q-111 41 -170.5 128.5t-59.5 210.5q0 172 120 276t319 104q198 0 319 -104t121 -276q0 -123 -60 -210t-171 -129zM270 1127q0 -132 90 -211t239 -79
t239.5 79t90.5 211q0 126 -90.5 202t-239.5 76q-150 0 -239.5 -76t-89.5 -202zM599 78q182 0 291.5 88t109.5 236q0 151 -110 242t-291 91t-291 -91t-110 -242q0 -148 109.5 -236t291.5 -88z" />
    <glyph glyph-name="nine" unicode="9" horiz-adv-x="1187" 
d="M412 -77q-6 -5 -13 2l-63 72q-6 7 1 13q188 127 332 294t217 346q-54 -73 -145.5 -115.5t-199.5 -42.5q-206 0 -330 139.5t-124 370.5t132.5 370t351.5 139q221 0 354 -139t133 -371q0 -289 -174.5 -579.5t-471.5 -498.5zM553 598q170 0 280 114t110 290
q0 184 -101.5 293.5t-271.5 109.5q-169 0 -268.5 -109t-99.5 -294t95 -294.5t256 -109.5z" />
    <glyph glyph-name="colon" unicode=":" horiz-adv-x="534" 
d="M270 638q-52 0 -86.5 34.5t-34.5 87.5q0 51 34.5 86t86.5 35t85.5 -35.5t33.5 -85.5q0 -52 -34 -87t-85 -35zM270 -20q-52 0 -86.5 34.5t-34.5 87.5q0 51 34.5 85.5t86.5 34.5t85.5 -35t33.5 -85q0 -52 -34 -87t-85 -35z" />
    <glyph glyph-name="semicolon" unicode=";" horiz-adv-x="538" 
d="M272 638q-52 0 -86.5 34.5t-34.5 87.5q0 51 34.5 86t86.5 35t85.5 -35.5t33.5 -85.5q0 -52 -34 -87t-85 -35zM393 94q0 -15 -2 -22q1 -7 0 -17q-8 -65 -41.5 -145.5t-58 -121.5t-46.5 -73q-5 -8 -13 -3l-61 34q-10 5 -3 13q98 138 114 221h-12q-52 0 -86.5 34.5
t-34.5 87.5q0 51 34.5 85.5t88.5 34.5q55 0 88 -35t33 -93z" />
    <glyph glyph-name="less" unicode="&#x3c;" horiz-adv-x="905" 
d="M798 242l-692 452q-10 6 0 13l692 452q4 3 8 1.5t4 -7.5v-109q0 -6 -6 -11l-527 -333l527 -332q6 -5 6 -11v-109q0 -6 -4 -7.5t-8 1.5z" />
    <glyph glyph-name="equal" unicode="=" horiz-adv-x="796" 
d="M106 849q-10 0 -10 9v83q0 9 10 9h586q9 0 9 -9v-83q0 -9 -9 -9h-586zM106 557q-10 0 -10 10v82q0 10 10 10h586q9 0 9 -10v-82q0 -10 -9 -10h-586z" />
    <glyph glyph-name="greater" unicode="&#x3e;" horiz-adv-x="905" 
d="M108 242q-4 -3 -8 -1.5t-4 7.5v109q0 7 6 11l527 332l-527 333q-6 5 -6 11v109q0 6 4 7.5t8 -1.5l692 -452q10 -7 0 -13z" />
    <glyph glyph-name="question" unicode="?" horiz-adv-x="956" 
d="M359 308q-9 0 -9 10q1 97 23.5 181t57 144.5t76 114.5t83 103t75.5 98t55 110t21 130q0 125 -74.5 192.5t-202.5 67.5q-99 0 -183.5 -61t-128.5 -163q-4 -9 -12 -3l-85 70q-7 6 -3 13q59 113 171.5 181.5t238.5 68.5q182 0 289.5 -96.5t107.5 -267.5q0 -81 -21.5 -150
t-56 -121t-76.5 -101t-84 -100t-77 -107t-58 -134t-24 -170q0 -10 -9 -10h-94zM411 -20q-54 0 -87.5 34.5t-33.5 87.5q0 52 34.5 86.5t86.5 34.5t86.5 -34.5t34.5 -86.5t-35 -87t-86 -35z" />
    <glyph glyph-name="at" unicode="@" horiz-adv-x="1781" 
d="M850 1133q175 0 256 -148l-5 116q0 10 9 10h93q10 0 10 -10v-463q0 -62 38 -95.5t108 -33.5q97 0 156.5 82t59.5 216q0 133 -51 252t-140 205t-216 136.5t-273 50.5t-274 -52t-218.5 -142t-142.5 -217t-52 -272t52 -272t142.5 -217t218.5 -142t274 -52q141 0 266.5 49.5
t212.5 140.5q6 8 13 0l69 -75q7 -7 1 -13q-107 -103 -252 -159.5t-310 -56.5q-168 0 -316.5 61t-254 166.5t-167 253.5t-61.5 316t61.5 316t167 253.5t254 166.5t316.5 61q167 0 314.5 -59.5t251.5 -161t164.5 -241.5t60.5 -296q0 -184 -89.5 -295t-237.5 -111
q-93 0 -158.5 43t-88.5 117q-39 -76 -107 -118.5t-159 -42.5q-143 0 -231 100.5t-88 266.5t88.5 266t234.5 100zM864 503q111 0 174.5 73.5t63.5 190.5t-63.5 191t-171.5 74q-104 0 -165 -72t-61 -193t61 -192.5t162 -71.5z" />
    <glyph glyph-name="A" unicode="A" horiz-adv-x="1335" 
d="M1282 11q5 -11 -7 -11h-112q-8 0 -11 8l-247 670h-477l-248 -670q-3 -8 -11 -8h-110q-12 0 -7 11l612 1591q2 6 6.5 6t6.5 -6zM467 784h399l-164 448q-28 73 -34 146q-6 -62 -35 -144z" />
    <glyph glyph-name="B" unicode="B" horiz-adv-x="1161" 
d="M693 819q175 -19 269.5 -122t94.5 -270q0 -211 -123.5 -319t-364.5 -108h-399q-10 0 -10 10v1517q0 9 10 9h298q208 0 325 -102.5t117 -284.5q0 -124 -56 -210.5t-161 -119.5zM469 1431h-195v-579h226q135 0 216 80t81 212q0 135 -86.5 211t-241.5 76zM563 108
q186 0 282.5 80.5t96.5 237.5q0 152 -104.5 236t-295.5 84h-268v-638h289z" />
    <glyph glyph-name="C" unicode="C" horiz-adv-x="1468" 
d="M1414 241q7 -6 1 -13q-104 -125 -251.5 -193t-318.5 -68q-218 0 -389 103.5t-265.5 286.5t-94.5 411q0 168 57.5 316.5t157 255t239 168t297.5 61.5q154 0 293 -59t242 -168q7 -7 0 -14l-68 -70q-6 -8 -13 0q-88 97 -206 149.5t-248 52.5q-179 0 -325 -90.5t-229 -249
t-83 -352.5q0 -197 80 -354.5t225.5 -247t329.5 -89.5q144 0 269 59.5t216 169.5q6 8 13 2z" />
    <glyph glyph-name="D" unicode="D" horiz-adv-x="1378" 
d="M492 1536q226 0 405.5 -95.5t282 -271t102.5 -401.5q0 -229 -100 -404t-279 -269.5t-411 -94.5h-322q-10 0 -10 10v1517q0 9 10 9h322zM495 106q301 0 487 181.5t186 480.5q0 195 -87.5 346.5t-240.5 233.5t-345 82h-221v-1324h221z" />
    <glyph glyph-name="E" unicode="E" horiz-adv-x="1024" 
d="M967 107q10 0 10 -10v-88q0 -9 -10 -9h-797q-10 0 -10 9v1517q0 10 10 10h764q9 0 9 -10v-87q0 -9 -9 -9h-660v-570h620q10 0 10 -10v-86q0 -9 -10 -9h-620v-648h693z" />
    <glyph glyph-name="F" unicode="F" horiz-adv-x="905" 
d="M847 1536q10 0 10 -10v-87q0 -9 -10 -9h-573v-570h533q9 0 9 -10v-86q0 -9 -9 -9h-533v-745q0 -10 -10 -10h-94q-10 0 -10 10v1517q0 9 10 9h677z" />
    <glyph glyph-name="G" unicode="G" horiz-adv-x="1701" 
d="M1606 771q9 0 9 -10q-2 -224 -100 -406t-270.5 -285t-385.5 -103q-166 0 -308.5 60t-242 165.5t-156 254t-56.5 321.5q0 168 60 317.5t162 255t242 167t296 61.5q189 0 351.5 -83.5t266.5 -231.5q5 -8 -2 -13l-85 -70q-8 -7 -13 3q-83 138 -217 212t-302 74
q-177 0 -324.5 -89.5t-234 -248.5t-86.5 -354q0 -304 180.5 -497.5t468.5 -193.5q258 0 429 163.5t201 419.5h-518q-10 0 -10 10v91q0 10 10 10h635z" />
    <glyph glyph-name="H" unicode="H" horiz-adv-x="1406" 
d="M1243 1536q9 0 9 -9v-1517q0 -10 -9 -10h-95q-9 0 -9 10v735h-867v-735q0 -10 -10 -10h-94q-9 0 -9 10v1517q0 9 9 9h94q10 0 10 -9v-675h867v675q0 9 9 9h95z" />
    <glyph glyph-name="I" unicode="I" horiz-adv-x="434" 
d="M170 0q-10 0 -10 10v1516q0 10 10 10h98q10 0 10 -10v-1516q0 -10 -10 -10h-98z" />
    <glyph glyph-name="J" unicode="J" horiz-adv-x="659" 
d="M243 -33q-148 0 -230 110q-5 7 1 13l75 63q8 6 14 -1q61 -75 138 -75q81 0 124 57.5t43 162.5v1229q0 10 9 10h95q9 0 9 -10v-1227q0 -156 -73.5 -244t-204.5 -88z" />
    <glyph glyph-name="K" unicode="K" horiz-adv-x="1288" 
d="M1224 12q4 -4 2.5 -8t-7.5 -4h-139q-7 0 -11 5l-797 831v-826q0 -10 -10 -10h-94q-9 0 -9 10v1516q0 10 9 10h94q10 0 10 -10v-664l731 668q5 5 12 5l139 1q7 0 8.5 -4t-3.5 -8l-699 -625q-44 -39 -80 -50q34 -7 80 -55z" />
    <glyph glyph-name="L" unicode="L" horiz-adv-x="962" 
d="M929 110q9 0 9 -10v-90q0 -10 -9 -10h-761q-9 0 -9 10v1516q0 10 9 10h95q9 0 9 -10v-1416h657z" />
    <glyph glyph-name="M" unicode="M" horiz-adv-x="1761" 
d="M875 -36l-380 1128q-29 86 -44 174q-2 -69 -24 -172l-231 -1086q-1 -8 -10 -8h-104q-9 0 -8 10l354 1586q1 4 3.5 6t5 0.5t3.5 -5.5l404 -1219q32 -99 39 -167q7 83 35 167l404 1219q1 4 3.5 5.5t5 -0.5t3.5 -6l352 -1586q1 -10 -8 -10h-102q-9 0 -10 8l-233 1086
q-23 109 -29 172q-5 -61 -42 -174l-375 -1128q-1 -4 -3.5 -6t-5 0t-3.5 6z" />
    <glyph glyph-name="N" unicode="N" horiz-adv-x="1589" 
d="M168 0q-9 0 -9 10v1590q0 7 3.5 8t7.5 -4l1160 -1383q-8 44 -8 131v1174q0 10 10 10h94q9 0 9 -10v-1590q0 -7 -3.5 -8t-7.5 4l-1160 1387q8 -44 8 -131v-1178q0 -10 -10 -10h-94z" />
    <glyph glyph-name="O" unicode="O" horiz-adv-x="1708" 
d="M855 -33q-217 0 -391 104.5t-271.5 287.5t-97.5 409q0 169 58.5 318t159 255t241.5 167t301 61q215 0 389 -104.5t272 -287.5t98 -409q0 -228 -97.5 -411t-271 -286.5t-390.5 -103.5zM855 77q186 0 334 89t230 247t80 355q-1 146 -51 274.5t-134.5 220t-204 144.5
t-254.5 53q-182 0 -329.5 -89.5t-232 -248t-84.5 -354.5t82 -353.5t230 -247.5t334 -90z" />
    <glyph glyph-name="P" unicode="P" horiz-adv-x="991" 
d="M406 1536q246 0 380.5 -108.5t134.5 -305.5q0 -412 -512 -412h-137v-700q0 -10 -10 -10h-94q-9 0 -9 10v1517q0 9 9 9h238zM412 816q395 0 395 306q0 149 -103 228.5t-295 79.5h-137v-614h140z" />
    <glyph glyph-name="Q" unicode="Q" horiz-adv-x="1708" 
d="M1495 57q12 -4 3 -13l-75 -82q-6 -6 -13 -2q-84 43 -167 112q-177 -105 -392 -105q-220 0 -393 103.5t-268 286t-95 411.5q0 169 58.5 318t159 255t241.5 167t301 61q218 0 392 -104t270.5 -286.5t96.5 -410.5q0 -196 -74.5 -360t-207.5 -273q69 -45 163 -78zM209 768
q0 -198 80 -355t227 -246.5t335 -89.5q173 0 311 72q-60 63 -104 130q-5 8 2 13l60 47q8 6 13 -2q49 -75 114 -135q121 92 187 238t65 328q-2 197 -84.5 355t-229 247.5t-330.5 89.5q-182 0 -330 -89.5t-232 -248t-84 -354.5z" />
    <glyph glyph-name="R" unicode="R" horiz-adv-x="1159" 
d="M1102 14q4 -4 2 -8t-8 -4h-133q-8 0 -12 5l-598 703h-81v-700q0 -10 -10 -10h-94q-9 0 -9 10v1517q0 9 9 9h273q220 0 350 -110t130 -304q0 -180 -117 -290t-316 -121zM272 1430v-614h175q161 0 261 83t100 223q0 145 -98.5 226.5t-265.5 81.5h-172z" />
    <glyph glyph-name="S" unicode="S" horiz-adv-x="1107" 
d="M560 -33q-187 0 -314 97.5t-172 273.5q-3 8 6 11l104 29q9 3 11 -7q30 -140 123 -215.5t243 -75.5q145 0 246 92t101 229q0 44 -10.5 82t-27.5 66.5t-44.5 53t-56 42.5t-67.5 35.5t-72.5 29.5t-78.5 28q-8 3 -12 4q-52 18 -89 33t-83 38t-78 46t-64.5 57.5t-52 72.5
t-32 89.5t-12.5 111.5q0 161 123 270t302 109q149 0 261 -77.5t160 -211.5q3 -9 -5 -12l-87 -38q-9 -3 -12 5q-34 105 -116.5 166.5t-199.5 61.5q-131 0 -220.5 -79t-89.5 -194q0 -33 6 -62t14 -52t25 -44.5t31 -36.5t40 -31.5t43.5 -26.5t51 -24t52 -21t57 -21t56.5 -21
q53 -20 86.5 -34t81 -38t77.5 -46t64 -56t53 -71.5t32 -88t13 -108.5q0 -188 -135 -314.5t-332 -126.5z" />
    <glyph glyph-name="T" unicode="T" horiz-adv-x="901" 
d="M867 1536q10 0 10 -9v-89q0 -10 -10 -10h-360v-1418q0 -10 -9 -10h-95q-10 0 -10 10v1418h-360q-9 0 -9 10v89q0 9 9 9h834z" />
    <glyph glyph-name="U" unicode="U" horiz-adv-x="1439" 
d="M711 -33q-254 0 -403 150t-149 415v994q0 10 9 10h94q10 0 10 -10v-990q0 -218 118 -338.5t321 -120.5q212 0 336 125t124 334v990q0 10 9 10h95q10 0 10 -10v-994q0 -255 -156 -410t-418 -155z" />
    <glyph glyph-name="V" unicode="V" horiz-adv-x="1263" 
d="M620 -65q-2 -6 -6 -6t-6 6l-556 1590q-3 11 7 11h107q8 0 11 -8l411 -1219q22 -62 30 -138q8 72 33 140l436 1217q3 8 11 8h106q10 0 7 -11z" />
    <glyph glyph-name="W" unicode="W" horiz-adv-x="1925" 
d="M563 -63q-1 -4 -3.5 -6t-5 0t-3.5 6l-500 1588q-3 11 8 11h108q8 0 11 -8l358 -1198q15 -49 24 -113q10 73 24 115l381 1266q5 16 11 0l365 -1266q11 -41 18 -115q4 44 25 113l367 1198q3 8 10 8h104q11 0 8 -11l-510 -1587q-1 -4 -3.5 -6t-5 0t-3.5 6l-346 1181
q-31 109 -37 171q-5 -63 -38 -171z" />
    <glyph glyph-name="X" unicode="X" horiz-adv-x="1394" 
d="M1326 12q3 -4 1.5 -8t-7.5 -4h-123q-7 0 -11 6l-491 715l-508 -715q-5 -6 -11 -6h-115q-6 0 -8 4t2 8l577 807l-484 705q-3 4 -1.5 8t7.5 4h124q6 0 11 -6l408 -610l423 610q4 6 11 6h114q6 0 7.5 -4t-1.5 -8l-490 -701z" />
    <glyph glyph-name="Y" unicode="Y" horiz-adv-x="1310" 
d="M604 0q-10 0 -10 10v706l-539 808q-3 4 -1 8t8 4h123q7 0 11 -6l456 -697l469 697q5 6 12 6h115q6 0 7.5 -4t-1.5 -8l-546 -807v-707q0 -10 -9 -10h-95z" />
    <glyph glyph-name="Z" unicode="Z" horiz-adv-x="1290" 
d="M991 1356q36 50 65 71h-861q-9 0 -9 10l-1 89q0 10 10 10h1034q6 0 7.5 -4t-1.5 -8l-916 -1343q-31 -44 -61 -70h962q9 0 9 -9v-92q0 -10 -9 -10h-1158q-6 0 -7.5 4t1.5 8z" />
    <glyph glyph-name="bracketleft" unicode="[" horiz-adv-x="571" 
d="M536 1486q0 -10 -9 -10h-247v-1660h247q9 0 9 -9v-88q0 -10 -9 -10h-350q-10 0 -10 10v1852q0 10 10 10h350q9 0 9 -10v-85z" />
    <glyph glyph-name="backslash" unicode="\" horiz-adv-x="927" 
d="M901 -295h-99q-7 0 -10 8l-715 1902q-3 11 7 11h99q8 0 11 -7l715 -1903q3 -11 -8 -11z" />
    <glyph glyph-name="bracketright" unicode="]" horiz-adv-x="571" 
d="M34 1486v85q0 10 10 10h350q9 0 9 -10v-1852q0 -10 -9 -10h-350q-10 0 -10 10v88q0 9 10 9h246v1660h-246q-10 0 -10 10z" />
    <glyph glyph-name="asciicircum" unicode="^" horiz-adv-x="921" 
d="M818 1023q3 -5 1.5 -8.5t-7.5 -3.5h-107q-6 0 -11 7l-233 366l-233 -366q-5 -7 -11 -7h-107q-6 0 -7.5 3.5t1.5 8.5l350 532q6 10 13 0z" />
    <glyph glyph-name="underscore" unicode="_" horiz-adv-x="737" 
d="M97 -145q-10 0 -10 9v77q0 10 10 10h544q9 0 9 -10v-77q0 -9 -9 -9h-544z" />
    <glyph glyph-name="a" unicode="a" horiz-adv-x="1081" 
d="M922 860q10 0 10 -9v-841q0 -10 -10 -10h-93q-10 0 -10 10l6 163q-48 -96 -132 -149t-193 -53q-183 0 -292.5 126t-109.5 333q0 208 110 333.5t292 125.5q112 0 195.5 -52t130.5 -147l-7 160q0 10 10 10h93zM508 79q135 0 224.5 99.5t88.5 251.5q-1 157 -89 254t-224 97
q-134 0 -215 -96t-81 -255t79.5 -255t216.5 -96z" />
    <glyph glyph-name="b" unicode="b" horiz-adv-x="1081" 
d="M597 892q175 0 281.5 -126t106.5 -334q0 -210 -109 -335.5t-292 -125.5q-218 0 -323 176l4 -137q0 -10 -10 -10h-93q-10 0 -10 10v1516q0 10 10 10h93q10 0 10 -10v-803q110 169 332 169zM571 79q137 0 218.5 96.5t81.5 256.5q0 159 -79 256t-209 97q-144 0 -232 -92
t-89 -261q-1 -155 84.5 -254t224.5 -99z" />
    <glyph glyph-name="c" unicode="c" horiz-adv-x="919" 
d="M522 -29q-195 0 -310.5 125.5t-115.5 335.5q0 209 119 333t314 124q95 0 180 -42t145 -119q6 -8 -1 -14l-72 -61q-7 -6 -13 2q-46 61 -107.5 94.5t-129.5 33.5q-143 0 -232 -95.5t-89 -255.5q0 -161 85 -257t230 -96q85 0 155 42.5t116 120.5q5 10 13 3l79 -55
q8 -5 2 -14q-63 -98 -158 -151.5t-210 -53.5z" />
    <glyph glyph-name="d" unicode="d" horiz-adv-x="1079" 
d="M920 1536q10 0 10 -9v-1517q0 -10 -10 -10h-93q-10 0 -10 10l2 130q-50 -80 -130.5 -124.5t-183.5 -44.5q-182 0 -295.5 128t-113.5 333q0 217 107 338.5t295 121.5q102 0 184.5 -42.5t134.5 -120.5v798q0 9 10 9h93zM513 79q138 0 222.5 93t83.5 260q-1 169 -85.5 261
t-227.5 92q-141 0 -218.5 -93.5t-77.5 -259.5q0 -154 84.5 -253.5t218.5 -99.5z" />
    <glyph glyph-name="e" unicode="e" horiz-adv-x="1001" 
d="M936 480q2 -10 -9 -10h-713q-1 -13 -1 -40q0 -164 85.5 -259.5t234.5 -95.5q175 0 283 128q6 7 14 1l69 -65q8 -6 1 -13q-144 -155 -369 -155q-196 0 -312.5 125.5t-116.5 333.5q0 207 115.5 333t306.5 126q178 0 287.5 -110t124.5 -299zM232 569h576
q-20 101 -95.5 159.5t-188.5 58.5q-109 0 -185 -57.5t-107 -160.5z" />
    <glyph glyph-name="f" unicode="f" horiz-adv-x="450" 
d="M417 860q9 0 9 -9v-81q0 -10 -9 -10h-137v-750q0 -10 -9 -10h-94q-9 0 -9 10v750h-135q-10 0 -10 10v81q0 9 10 9h135v489q0 104 51 161t143 57q33 0 54 -7q8 -3 8 -11v-87q0 -10 -11 -7q-18 6 -40 6q-44 0 -68.5 -31t-24.5 -87v-483h137z" />
    <glyph glyph-name="g" unicode="g" horiz-adv-x="1081" 
d="M922 860q10 0 10 -9v-843q0 -196 -112.5 -313t-299.5 -117q-96 0 -189 38t-161 103q-6 7 0 13l69 69q7 7 13 0q52 -54 123 -85t145 -31q134 0 216.5 89t82.5 235v144q-49 -85 -131.5 -133.5t-185.5 -48.5q-187 0 -295.5 124.5t-108.5 334.5q0 214 113 336.5t302 122.5
q105 0 184 -50t126 -137l-4 149q0 9 10 9h93zM511 79q137 0 224 98.5t86 252.5q-1 156 -86.5 253.5t-216.5 97.5q-141 0 -223.5 -94t-82.5 -257q0 -158 80.5 -254.5t218.5 -96.5z" />
    <glyph glyph-name="h" unicode="h" horiz-adv-x="1005" 
d="M162 0q-10 0 -10 10v1516q0 10 10 10h94q9 0 9 -10v-813q43 79 121.5 123.5t174.5 44.5q142 0 221 -90t79 -254v-527q0 -10 -9 -10h-94q-10 0 -10 10v517q0 119 -52.5 183t-151.5 64q-120 0 -199.5 -82t-79.5 -207v-475q0 -10 -9 -10h-94z" />
    <glyph glyph-name="i" unicode="i" horiz-adv-x="413" 
d="M208 1095q-44 0 -71 28.5t-27 71.5q0 42 28 70t70 28t69.5 -28t27.5 -70q0 -43 -28 -71.5t-69 -28.5zM162 0q-10 0 -10 10v841q0 9 10 9h93q10 0 10 -9v-841q0 -10 -10 -10h-93z" />
    <glyph glyph-name="j" unicode="j" horiz-adv-x="413" 
d="M208 1095q-44 0 -71 28.5t-27 71.5q0 42 28 70t70 28t69.5 -28t27.5 -70q0 -43 -28 -71.5t-69 -28.5zM162 -418q-10 0 -10 10v1259q0 9 10 9h93q10 0 10 -9v-1259q0 -10 -10 -10h-93z" />
    <glyph glyph-name="k" unicode="k" horiz-adv-x="919" 
d="M873 12q4 -4 2.5 -8t-7.5 -4h-133q-7 0 -11 5l-459 488v-483q0 -10 -9 -10h-94q-10 0 -10 10v1516q0 10 10 10h94q9 0 9 -10v-1007l416 337q5 4 12 4h143q7 0 8 -4t-4 -8l-376 -298q-41 -32 -82 -46q27 -9 69 -53z" />
    <glyph glyph-name="l" unicode="l" horiz-adv-x="413" 
d="M162 0q-10 0 -10 10v1516q0 10 10 10h93q10 0 10 -10v-1516q0 -10 -10 -10h-93z" />
    <glyph glyph-name="m" unicode="m" horiz-adv-x="1540" 
d="M157 0q-9 0 -9 10v841q0 9 10 9h93q9 0 9 -9l-3 -147q40 84 115.5 130.5t171.5 46.5q98 0 164.5 -49t95.5 -141q41 89 122.5 139.5t182.5 50.5q136 0 211.5 -90t75.5 -254v-527q0 -10 -9 -10h-94q-9 0 -9 10v517q0 119 -50.5 183t-141.5 64q-113 0 -187.5 -82t-74.5 -207
v-475q0 -10 -10 -10h-93q-10 0 -10 10v517q0 119 -49.5 183t-140.5 64q-115 0 -190.5 -86.5t-75.5 -219.5v-458q0 -10 -10 -10h-94z" />
    <glyph glyph-name="n" unicode="n" horiz-adv-x="1001" 
d="M158 0q-9 0 -9 10v841q0 9 9 9h94q9 0 9 -9l-3 -147q41 84 119.5 130.5t178.5 46.5q141 0 221 -90.5t80 -253.5v-527q0 -10 -10 -10h-94q-9 0 -9 10v517q0 119 -52.5 183t-150.5 64q-121 0 -200.5 -82t-79.5 -207v-475q0 -10 -9 -10h-94z" />
    <glyph glyph-name="o" unicode="o" horiz-adv-x="1032" 
d="M517 -29q-193 0 -307 125t-114 336q0 206 115.5 331.5t305.5 125.5q192 0 305.5 -125t113.5 -332q0 -209 -114.5 -335t-304.5 -126zM517 78q139 0 221.5 96.5t82.5 257.5q0 160 -82.5 255.5t-221.5 95.5t-222 -96t-83 -255q0 -162 82 -258t223 -96z" />
    <glyph glyph-name="p" unicode="p" horiz-adv-x="1079" 
d="M587 889q181 0 288 -126.5t107 -335.5q0 -207 -109.5 -333.5t-289.5 -126.5q-109 0 -191 47.5t-131 134.5v-557q0 -10 -9 -10h-94q-9 0 -9 10v1259q0 9 9 9h94q9 0 9 -9l-3 -155q50 91 134.5 142t194.5 51zM573 74q135 0 214.5 96t79.5 257q0 163 -77.5 259.5
t-211.5 96.5q-146 0 -232 -100t-87 -256t82.5 -254.5t231.5 -98.5z" />
    <glyph glyph-name="q" unicode="q" horiz-adv-x="1079" 
d="M920 860q10 0 10 -9v-1259q0 -10 -10 -10h-93q-10 0 -10 10v555q-53 -84 -139 -131.5t-191 -47.5q-177 0 -283.5 128t-106.5 336q0 207 108 332t288 125q105 0 190 -47.5t138 -131.5l-4 141q0 9 10 9h93zM496 75q143 0 233.5 95t89.5 262q-1 160 -87 254.5t-228 94.5
q-135 0 -214 -94t-79 -255q0 -159 77 -258t208 -99z" />
    <glyph glyph-name="r" unicode="r" horiz-adv-x="688" 
d="M158 0q-9 0 -9 10v841q0 9 9 9h94q9 0 9 -10l-5 -151q32 84 93.5 131t139.5 47q114 0 181 -91q5 -7 0 -14l-57 -79q-7 -11 -13 1q-36 76 -123 76q-95 0 -155.5 -90t-60.5 -235v-435q0 -10 -9 -10h-94z" />
    <glyph glyph-name="s" unicode="s" horiz-adv-x="768" 
d="M398 -25q-116 0 -200.5 53.5t-128.5 153.5q-4 8 4 13l79 42q9 4 13 -4q33 -75 92.5 -115t138.5 -40q85 0 138.5 43.5t53.5 115.5q0 19 -4 35.5t-8.5 29t-15.5 24.5t-18 19.5t-24.5 16t-26 12.5t-31 11t-31 9t-34.5 8.5l-34 8.5q-55 14 -91 28t-76 41.5t-60 73t-20 108.5
q0 100 74 161.5t196 61.5q82 0 150.5 -35t106.5 -96q5 -9 -2 -13l-71 -51q-8 -6 -13 3q-26 44 -72 68t-104 24q-71 0 -113 -33.5t-42 -89.5q0 -51 33.5 -84t64 -43.5t106.5 -29.5l3 -1.5t3 -1t4 -0.5q34 -8 54 -13.5t51.5 -17.5t50.5 -24t42.5 -32t36 -44t21.5 -57.5
t9 -74.5q0 -119 -84.5 -191.5t-220.5 -72.5z" />
    <glyph glyph-name="t" unicode="t" horiz-adv-x="454" 
d="M422 860q9 0 9 -9v-81q0 -10 -9 -10h-139v-750q0 -10 -10 -10h-94q-9 0 -9 10v750h-137q-10 0 -10 10v81q0 9 10 9h137v421q0 9 9 9h94q10 0 10 -9v-421h139z" />
    <glyph glyph-name="u" unicode="u" horiz-adv-x="997" 
d="M498 -25q-167 0 -260 99t-93 276v501q0 9 9 9h94q9 0 9 -9v-499q0 -270 241 -270q242 0 242 270v499q0 9 9 9h94q10 0 10 -9v-501q0 -177 -93.5 -276t-261.5 -99z" />
    <glyph glyph-name="v" unicode="v" horiz-adv-x="864" 
d="M438 -67q-2 -6 -6 -6t-6 6l-373 916q-5 11 7 11h104q8 0 11 -7l227 -600q27 -75 30 -103q3 26 32 104l227 599q3 7 11 7h102q12 0 7 -11z" />
    <glyph glyph-name="w" unicode="w" horiz-adv-x="1347" 
d="M392 -82q-2 0 -5 8l-335 923q-3 11 8 11h102q8 0 11 -8l197 -577q25 -76 29 -119q10 65 30 119l240 660q3 7 5 7h2l245 -673q23 -64 28 -113q10 60 28 112l199 584q3 8 11 8h100q10 0 7 -11l-336 -923q-3 -8 -5 -8h-2l-250 678q-23 60 -28 116q-6 -55 -30 -118l-249 -676
h-2z" />
    <glyph glyph-name="x" unicode="x" horiz-adv-x="856" 
d="M38 0q-6 0 -7.5 4t2.5 8l337 455l-273 382q-4 5 -2 8t8 3h119q6 0 11 -6l202 -295l207 295q4 6 12 6h113q14 0 5 -11l-279 -376l332 -461q4 -4 2 -8t-8 -4h-119q-8 0 -12 6l-258 373l-267 -373q-5 -6 -11 -6h-114z" />
    <glyph glyph-name="y" unicode="y" horiz-adv-x="870" 
d="M698 853q3 7 11 7h104q12 0 7 -11l-486 -1259q-3 -8 -11 -8h-104q-12 0 -7 11l176 422l-333 834q-5 11 7 11h107q8 0 11 -7l234 -625q20 -56 28 -100q8 50 26 99z" />
    <glyph glyph-name="z" unicode="z" horiz-adv-x="880" 
d="M39 0q-6 0 -8 4t2 8l546 672q42 52 71 72h-532q-10 0 -10 10v85q0 9 10 9h724q6 0 8 -3t-2 -8l-542 -673q-39 -50 -70 -70h567q10 0 10 -9v-87q0 -10 -10 -10h-764z" />
    <glyph glyph-name="braceleft" unicode="{" horiz-adv-x="587" 
d="M463 -291q-127 0 -196 67.5t-69 189.5v554q0 77 -73 77h-29q-9 0 -9 9v86q0 10 9 10h29q73 0 73 76v548q0 122 69 188.5t196 66.5h82q9 0 9 -10v-85q0 -10 -9 -10h-71q-163 0 -163 -160v-570q0 -37 -17 -62.5t-48 -34.5q65 -19 65 -99v-573q0 -79 41.5 -120t121.5 -41h71
q9 0 9 -9v-88q0 -10 -9 -10h-82z" />
    <glyph glyph-name="bar" unicode="|" horiz-adv-x="536" 
d="M222 -229q-9 0 -9 9v1873q0 10 9 10h93q9 0 9 -10v-1873q0 -9 -9 -9h-93z" />
    <glyph glyph-name="braceright" unicode="}" horiz-adv-x="587" 
d="M125 -291h-81q-10 0 -10 10v88q0 9 10 9h70q80 0 121.5 41t41.5 120v573q0 38 17.5 64t48.5 35q-31 9 -48.5 34.5t-17.5 62.5v570q0 160 -163 160h-70q-10 0 -10 10v85q0 10 10 10h81q127 0 196 -66.5t69 -188.5v-548q0 -76 73 -76h29q10 0 10 -10v-86q0 -9 -10 -9h-29
q-73 0 -73 -77v-554q0 -122 -69 -189.5t-196 -67.5z" />
    <glyph glyph-name="asciitilde" unicode="~" horiz-adv-x="833" 
d="M725 833q11 6 11 -6v-83q0 -8 -6 -12q-82 -49 -166 -49q-66 0 -153.5 39t-139.5 39q-81 0 -163 -46q-12 -7 -12 6v83q0 6 6 11q82 49 165 49q68 0 155 -38.5t138 -38.5q83 0 165 46z" />
    <glyph glyph-name="uni00A0" unicode="&#xa0;" horiz-adv-x="399" 
 />
    <glyph glyph-name="cent" unicode="&#xa2;" horiz-adv-x="913" 
d="M881 497q8 -5 3 -13q-53 -85 -135.5 -136.5t-182.5 -62.5v-181q0 -10 -9 -10h-69q-10 0 -10 10v180q-176 13 -279 137.5t-103 321.5q0 192 104 315t278 140v181q0 10 10 10h69q9 0 9 -10v-180q191 -14 304 -176q5 -8 -2 -14l-76 -61q-8 -7 -13 3q-78 126 -213 141v-700
q71 10 129 50t94 105q5 10 13 3zM212 743q0 -149 70.5 -242.5t195.5 -108.5v698q-123 -17 -194.5 -110t-71.5 -237z" />
    <glyph glyph-name="sterling" unicode="&#xa3;" horiz-adv-x="1169" 
d="M1116 147l6 -6q-4 -7 -14 -20.5t-40 -42.5t-65.5 -52t-92 -41t-117.5 -18q-75 0 -154 22t-152 44t-135 22q-111 0 -202 -76q-9 -7 -13 2l-38 76q-4 7 2 13q91 87 224 95q33 116 33 206q0 128 -37 242l-150 -2q-9 0 -9 9v81q0 10 9 10l113 -2q-18 41 -54 107t-56.5 107.5
t-37.5 105.5t-17 128q0 160 108.5 257t284.5 97q138 0 250.5 -68.5t162.5 -182.5q3 -9 -4 -13l-80 -57q-9 -7 -13 4q-38 96 -122.5 153.5t-190.5 57.5q-126 0 -203 -68.5t-77 -181.5q0 -54 18.5 -111.5t42 -101.5t58 -111t55.5 -122l275 2q10 0 10 -10v-81q0 -9 -10 -9
l-245 2q29 -110 29 -238q0 -104 -34 -217q39 -7 158.5 -44t195.5 -37q52 0 98 16t77 41.5t47.5 43.5t28.5 36q6 9 13 2z" />
    <glyph glyph-name="yen" unicode="&#xa5;" horiz-adv-x="1286" 
d="M1205 1483q14 0 7 -12l-386 -600l158 2q9 0 9 -9v-82q0 -9 -9 -9l-220 2l-65 -101v-110l285 2q9 0 9 -10v-81q0 -10 -9 -10l-285 2v-457q0 -10 -9 -10h-94q-10 0 -10 10v457l-284 -2q-10 0 -10 10v81q0 10 10 10l284 -2v109l-65 102l-219 -2q-10 0 -10 9v82q0 9 10 9
l157 -2l-384 600q-7 12 6 12h117q6 0 11 -7l379 -598q42 -68 56 -109q10 32 59 110l380 597q5 7 11 7h111z" />
    <glyph glyph-name="copyright" unicode="&#xa9;" horiz-adv-x="1789" 
d="M895 -29q-168 0 -316.5 61t-254 166.5t-167 253.5t-61.5 316t61.5 316t167 253.5t254 166.5t316.5 61t316.5 -61t254 -166.5t167 -253.5t61.5 -316t-61.5 -316t-167 -253.5t-254 -166.5t-316.5 -61zM895 85q193 0 350.5 89t247 245.5t89.5 348.5t-89.5 348.5t-247 245.5
t-350.5 89t-350.5 -89t-247 -245.5t-89.5 -348.5t89.5 -348.5t247 -245.5t350.5 -89zM898 401q-159 0 -253 100.5t-94 268.5q0 164 97.5 264.5t257.5 100.5q175 0 277 -138q6 -8 -2 -14l-72 -57q-9 -7 -13 2q-66 105 -188 105q-111 0 -177 -71.5t-66 -191.5
q0 -122 63.5 -193.5t172.5 -71.5q65 0 118.5 30t85.5 85q5 10 13 3l74 -50q8 -5 3 -13q-49 -76 -126.5 -117.5t-170.5 -41.5z" />
    <glyph glyph-name="guillemotleft" unicode="&#xab;" horiz-adv-x="817" 
d="M356 116l-273 307q-7 7 0 14l273 307q6 7 14 1l71 -65q7 -6 1 -14l-225 -236l225 -236q6 -7 -1 -13l-71 -66q-8 -6 -14 1zM700 116l-273 307q-7 7 0 14l273 307q6 7 13 1l72 -65q7 -5 0 -14l-224 -236l224 -236q6 -8 0 -13l-72 -66q-7 -6 -13 1z" />
    <glyph glyph-name="uni00AD" unicode="&#xad;" 
d="M130 448q-9 0 -9 9v85q0 10 9 10h458q10 0 10 -10v-85q0 -9 -10 -9h-458z" />
    <glyph glyph-name="registered" unicode="&#xae;" horiz-adv-x="1789" 
d="M895 1565q168 0 316.5 -61t254 -166.5t167 -253.5t61.5 -316t-61.5 -316t-167 -253.5t-254 -166.5t-316.5 -61t-316.5 61t-254 166.5t-167 253.5t-61.5 316t61.5 316t167 253.5t254 166.5t316.5 61zM895 85q193 0 350.5 89t247 245.5t89.5 348.5t-89.5 348.5t-247 245.5
t-350.5 89t-350.5 -89t-247 -245.5t-89.5 -348.5t89.5 -348.5t247 -245.5t350.5 -89zM957 721l214 -294q9 -11 -5 -11h-115q-7 0 -12 6l-194 289h-29v-286q0 -9 -9 -9h-91q-10 0 -10 9v688q0 9 10 9h150q117 0 184 -55t67 -151q0 -74 -42 -125t-118 -70zM816 1017v-203h59
q62 0 95.5 26.5t33.5 75.5t-34.5 75t-96.5 26h-57z" />
    <glyph glyph-name="guillemotright" unicode="&#xbb;" horiz-adv-x="817" 
d="M117 116q-6 -7 -14 -1l-71 66q-7 6 -1 13l225 236l-225 236q-6 8 1 14l71 65q8 6 14 -1l273 -307q7 -7 0 -14zM460 116q-6 -7 -13 -1l-71 66q-7 6 -1 13l225 236l-225 236q-6 8 1 14l71 65q7 6 13 -1l274 -307q7 -7 0 -14z" />
    <glyph glyph-name="uni2000" unicode="&#x2000;" horiz-adv-x="847" 
 />
    <glyph glyph-name="uni2001" unicode="&#x2001;" horiz-adv-x="1694" 
 />
    <glyph glyph-name="uni2002" unicode="&#x2002;" horiz-adv-x="847" 
 />
    <glyph glyph-name="uni2003" unicode="&#x2003;" horiz-adv-x="1694" 
 />
    <glyph glyph-name="uni2004" unicode="&#x2004;" horiz-adv-x="564" 
 />
    <glyph glyph-name="uni2005" unicode="&#x2005;" horiz-adv-x="423" 
 />
    <glyph glyph-name="uni2006" unicode="&#x2006;" horiz-adv-x="282" 
 />
    <glyph glyph-name="uni2007" unicode="&#x2007;" horiz-adv-x="282" 
 />
    <glyph glyph-name="uni2008" unicode="&#x2008;" horiz-adv-x="211" 
 />
    <glyph glyph-name="uni2009" unicode="&#x2009;" horiz-adv-x="338" 
 />
    <glyph glyph-name="uni200A" unicode="&#x200a;" horiz-adv-x="94" 
 />
    <glyph glyph-name="uni2010" unicode="&#x2010;" 
d="M130 448q-9 0 -9 9v85q0 10 9 10h458q10 0 10 -10v-85q0 -9 -10 -9h-458z" />
    <glyph glyph-name="uni2011" unicode="&#x2011;" 
d="M130 448q-9 0 -9 9v85q0 10 9 10h458q10 0 10 -10v-85q0 -9 -10 -9h-458z" />
    <glyph glyph-name="figuredash" unicode="&#x2012;" 
d="M130 448q-9 0 -9 9v85q0 10 9 10h458q10 0 10 -10v-85q0 -9 -10 -9h-458z" />
    <glyph glyph-name="endash" unicode="&#x2013;" horiz-adv-x="940" 
d="M130 448q-9 0 -9 9v85q0 10 9 10h679q9 0 9 -10v-85q0 -9 -9 -9h-679z" />
    <glyph glyph-name="emdash" unicode="&#x2014;" horiz-adv-x="1390" 
d="M130 448q-9 0 -9 9v85q0 10 9 10h1130q10 0 10 -10v-85q0 -9 -10 -9h-1130z" />
    <glyph glyph-name="quoteleft" unicode="&#x2018;" horiz-adv-x="462" 
d="M336 1536q11 0 8 -11l-113 -334q-3 -8 -11 -8h-94q-13 0 -8 11l128 335q3 7 11 7h79z" />
    <glyph glyph-name="quoteright" unicode="&#x2019;" horiz-adv-x="462" 
d="M126 1184q-11 0 -8 10l113 334q3 8 11 8h94q13 0 8 -11l-128 -334q-3 -7 -11 -7h-79z" />
    <glyph glyph-name="quotesinglbase" unicode="&#x201a;" horiz-adv-x="407" 
d="M98 -143q-11 0 -8 10l114 334q3 8 10 8h94q13 0 8 -11l-128 -334q-3 -7 -11 -7h-79z" />
    <glyph glyph-name="quotedblleft" unicode="&#x201c;" horiz-adv-x="671" 
d="M336 1536q11 0 8 -11l-113 -334q-3 -8 -11 -8h-94q-13 0 -8 11l128 335q3 7 11 7h79zM545 1536q11 0 8 -11l-113 -334q-3 -8 -11 -8h-94q-13 0 -8 11l128 335q3 7 11 7h79z" />
    <glyph glyph-name="quotedblright" unicode="&#x201d;" horiz-adv-x="671" 
d="M126 1184q-11 0 -8 10l113 334q3 8 11 8h94q13 0 8 -11l-128 -334q-3 -7 -11 -7h-79zM335 1184q-11 0 -8 10l113 334q3 8 11 8h94q12 0 7 -11l-127 -334q-3 -7 -11 -7h-79z" />
    <glyph glyph-name="quotedblbase" unicode="&#x201e;" horiz-adv-x="616" 
d="M98 -143q-11 0 -8 10l114 334q3 8 10 8h94q13 0 8 -11l-128 -334q-3 -7 -11 -7h-79zM307 -143q-11 0 -8 10l114 334q3 8 10 8h94q13 0 8 -11l-128 -334q-3 -7 -11 -7h-79z" />
    <glyph glyph-name="ellipsis" unicode="&#x2026;" horiz-adv-x="1114" 
d="M208 -20q-52 0 -86.5 34.5t-34.5 87.5q0 51 34.5 85.5t86.5 34.5t85.5 -35t33.5 -85q0 -52 -34 -87t-85 -35zM557 -20q-52 0 -86.5 34.5t-34.5 87.5q0 51 34.5 85.5t86.5 34.5t86 -35t34 -85q0 -52 -34 -87t-86 -35zM907 -20q-52 0 -86.5 34.5t-34.5 87.5q0 51 34.5 85.5
t86.5 34.5t85.5 -35t33.5 -85q0 -52 -34 -87t-85 -35z" />
    <glyph glyph-name="uni202F" unicode="&#x202f;" horiz-adv-x="338" 
 />
    <glyph glyph-name="guilsinglleft" unicode="&#x2039;" horiz-adv-x="473" 
d="M356 116l-273 307q-7 7 0 14l273 307q6 7 14 1l71 -65q7 -6 1 -14l-225 -236l225 -236q6 -7 -1 -13l-71 -66q-8 -6 -14 1z" />
    <glyph glyph-name="guilsinglright" unicode="&#x203a;" horiz-adv-x="473" 
d="M117 116q-6 -7 -14 -1l-71 66q-7 6 -1 13l225 236l-225 236q-6 8 1 14l71 65q8 6 14 -1l273 -307q7 -7 0 -14z" />
    <glyph glyph-name="uni205F" unicode="&#x205f;" horiz-adv-x="423" 
 />
    <glyph glyph-name="Euro" unicode="&#x20ac;" horiz-adv-x="1427" 
d="M1373 224q6 -6 1 -13q-87 -115 -214.5 -178.5t-275.5 -63.5q-229 0 -401 151t-231 396l-145 -2q-12 0 -9 10l21 82q1 8 11 8l104 -1q-8 64 -8 124q0 61 8 125l-127 -2q-12 0 -9 11l21 82q1 8 11 8l122 -2q59 245 232 395.5t403 150.5q137 0 256.5 -55t201.5 -156
q6 -7 -1 -14l-66 -68q-7 -7 -13 1q-63 88 -162 137t-215 49q-184 0 -323.5 -121t-194.5 -320l564 3q11 0 8 -11l-21 -82q-2 -8 -10 -8l-561 2q-9 -60 -9 -125t9 -125l502 3q11 0 8 -11l-21 -82q-2 -8 -10 -8l-459 2q54 -199 193 -319.5t324 -120.5q124 0 229.5 55.5
t174.5 154.5q6 8 13 2z" />
    <glyph glyph-name="trademark" unicode="&#x2122;" horiz-adv-x="1615" 
d="M1565 625q3 -11 -8 -11h-95q-8 0 -10 9l-123 529q-13 55 -16 96q-4 -37 -27 -96l-207 -557q-2 -6 -6 -6t-6 6l-210 557q-20 54 -27 96q-3 -46 -15 -96l-123 -529q-2 -9 -11 -9h-94q-11 0 -8 11l229 908q1 4 3.5 6t5 0t3.5 -6l233 -644q16 -45 20 -81q4 37 20 81l232 644
q1 4 3.5 5.5t5 -0.5t3.5 -6zM561 1505q9 0 9 -9v-85q0 -9 -9 -9h-196v-778q0 -10 -10 -10h-92q-10 0 -10 10v778h-195q-9 0 -9 9v85q0 9 9 9h503z" />
    <glyph glyph-name="uni25FC" unicode="&#x25fc;" horiz-adv-x="860" 
d="M0 860h860v-860h-860v860z" />
    </font>
</defs>
</svg>
