<?xml version="1.0" encoding="utf-8"?>
<!-- Generator: Adobe Illustrator 22.0.1, SVG Export Plug-In . SVG Version: 6.00 Build 0)  -->
<svg version="1.1" id="Layer_1" xmlns="http://www.w3.org/2000/svg" xmlns:xlink="http://www.w3.org/1999/xlink" x="0px" y="0px"
	 viewBox="0 0 765.5 145.7" style="enable-background:new 0 0 765.5 145.7;" xml:space="preserve">
<style type="text/css">
	.st0{fill:#F4F4F4;stroke:#919191;stroke-width:1.3162;stroke-miterlimit:10;}
	.st1{fill:#FF4800;}
	.st2{clip-path:url(#SVGID_2_);}
	.st3{fill:#FF5622;}
	.st4{clip-path:url(#SVGID_4_);}
	.st5{fill:#E52B00;}
	.st6{clip-path:url(#SVGID_6_);}
	.st7{fill:#FFFFFF;}
	.st8{clip-path:url(#SVGID_8_);}
	.st9{clip-path:url(#SVGID_10_);}
	.st10{clip-path:url(#SVGID_12_);}
	.st11{clip-path:url(#SVGID_14_);}
</style>
<g>
	<path class="st0" d="M255.7,108.7c4.9,15.2-11.9,13.1-11.9,13.1c-4.3,23.3-23.6,10.9-23.6,10.9c-9.1,20.9-22.2,5.3-22.2,5.3
		c-11.9,15.2-21.3,0-21.3,0c-10.2,15.2-20.8,0.2-20.8,0.2c-11.9,15.9-23.5-0.5-23.5-0.5c-12.8,15.4-23.4,0.2-23.4,0.2
		c-9.8,14.1-21.5-1.4-21.5-1.4c-14.3,12.9-22.3-3.3-22.3-3.3c-15.9,10.2-19.1-6.3-19.1-6.3c-16.2,0.8-11.7-14.6-11.7-14.6L131.2,80
		h57.3l28.7,13l17,6.6L255.7,108.7z"/>
	<g>
		<g>
			<path id="XMLID_3_" class="st1" d="M0.3,86.8c-1.4-12.4,2.4-26.6,8-35.6c6.3-10.3,14.6-20.3,24.7-27C60.6,5.7,99.9-1,132.3,0.1
				c33.1,1.2,66.6,4.7,94.8,23.4c10.7,7.2,21,17.6,29.6,27.3c4.9,5.7,11.2,13.7,16,20.9c1.1,1.7,2.4,3.5,3.6,5.1
				c4.8,6.4,22.1,26.9,35,34.4c-2.9,1-5.9,1.7-9,2.1c-9.2,1.6-18.7,1.6-28.1,0.7c-11.3-1.1-22.4-3.5-33.3-6.9
				c-15.8-4.9-30.2-11.5-46.7-13.9c-17.1-2.5-34.5-2.7-51.7-0.7c-3.6,0.4-7.2,1-10.6,1.6c-12.1,2.1-23.3,6.4-35.1,9.9
				c-16.1,4.8-33,8.7-50,9.7c-11.9,0.8-26.5,0.6-36.5-7.3C4.2,101.7,1.3,94.6,0.3,86.8z"/>
		</g>
		<g>
			<g>
				<defs>
					<path id="SVGID_1_" d="M0.3,86.8c-1.4-12.4,2.4-26.6,8-35.6c6.3-10.3,14.6-20.3,24.7-27C60.6,5.7,99.9-1,132.3,0.1
						c33.1,1.2,66.6,4.7,94.8,23.4c10.7,7.2,21,17.6,29.6,27.3c4.9,5.7,11.2,13.7,16,20.9c1.1,1.7,2.4,3.5,3.6,5.1
						c4.8,6.4,22.1,26.9,35,34.4c-2.9,1-5.9,1.7-9,2.1c-9.2,1.6-18.7,1.6-28.1,0.7c-11.3-1.1-22.4-3.5-33.3-6.9
						c-15.8-4.9-30.2-11.5-46.7-13.9c-17.1-2.5-34.5-2.7-51.7-0.7c-3.6,0.4-7.2,1-10.6,1.6c-12.1,2.1-23.3,6.4-35.1,9.9
						c-16.1,4.8-33,8.7-50,9.7c-11.9,0.8-26.5,0.6-36.5-7.3C4.2,101.7,1.3,94.6,0.3,86.8z"/>
				</defs>
				<clipPath id="SVGID_2_">
					<use xlink:href="#SVGID_1_"  style="overflow:visible;"/>
				</clipPath>
				<g class="st2">
					<g>
						<path class="st3" d="M12.8,28.8C63.1,13,119.7,7,170.5,24.7c26.6,9.3,49.4,25.2,71.1,43.1c22,18.4,42.9,38.5,67.6,53.4
							c28.1,17.1,61.5,26.6,94,18.7c8-1.9,14-11.2,15.3-19c1.2-6.3-1.3-14.7-9.3-12.7C350.2,122.6,301.6,73,260.7,38.8
							c-21.5-18-44.2-34.3-70.8-43.8c-25.3-9.1-51.9-13.3-78.8-12.9c-31.3,0.4-62.3,5.9-92.2,15.2C10.8-0.4,5,8,3.5,16.1
							C2.5,22,4.8,31.3,12.8,28.8L12.8,28.8z"/>
					</g>
				</g>
			</g>
		</g>
		<g>
			<g>
				<defs>
					<path id="SVGID_3_" d="M0.3,86.8c-1.4-12.4,2.4-26.6,8-35.6c6.3-10.3,14.6-20.3,24.7-27C60.6,5.7,99.9-1,132.3,0.1
						c33.1,1.2,66.6,4.7,94.8,23.4c10.7,7.2,21,17.6,29.6,27.3c4.9,5.7,11.2,13.7,16,20.9c1.1,1.7,2.4,3.5,3.6,5.1
						c4.8,6.4,22.1,26.9,35,34.4c-2.9,1-5.9,1.7-9,2.1c-9.2,1.6-18.7,1.6-28.1,0.7c-11.3-1.1-22.4-3.5-33.3-6.9
						c-15.8-4.9-30.2-11.5-46.7-13.9c-17.1-2.5-34.5-2.7-51.7-0.7c-3.6,0.4-7.2,1-10.6,1.6c-12.1,2.1-23.3,6.4-35.1,9.9
						c-16.1,4.8-33,8.7-50,9.7c-11.9,0.8-26.5,0.6-36.5-7.3C4.2,101.7,1.3,94.6,0.3,86.8z"/>
				</defs>
				<clipPath id="SVGID_4_">
					<use xlink:href="#SVGID_3_"  style="overflow:visible;"/>
				</clipPath>
				<g class="st4">
					<g>
						<path class="st5" d="M-29.3,63.9c1,22.6,5.1,47.5,29.6,55.2c25.2,7.9,54.9,5.1,80.2-1c13.4-3.2,26.5-7,40.2-8.8
							c12.4-1.6,25.1-1.4,37.5-0.1c26.4,2.7,49.3,12.8,73.1,24c26.9,12.8,56.7,24.2,86.6,14.9c8-2.5,13.9-10.9,15.3-19
							c1.1-5.9-1.3-15.2-9.3-12.7c-23.9,7.5-48.2-1.2-69.9-11.3c-23.2-10.7-45.5-21.7-70.9-26.3c-24.2-4.4-49.4-3.5-73.4,1.9
							c-12.5,2.9-25,6.7-37.7,8.7c-12.7,2-25.4,2.3-38.1,1.2c-10.7-1-24-1.8-30.9-11.2C-3.2,71-3.5,59.7-4,49.8
							c-0.4-7.4-6.3-11.1-12.9-7.5C-23.9,46.2-29.7,55.8-29.3,63.9L-29.3,63.9z"/>
					</g>
				</g>
			</g>
		</g>
		<g>
			<g>
				<defs>
					<path id="SVGID_5_" d="M0.3,86.8c-1.4-12.4,2.4-26.6,8-35.6c6.3-10.3,14.6-20.3,24.7-27C60.6,5.7,99.9-1,132.3,0.1
						c33.1,1.2,66.6,4.7,94.8,23.4c10.7,7.2,21,17.6,29.6,27.3c4.9,5.7,11.2,13.7,16,20.9c1.1,1.7,2.4,3.5,3.6,5.1
						c4.8,6.4,22.1,26.9,35,34.4c-2.9,1-5.9,1.7-9,2.1c-9.2,1.6-18.7,1.6-28.1,0.7c-11.3-1.1-22.4-3.5-33.3-6.9
						c-15.8-4.9-30.2-11.5-46.7-13.9c-17.1-2.5-34.5-2.7-51.7-0.7c-3.6,0.4-7.2,1-10.6,1.6c-12.1,2.1-23.3,6.4-35.1,9.9
						c-16.1,4.8-33,8.7-50,9.7c-11.9,0.8-26.5,0.6-36.5-7.3C4.2,101.7,1.3,94.6,0.3,86.8z"/>
				</defs>
				<clipPath id="SVGID_6_">
					<use xlink:href="#SVGID_5_"  style="overflow:visible;"/>
				</clipPath>
				<g class="st6">
					<g>
						<path class="st7" d="M3.5,27.2c-1.3,12.2-2.1,25.2,1.9,37C9.5,75.7,17.9,83.3,26,91.9c13.4,14.3,27,40,11,57.4
							c-2.7,3-5.4,9.7-2.6,13.3c3,3.9,8,0,10.3-2.5c18-19.5,18-48.2,4.8-70.2c-6.4-10.6-16-18.2-23.5-27.8
							c-8.7-11.2-9.2-24.8-7.6-38.6C19.5,10,4.5,18.3,3.5,27.2L3.5,27.2z"/>
					</g>
				</g>
			</g>
		</g>
		<g>
			<g>
				<defs>
					<path id="SVGID_7_" d="M0.3,86.8c-1.4-12.4,2.4-26.6,8-35.6c6.3-10.3,14.6-20.3,24.7-27C60.6,5.7,99.9-1,132.3,0.1
						c33.1,1.2,66.6,4.7,94.8,23.4c10.7,7.2,21,17.6,29.6,27.3c4.9,5.7,11.2,13.7,16,20.9c1.1,1.7,2.4,3.5,3.6,5.1
						c4.8,6.4,22.1,26.9,35,34.4c-2.9,1-5.9,1.7-9,2.1c-9.2,1.6-18.7,1.6-28.1,0.7c-11.3-1.1-22.4-3.5-33.3-6.9
						c-15.8-4.9-30.2-11.5-46.7-13.9c-17.1-2.5-34.5-2.7-51.7-0.7c-3.6,0.4-7.2,1-10.6,1.6c-12.1,2.1-23.3,6.4-35.1,9.9
						c-16.1,4.8-33,8.7-50,9.7c-11.9,0.8-26.5,0.6-36.5-7.3C4.2,101.7,1.3,94.6,0.3,86.8z"/>
				</defs>
				<clipPath id="SVGID_8_">
					<use xlink:href="#SVGID_7_"  style="overflow:visible;"/>
				</clipPath>
				<g class="st8">
					<g>
						<path class="st7" d="M44.1-4.9C43.4,2,42.7,9.1,44.4,16c1.6,6.7,5.4,12.9,9.4,18.4C62,45.7,73.1,53.2,82.9,62.9
							c9.7,9.4,15.9,21.9,20.1,34.5c3.9,11.7,6.9,27.3-1.2,38.1c-2.5,3.2-5.6,9.4-2.6,13.3c2.9,3.8,8.2,0.4,10.3-2.5
							c19.6-25.8,12.7-58.8-2.6-84.9C99.4,48.7,88,41.1,77.6,31c-5.5-5.3-10.4-11.2-14.3-17.6c-4.4-7.2-5.4-13.9-4.4-22.1
							c0.5-3.9-0.6-8.4-5.5-7.5C48.8-15.3,44.6-9.2,44.1-4.9L44.1-4.9z"/>
					</g>
				</g>
			</g>
		</g>
		<g>
			<g>
				<defs>
					<path id="SVGID_9_" d="M0.3,86.8c-1.4-12.4,2.4-26.6,8-35.6c6.3-10.3,14.6-20.3,24.7-27C60.6,5.7,99.9-1,132.3,0.1
						c33.1,1.2,66.6,4.7,94.8,23.4c10.7,7.2,21,17.6,29.6,27.3c4.9,5.7,11.2,13.7,16,20.9c1.1,1.7,2.4,3.5,3.6,5.1
						c4.8,6.4,22.1,26.9,35,34.4c-2.9,1-5.9,1.7-9,2.1c-9.2,1.6-18.7,1.6-28.1,0.7c-11.3-1.1-22.4-3.5-33.3-6.9
						c-15.8-4.9-30.2-11.5-46.7-13.9c-17.1-2.5-34.5-2.7-51.7-0.7c-3.6,0.4-7.2,1-10.6,1.6c-12.1,2.1-23.3,6.4-35.1,9.9
						c-16.1,4.8-33,8.7-50,9.7c-11.9,0.8-26.5,0.6-36.5-7.3C4.2,101.7,1.3,94.6,0.3,86.8z"/>
				</defs>
				<clipPath id="SVGID_10_">
					<use xlink:href="#SVGID_9_"  style="overflow:visible;"/>
				</clipPath>
				<g class="st9">
					<g>
						<path class="st7" d="M110.9-12.3c0,28.2,23.5,44.3,39.2,64.5c17.1,22.2,15.6,50.5-2,71.9c-2.6,3.1-5.5,9.6-2.6,13.3
							c3,3.8,8.1,0.2,10.3-2.5c19.2-23.3,28.9-56.4,15.5-84.9c-11.6-24.6-45.5-41.1-45.4-70.7c0-4.5-3.8-6.3-7.6-4.4
							C113.9-22.9,110.9-17.1,110.9-12.3L110.9-12.3z"/>
					</g>
				</g>
			</g>
		</g>
		<g>
			<g>
				<defs>
					<path id="SVGID_11_" d="M0.3,86.8c-1.4-12.4,2.4-26.6,8-35.6c6.3-10.3,14.6-20.3,24.7-27C60.6,5.7,99.9-1,132.3,0.1
						c33.1,1.2,66.6,4.7,94.8,23.4c10.7,7.2,21,17.6,29.6,27.3c4.9,5.7,11.2,13.7,16,20.9c1.1,1.7,2.4,3.5,3.6,5.1
						c4.8,6.4,22.1,26.9,35,34.4c-2.9,1-5.9,1.7-9,2.1c-9.2,1.6-18.7,1.6-28.1,0.7c-11.3-1.1-22.4-3.5-33.3-6.9
						c-15.8-4.9-30.2-11.5-46.7-13.9c-17.1-2.5-34.5-2.7-51.7-0.7c-3.6,0.4-7.2,1-10.6,1.6c-12.1,2.1-23.3,6.4-35.1,9.9
						c-16.1,4.8-33,8.7-50,9.7c-11.9,0.8-26.5,0.6-36.5-7.3C4.2,101.7,1.3,94.6,0.3,86.8z"/>
				</defs>
				<clipPath id="SVGID_12_">
					<use xlink:href="#SVGID_11_"  style="overflow:visible;"/>
				</clipPath>
				<g class="st10">
					<g>
						<path class="st7" d="M194-12.7c-3.5,12.7-3.3,26.6,1.1,39s13,22.8,17,35.5c3.6,11.5,6.8,26.2,3.3,38
							c-3.2,11.1-12.3,19.9-19.8,28.2c-2.7,3-5.4,9.7-2.6,13.3c3,3.9,8,0.1,10.3-2.5c9.2-10,18-20.3,23.5-33c6-13.6,5.4-28.1,3-42.5
							c-2.3-14-7.9-25.8-14.7-38.1c-7.4-13.3-10.4-26.9-6.3-41.7c1.1-3.9-1.1-8.4-5.5-7.5C198.1-22.9,195.2-17,194-12.7L194-12.7z"
							/>
					</g>
				</g>
			</g>
		</g>
		<g>
			<g>
				<defs>
					<path id="SVGID_13_" d="M0.3,86.8c-1.4-12.4,2.4-26.6,8-35.6c6.3-10.3,14.6-20.3,24.7-27C60.6,5.7,99.9-1,132.3,0.1
						c33.1,1.2,66.6,4.7,94.8,23.4c10.7,7.2,21,17.6,29.6,27.3c4.9,5.7,11.2,13.7,16,20.9c1.1,1.7,2.4,3.5,3.6,5.1
						c4.8,6.4,22.1,26.9,35,34.4c-2.9,1-5.9,1.7-9,2.1c-9.2,1.6-18.7,1.6-28.1,0.7c-11.3-1.1-22.4-3.5-33.3-6.9
						c-15.8-4.9-30.2-11.5-46.7-13.9c-17.1-2.5-34.5-2.7-51.7-0.7c-3.6,0.4-7.2,1-10.6,1.6c-12.1,2.1-23.3,6.4-35.1,9.9
						c-16.1,4.8-33,8.7-50,9.7c-11.9,0.8-26.5,0.6-36.5-7.3C4.2,101.7,1.3,94.6,0.3,86.8z"/>
				</defs>
				<clipPath id="SVGID_14_">
					<use xlink:href="#SVGID_13_"  style="overflow:visible;"/>
				</clipPath>
				<g class="st11">
					<g>
						<path class="st7" d="M259.8,42.9c3.2,2,3.9,10.5,4.5,14c1,5.5,1.3,11,1.2,16.5c-0.2,10-2.6,20.2-6.9,29.3
							c-8.6,18-23.6,32.2-38,45.7c-3.3,3.1-6.8,8.7-5.1,13.5c1.6,4.4,6.3,3.8,9.3,1.1c19.3-18.3,38.6-37.6,48.6-62.7
							c4.9-12.4,7.4-25.9,7.2-39.2c-0.1-6.9-1-13.9-2.5-20.5c-1.3-5.6-2.6-12.3-7.8-15.5C263.1,20.3,252.5,38.2,259.8,42.9
							L259.8,42.9z"/>
					</g>
				</g>
			</g>
		</g>
	</g>
</g>
<g>
	<path class="st7" d="M371.7,113c-4.5-2.2-8.2-5.2-11.2-9.2c-0.3-0.4-0.3-0.8,0-1.1l8.1-8.9c0.4-0.4,0.8-0.4,1.1,0
		c4.4,6,10.3,9.4,16.5,9.4c5.7,0,9.5-3.3,9.5-8.5c-0.2-4.1-1-6-4.8-8.2c-1.3-0.7-2.6-1.3-4.1-1.9s-3.4-1.3-5.9-2.1
		c-12.3-4.1-18-10.9-18-21.9c0-5.7,2.2-10.5,6.5-14.3c4.3-3.8,9.8-5.7,16.3-5.7c7.1,0,13.7,2.3,18.4,6.4c0.3,0.3,0.4,0.6,0.1,1
		l-6.1,9.8c-0.3,0.5-0.7,0.6-1.1,0.1c-3.2-3.3-6.9-5-11.1-5c-5.3,0-8.8,3-8.8,7.4c0.2,3.9,1.6,5.6,5,7c2.4,1,4.3,1.5,7.9,2.8
		c1.7,0.6,3.4,1.3,4.9,1.9c10.7,4.7,15.5,11.7,15.5,22c0,6.5-2.3,11.8-6.7,15.9c-4.5,4.1-10.4,6.1-17.6,6.1
		C381,116.3,376.2,115.2,371.7,113z"/>
	<path class="st7" d="M427.9,107.9c-5.4-5.6-8.1-13-8.1-22.3V43.1c0-0.5,0.3-0.8,0.8-0.8h12.5c0.5,0,0.8,0.2,0.8,0.8v41.5
		c0,12.4,5.2,19.3,15.4,19.3c10.1,0,15.4-6.9,15.4-19.3V43.1c0-0.5,0.2-0.8,0.8-0.8h12.7c0.5,0,0.8,0.2,0.8,0.8v42.5
		c0,9.3-2.7,16.7-8.1,22.3s-12.6,8.4-21.5,8.4C440.4,116.3,433.3,113.5,427.9,107.9z"/>
	<path class="st7" d="M496.8,113c-4.5-2.2-8.2-5.2-11.2-9.2c-0.3-0.4-0.3-0.8,0-1.1l8.1-8.9c0.4-0.4,0.8-0.4,1.1,0
		c4.4,6,10.3,9.4,16.5,9.4c5.7,0,9.5-3.3,9.5-8.5c-0.2-4.1-1-6-4.8-8.2c-1.3-0.7-2.6-1.3-4.1-1.9c-1.5-0.6-3.4-1.3-5.9-2.1
		c-12.3-4.1-18-10.9-18-21.9c0-5.7,2.2-10.5,6.5-14.3c4.3-3.8,9.8-5.7,16.3-5.7c7.1,0,13.7,2.3,18.4,6.4c0.3,0.3,0.4,0.6,0.1,1
		l-6.1,9.8c-0.3,0.5-0.7,0.6-1.1,0.1c-3.2-3.3-6.9-5-11.1-5c-5.3,0-8.8,3-8.8,7.4c0.2,3.9,1.6,5.6,5,7c2.4,1,4.3,1.5,7.9,2.8
		c1.7,0.6,3.4,1.3,4.9,1.9c10.7,4.7,15.5,11.7,15.5,22c0,6.5-2.3,11.8-6.7,15.9c-4.5,4.1-10.4,6.1-17.6,6.1
		C506.1,116.3,501.3,115.2,496.8,113z"/>
	<path class="st7" d="M597.9,42.3c0.5,0,0.8,0.2,0.8,0.8V114c0,0.5-0.2,0.8-0.8,0.8h-12.5c-0.5,0-0.8-0.2-0.8-0.8V83.2h-25.8V114
		c0,0.5-0.2,0.8-0.8,0.8h-12.5c-0.5,0-0.8-0.2-0.8-0.8V43.1c0-0.5,0.3-0.8,0.8-0.8H558c0.5,0,0.8,0.2,0.8,0.8V71h25.8V43.1
		c0-0.5,0.3-0.8,0.8-0.8L597.9,42.3L597.9,42.3z"/>
	<path class="st7" d="M611.4,114.7c-0.5,0-0.8-0.2-0.8-0.8V43c0-0.5,0.3-0.8,0.8-0.8h12.7c0.5,0,0.8,0.2,0.8,0.8v70.9
		c0,0.5-0.3,0.8-0.8,0.8H611.4z"/>
	<path class="st7" d="M690.4,113.7c0.4,0.5,0.1,0.9-0.5,0.9h-15.4c-0.4,0-0.7-0.1-0.9-0.5L652.9,85h-2.1v28.9c0,0.5-0.2,0.8-0.8,0.8
		h-12.5c-0.5,0-0.8-0.2-0.8-0.8V43c0-0.5,0.3-0.8,0.8-0.8H654c8.7,0,15.5,1.9,20.3,5.6s7.2,9,7.2,15.8c0,10-4.6,16.5-13.7,19.5
		L690.4,113.7z M650.9,54.3v18.8h5.1c7.2,0,11.2-3.4,11.2-9.3c0-6-4.4-9.5-12.2-9.5H650.9z"/>
	<path class="st7" d="M709.7,111.4c-5.6-3.2-9.9-7.7-13.1-13.4c-3.1-5.7-4.7-12.2-4.7-19.5c0-7.2,1.6-13.6,4.8-19.4
		c3.2-5.7,7.5-10.2,13.1-13.5c5.6-3.3,11.9-4.9,18.9-4.9c7.1,0,13.5,1.6,19.1,4.9c5.6,3.3,9.9,7.8,13.1,13.5
		c3.1,5.7,4.6,12.2,4.6,19.3c0,10.6-4,20.3-10.4,27c-3.3,3.3-7.1,5.9-11.7,7.9c-4.6,2-9.5,2.9-14.7,2.9
		C721.7,116.3,715.3,114.7,709.7,111.4z M751.3,78.5c-0.1-7.3-2.3-13.3-6.5-18.2c-4.2-4.8-9.6-7.2-16-7.2c-6.5,0-12,2.3-16.2,7
		s-6.3,10.8-6.3,18.4c0,7.5,2.1,13.6,6.2,18.3c4.1,4.8,9.5,7.1,16.3,7.1C741.6,104.1,751.7,92.7,751.3,78.5z"/>
</g>
</svg>
