<?xml version="1.0" encoding="utf-8"?>
<!-- Generator: Adobe Illustrator 22.0.1, SVG Export Plug-In . SVG Version: 6.00 Build 0)  -->
<svg version="1.1" id="Layer_1" xmlns="http://www.w3.org/2000/svg" xmlns:xlink="http://www.w3.org/1999/xlink" x="0px" y="0px"
	 viewBox="0 0 525.7 193" style="enable-background:new 0 0 525.7 193;" xml:space="preserve">
<g>
	<path d="M72.5,81.3c0.2,0.6-0.1,1-0.7,1H55.9c-0.5,0-0.8-0.3-1-0.7l-8.9-28H26.1l-8.8,28c-0.2,0.5-0.5,0.7-1,0.7H0.8
		c-0.6,0-0.9-0.4-0.7-1L28.2,2.4c0.2-0.5,0.5-0.7,1-0.7h14.2c0.5,0,0.8,0.2,0.9,0.7L72.5,81.3z M30.2,40.7h11.8L38.8,31
		c-1.4-4.5-2.3-8.6-2.8-12.3c-0.2,2.8-1.2,6.9-2.8,12.2L30.2,40.7z"/>
	<path d="M122.2,67.7c0.6,0,0.9,0.3,0.9,0.9v12.9c0,0.6-0.3,0.8-0.9,0.8H78.4c-0.6,0-0.9-0.3-0.9-0.8V2.6c0-0.6,0.3-0.8,0.9-0.8
		h14.2c0.6,0,0.9,0.3,0.9,0.8v65.1H122.2z"/>
	<path d="M180.2,58c0,7.3-2.4,13.2-7.1,17.6c-4.8,4.5-11.1,6.7-18.9,6.7h-25.2c-0.6,0-0.9-0.3-0.9-0.8V2.6c0-0.6,0.3-0.8,0.9-0.8
		h18.8c16,0,25.1,7.6,25.1,20.9c0,8.1-3.8,13.6-10.7,15.4C173.6,38.3,180.2,45.6,180.2,58z M143.7,15.1v18.8h4.4
		c5.5,0,8.8-3.6,8.8-9.4c0-5.7-3.4-9.3-8.8-9.3H143.7z M152,68.8c8.2,0,12.3-3.6,12.3-10.9c0-7.2-4.5-10.9-13.3-10.9h-7.2v21.7H152z
		"/>
	<path d="M253.7,81.3c0.2,0.6-0.1,1-0.7,1h-15.8c-0.5,0-0.8-0.3-1-0.7l-8.9-28h-19.9l-8.8,28c-0.2,0.5-0.5,0.7-1,0.7h-15.6
		c-0.6,0-0.9-0.4-0.7-1l28.1-78.9c0.2-0.5,0.5-0.7,1-0.7h14.2c0.5,0,0.8,0.2,0.9,0.7L253.7,81.3z M211.5,40.7h11.8l-3.1-9.8
		c-1.4-4.5-2.3-8.6-2.8-12.3c-0.2,2.8-1.2,6.9-2.8,12.2L211.5,40.7z"/>
	<path d="M323.6,72.8c0.4,0.4,0.3,0.8-0.1,1.2c-6.7,6.5-16.8,10.1-28,10.1c-8.2,0-15.5-1.8-21.8-5.3c-6.3-3.5-11.1-8.5-14.5-14.8
		c-3.4-6.3-5-13.6-5-21.9c0-7.9,1.8-15.1,5.4-21.5c3.5-6.3,8.6-11.4,15-15.1c6.5-3.6,13.8-5.5,22-5.5c10.3,0,19.9,3.7,26.2,10.3
		c0.4,0.4,0.4,0.8,0,1.2l-8.5,10c-0.4,0.5-0.8,0.5-1.2,0c-4.1-5-10.3-7.8-17-7.8c-7.3,0-13.5,2.7-18.4,8.1c-5,5.4-7.4,12.1-7.4,20.1
		c0,8.2,2.4,14.9,7.1,20.1c4.8,5.2,10.8,7.8,18.1,7.8c7.4,0,14-2.8,18.1-7.9c0.4-0.5,0.8-0.5,1.2,0L323.6,72.8z"/>
	<path d="M344.9,78.6c-6.2-3.6-11.1-8.6-14.5-15c-3.5-6.3-5.2-13.6-5.2-21.7c0-8,1.8-15.2,5.3-21.6c3.5-6.4,8.3-11.4,14.6-15
		c6.2-3.6,13.2-5.4,21-5.4c7.9,0,15,1.8,21.2,5.5c6.2,3.7,11.1,8.7,14.5,15.1c3.4,6.4,5.1,13.6,5.1,21.5c0,11.8-4.4,22.6-11.5,30
		c-3.6,3.7-7.9,6.6-13,8.8c-5.1,2.2-10.5,3.3-16.4,3.3C358.1,84,351.1,82.3,344.9,78.6z M391.1,42c-0.1-8.1-2.5-14.8-7.2-20.2
		c-4.7-5.4-10.6-8-17.8-8c-7.3,0-13.3,2.6-18,7.8s-7,12.1-7,20.5c0,8.3,2.3,15.1,6.9,20.4c4.6,5.3,10.6,7.9,18.2,7.9
		C380.4,70.6,391.5,57.9,391.1,42z"/>
	<path d="M475.3,81.2c0.4,0.6,0.2,1-0.5,1h-17.1c-0.4,0-0.7-0.2-1-0.5l-23-32.4h-2.3v32.2c0,0.6-0.3,0.8-0.8,0.8h-14
		c-0.6,0-0.9-0.3-0.9-0.8V2.6c0-0.6,0.3-0.8,0.9-0.8h18.4c9.7,0,17.3,2.1,22.6,6.2c5.3,4.1,8,10,8,17.6c0,11.1-5.1,18.4-15.3,21.7
		L475.3,81.2z M431.4,15.1V36h5.7c8,0,12.5-3.8,12.5-10.4c0-6.7-4.9-10.5-13.5-10.5H431.4z"/>
	<path d="M524.8,68.8c0.6,0,0.8,0.3,0.8,0.8v11.9c0,0.6-0.3,0.8-0.8,0.8h-44.9c-0.6,0-0.9-0.3-0.9-0.8V2.6c0-0.6,0.3-0.8,0.9-0.8
		H523c0.6,0,0.8,0.3,0.8,0.8v11.6c0,0.6-0.3,0.8-0.8,0.8h-28.3v18.5h26.1c0.6,0,0.8,0.3,0.8,0.9v11.2c0,0.6-0.3,0.8-0.8,0.8h-26.1
		v22.3H524.8z"/>
	<path d="M170.6,110.7c0.6,0,0.8,0.3,0.8,0.8v12.3c0,0.6-0.3,0.8-0.8,0.8h-14.2v65.8c0,0.6-0.3,0.8-0.8,0.8h-14.2
		c-0.6,0-0.8-0.3-0.8-0.8v-65.8h-14.2c-0.6,0-0.9-0.3-0.9-0.8v-12.3c0-0.6,0.3-0.8,0.9-0.8H170.6z"/>
	<path d="M186.6,183.7c-6-6.2-9-14.5-9-24.8v-47.3c0-0.6,0.3-0.8,0.9-0.8h14c0.6,0,0.8,0.3,0.8,0.8v46.2c0,13.8,5.8,21.5,17.1,21.5
		c11.3,0,17.1-7.7,17.1-21.5v-46.2c0-0.6,0.3-0.8,0.8-0.8h14.2c0.6,0,0.9,0.3,0.9,0.8v47.3c0,10.3-3,18.6-9,24.8
		c-6,6.2-14.1,9.3-24,9.3S192.6,189.9,186.6,183.7z"/>
	<path d="M255,191.3c-0.6,0-0.9-0.3-0.9-0.8v-78.9c0-0.6,0.3-0.8,0.9-0.8h13.2c0.5,0,0.8,0.2,1,0.5l37.1,51.7
		c-0.3-1.5-0.4-3.8-0.4-6.9v-44.5c0-0.6,0.3-0.8,0.8-0.8h14c0.6,0,0.9,0.3,0.9,0.8v78.9c0,0.6-0.3,0.8-0.9,0.8h-13
		c-0.5,0-0.8-0.2-1-0.5l-37.4-51.5c0.3,1.5,0.4,3.8,0.4,6.9v44.3c0,0.6-0.3,0.8-0.8,0.8H255z"/>
	<path d="M398.8,190.3c0.2,0.6-0.1,1-0.7,1h-15.8c-0.5,0-0.8-0.3-1-0.7l-8.9-28h-19.9l-8.8,28c-0.2,0.5-0.5,0.7-1,0.7h-15.6
		c-0.6,0-0.9-0.4-0.7-1l28.1-78.9c0.2-0.5,0.5-0.7,1-0.7h14.2c0.5,0,0.8,0.2,0.9,0.7L398.8,190.3z M356.5,149.7h11.8l-3.1-9.8
		c-1.4-4.5-2.3-8.6-2.8-12.3c-0.2,2.8-1.2,6.9-2.8,12.2L356.5,149.7z"/>
</g>
</svg>
