<?xml version="1.0" encoding="utf-8"?>
<!-- Generator: Adobe Illustrator 22.0.1, SVG Export Plug-In . SVG Version: 6.00 Build 0)  -->
<svg version="1.1" id="Layer_1" xmlns="http://www.w3.org/2000/svg" xmlns:xlink="http://www.w3.org/1999/xlink" x="0px" y="0px"
	 viewBox="0 0 454.4 193" style="enable-background:new 0 0 454.4 193;" xml:space="preserve">
<g>
	<path d="M46.3,80.4c-5-2.4-9.1-5.8-12.5-10.2c-0.3-0.5-0.3-0.8,0.1-1.2l9-9.9c0.5-0.5,0.8-0.4,1.2,0.1c4.9,6.7,11.5,10.5,18.4,10.5
		c6.3,0,10.5-3.7,10.5-9.4c-0.2-4.5-1.2-6.7-5.4-9.1c-1.4-0.8-2.9-1.5-4.6-2.1c-1.6-0.6-3.8-1.4-6.6-2.3
		c-13.6-4.6-20.1-12.2-20.1-24.4c0-6.3,2.4-11.6,7.3-15.9C48.6,2.1,54.6,0,61.9,0c7.9,0,15.2,2.6,20.5,7.1c0.4,0.3,0.4,0.7,0.2,1.2
		l-6.8,11c-0.4,0.6-0.7,0.6-1.2,0.1c-3.5-3.7-7.7-5.6-12.3-5.6c-5.9,0-9.8,3.3-9.8,8.3c0.2,4.3,1.8,6.2,5.6,7.8
		c2.6,1.2,4.8,1.7,8.8,3.1c1.9,0.7,3.8,1.4,5.4,2.2c12,5.2,17.2,13,17.2,24.5c0,7.2-2.5,13.1-7.5,17.7S70.3,84,62.3,84
		C56.6,84,51.3,82.8,46.3,80.4z"/>
	<path d="M156.2,1.7c0.6,0,0.8,0.3,0.8,0.8v78.9c0,0.6-0.3,0.8-0.8,0.8h-14c-0.6,0-0.9-0.3-0.9-0.8V47.2h-28.7v34.3
		c0,0.6-0.3,0.8-0.8,0.8h-14c-0.6,0-0.9-0.3-0.9-0.8V2.6c0-0.6,0.3-0.8,0.9-0.8h14c0.6,0,0.8,0.3,0.8,0.8v31.1h28.7V2.6
		c0-0.6,0.3-0.8,0.9-0.8H156.2z"/>
	<path d="M168.5,82.3c-0.6,0-0.9-0.3-0.9-0.8V2.6c0-0.6,0.3-0.8,0.9-0.8h14.2c0.6,0,0.9,0.3,0.9,0.8v78.9c0,0.6-0.3,0.8-0.9,0.8
		H168.5z"/>
	<path d="M253.8,81.2c0.4,0.6,0.2,1-0.5,1h-17.1c-0.4,0-0.7-0.2-1-0.5l-23-32.4h-2.3v32.2c0,0.6-0.3,0.8-0.8,0.8h-14
		c-0.6,0-0.9-0.3-0.9-0.8V2.6c0-0.6,0.3-0.8,0.9-0.8h18.4c9.7,0,17.3,2.1,22.6,6.2c5.3,4.1,8,10,8,17.6c0,11.1-5.1,18.4-15.3,21.7
		L253.8,81.2z M209.8,15.1V36h5.7c8,0,12.5-3.8,12.5-10.4c0-6.7-4.9-10.5-13.5-10.5H209.8z"/>
	<path d="M258.4,82.3c-0.6,0-0.9-0.3-0.9-0.8V2.6c0-0.6,0.3-0.8,0.9-0.8h14.2c0.6,0,0.9,0.3,0.9,0.8v78.9c0,0.6-0.3,0.8-0.9,0.8
		H258.4z"/>
	<path d="M279.8,82.3c-0.6,0-0.8-0.3-0.7-0.9l16.7-78.9c0.1-0.5,0.4-0.7,0.9-0.7h11.5c0.5,0,0.8,0.3,1,0.7l13,40.5
		c0.8,2.5,1.3,5,1.5,7.3c0.1-2.2,0.5-4.7,1.4-7.3l13.2-40.6c0.2-0.5,0.5-0.7,1-0.7h11.3c0.5,0,0.8,0.3,0.9,0.7l16.7,78.9
		c0.1,0.6-0.2,0.9-0.7,0.9h-14.2c-0.5,0-0.8-0.3-0.9-0.8l-8.4-42.3c-0.7-3.6-1.2-6.3-1.4-8.1c-0.3,1.7-1,4.4-2.3,8.2l-14,42.3
		c-0.2,0.5-0.5,0.7-1,0.7h-3.1c-0.5,0-0.8-0.2-0.9-0.7l-14.2-42.3c-1.2-3.7-2-6.5-2.3-8.2c-0.1,1.5-0.5,4.1-1.3,8.1l-8.4,42.3
		c-0.1,0.5-0.4,0.8-0.9,0.8H279.8z"/>
	<path d="M393.4,1.7c9.7,0,17.3,2.1,22.6,6.2c5.3,4.1,8,10,8,17.6c0,15.3-9.9,23.7-29.4,23.7h-4.7v32.2c0,0.6-0.3,0.8-0.8,0.8h-14
		c-0.6,0-0.9-0.3-0.9-0.8V2.6c0-0.6,0.3-0.8,0.9-0.8H393.4z M395.6,36c8,0,12.5-3.8,12.5-10.4c0-6.7-4.9-10.5-13.5-10.5h-4.7V36
		H395.6z"/>
	<path d="M22.2,191.3c-0.5,0-0.8-0.3-0.9-0.7L0,111.7c-0.2-0.6,0.1-0.9,0.7-0.9h16.1c0.5,0,0.8,0.3,0.9,0.7L28.1,156
		c0.9,4,1.4,7,1.5,9.1c0.1-1.8,0.6-4.9,1.6-9.2l10.9-44.4c0.1-0.5,0.4-0.7,0.9-0.7h10.6c0.5,0,0.8,0.3,0.9,0.7L66,155.8
		c0.8,3.5,1.4,6.6,1.6,9.2c0.2-1.5,0.6-4.6,1.4-9.1l9.5-44.4c0.1-0.5,0.4-0.8,0.9-0.8h15.5c0.7,0,0.9,0.3,0.7,0.9l-20,78.9
		c-0.1,0.5-0.4,0.7-0.9,0.7H60.5c-0.5,0-0.8-0.3-0.9-0.7l-9.4-38.9c-0.9-3.6-1.5-7.6-1.7-11.9c-0.2,3.5-0.8,7.5-1.8,11.9l-8.9,38.9
		c-0.1,0.5-0.4,0.7-0.9,0.7H22.2z"/>
	<path d="M165.4,181.8c0.4,0.4,0.3,0.8-0.1,1.2c-6.7,6.5-16.8,10.1-28,10.1c-8.2,0-15.5-1.8-21.8-5.3c-6.3-3.5-11.1-8.5-14.5-14.8
		c-3.4-6.3-5-13.6-5-21.9c0-7.9,1.8-15.1,5.4-21.5c3.5-6.3,8.6-11.4,15-15.1c6.5-3.6,13.8-5.5,22-5.5c10.3,0,19.9,3.7,26.2,10.3
		c0.4,0.4,0.4,0.8,0,1.2l-8.5,10c-0.4,0.5-0.8,0.5-1.2,0c-4.1-5-10.3-7.8-17-7.8c-7.3,0-13.5,2.7-18.4,8.1c-5,5.4-7.4,12.1-7.4,20.1
		c0,8.2,2.4,14.9,7.1,20.1s10.8,7.8,18.1,7.8c7.4,0,14-2.8,18.1-7.9c0.4-0.5,0.8-0.5,1.2,0L165.4,181.8z"/>
	<path d="M230.3,110.7c0.6,0,0.8,0.3,0.8,0.8v78.9c0,0.6-0.3,0.8-0.8,0.8h-14c-0.6,0-0.9-0.3-0.9-0.8v-34.3h-28.7v34.3
		c0,0.6-0.3,0.8-0.8,0.8h-14c-0.6,0-0.9-0.3-0.9-0.8v-78.9c0-0.6,0.3-0.8,0.9-0.8h14c0.6,0,0.8,0.3,0.8,0.8v31.1h28.7v-31.1
		c0-0.6,0.3-0.8,0.9-0.8H230.3z"/>
	<path d="M287.5,177.8c0.6,0,0.8,0.3,0.8,0.8v11.9c0,0.6-0.3,0.8-0.8,0.8h-44.9c-0.6,0-0.9-0.3-0.9-0.8v-78.9c0-0.6,0.3-0.8,0.9-0.8
		h43.1c0.6,0,0.8,0.3,0.8,0.8v11.6c0,0.6-0.3,0.8-0.8,0.8h-28.3v18.5h26.1c0.6,0,0.8,0.3,0.8,0.9v11.2c0,0.6-0.3,0.8-0.8,0.8h-26.1
		v22.3H287.5z"/>
	<path d="M340.1,177.8c0.6,0,0.8,0.3,0.8,0.8v11.9c0,0.6-0.3,0.8-0.8,0.8h-44.9c-0.6,0-0.9-0.3-0.9-0.8v-78.9c0-0.6,0.3-0.8,0.9-0.8
		h43.1c0.6,0,0.8,0.3,0.8,0.8v11.6c0,0.6-0.3,0.8-0.8,0.8H310v18.5h26.1c0.6,0,0.8,0.3,0.8,0.9v11.2c0,0.6-0.3,0.8-0.8,0.8H310v22.3
		H340.1z"/>
	<path d="M357.2,189.4c-5-2.4-9.1-5.8-12.5-10.2c-0.3-0.5-0.3-0.8,0.1-1.2l9-9.9c0.5-0.5,0.8-0.4,1.2,0.1
		c4.9,6.7,11.5,10.5,18.4,10.5c6.3,0,10.5-3.7,10.5-9.4c-0.2-4.5-1.2-6.7-5.4-9.1c-1.4-0.8-2.9-1.5-4.6-2.1
		c-1.6-0.6-3.8-1.4-6.6-2.3c-13.6-4.6-20.1-12.2-20.1-24.4c0-6.3,2.4-11.6,7.3-15.9c4.8-4.2,10.9-6.3,18.1-6.3
		c7.9,0,15.2,2.6,20.5,7.1c0.4,0.3,0.4,0.7,0.2,1.2l-6.8,11c-0.4,0.6-0.7,0.6-1.2,0.1c-3.5-3.7-7.7-5.6-12.3-5.6
		c-5.9,0-9.8,3.3-9.8,8.3c0.2,4.3,1.8,6.2,5.6,7.8c2.6,1.2,4.8,1.7,8.8,3.1c1.9,0.7,3.8,1.4,5.4,2.2c12,5.2,17.2,13,17.2,24.5
		c0,7.2-2.5,13.1-7.5,17.7c-5,4.6-11.5,6.8-19.6,6.8C367.5,193,362.2,191.8,357.2,189.4z"/>
	<path d="M453.5,177.8c0.6,0,0.8,0.3,0.8,0.8v11.9c0,0.6-0.3,0.8-0.8,0.8h-44.9c-0.6,0-0.9-0.3-0.9-0.8v-78.9c0-0.6,0.3-0.8,0.9-0.8
		h43.1c0.6,0,0.8,0.3,0.8,0.8v11.6c0,0.6-0.3,0.8-0.8,0.8h-28.3v18.5h26.1c0.6,0,0.8,0.3,0.8,0.9v11.2c0,0.6-0.3,0.8-0.8,0.8h-26.1
		v22.3H453.5z"/>
</g>
</svg>
