<?xml version="1.0" encoding="utf-8"?>
<!-- Generator: Adobe Illustrator 22.0.1, SVG Export Plug-In . SVG Version: 6.00 Build 0)  -->
<svg version="1.1" id="Layer_1" xmlns="http://www.w3.org/2000/svg" xmlns:xlink="http://www.w3.org/1999/xlink" x="0px" y="0px"
	 viewBox="0 0 400 167.3" style="enable-background:new 0 0 400 167.3;" xml:space="preserve">
<g>
	<path d="M115-0.4c0.5,0,0.8,0.2,0.8,0.8v11.4c0,0.5-0.2,0.8-0.8,0.8h-13.1v60.8c0,0.5-0.2,0.8-0.8,0.8H87.9c-0.5,0-0.8-0.2-0.8-0.8
		V12.5H74.1c-0.5,0-0.8-0.2-0.8-0.8V0.4c0-0.5,0.3-0.8,0.8-0.8H115z"/>
	<path d="M129.9,67.1c-5.5-5.8-8.3-13.4-8.3-22.9V0.4c0-0.5,0.3-0.8,0.8-0.8h12.9c0.5,0,0.8,0.2,0.8,0.8v42.7
		c0,12.8,5.4,19.9,15.8,19.9s15.8-7.1,15.8-19.9V0.4c0-0.5,0.2-0.8,0.8-0.8h13.1c0.5,0,0.8,0.2,0.8,0.8v43.8
		c0,9.6-2.8,17.2-8.3,22.9c-5.6,5.8-13,8.6-22.2,8.6S135.4,72.8,129.9,67.1z"/>
	<path d="M193.1,74.1c-0.5,0-0.8-0.2-0.8-0.8v-73c0-0.5,0.3-0.8,0.8-0.8h12.2c0.4,0,0.7,0.1,1,0.5l34.3,47.8
		c-0.2-1.4-0.4-3.5-0.4-6.4V0.4c0-0.5,0.2-0.8,0.8-0.8h12.9c0.5,0,0.8,0.2,0.8,0.8v73c0,0.5-0.3,0.8-0.8,0.8h-12
		c-0.4,0-0.7-0.1-1-0.5L206.4,26c0.2,1.4,0.4,3.5,0.4,6.4v40.9c0,0.5-0.2,0.8-0.8,0.8H193.1z"/>
	<path d="M326.1,73.2c0.2,0.5-0.1,0.9-0.7,0.9h-14.6c-0.4,0-0.8-0.2-0.9-0.7l-8.2-25.9h-18.4l-8.1,25.9c-0.1,0.4-0.5,0.7-0.9,0.7
		h-14.4c-0.6,0-0.9-0.4-0.7-0.9l26-73c0.1-0.4,0.4-0.6,0.9-0.6h13.1c0.4,0,0.7,0.2,0.9,0.6L326.1,73.2z M287,35.6h10.9l-2.9-9
		c-1.3-4.1-2.1-7.9-2.6-11.4c-0.2,2.6-1.1,6.4-2.6,11.3L287,35.6z"/>
	<path d="M77.7,168.1c-0.4,0-0.7-0.2-0.9-0.7l-19.6-73c-0.1-0.6,0-0.9,0.7-0.9h14.8c0.5,0,0.8,0.2,0.9,0.7l9.6,41.1
		c0.8,3.7,1.3,6.5,1.4,8.4c0-1.6,0.6-4.5,1.5-8.5l10-41c0.1-0.4,0.4-0.7,0.9-0.7h9.8c0.5,0,0.8,0.2,0.9,0.7l10.5,41
		c0.8,3.3,1.3,6.1,1.5,8.5c0.1-1.4,0.6-4.2,1.3-8.4l8.8-41.1c0.1-0.5,0.4-0.7,0.9-0.7H145c0.6,0,0.8,0.3,0.7,0.9l-18.5,73
		c-0.1,0.4-0.4,0.7-0.9,0.7h-13.3c-0.5,0-0.8-0.2-0.9-0.7l-8.7-36c-0.8-3.3-1.4-7-1.6-11c-0.2,3.3-0.7,6.9-1.6,11l-8.2,36
		c-0.1,0.4-0.4,0.7-0.9,0.7H77.7z"/>
	<path d="M190.9,93.6c0.5,0,0.8,0.2,0.8,0.8v11.4c0,0.5-0.2,0.8-0.8,0.8h-13.1v60.8c0,0.5-0.2,0.8-0.8,0.8h-13.1
		c-0.5,0-0.8-0.2-0.8-0.8v-60.8h-13.1c-0.5,0-0.8-0.2-0.8-0.8V94.4c0-0.5,0.3-0.8,0.8-0.8H190.9z"/>
	<path d="M255.7,167.2c0.2,0.5-0.1,0.9-0.7,0.9h-14.6c-0.4,0-0.8-0.2-0.9-0.7l-8.2-25.9h-18.4l-8.1,25.9c-0.1,0.4-0.5,0.7-0.9,0.7
		h-14.4c-0.6,0-0.9-0.4-0.7-0.9l26-73c0.1-0.4,0.4-0.6,0.9-0.6h13.1c0.4,0,0.7,0.2,0.9,0.6L255.7,167.2z M216.6,129.6h10.9l-2.9-9
		c-1.3-4.1-2.1-7.9-2.6-11.4c-0.2,2.6-1.1,6.4-2.6,11.3L216.6,129.6z"/>
	<path d="M260.7,168.1c-0.5,0-0.8-0.3-0.7-0.9l15.5-73c0.1-0.4,0.4-0.7,0.9-0.7H287c0.4,0,0.8,0.2,0.9,0.7l12,37.4
		c0.7,2.3,1.2,4.6,1.4,6.8c0-2,0.5-4.3,1.3-6.8l12.2-37.5c0.1-0.4,0.4-0.6,0.9-0.6h10.4c0.5,0,0.8,0.2,0.9,0.7l15.4,73
		c0.1,0.6-0.1,0.9-0.7,0.9h-13.1c-0.5,0-0.8-0.2-0.9-0.7l-7.8-39.1c-0.7-3.3-1.1-5.9-1.3-7.5c-0.2,1.6-0.9,4.1-2.1,7.6l-12.9,39.1
		c-0.1,0.4-0.4,0.6-0.9,0.6h-2.9c-0.4,0-0.7-0.2-0.9-0.6L286,128.4c-1.1-3.4-1.8-6-2.1-7.6c0,1.4-0.5,3.8-1.2,7.5l-7.8,39.1
		c-0.1,0.5-0.4,0.7-0.9,0.7H260.7z"/>
</g>
</svg>
