<?xml version="1.0" encoding="utf-8"?>
<!-- Generator: Adobe Illustrator 22.0.1, SVG Export Plug-In . SVG Version: 6.00 Build 0)  -->
<svg version="1.1" id="Layer_1" xmlns="http://www.w3.org/2000/svg" xmlns:xlink="http://www.w3.org/1999/xlink" x="0px" y="0px"
	 viewBox="0 0 324.1 189.6" style="enable-background:new 0 0 324.1 189.6;" xml:space="preserve">
<g>
	<path d="M70.3,0c0.6,0,0.8,0.3,0.8,0.8v12.3c0,0.6-0.3,0.8-0.8,0.8H56.1v65.8c0,0.6-0.3,0.8-0.8,0.8H41.1c-0.6,0-0.8-0.3-0.8-0.8
		V14H26.1c-0.6,0-0.9-0.3-0.9-0.8V0.8c0-0.6,0.3-0.8,0.9-0.8H70.3z"/>
	<path d="M86.4,73c-6-6.2-9-14.5-9-24.8V0.8c0-0.6,0.3-0.8,0.9-0.8h14c0.6,0,0.8,0.3,0.8,0.8v46.2c0,13.8,5.8,21.5,17.1,21.5
		c11.3,0,17.1-7.7,17.1-21.5V0.8c0-0.6,0.3-0.8,0.8-0.8h14.2c0.6,0,0.9,0.3,0.9,0.8v47.3c0,10.3-3,18.6-9,24.8
		c-6,6.2-14.1,9.3-24,9.3S92.4,79.2,86.4,73z"/>
	<path d="M154.8,80.6c-0.6,0-0.9-0.3-0.9-0.8V0.8c0-0.6,0.3-0.8,0.9-0.8H168c0.5,0,0.8,0.2,1,0.5l37.1,51.7
		c-0.3-1.5-0.4-3.8-0.4-6.9V0.8c0-0.6,0.3-0.8,0.8-0.8h14c0.6,0,0.9,0.3,0.9,0.8v78.9c0,0.6-0.3,0.8-0.9,0.8h-13
		c-0.5,0-0.8-0.2-1-0.5l-37.4-51.5c0.3,1.5,0.4,3.8,0.4,6.9v44.3c0,0.6-0.3,0.8-0.8,0.8H154.8z"/>
	<path d="M298.6,79.6c0.2,0.6-0.1,1-0.7,1h-15.8c-0.5,0-0.8-0.3-1-0.7l-8.9-28h-19.9l-8.8,28c-0.2,0.5-0.5,0.7-1,0.7h-15.6
		c-0.6,0-0.9-0.4-0.7-1l28.1-78.9c0.2-0.5,0.5-0.7,1-0.7h14.2c0.5,0,0.8,0.2,0.9,0.7L298.6,79.6z M256.3,39H268l-3.1-9.8
		c-1.4-4.5-2.3-8.6-2.8-12.3c-0.2,2.8-1.2,6.9-2.8,12.2L256.3,39z"/>
	<path d="M22.2,189.6c-0.5,0-0.8-0.3-0.9-0.7L0,109.9c-0.2-0.6,0.1-0.9,0.7-0.9h16.1c0.5,0,0.8,0.3,0.9,0.7l10.3,44.5
		c0.9,4,1.4,7,1.5,9.1c0.1-1.8,0.6-4.9,1.6-9.2l10.9-44.4c0.1-0.5,0.4-0.7,0.9-0.7h10.6c0.5,0,0.8,0.3,0.9,0.7L66,154.1
		c0.8,3.5,1.4,6.6,1.6,9.2c0.2-1.5,0.6-4.6,1.4-9.1l9.5-44.4c0.1-0.5,0.4-0.8,0.9-0.8h15.5c0.7,0,0.9,0.3,0.7,0.9l-20,78.9
		c-0.1,0.5-0.4,0.7-0.9,0.7H60.5c-0.5,0-0.8-0.3-0.9-0.7l-9.4-38.9c-0.9-3.6-1.5-7.6-1.7-11.9c-0.2,3.5-0.8,7.5-1.8,11.9l-8.9,38.9
		c-0.1,0.5-0.4,0.7-0.9,0.7H22.2z"/>
	<path d="M126.6,189.6c-0.6,0-0.9-0.3-0.9-0.8v-31L98.1,110c-0.4-0.6-0.1-1,0.6-1h16.9c0.5,0,0.8,0.2,1,0.6l16.8,32.7l16-32.7
		c0.2-0.4,0.5-0.6,1-0.6H167c0.7,0,1,0.5,0.6,1l-26,47.3v31.4c0,0.6-0.3,0.8-0.8,0.8H126.6z"/>
	<path d="M230.3,188.6c0.2,0.6-0.1,1-0.7,1h-15.8c-0.5,0-0.8-0.3-1-0.7l-8.9-28H184l-8.8,28c-0.2,0.5-0.5,0.7-1,0.7h-15.6
		c-0.6,0-0.9-0.4-0.7-1l28.1-78.9c0.2-0.5,0.5-0.7,1-0.7h14.2c0.5,0,0.8,0.2,0.9,0.7L230.3,188.6z M188,148h11.8l-3.1-9.8
		c-1.4-4.5-2.3-8.6-2.8-12.3c-0.2,2.8-1.2,6.9-2.8,12.2L188,148z"/>
	<path d="M235.6,189.6c-0.6,0-0.8-0.3-0.7-0.9l16.7-78.9c0.1-0.5,0.4-0.7,0.9-0.7h11.5c0.5,0,0.8,0.3,1,0.7l13,40.5
		c0.8,2.5,1.3,5,1.5,7.3c0.1-2.2,0.5-4.7,1.4-7.3l13.2-40.6c0.2-0.5,0.5-0.7,1-0.7h11.3c0.5,0,0.8,0.3,0.9,0.7l16.7,78.9
		c0.1,0.6-0.2,0.9-0.7,0.9h-14.2c-0.5,0-0.8-0.3-0.9-0.8l-8.4-42.3c-0.7-3.6-1.2-6.3-1.4-8.1c-0.3,1.7-1,4.4-2.3,8.2l-14,42.3
		c-0.2,0.5-0.5,0.7-1,0.7h-3.1c-0.5,0-0.8-0.2-0.9-0.7L263,146.6c-1.2-3.7-2-6.5-2.3-8.2c-0.1,1.5-0.5,4.1-1.3,8.1l-8.4,42.3
		c-0.1,0.5-0.4,0.8-0.9,0.8H235.6z"/>
</g>
</svg>
