<?xml version="1.0" encoding="utf-8"?>
<!-- Generator: Adobe Illustrator 22.0.1, SVG Export Plug-In . SVG Version: 6.00 Build 0)  -->
<svg version="1.1" id="Layer_1" xmlns="http://www.w3.org/2000/svg" xmlns:xlink="http://www.w3.org/1999/xlink" x="0px" y="0px"
	 viewBox="0 0 400 170" style="enable-background:new 0 0 400 170;" xml:space="preserve">
<g>
	<path d="M76.4,53.7c0,6.7-2.2,12.2-6.6,16.3s-10.2,6.2-17.5,6.2H29c-0.5,0-0.8-0.2-0.8-0.8v-73c0-0.5,0.3-0.8,0.8-0.8h17.4
		c14.8,0,23.2,7,23.2,19.4c0,7.5-3.5,12.6-9.9,14.2C70.4,35.4,76.4,42.2,76.4,53.7z M42.7,13.9v17.4h4.1c5.1,0,8.1-3.3,8.1-8.7
		c0-5.2-3.1-8.6-8.1-8.6H42.7z M50.4,63.6c7.6,0,11.4-3.3,11.4-10c0-6.7-4.1-10-12.3-10h-6.7v20.1H50.4z"/>
	<path d="M99.5,72.7c-5.8-3.3-10.2-7.9-13.4-13.8c-3.2-5.9-4.8-12.6-4.8-20c0-7.4,1.6-14,4.9-20C89.4,13,93.8,8.3,99.6,5
		s12.2-5,19.5-5c7.3,0,13.9,1.7,19.6,5c5.8,3.4,10.2,8.1,13.4,13.9c3.2,5.9,4.8,12.6,4.8,19.9c0,10.9-4.1,20.9-10.7,27.7
		c-3.3,3.4-7.3,6.1-12,8.1c-4.7,2-9.8,3-15.1,3C111.7,77.7,105.2,76.1,99.5,72.7z M142.2,38.9c-0.1-7.5-2.3-13.7-6.7-18.7
		c-4.4-4.9-9.8-7.4-16.4-7.4c-6.7,0-12.3,2.4-16.6,7.2c-4.3,4.8-6.5,11.2-6.5,19c0,7.7,2.1,14,6.4,18.8c4.2,4.9,9.8,7.3,16.8,7.3
		C132.3,65.2,142.6,53.5,142.2,38.9z"/>
	<path d="M165.8,76.1c-0.5,0-0.8-0.2-0.8-0.8v-73c0-0.5,0.3-0.8,0.8-0.8H178c0.4,0,0.7,0.1,1,0.5l34.3,47.8
		c-0.2-1.4-0.4-3.5-0.4-6.4V2.4c0-0.5,0.2-0.8,0.8-0.8h12.9c0.5,0,0.8,0.2,0.8,0.8v73c0,0.5-0.3,0.8-0.8,0.8h-12
		c-0.4,0-0.7-0.1-1-0.5L179.1,28c0.2,1.4,0.4,3.5,0.4,6.4v40.9c0,0.5-0.2,0.8-0.8,0.8H165.8z"/>
	<path d="M238,76.1c-0.5,0-0.8-0.2-0.8-0.8v-73c0-0.5,0.3-0.8,0.8-0.8h13.1c0.5,0,0.8,0.2,0.8,0.8v73c0,0.5-0.3,0.8-0.8,0.8H238z"/>
	<path d="M297.6,1.6c0.5,0,0.8,0.2,0.8,0.8v11.4c0,0.5-0.2,0.8-0.8,0.8h-13.1v60.8c0,0.5-0.2,0.8-0.8,0.8h-13.1
		c-0.5,0-0.8-0.2-0.8-0.8V14.5h-13.1c-0.5,0-0.8-0.2-0.8-0.8V2.4c0-0.5,0.3-0.8,0.8-0.8H297.6z"/>
	<path d="M316.7,72.7c-5.8-3.3-10.2-7.9-13.4-13.8c-3.2-5.9-4.8-12.6-4.8-20c0-7.4,1.6-14,4.9-20c3.3-5.9,7.7-10.5,13.5-13.9
		s12.2-5,19.5-5c7.3,0,13.9,1.7,19.6,5c5.8,3.4,10.2,8.1,13.4,13.9c3.2,5.9,4.8,12.6,4.8,19.9c0,10.9-4.1,20.9-10.7,27.7
		c-3.3,3.4-7.3,6.1-12,8.1c-4.7,2-9.8,3-15.1,3C329,77.7,322.5,76.1,316.7,72.7z M359.4,38.9c-0.1-7.5-2.3-13.7-6.7-18.7
		c-4.4-4.9-9.8-7.4-16.4-7.4c-6.7,0-12.3,2.4-16.6,7.2c-4.3,4.8-6.5,11.2-6.5,19c0,7.7,2.1,14,6.4,18.8c4.2,4.9,9.8,7.3,16.8,7.3
		C349.5,65.2,359.9,53.5,359.4,38.9z"/>
	<path d="M93.5,95.6c0.5,0,0.8,0.2,0.8,0.8v11.4c0,0.5-0.2,0.8-0.8,0.8H80.4v60.8c0,0.5-0.2,0.8-0.8,0.8H66.5
		c-0.5,0-0.8-0.2-0.8-0.8v-60.8H52.6c-0.5,0-0.8-0.2-0.8-0.8V96.4c0-0.5,0.3-0.8,0.8-0.8H93.5z"/>
	<path d="M158.4,169.2c0.2,0.5-0.1,0.9-0.7,0.9h-14.6c-0.4,0-0.8-0.2-0.9-0.7l-8.2-25.9h-18.4l-8.1,25.9c-0.1,0.4-0.5,0.7-0.9,0.7
		H92.1c-0.6,0-0.9-0.4-0.7-0.9l26-73c0.1-0.4,0.4-0.6,0.9-0.6h13.1c0.4,0,0.7,0.2,0.9,0.6L158.4,169.2z M119.3,131.6h10.9l-2.9-9
		c-1.3-4.1-2.1-7.9-2.6-11.4c-0.2,2.6-1.1,6.4-2.6,11.3L119.3,131.6z"/>
	<path d="M197.3,95.6c0.5,0,0.8,0.2,0.8,0.8v11.4c0,0.5-0.2,0.8-0.8,0.8h-13.1v60.8c0,0.5-0.2,0.8-0.8,0.8h-13.1
		c-0.5,0-0.8-0.2-0.8-0.8v-60.8h-13.1c-0.5,0-0.8-0.2-0.8-0.8V96.4c0-0.5,0.3-0.8,0.8-0.8H197.3z"/>
	<path d="M262.2,169.2c0.2,0.5-0.1,0.9-0.7,0.9h-14.6c-0.4,0-0.8-0.2-0.9-0.7l-8.2-25.9h-18.4l-8.1,25.9c-0.1,0.4-0.5,0.7-0.9,0.7
		h-14.4c-0.6,0-0.9-0.4-0.7-0.9l26-73c0.1-0.4,0.4-0.6,0.9-0.6h13.1c0.4,0,0.7,0.2,0.9,0.6L262.2,169.2z M223.1,131.6h10.9l-2.9-9
		c-1.3-4.1-2.1-7.9-2.6-11.4c-0.2,2.6-1.1,6.4-2.6,11.3L223.1,131.6z"/>
	<path d="M326.3,169.1c0.4,0.5,0.1,1-0.5,1h-17.2c-0.4,0-0.7-0.1-1-0.5l-26.4-37.1v36.8c0,0.5-0.2,0.8-0.8,0.8h-12.9
		c-0.5,0-0.8-0.2-0.8-0.8v-73c0-0.5,0.3-0.8,0.8-0.8h12.9c0.5,0,0.8,0.2,0.8,0.8v29.4L305.9,96c0.2-0.3,0.5-0.4,1-0.4h17.7
		c0.6,0,0.9,0.4,0.4,1l-26.1,29.5c-1.3,1.5-2.5,2.4-3.4,2.8c1.1,0.2,2.2,1.3,3.5,3L326.3,169.1z"/>
	<path d="M330.7,170.1c-0.5,0-0.8-0.2-0.8-0.8v-73c0-0.5,0.3-0.8,0.8-0.8h13.1c0.5,0,0.8,0.2,0.8,0.8v73c0,0.5-0.3,0.8-0.8,0.8
		H330.7z"/>
</g>
</svg>
