<?xml version="1.0" encoding="utf-8"?>
<!-- Generator: Adobe Illustrator 22.0.1, SVG Export Plug-In . SVG Version: 6.00 Build 0)  -->
<svg version="1.1" id="Layer_1" xmlns="http://www.w3.org/2000/svg" xmlns:xlink="http://www.w3.org/1999/xlink" x="0px" y="0px"
	 viewBox="0 0 495.7 193" style="enable-background:new 0 0 495.7 193;" xml:space="preserve">
<g>
	<path d="M59.2,1.7c0.6,0,0.8,0.3,0.8,0.8v78.9c0,0.6-0.3,0.8-0.8,0.8h-14c-0.6,0-0.9-0.3-0.9-0.8V47.2H15.7v34.3
		c0,0.6-0.3,0.8-0.8,0.8h-14C0.3,82.3,0,82,0,81.5V2.6C0,2,0.3,1.7,0.9,1.7h14c0.6,0,0.8,0.3,0.8,0.8v31.1h28.7V2.6
		c0-0.6,0.3-0.8,0.9-0.8H59.2z"/>
	<path d="M88.3,78.6c-6.2-3.6-11.1-8.6-14.5-15c-3.5-6.3-5.2-13.6-5.2-21.7c0-8,1.8-15.2,5.3-21.6C77.4,14,82.3,9,88.5,5.4
		c6.2-3.6,13.2-5.4,21-5.4c7.9,0,15,1.8,21.2,5.5c6.2,3.7,11.1,8.7,14.5,15.1c3.4,6.4,5.1,13.6,5.1,21.5c0,11.8-4.4,22.6-11.5,30
		c-3.6,3.7-7.9,6.6-13,8.8c-5.1,2.2-10.5,3.3-16.4,3.3C101.6,84,94.6,82.3,88.3,78.6z M134.6,42c-0.1-8.1-2.5-14.8-7.2-20.2
		c-4.7-5.4-10.6-8-17.8-8c-7.3,0-13.3,2.6-18,7.8s-7,12.1-7,20.5c0,8.3,2.3,15.1,6.9,20.4c4.6,5.3,10.6,7.9,18.2,7.9
		C123.9,70.6,135,57.9,134.6,42z"/>
	<path d="M223.5,81.3c0.4,0.6,0.2,1-0.5,1h-18.6c-0.5,0-0.8-0.2-1-0.5l-28.5-40.1v39.8c0,0.6-0.3,0.8-0.8,0.8h-14
		c-0.6,0-0.9-0.3-0.9-0.8V2.6c0-0.6,0.3-0.8,0.9-0.8h14c0.6,0,0.8,0.3,0.8,0.8v31.8l26.6-32.2c0.2-0.3,0.6-0.5,1-0.5h19.1
		c0.7,0,0.9,0.5,0.5,1l-28.3,31.9c-1.4,1.6-2.7,2.6-3.7,3c1.2,0.3,2.4,1.4,3.8,3.3L223.5,81.3z"/>
	<path d="M291.8,81.3c0.4,0.6,0.2,1-0.5,1h-18.6c-0.5,0-0.8-0.2-1-0.5l-28.5-40.1v39.8c0,0.6-0.3,0.8-0.8,0.8h-14
		c-0.6,0-0.9-0.3-0.9-0.8V2.6c0-0.6,0.3-0.8,0.9-0.8h14c0.6,0,0.8,0.3,0.8,0.8v31.8l26.6-32.2c0.2-0.3,0.6-0.5,1-0.5h19.1
		c0.7,0,0.9,0.5,0.5,1l-28.3,31.9c-1.4,1.6-2.7,2.6-3.7,3c1.2,0.3,2.4,1.4,3.8,3.3L291.8,81.3z"/>
	<path d="M296.5,82.3c-0.6,0-0.9-0.3-0.9-0.8V2.6c0-0.6,0.3-0.8,0.9-0.8h14.2c0.6,0,0.9,0.3,0.9,0.8v78.9c0,0.6-0.3,0.8-0.9,0.8
		H296.5z"/>
	<path d="M402.1,39.2c0.6,0,0.8,0.3,0.8,0.8c-0.2,14.2-5.8,27.1-15.5,35.3c-6.5,5.5-15.6,8.7-25.7,8.7c-8,0-15.2-1.8-21.6-5.5
		c-6.4-3.6-11.4-8.7-14.9-15.1c-3.6-6.4-5.4-13.5-5.4-21.5c0-8.2,1.8-15.5,5.4-21.9c3.6-6.3,8.7-11.3,15.1-14.8
		c6.5-3.5,13.8-5.2,22-5.2c7.2,0,13.8,1.7,19.9,5.1c6,3.4,10.9,8.3,14.7,14.5c0.4,0.5,0.3,0.9-0.3,1.2L385,27.8
		c-0.5,0.4-0.9,0.3-1.2-0.3c-4.8-8.8-12.6-13.7-21.7-13.7c-4.8,0-9.1,1.2-13.1,3.7c-4,2.5-7.2,5.8-9.6,10.2
		c-2.4,4.4-3.6,9.2-3.6,14.4c0,8.1,2.4,14.9,7.2,20.2c4.8,5.4,10.9,8,18.5,8c11.9,0,20.3-6.2,23.2-16.9h-22.8
		c-0.6,0-0.8-0.3-0.8-0.8V40.1c0-0.6,0.3-0.8,0.8-0.8H402.1z"/>
	<path d="M474.8,81.3c0.2,0.6-0.1,1-0.7,1h-15.8c-0.5,0-0.8-0.3-1-0.7l-8.9-28h-19.9l-8.8,28c-0.2,0.5-0.5,0.7-1,0.7h-15.6
		c-0.6,0-0.9-0.4-0.7-1l28.1-78.9c0.2-0.5,0.5-0.7,1-0.7h14.2c0.5,0,0.8,0.2,0.9,0.7L474.8,81.3z M432.5,40.7h11.8l-3.1-9.8
		c-1.4-4.5-2.3-8.6-2.8-12.3c-0.2,2.8-1.2,6.9-2.8,12.2L432.5,40.7z"/>
	<path d="M480.6,82.3c-0.6,0-0.9-0.3-0.9-0.8V2.6c0-0.6,0.3-0.8,0.9-0.8h14.2c0.6,0,0.9,0.3,0.9,0.8v78.9c0,0.6-0.3,0.8-0.9,0.8
		H480.6z"/>
	<path d="M172.5,181.8c0.4,0.4,0.3,0.8-0.1,1.2c-6.7,6.5-16.8,10.1-28,10.1c-8.2,0-15.5-1.8-21.8-5.3c-6.3-3.5-11.1-8.5-14.5-14.8
		c-3.4-6.3-5-13.6-5-21.9c0-7.9,1.8-15.1,5.4-21.5c3.5-6.3,8.6-11.4,15-15.1c6.5-3.6,13.8-5.5,22-5.5c10.3,0,19.9,3.7,26.2,10.3
		c0.4,0.4,0.4,0.8,0,1.2l-8.5,10c-0.4,0.5-0.8,0.5-1.2,0c-4.1-5-10.3-7.8-17-7.8c-7.3,0-13.5,2.7-18.4,8.1c-5,5.4-7.4,12.1-7.4,20.1
		c0,8.2,2.4,14.9,7.1,20.1c4.8,5.2,10.8,7.8,18.1,7.8c7.4,0,14-2.8,18.1-7.9c0.4-0.5,0.8-0.5,1.2,0L172.5,181.8z"/>
	<path d="M222.8,176.7c0.6,0,0.9,0.3,0.9,0.9v12.9c0,0.6-0.3,0.8-0.9,0.8H179c-0.6,0-0.9-0.3-0.9-0.8v-78.9c0-0.6,0.3-0.8,0.9-0.8
		h14.2c0.6,0,0.9,0.3,0.9,0.8v65.1H222.8z"/>
	<path d="M298.9,190.3c0.2,0.6-0.1,1-0.7,1h-15.8c-0.5,0-0.8-0.3-1-0.7l-8.9-28h-19.9l-8.8,28c-0.2,0.5-0.5,0.7-1,0.7h-15.6
		c-0.6,0-0.9-0.4-0.7-1l28.1-78.9c0.2-0.5,0.5-0.7,1-0.7h14.2c0.5,0,0.8,0.2,0.9,0.7L298.9,190.3z M256.6,149.7h11.8l-3.1-9.8
		c-1.4-4.5-2.3-8.6-2.8-12.3c-0.2,2.8-1.2,6.9-2.8,12.2L256.6,149.7z"/>
	<path d="M304.2,191.3c-0.6,0-0.8-0.3-0.7-0.9l16.7-78.9c0.1-0.5,0.4-0.7,0.9-0.7h11.5c0.5,0,0.8,0.3,1,0.7l13,40.5
		c0.8,2.5,1.3,5,1.5,7.3c0.1-2.2,0.5-4.7,1.4-7.3l13.2-40.6c0.2-0.5,0.5-0.7,1-0.7H375c0.5,0,0.8,0.3,0.9,0.7l16.7,78.9
		c0.1,0.6-0.2,0.9-0.7,0.9h-14.2c-0.5,0-0.8-0.3-0.9-0.8l-8.4-42.3c-0.7-3.6-1.2-6.3-1.4-8.1c-0.3,1.7-1,4.4-2.3,8.2l-14,42.3
		c-0.2,0.5-0.5,0.7-1,0.7h-3.1c-0.5,0-0.8-0.2-0.9-0.7l-14.2-42.3c-1.2-3.7-2-6.5-2.3-8.2c-0.1,1.5-0.5,4.1-1.3,8.1l-8.4,42.3
		c-0.1,0.5-0.4,0.8-0.9,0.8H304.2z"/>
</g>
</svg>
