<?xml version="1.0" encoding="utf-8"?>
<!-- Generator: Adobe Illustrator 22.0.1, SVG Export Plug-In . SVG Version: 6.00 Build 0)  -->
<svg version="1.1" id="Layer_1" xmlns="http://www.w3.org/2000/svg" xmlns:xlink="http://www.w3.org/1999/xlink" x="0px" y="0px"
	 viewBox="0 0 400 172" style="enable-background:new 0 0 400 172;" xml:space="preserve">
<g>
	<path d="M98.7,74.3c-4.6-2.2-8.4-5.4-11.5-9.5c-0.3-0.4-0.3-0.8,0-1.1l8.3-9.1c0.4-0.4,0.8-0.4,1.1,0c4.5,6.2,10.6,9.7,17,9.7
		c5.9,0,9.8-3.4,9.8-8.7c-0.2-4.2-1.1-6.2-4.9-8.4c-1.3-0.7-2.7-1.4-4.2-1.9s-3.5-1.3-6.1-2.1c-12.6-4.2-18.6-11.3-18.6-22.6
		c0-5.9,2.2-10.8,6.7-14.7c4.5-3.9,10-5.9,16.7-5.9c7.3,0,14.1,2.4,18.9,6.6c0.3,0.3,0.4,0.6,0.1,1.1l-6.3,10.1
		c-0.3,0.5-0.7,0.6-1.1,0.1c-3.3-3.4-7.1-5.2-11.4-5.2c-5.4,0-9.1,3.1-9.1,7.7c0.2,4,1.7,5.7,5.2,7.2c2.4,1.1,4.4,1.6,8.1,2.9
		c1.8,0.6,3.5,1.3,5,2c11.1,4.9,15.9,12,15.9,22.7c0,6.7-2.3,12.1-6.9,16.3c-4.6,4.2-10.7,6.3-18.1,6.3
		C108.2,77.7,103.3,76.6,98.7,74.3z"/>
	<path d="M154,69.1c-5.5-5.8-8.3-13.4-8.3-22.9V2.4c0-0.5,0.3-0.8,0.8-0.8h12.9c0.5,0,0.8,0.2,0.8,0.8v42.7
		c0,12.8,5.4,19.9,15.8,19.9c10.4,0,15.8-7.1,15.8-19.9V2.4c0-0.5,0.2-0.8,0.8-0.8h13.1c0.5,0,0.8,0.2,0.8,0.8v43.8
		c0,9.6-2.8,17.2-8.3,22.9c-5.6,5.8-13,8.6-22.2,8.6S159.5,74.8,154,69.1z"/>
	<path d="M271.4,75c0.4,0.5,0.1,1-0.5,1h-15.8c-0.4,0-0.7-0.1-0.9-0.5l-21.3-29.9h-2.1v29.7c0,0.5-0.2,0.8-0.8,0.8h-12.9
		c-0.5,0-0.8-0.2-0.8-0.8v-73c0-0.5,0.3-0.8,0.8-0.8h17c9,0,16,1.9,20.9,5.8c4.9,3.8,7.4,9.3,7.4,16.3c0,10.3-4.7,17-14.1,20.1
		L271.4,75z M230.8,13.9v19.4h5.3c7.4,0,11.5-3.5,11.5-9.6c0-6.2-4.6-9.8-12.5-9.8H230.8z"/>
	<path d="M312.9,1.6c0.5,0,0.8,0.2,0.8,0.8v10.8c0,0.5-0.2,0.8-0.8,0.8h-23.6V31h21.6c0.5,0,0.8,0.3,0.8,0.8v10.3
		c0,0.5-0.2,0.8-0.8,0.8h-21.6v32.4c0,0.5-0.2,0.8-0.8,0.8h-12.9c-0.5,0-0.8-0.2-0.8-0.8v-73c0-0.5,0.3-0.8,0.8-0.8H312.9z"/>
	<path d="M130.4,161.3c0.3,0.4,0.3,0.8,0,1.1c-6.2,6-15.6,9.3-25.9,9.3c-7.6,0-14.4-1.6-20.1-4.9c-5.8-3.3-10.3-7.9-13.4-13.7
		s-4.7-12.6-4.7-20.2c0-7.3,1.6-14,4.9-19.9c3.3-5.9,7.9-10.5,13.9-13.9c6-3.3,12.8-5,20.3-5c9.6,0,18.4,3.4,24.3,9.5
		c0.3,0.3,0.3,0.7,0,1.1l-7.9,9.3c-0.4,0.5-0.8,0.5-1.1,0c-3.8-4.6-9.5-7.2-15.8-7.2c-6.8,0-12.5,2.5-17,7.5
		c-4.6,5-6.9,11.2-6.9,18.6c0,7.6,2.2,13.8,6.6,18.6c4.4,4.8,10,7.2,16.7,7.2c6.8,0,12.9-2.6,16.7-7.3c0.3-0.5,0.7-0.5,1.1,0
		L130.4,161.3z"/>
	<path d="M176.8,156.6c0.5,0,0.8,0.3,0.8,0.8v11.9c0,0.5-0.3,0.8-0.8,0.8h-40.5c-0.5,0-0.8-0.2-0.8-0.8v-73c0-0.5,0.3-0.8,0.8-0.8
		h13.1c0.5,0,0.8,0.2,0.8,0.8v60.2H176.8z"/>
	<path d="M247.1,169.2c0.2,0.5-0.1,0.9-0.7,0.9h-14.6c-0.4,0-0.8-0.2-0.9-0.7l-8.2-25.9h-18.4l-8.1,25.9c-0.1,0.4-0.5,0.7-0.9,0.7
		h-14.4c-0.6,0-0.9-0.4-0.7-0.9l26-73c0.1-0.4,0.4-0.6,0.9-0.6h13.1c0.4,0,0.7,0.2,0.9,0.6L247.1,169.2z M208,131.6h10.9l-2.9-9
		c-1.3-4.1-2.1-7.9-2.6-11.4c-0.2,2.6-1.1,6.4-2.6,11.3L208,131.6z"/>
	<path d="M251.9,170.1c-0.5,0-0.8-0.3-0.7-0.9l15.5-73c0.1-0.4,0.4-0.7,0.9-0.7h10.7c0.4,0,0.8,0.2,0.9,0.7l12,37.4
		c0.7,2.3,1.2,4.6,1.4,6.8c0-2,0.5-4.3,1.3-6.8L306,96.2c0.1-0.4,0.4-0.6,0.9-0.6h10.4c0.5,0,0.8,0.2,0.9,0.7l15.4,73
		c0.1,0.6-0.1,0.9-0.7,0.9h-13.1c-0.5,0-0.8-0.2-0.9-0.7l-7.8-39.1c-0.7-3.3-1.1-5.9-1.3-7.5c-0.2,1.6-0.9,4.1-2.1,7.6L295,169.5
		c-0.1,0.4-0.4,0.6-0.9,0.6h-2.9c-0.4,0-0.7-0.2-0.9-0.6l-13.1-39.1c-1.1-3.4-1.8-6-2.1-7.6c0,1.4-0.5,3.8-1.2,7.5l-7.8,39.1
		c-0.1,0.5-0.4,0.7-0.9,0.7H251.9z"/>
</g>
</svg>
