<?xml version="1.0" encoding="utf-8"?>
<!-- Generator: Adobe Illustrator 22.0.1, SVG Export Plug-In . SVG Version: 6.00 Build 0)  -->
<svg version="1.1" id="Layer_1" xmlns="http://www.w3.org/2000/svg" xmlns:xlink="http://www.w3.org/1999/xlink" x="0px" y="0px"
	 viewBox="0 0 484.8 302" style="enable-background:new 0 0 484.8 302;" xml:space="preserve">
<g>
	<path d="M0.1,72.9c-0.3-0.5-0.2-0.9,0.3-1.2l11.7-6.7c0.5-0.3,0.9-0.2,1.2,0.4c1.5,3,4.1,4.8,7,4.8c4.5,0,7.1-3.1,7.1-8.4V2.6
		c0-0.6,0.3-0.8,0.9-0.8h14.2c0.6,0,0.9,0.3,0.9,0.8v58c0,6.8-2.1,12.4-6.3,16.8C32.9,81.8,27.5,84,21,84C11.9,84,4.2,80,0.1,72.9z"
		/>
	<path d="M119.2,81.3c0.2,0.6-0.1,1-0.7,1h-15.8c-0.5,0-0.8-0.3-1-0.7l-8.9-28H72.8l-8.8,28c-0.2,0.5-0.5,0.7-1,0.7H47.5
		c-0.6,0-0.9-0.4-0.7-1L74.9,2.4c0.2-0.5,0.5-0.7,1-0.7h14.2c0.5,0,0.8,0.2,0.9,0.7L119.2,81.3z M76.9,40.7h11.8L85.5,31
		c-1.4-4.5-2.3-8.6-2.8-12.3c-0.2,2.8-1.2,6.9-2.8,12.2L76.9,40.7z"/>
	<path d="M143.5,1.7c9.7,0,17.3,2.1,22.6,6.2c5.3,4.1,8,10,8,17.6c0,15.3-9.9,23.7-29.4,23.7h-4.7v32.2c0,0.6-0.3,0.8-0.8,0.8h-14
		c-0.6,0-0.9-0.3-0.9-0.8V2.6c0-0.6,0.3-0.8,0.9-0.8H143.5z M145.6,36c8,0,12.5-3.8,12.5-10.4c0-6.7-4.9-10.5-13.5-10.5h-4.7V36
		H145.6z"/>
	<path d="M241.7,81.3c0.2,0.6-0.1,1-0.7,1h-15.8c-0.5,0-0.8-0.3-1-0.7l-8.9-28h-19.9l-8.8,28c-0.2,0.5-0.5,0.7-1,0.7H170
		c-0.6,0-0.9-0.4-0.7-1l28.1-78.9c0.2-0.5,0.5-0.7,1-0.7h14.2c0.5,0,0.8,0.2,0.9,0.7L241.7,81.3z M199.4,40.7h11.8l-3.1-9.8
		c-1.4-4.5-2.3-8.6-2.8-12.3c-0.2,2.8-1.2,6.9-2.8,12.2L199.4,40.7z"/>
	<path d="M247.6,82.3c-0.6,0-0.9-0.3-0.9-0.8V2.6c0-0.6,0.3-0.8,0.9-0.8h13.2c0.5,0,0.8,0.2,1,0.5L299,53.9
		c-0.3-1.5-0.4-3.8-0.4-6.9V2.6c0-0.6,0.3-0.8,0.8-0.8h14c0.6,0,0.9,0.3,0.9,0.8v78.9c0,0.6-0.3,0.8-0.9,0.8h-13
		c-0.5,0-0.8-0.2-1-0.5L262,30.3c0.3,1.5,0.4,3.8,0.4,6.9v44.3c0,0.6-0.3,0.8-0.8,0.8H247.6z"/>
	<path d="M370.6,68.8c0.6,0,0.8,0.3,0.8,0.8v11.9c0,0.6-0.3,0.8-0.8,0.8h-44.9c-0.6,0-0.9-0.3-0.9-0.8V2.6c0-0.6,0.3-0.8,0.9-0.8
		h43.1c0.6,0,0.8,0.3,0.8,0.8v11.6c0,0.6-0.3,0.8-0.8,0.8h-28.3v18.5h26.1c0.6,0,0.8,0.3,0.8,0.9v11.2c0,0.6-0.3,0.8-0.8,0.8h-26.1
		v22.3H370.6z"/>
	<path d="M387.7,80.4c-5-2.4-9.1-5.8-12.5-10.2c-0.3-0.5-0.3-0.8,0.1-1.2l9-9.9c0.5-0.5,0.8-0.4,1.2,0.1
		c4.9,6.7,11.5,10.5,18.4,10.5c6.3,0,10.5-3.7,10.5-9.4c-0.2-4.5-1.2-6.7-5.4-9.1c-1.4-0.8-2.9-1.5-4.6-2.1
		c-1.6-0.6-3.8-1.4-6.6-2.3c-13.6-4.6-20.1-12.2-20.1-24.4c0-6.3,2.4-11.6,7.3-15.9C389.9,2.1,396,0,403.2,0
		c7.9,0,15.2,2.6,20.5,7.1c0.4,0.3,0.4,0.7,0.2,1.2l-6.8,11c-0.4,0.6-0.7,0.6-1.2,0.1c-3.5-3.7-7.7-5.6-12.3-5.6
		c-5.9,0-9.8,3.3-9.8,8.3c0.2,4.3,1.8,6.2,5.6,7.8c2.6,1.2,4.8,1.7,8.8,3.1c1.9,0.7,3.8,1.4,5.4,2.2c12,5.2,17.2,13,17.2,24.5
		c0,7.2-2.5,13.1-7.5,17.7S411.7,84,403.6,84C398,84,392.7,82.8,387.7,80.4z"/>
	<path d="M484,68.8c0.6,0,0.8,0.3,0.8,0.8v11.9c0,0.6-0.3,0.8-0.8,0.8h-44.9c-0.6,0-0.9-0.3-0.9-0.8V2.6c0-0.6,0.3-0.8,0.9-0.8h43.1
		c0.6,0,0.8,0.3,0.8,0.8v11.6c0,0.6-0.3,0.8-0.8,0.8h-28.3v18.5H480c0.6,0,0.8,0.3,0.8,0.9v11.2c0,0.6-0.3,0.8-0.8,0.8h-26.1v22.3
		H484z"/>
	<path d="M191.6,177.8c0.6,0,0.8,0.3,0.8,0.8v11.9c0,0.6-0.3,0.8-0.8,0.8h-44.9c-0.6,0-0.9-0.3-0.9-0.8v-78.9c0-0.6,0.3-0.8,0.9-0.8
		h43.1c0.6,0,0.8,0.3,0.8,0.8v11.6c0,0.6-0.3,0.8-0.8,0.8h-28.3v18.5h26.1c0.6,0,0.8,0.3,0.8,0.9v11.2c0,0.6-0.3,0.8-0.8,0.8h-26.1
		v22.3H191.6z"/>
	<path d="M277.7,148.2c0.6,0,0.8,0.3,0.8,0.8c-0.2,14.2-5.8,27.1-15.5,35.3c-6.5,5.5-15.6,8.7-25.7,8.7c-8,0-15.2-1.8-21.6-5.5
		c-6.4-3.6-11.4-8.7-14.9-15.1c-3.6-6.4-5.4-13.5-5.4-21.5c0-8.2,1.8-15.5,5.4-21.9c3.6-6.3,8.7-11.3,15.1-14.8
		c6.5-3.5,13.8-5.2,22-5.2c7.2,0,13.8,1.7,19.9,5.1c6,3.4,10.9,8.3,14.7,14.5c0.4,0.5,0.3,0.9-0.3,1.2l-11.7,6.9
		c-0.5,0.4-0.9,0.3-1.2-0.3c-4.8-8.8-12.6-13.7-21.7-13.7c-4.8,0-9.1,1.2-13.1,3.7c-4,2.5-7.2,5.8-9.6,10.2
		c-2.4,4.4-3.6,9.2-3.6,14.4c0,8.1,2.4,14.9,7.2,20.3c4.8,5.4,10.9,8,18.5,8c11.9,0,20.3-6.2,23.2-16.9h-22.8
		c-0.6,0-0.8-0.3-0.8-0.8v-12.5c0-0.6,0.3-0.8,0.8-0.8H277.7z"/>
	<path d="M366.5,148.2c0.6,0,0.8,0.3,0.8,0.8c-0.2,14.2-5.8,27.1-15.5,35.3c-6.5,5.5-15.6,8.7-25.7,8.7c-8,0-15.2-1.8-21.6-5.5
		c-6.4-3.6-11.4-8.7-14.9-15.1c-3.6-6.4-5.4-13.5-5.4-21.5c0-8.2,1.8-15.5,5.4-21.9c3.6-6.3,8.7-11.3,15.1-14.8
		c6.5-3.5,13.8-5.2,22-5.2c7.2,0,13.8,1.7,19.9,5.1c6,3.4,10.9,8.3,14.7,14.5c0.4,0.5,0.3,0.9-0.3,1.2l-11.7,6.9
		c-0.5,0.4-0.9,0.3-1.2-0.3c-4.8-8.8-12.6-13.7-21.7-13.7c-4.8,0-9.1,1.2-13.1,3.7c-4,2.5-7.2,5.8-9.6,10.2
		c-2.4,4.4-3.6,9.2-3.6,14.4c0,8.1,2.4,14.9,7.2,20.3c4.8,5.4,10.9,8,18.5,8c11.9,0,20.3-6.2,23.2-16.9h-22.8
		c-0.6,0-0.8-0.3-0.8-0.8v-12.5c0-0.6,0.3-0.8,0.8-0.8H366.5z"/>
	<path d="M89.3,296.6c-6.2-3.6-11.1-8.6-14.5-15c-3.5-6.3-5.2-13.6-5.2-21.7c0-8,1.8-15.2,5.3-21.6c3.5-6.4,8.3-11.4,14.6-15
		c6.2-3.6,13.2-5.4,21-5.4c7.9,0,15,1.8,21.2,5.5c6.2,3.7,11.1,8.7,14.5,15.1c3.4,6.4,5.1,13.6,5.1,21.5c0,11.8-4.4,22.6-11.5,30
		c-3.6,3.7-7.9,6.6-13,8.8c-5.1,2.2-10.5,3.3-16.4,3.3C102.6,302,95.5,300.3,89.3,296.6z M135.5,260c-0.1-8.1-2.5-14.8-7.2-20.3
		c-4.7-5.4-10.6-8-17.8-8c-7.3,0-13.3,2.6-18,7.8s-7,12.1-7,20.5c0,8.3,2.3,15.1,6.9,20.4c4.6,5.3,10.6,7.9,18.2,7.9
		C124.8,288.6,136,275.9,135.5,260z"/>
	<path d="M154,300.3c-0.6,0-0.8-0.3-0.7-0.9l16.7-78.9c0.1-0.5,0.4-0.7,0.9-0.7h11.5c0.5,0,0.8,0.3,1,0.7l13,40.5
		c0.8,2.5,1.3,5,1.5,7.3c0.1-2.2,0.5-4.7,1.4-7.3l13.2-40.6c0.2-0.5,0.5-0.7,1-0.7h11.3c0.5,0,0.8,0.3,0.9,0.7l16.7,78.9
		c0.1,0.6-0.2,0.9-0.7,0.9h-14.2c-0.5,0-0.8-0.3-0.9-0.8l-8.4-42.3c-0.7-3.6-1.2-6.3-1.4-8.1c-0.3,1.7-1,4.4-2.3,8.2l-14,42.3
		c-0.2,0.5-0.5,0.7-1,0.7h-3.1c-0.5,0-0.8-0.2-0.9-0.7l-14.2-42.3c-1.2-3.7-2-6.5-2.3-8.2c-0.1,1.5-0.5,4.1-1.3,8.1l-8.4,42.3
		c-0.1,0.5-0.4,0.8-0.9,0.8H154z"/>
	<path d="M294.1,286.8c0.6,0,0.8,0.3,0.8,0.8v11.9c0,0.6-0.3,0.8-0.8,0.8h-44.9c-0.6,0-0.9-0.3-0.9-0.8v-78.9c0-0.6,0.3-0.8,0.9-0.8
		h43.1c0.6,0,0.8,0.3,0.8,0.8v11.6c0,0.6-0.3,0.8-0.8,0.8H264v18.5h26.1c0.6,0,0.8,0.3,0.8,0.9v11.2c0,0.6-0.3,0.8-0.8,0.8H264v22.3
		H294.1z"/>
	<path d="M345.7,285.7c0.6,0,0.9,0.3,0.9,0.9v12.9c0,0.6-0.3,0.8-0.9,0.8h-43.8c-0.6,0-0.9-0.3-0.9-0.8v-78.9c0-0.6,0.3-0.8,0.9-0.8
		h14.2c0.6,0,0.9,0.3,0.9,0.8v65.1H345.7z"/>
	<path d="M397.4,286.8c0.6,0,0.8,0.3,0.8,0.8v11.9c0,0.6-0.3,0.8-0.8,0.8h-44.9c-0.6,0-0.9-0.3-0.9-0.8v-78.9c0-0.6,0.3-0.8,0.9-0.8
		h43.1c0.6,0,0.8,0.3,0.8,0.8v11.6c0,0.6-0.3,0.8-0.8,0.8h-28.3v18.5h26.1c0.6,0,0.8,0.3,0.8,0.9v11.2c0,0.6-0.3,0.8-0.8,0.8h-26.1
		v22.3H397.4z"/>
	<path d="M444.9,219.7c0.6,0,0.8,0.3,0.8,0.8v12.3c0,0.6-0.3,0.8-0.8,0.8h-14.2v65.8c0,0.6-0.3,0.8-0.8,0.8h-14.2
		c-0.6,0-0.8-0.3-0.8-0.8v-65.8h-14.2c-0.6,0-0.9-0.3-0.9-0.8v-12.3c0-0.6,0.3-0.8,0.9-0.8H444.9z"/>
</g>
</svg>
