<?xml version="1.0" encoding="utf-8"?>
<!-- Generator: Adobe Illustrator 22.0.1, SVG Export Plug-In . SVG Version: 6.00 Build 0)  -->
<svg version="1.1" id="Layer_1" xmlns="http://www.w3.org/2000/svg" xmlns:xlink="http://www.w3.org/1999/xlink" x="0px" y="0px"
	 viewBox="0 0 400 172" style="enable-background:new 0 0 400 172;" xml:space="preserve">
<g>
	<path d="M31.6,74.3c-4.6-2.2-8.4-5.4-11.5-9.5c-0.3-0.4-0.3-0.8,0-1.1l8.3-9.1c0.4-0.4,0.8-0.4,1.1,0c4.5,6.2,10.6,9.7,17,9.7
		c5.9,0,9.8-3.4,9.8-8.7c-0.2-4.2-1.1-6.2-4.9-8.4c-1.3-0.7-2.7-1.4-4.2-1.9s-3.5-1.3-6.1-2.1c-12.6-4.2-18.6-11.3-18.6-22.6
		c0-5.9,2.2-10.8,6.7-14.7C33.7,1.9,39.2,0,45.9,0C53.3,0,60,2.4,64.8,6.6c0.3,0.3,0.4,0.6,0.1,1.1l-6.3,10.1
		c-0.3,0.5-0.7,0.6-1.1,0.1c-3.3-3.4-7.1-5.2-11.4-5.2c-5.4,0-9.1,3.1-9.1,7.7c0.2,4,1.7,5.7,5.2,7.2c2.4,1.1,4.4,1.6,8.1,2.9
		c1.8,0.6,3.5,1.3,5,2c11.1,4.9,15.9,12,15.9,22.7c0,6.7-2.3,12.1-6.9,16.3c-4.6,4.2-10.7,6.3-18.1,6.3
		C41.1,77.7,36.2,76.6,31.6,74.3z"/>
	<path d="M133,1.6c0.5,0,0.8,0.2,0.8,0.8v73c0,0.5-0.2,0.8-0.8,0.8h-12.9c-0.5,0-0.8-0.2-0.8-0.8V43.6H92.8v31.7
		c0,0.5-0.2,0.8-0.8,0.8H79.1c-0.5,0-0.8-0.2-0.8-0.8v-73c0-0.5,0.3-0.8,0.8-0.8H92c0.5,0,0.8,0.2,0.8,0.8v28.7h26.5V2.4
		c0-0.5,0.3-0.8,0.8-0.8H133z"/>
	<path d="M144.3,76.1c-0.5,0-0.8-0.2-0.8-0.8v-73c0-0.5,0.3-0.8,0.8-0.8h13.1c0.5,0,0.8,0.2,0.8,0.8v73c0,0.5-0.3,0.8-0.8,0.8H144.3
		z"/>
	<path d="M223.1,75c0.4,0.5,0.1,1-0.5,1h-15.8c-0.4,0-0.7-0.1-0.9-0.5l-21.3-29.9h-2.1v29.7c0,0.5-0.2,0.8-0.8,0.8h-12.9
		c-0.5,0-0.8-0.2-0.8-0.8v-73c0-0.5,0.3-0.8,0.8-0.8h17c9,0,16,1.9,20.9,5.8c4.9,3.8,7.4,9.3,7.4,16.3c0,10.3-4.7,17-14.1,20.1
		L223.1,75z M182.4,13.9v19.4h5.3c7.4,0,11.5-3.5,11.5-9.6c0-6.2-4.6-9.8-12.5-9.8H182.4z"/>
	<path d="M227.2,76.1c-0.5,0-0.8-0.2-0.8-0.8v-73c0-0.5,0.3-0.8,0.8-0.8h13.1c0.5,0,0.8,0.2,0.8,0.8v73c0,0.5-0.3,0.8-0.8,0.8H227.2
		z"/>
	<path d="M246.9,76.1c-0.5,0-0.8-0.3-0.7-0.9l15.5-73c0.1-0.4,0.4-0.7,0.9-0.7h10.7c0.4,0,0.8,0.2,0.9,0.7l12,37.4
		c0.7,2.3,1.2,4.6,1.4,6.8c0-2,0.5-4.3,1.3-6.8l12.2-37.5c0.1-0.4,0.4-0.6,0.9-0.6h10.4c0.5,0,0.8,0.2,0.9,0.7l15.4,73
		c0.1,0.6-0.1,0.9-0.7,0.9h-13.1c-0.5,0-0.8-0.2-0.9-0.7l-7.8-39.1c-0.7-3.3-1.1-5.9-1.3-7.5c-0.2,1.6-0.9,4.1-2.1,7.6L290,75.5
		c-0.1,0.4-0.4,0.6-0.9,0.6h-2.9c-0.4,0-0.7-0.2-0.9-0.6l-13.1-39.1c-1.1-3.4-1.8-6-2.1-7.6c0,1.4-0.5,3.8-1.2,7.5l-7.8,39.1
		c-0.1,0.5-0.4,0.7-0.9,0.7H246.9z"/>
	<path d="M352,1.6c9,0,16,1.9,20.9,5.8c4.9,3.8,7.4,9.3,7.4,16.3c0,14.1-9.2,21.9-27.2,21.9h-4.3v29.7c0,0.5-0.2,0.8-0.8,0.8H335
		c-0.5,0-0.8-0.2-0.8-0.8v-73c0-0.5,0.3-0.8,0.8-0.8H352z M353.9,33.3c7.4,0,11.5-3.5,11.5-9.6c0-6.2-4.6-9.8-12.5-9.8h-4.3v19.4
		H353.9z"/>
	<path d="M97.9,161.3c0.3,0.4,0.3,0.8,0,1.1c-6.2,6-15.6,9.3-25.9,9.3c-7.6,0-14.4-1.6-20.1-4.9c-5.8-3.3-10.3-7.9-13.4-13.7
		s-4.7-12.6-4.7-20.2c0-7.3,1.6-14,4.9-19.9c3.3-5.9,7.9-10.5,13.9-13.9c6-3.3,12.8-5,20.3-5c9.6,0,18.4,3.4,24.3,9.5
		c0.3,0.3,0.3,0.7,0,1.1l-7.9,9.3c-0.4,0.5-0.8,0.5-1.1,0c-3.8-4.6-9.5-7.2-15.8-7.2c-6.8,0-12.5,2.5-17,7.5
		c-4.6,5-6.9,11.2-6.9,18.6c0,7.6,2.2,13.8,6.6,18.6c4.4,4.8,10,7.2,16.7,7.2c6.8,0,12.9-2.6,16.7-7.3c0.3-0.5,0.7-0.5,1.1,0
		L97.9,161.3z"/>
	<path d="M157.7,95.6c0.5,0,0.8,0.2,0.8,0.8v73c0,0.5-0.2,0.8-0.8,0.8h-12.9c-0.5,0-0.8-0.2-0.8-0.8v-31.7h-26.5v31.7
		c0,0.5-0.2,0.8-0.8,0.8h-12.9c-0.5,0-0.8-0.2-0.8-0.8v-73c0-0.5,0.3-0.8,0.8-0.8h12.9c0.5,0,0.8,0.2,0.8,0.8v28.7H144V96.4
		c0-0.5,0.3-0.8,0.8-0.8H157.7z"/>
	<path d="M210.5,157.6c0.5,0,0.8,0.2,0.8,0.8v11c0,0.5-0.2,0.8-0.8,0.8H169c-0.5,0-0.8-0.2-0.8-0.8v-73c0-0.5,0.3-0.8,0.8-0.8h39.8
		c0.5,0,0.8,0.2,0.8,0.8v10.8c0,0.5-0.2,0.8-0.8,0.8h-26.1V125h24.2c0.5,0,0.8,0.3,0.8,0.8v10.3c0,0.5-0.2,0.8-0.8,0.8h-24.2v20.7
		H210.5z"/>
	<path d="M259.1,157.6c0.5,0,0.8,0.2,0.8,0.8v11c0,0.5-0.2,0.8-0.8,0.8h-41.5c-0.5,0-0.8-0.2-0.8-0.8v-73c0-0.5,0.3-0.8,0.8-0.8
		h39.8c0.5,0,0.8,0.2,0.8,0.8v10.8c0,0.5-0.2,0.8-0.8,0.8h-26.1V125h24.2c0.5,0,0.8,0.3,0.8,0.8v10.3c0,0.5-0.2,0.8-0.8,0.8h-24.2
		v20.7H259.1z"/>
	<path d="M274.8,168.3c-4.6-2.2-8.4-5.4-11.5-9.5c-0.3-0.4-0.3-0.8,0-1.1l8.3-9.1c0.4-0.4,0.8-0.4,1.1,0c4.5,6.2,10.6,9.7,17,9.7
		c5.9,0,9.8-3.4,9.8-8.7c-0.2-4.2-1.1-6.2-4.9-8.4c-1.3-0.7-2.7-1.4-4.2-1.9c-1.5-0.6-3.5-1.3-6.1-2.1
		c-12.6-4.2-18.6-11.3-18.6-22.6c0-5.9,2.2-10.8,6.7-14.7c4.5-3.9,10-5.9,16.7-5.9c7.3,0,14.1,2.4,18.9,6.6c0.3,0.3,0.4,0.6,0.1,1.1
		l-6.3,10.1c-0.3,0.5-0.7,0.6-1.1,0.1c-3.3-3.4-7.1-5.2-11.4-5.2c-5.4,0-9.1,3.1-9.1,7.7c0.2,4,1.7,5.7,5.2,7.2
		c2.4,1.1,4.4,1.6,8.1,2.9c1.8,0.6,3.5,1.3,5,2c11.1,4.9,15.9,12,15.9,22.7c0,6.7-2.3,12.1-6.9,16.3c-4.6,4.2-10.7,6.3-18.1,6.3
		C284.3,171.7,279.4,170.6,274.8,168.3z"/>
	<path d="M363.8,157.6c0.5,0,0.8,0.2,0.8,0.8v11c0,0.5-0.2,0.8-0.8,0.8h-41.5c-0.5,0-0.8-0.2-0.8-0.8v-73c0-0.5,0.3-0.8,0.8-0.8
		h39.8c0.5,0,0.8,0.2,0.8,0.8v10.8c0,0.5-0.2,0.8-0.8,0.8h-26.1V125h24.2c0.5,0,0.8,0.3,0.8,0.8v10.3c0,0.5-0.2,0.8-0.8,0.8h-24.2
		v20.7H363.8z"/>
</g>
</svg>
