<?xml version="1.0" encoding="utf-8"?>
<!-- Generator: Adobe Illustrator 22.0.1, SVG Export Plug-In . SVG Version: 6.00 Build 0)  -->
<svg version="1.1" id="Layer_1" xmlns="http://www.w3.org/2000/svg" xmlns:xlink="http://www.w3.org/1999/xlink" x="0px" y="0px"
	 viewBox="0 0 451.4 191.3" style="enable-background:new 0 0 451.4 191.3;" xml:space="preserve">
<g>
	<path d="M36.7,80.4c-5-2.4-9.1-5.8-12.5-10.2c-0.3-0.5-0.3-0.8,0.1-1.2l9-9.9c0.5-0.5,0.8-0.4,1.2,0.1c4.9,6.7,11.5,10.5,18.4,10.5
		c6.3,0,10.5-3.7,10.5-9.4c-0.2-4.5-1.2-6.7-5.4-9.1c-1.4-0.8-2.9-1.5-4.6-2.1c-1.6-0.6-3.8-1.4-6.6-2.3
		c-13.6-4.6-20.1-12.2-20.1-24.4c0-6.3,2.4-11.6,7.3-15.9C38.9,2.1,45,0,52.2,0c7.9,0,15.2,2.6,20.5,7.1c0.4,0.3,0.4,0.7,0.2,1.2
		l-6.8,11c-0.4,0.6-0.7,0.6-1.2,0.1c-3.5-3.7-7.7-5.6-12.3-5.6c-5.9,0-9.8,3.3-9.8,8.3c0.2,4.3,1.8,6.2,5.6,7.8
		c2.6,1.2,4.8,1.7,8.8,3.1c1.9,0.7,3.8,1.4,5.4,2.2c12,5.2,17.2,13,17.2,24.5c0,7.2-2.5,13.1-7.5,17.7S60.7,84,52.6,84
		C47,84,41.7,82.8,36.7,80.4z"/>
	<path d="M105.9,78.6c-6.2-3.6-11.1-8.6-14.5-15c-3.5-6.3-5.2-13.6-5.2-21.7c0-8,1.8-15.2,5.3-21.6C95,14,99.8,9,106.1,5.4
		c6.2-3.6,13.2-5.4,21-5.4c7.9,0,15,1.8,21.2,5.5c6.2,3.7,11.1,8.7,14.5,15.1c3.4,6.4,5.1,13.6,5.1,21.5c0,11.8-4.4,22.6-11.5,30
		c-3.6,3.7-7.9,6.6-13,8.8c-5.1,2.2-10.5,3.3-16.4,3.3C119.2,84,112.2,82.3,105.9,78.6z M152.2,42c-0.1-8.1-2.5-14.8-7.2-20.2
		c-4.7-5.4-10.6-8-17.8-8c-7.3,0-13.3,2.6-18,7.8s-7,12.1-7,20.5c0,8.3,2.3,15.1,6.9,20.4c4.6,5.3,10.6,7.9,18.2,7.9
		C141.4,70.6,152.6,57.9,152.2,42z"/>
	<path d="M185.3,74.7c-6-6.2-9-14.5-9-24.8V2.6c0-0.6,0.3-0.8,0.9-0.8h14c0.6,0,0.8,0.3,0.8,0.8v46.2c0,13.8,5.8,21.5,17.1,21.5
		c11.3,0,17.1-7.7,17.1-21.5V2.6c0-0.6,0.3-0.8,0.8-0.8h14.2c0.6,0,0.9,0.3,0.9,0.8v47.3c0,10.3-3,18.6-9,24.8
		c-6,6.2-14.1,9.3-24,9.3S191.3,80.9,185.3,74.7z"/>
	<path d="M259.3,80.4c-5-2.4-9.1-5.8-12.5-10.2c-0.3-0.5-0.3-0.8,0.1-1.2l9-9.9c0.5-0.5,0.8-0.4,1.2,0.1
		c4.9,6.7,11.5,10.5,18.4,10.5c6.3,0,10.5-3.7,10.5-9.4c-0.2-4.5-1.2-6.7-5.4-9.1c-1.4-0.8-2.9-1.5-4.6-2.1
		c-1.6-0.6-3.8-1.4-6.6-2.3c-13.6-4.6-20.1-12.2-20.1-24.4c0-6.3,2.4-11.6,7.3-15.9c4.8-4.2,10.9-6.3,18.1-6.3
		c7.9,0,15.2,2.6,20.5,7.1c0.4,0.3,0.4,0.7,0.2,1.2l-6.8,11c-0.4,0.6-0.7,0.6-1.2,0.1c-3.5-3.7-7.7-5.6-12.3-5.6
		c-5.9,0-9.8,3.3-9.8,8.3c0.2,4.3,1.8,6.2,5.6,7.8c2.6,1.2,4.8,1.7,8.8,3.1c1.9,0.7,3.8,1.4,5.4,2.2c12,5.2,17.2,13,17.2,24.5
		c0,7.2-2.5,13.1-7.5,17.7S283.3,84,275.3,84C269.6,84,264.3,82.8,259.3,80.4z"/>
	<path d="M355.6,68.8c0.6,0,0.8,0.3,0.8,0.8v11.9c0,0.6-0.3,0.8-0.8,0.8h-44.9c-0.6,0-0.9-0.3-0.9-0.8V2.6c0-0.6,0.3-0.8,0.9-0.8
		h43.1c0.6,0,0.8,0.3,0.8,0.8v11.6c0,0.6-0.3,0.8-0.8,0.8h-28.3v18.5h26.1c0.6,0,0.8,0.3,0.8,0.9v11.2c0,0.6-0.3,0.8-0.8,0.8h-26.1
		v22.3H355.6z"/>
	<path d="M381.7,1.7C408.2,1.5,425.4,18,425.1,42c0.3,24-16.8,40.5-43.4,40.3h-18.4c-0.6,0-0.9-0.3-0.9-0.8V2.6
		c0-0.6,0.3-0.8,0.9-0.8H381.7z M382.7,69c8.1,0,14.6-2.5,19.4-7.4c4.7-4.9,7.1-11.4,7.1-19.6s-2.4-14.6-7.1-19.6
		c-4.8-4.9-11.2-7.4-19.4-7.4h-4.6V69H382.7z"/>
	<path d="M0.8,191.3c-0.6,0-0.8-0.3-0.7-0.9l16.7-78.9c0.1-0.5,0.4-0.7,0.9-0.7h11.5c0.5,0,0.8,0.3,1,0.7l13,40.5
		c0.8,2.5,1.3,5,1.5,7.3c0.1-2.2,0.5-4.7,1.4-7.3l13.2-40.6c0.2-0.5,0.5-0.7,1-0.7h11.3c0.5,0,0.8,0.3,0.9,0.7l16.7,78.9
		c0.1,0.6-0.2,0.9-0.7,0.9H74.3c-0.5,0-0.8-0.3-0.9-0.8l-8.4-42.3c-0.7-3.6-1.2-6.3-1.4-8.1c-0.3,1.7-1,4.4-2.3,8.2l-14,42.3
		c-0.2,0.5-0.5,0.7-1,0.7h-3.1c-0.5,0-0.8-0.2-0.9-0.7l-14.2-42.3c-1.2-3.7-2-6.5-2.3-8.2c-0.1,1.5-0.5,4.1-1.3,8.1l-8.4,42.3
		c-0.1,0.5-0.4,0.8-0.9,0.8H0.8z"/>
	<path d="M163.7,190.3c0.2,0.6-0.1,1-0.7,1h-15.8c-0.5,0-0.8-0.3-1-0.7l-8.9-28h-19.9l-8.8,28c-0.2,0.5-0.5,0.7-1,0.7H92.1
		c-0.6,0-0.9-0.4-0.7-1l28.1-78.9c0.2-0.5,0.5-0.7,1-0.7h14.2c0.5,0,0.8,0.2,0.9,0.7L163.7,190.3z M121.5,149.7h11.8l-3.1-9.8
		c-1.4-4.5-2.3-8.6-2.8-12.3c-0.2,2.8-1.2,6.9-2.8,12.2L121.5,149.7z"/>
	<path d="M233.1,190.3c0.4,0.6,0.2,1-0.5,1H214c-0.5,0-0.8-0.2-1-0.5l-28.5-40.1v39.8c0,0.6-0.3,0.8-0.8,0.8h-14
		c-0.6,0-0.9-0.3-0.9-0.8v-78.9c0-0.6,0.3-0.8,0.9-0.8h14c0.6,0,0.8,0.3,0.8,0.8v31.8l26.6-32.2c0.2-0.3,0.6-0.5,1-0.5h19.1
		c0.7,0,0.9,0.5,0.5,1l-28.3,31.9c-1.4,1.6-2.7,2.6-3.7,3c1.2,0.3,2.4,1.4,3.8,3.3L233.1,190.3z"/>
	<path d="M282.8,177.8c0.6,0,0.8,0.3,0.8,0.8v11.9c0,0.6-0.3,0.8-0.8,0.8h-44.9c-0.6,0-0.9-0.3-0.9-0.8v-78.9c0-0.6,0.3-0.8,0.9-0.8
		h43.1c0.6,0,0.8,0.3,0.8,0.8v11.6c0,0.6-0.3,0.8-0.8,0.8h-28.3v18.5h26.1c0.6,0,0.8,0.3,0.8,0.9v11.2c0,0.6-0.3,0.8-0.8,0.8h-26.1
		v22.3H282.8z"/>
	<path d="M349.3,190.2c0.4,0.6,0.2,1-0.5,1h-17.1c-0.4,0-0.7-0.2-1-0.5l-23-32.4h-2.3v32.2c0,0.6-0.3,0.8-0.8,0.8h-14
		c-0.6,0-0.9-0.3-0.9-0.8v-78.9c0-0.6,0.3-0.8,0.9-0.8h18.4c9.7,0,17.3,2.1,22.6,6.2c5.3,4.1,8,10,8,17.6c0,11.1-5.1,18.4-15.3,21.7
		L349.3,190.2z M305.4,124.1V145h5.7c8,0,12.5-3.8,12.5-10.4c0-6.7-4.9-10.5-13.5-10.5H305.4z"/>
	<path d="M398.8,177.8c0.6,0,0.8,0.3,0.8,0.8v11.9c0,0.6-0.3,0.8-0.8,0.8h-44.9c-0.6,0-0.9-0.3-0.9-0.8v-78.9c0-0.6,0.3-0.8,0.9-0.8
		H397c0.6,0,0.8,0.3,0.8,0.8v11.6c0,0.6-0.3,0.8-0.8,0.8h-28.3v18.5h26.1c0.6,0,0.8,0.3,0.8,0.9v11.2c0,0.6-0.3,0.8-0.8,0.8h-26.1
		v22.3H398.8z"/>
	<path d="M450.5,176.7c0.6,0,0.9,0.3,0.9,0.9v12.9c0,0.6-0.3,0.8-0.9,0.8h-43.8c-0.6,0-0.9-0.3-0.9-0.8v-78.9c0-0.6,0.3-0.8,0.9-0.8
		h14.2c0.6,0,0.9,0.3,0.9,0.8v65.1H450.5z"/>
</g>
</svg>
