<?xml version="1.0" standalone="no"?>
<!DOCTYPE svg PUBLIC "-//W3C//DTD SVG 1.1//EN" "http://www.w3.org/Graphics/SVG/1.1/DTD/svg11.dtd" >
<svg xmlns="http://www.w3.org/2000/svg" xmlns:xlink="http://www.w3.org/1999/xlink" version="1.1">
<metadata>
Created by FontForge 20201107 at Wed Oct  4 15:35:46 2017
 By Jimmy Wärting
Copyright (c) 2017 by Roch Modrzejewski. All rights reserved.
</metadata>
<defs>
<font id="PaneuropaRetro-Bold" horiz-adv-x="1099" >
  <font-face 
    font-family="Paneuropa Retro Bold"
    font-weight="700"
    font-stretch="normal"
    units-per-em="2048"
    panose-1="0 0 8 0 0 0 0 0 0 0"
    ascent="1638"
    descent="-410"
    x-height="860"
    cap-height="1536"
    bbox="0 -422 1862.04 1694"
    underline-thickness="102"
    underline-position="-816"
    unicode-range="U+0020-25FC"
  />
<missing-glyph horiz-adv-x="748" 
d="M68 0v1365h544v-1365h-544zM136 68h408v1229h-408v-1229z" />
    <glyph glyph-name=".notdef" horiz-adv-x="748" 
d="M68 0v1365h544v-1365h-544zM136 68h408v1229h-408v-1229z" />
    <glyph glyph-name="glyph1" horiz-adv-x="0" 
 />
    <glyph glyph-name="glyph2" horiz-adv-x="682" 
 />
    <glyph glyph-name="space" unicode=" " horiz-adv-x="471" 
 />
    <glyph glyph-name="exclam" unicode="!" horiz-adv-x="608" 
d="M189 428q-16 0 -16 16l-40 1075q0 17 16 17h310q17 0 17 -17l-40 -1075q0 -16 -17 -16h-230zM304 -20q-82 0 -135 53t-53 135q0 80 54 134t134 54q82 0 135.5 -54t53.5 -134q0 -79 -54.5 -133.5t-134.5 -54.5z" />
    <glyph glyph-name="quotedbl" unicode="&#x22;" horiz-adv-x="886" 
d="M346 840l33 696h-297l33 -696h231zM772 840l33 696h-297l33 -696h231z" />
    <glyph glyph-name="numbersign" unicode="#" horiz-adv-x="1462" 
d="M1415 1120q17 0 17 -16v-217q0 -17 -17 -17h-270l-43 -245h223q16 0 16 -17v-217q0 -16 -16 -16h-268l-63 -360q-3 -15 -18 -15h-262q-18 0 -15 18l64 357h-197l-64 -360q-3 -15 -17 -15h-262q-18 0 -15 18l63 357h-224q-16 0 -16 16v217q0 17 16 17h268l44 245h-222
q-16 0 -16 17v217q0 16 16 16h266l61 348q3 15 18 15h262q18 0 15 -18l-61 -345h196l62 348q3 15 18 15h261q18 0 15 -18l-61 -345h226zM807 625l43 245h-196l-44 -245h197z" />
    <glyph glyph-name="dollar" unicode="$" horiz-adv-x="1101" 
d="M1053 418q0 -165 -103.5 -285t-273.5 -153l8 -201h-242l8 200q-126 22 -234.5 88t-172.5 162l184 213q63 -93 153 -148.5t177 -55.5q89 0 137.5 41t48.5 116q0 30 -5.5 53.5t-23.5 45t-35.5 37t-57.5 36.5t-72 35.5t-96 42.5q-174 75 -256 176t-82 264q0 148 92.5 259
t242.5 147l-8 203h242l-7 -198q88 -16 166 -56.5t130 -98.5l-174 -200q-39 47 -97 72.5t-122 25.5q-73 0 -117.5 -37.5t-44.5 -101.5q0 -71 53.5 -110t206.5 -105q11 -5 17.5 -7.5t16.5 -7t19 -8.5q171 -74 246.5 -178t75.5 -266z" />
    <glyph glyph-name="percent" unicode="%" horiz-adv-x="1880" 
d="M401 -53q-10 0 -13.5 5.5t1.5 13.5l789 1558q6 12 19 12h252q10 0 13.5 -5.5t-1.5 -13.5l-789 -1558q-6 -12 -20 -12h-251zM403 778q-158 0 -263 105t-105 262t105 261.5t263 104.5t263.5 -104.5t105.5 -261.5t-105.5 -262t-263.5 -105zM403 1014q56 0 94 38t38 93
t-38 93t-94 38q-55 0 -93 -38t-38 -93t38 -93t93 -38zM1442 -29q-158 0 -263.5 105t-105.5 262t105.5 262t263.5 105t263 -105t105 -262t-105 -262t-263 -105zM1442 207q56 0 93.5 37.5t37.5 93.5t-37.5 93.5t-93.5 37.5t-93.5 -37.5t-37.5 -93.5t37.5 -93.5t93.5 -37.5z
" />
    <glyph glyph-name="ampersand" unicode="&#x26;" horiz-adv-x="1576" 
d="M1558 20q8 -8 5.5 -14t-13.5 -6h-367q-16 0 -30 11q-58 51 -105 95q-213 -135 -464 -135q-244 0 -380 113.5t-136 308.5q0 92 28 167.5t80.5 131.5t110 95.5t134.5 77.5q-93 179 -93 315q0 174 118 279.5t312 105.5q170 0 273.5 -100t103.5 -265q0 -80 -25 -146
t-73.5 -115.5t-99.5 -84t-122 -70.5q98 -128 244 -284q125 163 191 373q5 18 22 9l244 -127q13 -7 7 -26q-12 -35 -32.5 -83.5t-85.5 -157.5t-142 -196q150 -146 295 -272zM621 1180q0 -80 62 -196q98 47 150 97t52 119q0 56 -34.5 89.5t-92.5 33.5q-62 0 -99.5 -39
t-37.5 -104zM578 236q144 0 268 71q-177 186 -294 350q-90 -50 -138.5 -109t-48.5 -142q0 -72 59.5 -121t153.5 -49z" />
    <glyph glyph-name="quotesingle" unicode="'" horiz-adv-x="440" 
d="M336 840l33 696h-297l32 -696h232z" />
    <glyph glyph-name="parenleft" unicode="(" horiz-adv-x="647" 
d="M623 -314q0 -21 -20 -11q-29 16 -61 37t-87.5 67.5t-103.5 99t-101.5 133.5t-91.5 170.5t-63 210.5t-25 252t25 252t63 210.5t91.5 170.5t102 134t103.5 99t87 67.5t61 37.5q20 10 20 -12v-220q0 -10 -8 -21q-19 -23 -40 -53.5t-56 -99.5t-61.5 -145t-46.5 -188.5
t-20 -231.5t20 -231.5t46.5 -188.5t61.5 -145t56 -99.5t40 -53.5q8 -11 8 -20v-221z" />
    <glyph glyph-name="parenright" unicode=")" horiz-adv-x="647" 
d="M25 -314v221q0 12 7 20q19 24 39.5 53.5t56 99.5t62 145t46.5 188t20 232t-20 232t-46.5 188t-62 145t-56 99.5t-39.5 53.5q-7 8 -7 21v220q0 22 20 12q29 -16 61 -37.5t87 -67.5t103.5 -99t102 -134t91.5 -170.5t63 -210.5t25 -252t-25 -252t-63 -210.5t-91.5 -170.5
t-101.5 -133.5t-103.5 -99t-87.5 -67.5t-61 -37q-20 -10 -20 11z" />
    <glyph glyph-name="asterisk" unicode="*" horiz-adv-x="819" 
d="M585 1178q37 -42 75 -94l42 -57q9 -14 -4 -23l-151 -112q-13 -10 -23 3l-44 57q-36 48 -80 119q-55 -70 -94 -112l-47 -50q-10 -12 -23 -1l-139 128q-12 10 -1 23l48 52q47 51 85 86q-66 21 -117 41l-61 25q-16 6 -10 21l67 177q6 15 21 9l63 -25q52 -20 119 -50
q0 87 2 128l4 65q2 17 17 16l188 -10q17 -2 16 -17l-4 -66q-4 -73 -10 -127q63 21 123 37l65 18q15 5 20 -11l48 -183q5 -15 -11 -20l-64 -18q-57 -16 -120 -29z" />
    <glyph glyph-name="plus" unicode="+" horiz-adv-x="1021" 
d="M937 874q16 0 16 -16v-217q0 -16 -16 -16h-302v-297q0 -17 -17 -17h-217q-16 0 -16 17v297h-299q-16 0 -16 16v217q0 16 16 16h299v295q0 17 16 17h217q17 0 17 -17v-295h302z" />
    <glyph glyph-name="comma" unicode="," horiz-adv-x="507" 
d="M444 160q0 -18 -3 -35q1 -6 -1 -25q-11 -86 -54.5 -183t-76 -146.5t-62.5 -86.5q-9 -13 -23 -5l-140 75q-16 8 -5 23q104 132 118 210q-59 17 -96.5 67t-37.5 114q0 80 54 134t137 54q86 0 138 -53.5t52 -142.5z" />
    <glyph glyph-name="hyphen" unicode="-" horiz-adv-x="829" 
d="M104 375q-16 0 -16 16v217q0 17 16 17h621q16 0 16 -17v-217q0 -16 -16 -16h-621z" />
    <glyph glyph-name="period" unicode="." horiz-adv-x="503" 
d="M252 -20q-82 0 -135.5 53t-53.5 135q0 79 54.5 133.5t134.5 54.5q82 0 135 -54t53 -134t-54 -134t-134 -54z" />
    <glyph glyph-name="slash" unicode="/" horiz-adv-x="1095" 
d="M30 -295q-20 0 -13 19l709 1889q4 13 19 13h277q20 0 13 -19l-709 -1889q-4 -13 -18 -13h-278z" />
    <glyph glyph-name="zero" unicode="0" horiz-adv-x="1339" 
d="M670 -29q-263 0 -420.5 209.5t-157.5 560.5q0 349 158 559.5t420 210.5q264 0 420.5 -209t156.5 -561q0 -349 -158 -559.5t-419 -210.5zM670 225q139 0 217 138.5t78 377.5q0 241 -79 380t-216 139q-136 0 -215.5 -140.5t-79.5 -378.5q0 -241 79 -378.5t216 -137.5z" />
    <glyph glyph-name="one" unicode="1" horiz-adv-x="741" 
d="M369 0q-17 0 -17 16v1059q-103 -100 -302 -127q-17 -2 -17 16v221q0 15 15 18q134 27 228 96.5t133 170.5q4 13 19 13h203q16 0 16 -17v-1450q0 -16 -16 -16h-262z" />
    <glyph glyph-name="two" unicode="2" horiz-adv-x="1157" 
d="M58 0q-11 0 -13 7t6 15q324 347 477.5 530.5t215 296t61.5 210.5q0 94 -54 150.5t-143 56.5q-96 0 -151 -62t-59 -174q0 -16 -17 -16h-266q-16 0 -16 16q5 218 142 349.5t359 131.5q218 0 362 -133.5t144 -333.5q0 -344 -477 -782h458q17 0 17 -16v-230q0 -16 -17 -16
h-1029z" />
    <glyph glyph-name="three" unicode="3" horiz-adv-x="1087" 
d="M737 809q127 -12 204 -121.5t77 -277.5q0 -198 -137.5 -318.5t-364.5 -120.5q-174 0 -305 94.5t-176 251.5q-4 15 10 21l217 99q16 8 21 -10q28 -96 85.5 -149t133.5 -53q100 0 155.5 59.5t55.5 166.5q0 108 -59 167.5t-165 59.5h-122q-17 0 -17 16v205q0 16 17 16h122
q88 0 136.5 48.5t48.5 136.5q0 76 -40 118t-112 42q-68 0 -117 -37.5t-72 -106.5q-6 -16 -21 -10l-229 86q-16 6 -10 21q49 135 177 216.5t289 81.5q189 0 309.5 -102.5t120.5 -269.5q0 -130 -64 -220.5t-168 -109.5z" />
    <glyph glyph-name="four" unicode="4" horiz-adv-x="1148" 
d="M1108 555v-221h-182v-334h-295v334h-596v184l622 965h269v-928h182zM283 555h348v543z" />
    <glyph glyph-name="five" unicode="5" horiz-adv-x="1140" 
d="M625 1012q204 0 327 -140.5t123 -373.5q0 -238 -144.5 -382.5t-383.5 -144.5q-148 0 -275.5 55t-212.5 155q-10 12 1 23l167 176q13 13 23 -2q50 -73 120.5 -113t149.5 -40q121 0 187.5 69t66.5 195q0 124 -71 192.5t-201 68.5q-101 0 -186 -51.5t-141 -141.5
q-4 -7 -8.5 -8.5t-7.5 2t-3 11.5v904q0 17 16 17h784q17 0 17 -17v-217q0 -16 -17 -16h-512v-264q75 43 181 43z" />
    <glyph glyph-name="six" unicode="6" horiz-adv-x="1232" 
d="M715 1012q205 0 329.5 -142.5t124.5 -377.5t-151 -378t-400 -143q-243 0 -389.5 144.5t-146.5 382.5q0 267 140 537t389 496q13 11 23 -1l169 -176q12 -12 -1 -24q-220 -192 -331 -406q91 88 244 88zM623 225q117 0 181 69.5t64 197.5t-59 198t-166 70q-118 0 -189 -73
t-71 -195q0 -127 63 -197t177 -70z" />
    <glyph glyph-name="seven" unicode="7" horiz-adv-x="1067" 
d="M195 0q-19 0 -14 19q120 421 220.5 694.5t241.5 511.5h-610q-17 0 -17 16v225q0 17 17 17h1003q10 0 13 -6t-2 -14q-193 -331 -334 -710t-205 -738q-3 -15 -17 -15h-296z" />
    <glyph glyph-name="eight" unicode="8" horiz-adv-x="1226" 
d="M918 807q123 -51 187 -149t64 -236q0 -204 -152 -327.5t-403 -123.5t-403 123.5t-152 327.5q0 138 64.5 236t187.5 149q-180 94 -180 303q0 181 132.5 291t350.5 110t351 -110t133 -291q0 -209 -180 -303zM614 1260q-98 0 -151 -45.5t-53 -127.5q0 -80 56 -128t148 -48
t148.5 48.5t56.5 127.5q0 82 -53.5 127.5t-151.5 45.5zM614 225q120 0 186 59.5t66 168.5q0 101 -69 163t-183 62t-183 -62t-69 -163q0 -109 66 -168.5t186 -59.5z" />
    <glyph glyph-name="nine" unicode="9" horiz-adv-x="1232" 
d="M582 -72q-13 -11 -24 2l-169 176q-12 12 2 23q265 205 375 430q-43 -41 -108 -64.5t-140 -23.5q-205 0 -330 142.5t-125 377.5t151 377.5t400 142.5q243 0 390 -144t147 -382q0 -272 -148.5 -548.5t-420.5 -508.5zM590 723q118 0 189 73t71 195q0 127 -63 196.5
t-177 69.5q-117 0 -181 -69.5t-64 -196.5q0 -128 59 -198t166 -70z" />
    <glyph glyph-name="colon" unicode=":" horiz-adv-x="561" 
d="M283 504q-82 0 -135.5 53t-53.5 135q0 80 55 134.5t134 54.5q82 0 135 -54.5t53 -134.5t-54.5 -134t-133.5 -54zM283 -20q-82 0 -135.5 53t-53.5 135q0 79 54.5 133.5t134.5 54.5q82 0 135 -54t53 -134t-54.5 -134t-133.5 -54z" />
    <glyph glyph-name="semicolon" unicode=";" horiz-adv-x="565" 
d="M285 504q-82 0 -135.5 53t-53.5 135q0 80 55 134.5t134 54.5q82 0 135 -54.5t53 -134.5t-54.5 -134t-133.5 -54zM475 160q0 -18 -3 -35q1 -6 -1 -25q-11 -86 -54.5 -183t-76 -146.5t-62.5 -86.5q-9 -13 -23 -5l-141 75q-16 8 -4 23q104 132 118 210q-59 17 -96.5 67
t-37.5 114q0 80 54 134t137 54q86 0 138 -53.5t52 -142.5z" />
    <glyph glyph-name="less" unicode="&#x3c;" horiz-adv-x="851" 
d="M763 218l-682 372q-11 6 -11 19v183q0 14 11 19l682 372q19 10 19 -11v-268q0 -13 -12 -19l-387 -185l387 -184q12 -6 12 -19v-268q0 -21 -19 -11z" />
    <glyph glyph-name="equal" unicode="=" horiz-adv-x="972" 
d="M86 823q-16 0 -16 17v192q0 17 16 17h801q16 0 16 -17v-192q0 -17 -16 -17h-801zM86 455q-16 0 -16 16v193q0 16 16 16h801q16 0 16 -16v-193q0 -16 -16 -16h-801z" />
    <glyph glyph-name="greater" unicode="&#x3e;" horiz-adv-x="851" 
d="M89 218q-19 -10 -19 11v268q0 13 12 19l387 184l-387 185q-12 6 -12 19v268q0 21 19 11l682 -372q11 -5 11 -19v-183q0 -13 -11 -19z" />
    <glyph glyph-name="question" unicode="?" horiz-adv-x="1044" 
d="M330 428q-16 0 -16 17q2 82 23 155t52.5 126t69.5 100t75.5 87.5t68.5 79t50 83t19 91.5q0 65 -40 101.5t-112 36.5q-79 0 -145.5 -37t-112.5 -105q-10 -16 -23 -3l-195 197q-11 11 -1 23q79 84 208.5 134.5t268.5 50.5q208 0 333.5 -104t125.5 -275q0 -73 -20 -135
t-51.5 -107t-70.5 -87l-78 -84t-71.5 -87t-54.5 -107t-24 -134q0 -17 -17 -17h-262zM473 -20q-82 0 -135 53t-53 135q0 80 54.5 134t133.5 54q82 0 135.5 -54t53.5 -134q0 -79 -54.5 -133.5t-134.5 -54.5z" />
    <glyph glyph-name="at" unicode="@" horiz-adv-x="1722" 
d="M758 1135q128 0 192 -99l-9 58q-3 18 15 18h258q17 0 17 -16v-406q0 -72 69 -72q58 0 92.5 62t34.5 164q0 214 -158 354.5t-401 140.5q-162 0 -293 -74.5t-205.5 -205t-74.5 -291.5t74.5 -291.5t205.5 -205t293 -74.5q202 0 338 110q12 11 23 -2l138 -153q11 -13 -1 -22
q-102 -76 -232 -117.5t-266 -41.5q-168 0 -316 61t-254 166.5t-167 253.5t-61 316t61 316t167 253.5t254 166.5t316 61q222 0 402 -93.5t281.5 -258.5t101.5 -369q0 -200 -101 -321.5t-268 -121.5q-108 0 -187 44.5t-114 123.5q-59 -168 -231 -168q-132 0 -213.5 101
t-81.5 266q0 166 82.5 266.5t218.5 100.5zM848 651q44 0 69 31t25 86q0 57 -25 88t-69 31q-49 0 -76 -31t-27 -88q0 -56 27 -86.5t76 -30.5z" />
    <glyph glyph-name="A" unicode="A" horiz-adv-x="1454" 
d="M1417 19q3 -8 -1 -13.5t-13 -5.5h-301q-14 0 -19 14l-169 533h-380l-167 -533q-5 -14 -19 -14h-297q-9 0 -13 5.5t-1 13.5l536 1504q4 13 19 13h271q14 0 18 -13zM611 793h224l-59 186q-40 127 -53 235q-6 -81 -53 -233z" />
    <glyph glyph-name="B" unicode="B" horiz-adv-x="1161" 
d="M752 844q164 -4 254 -104t90 -277q0 -209 -136 -336t-360 -127h-481q-17 0 -17 16v1504q0 16 17 16h358q229 0 354 -104t125 -295q0 -116 -53 -192t-151 -101zM485 1282h-84v-358h84q79 0 123.5 48.5t44.5 131.5q0 81 -45 129.5t-123 48.5zM559 258q234 0 234 207
t-254 207h-138v-414h158z" />
    <glyph glyph-name="C" unicode="C" horiz-adv-x="1423" 
d="M1383 182q10 -12 -1 -23q-95 -92 -234.5 -142t-299.5 -50q-236 0 -415.5 101t-275.5 282.5t-96 417.5q0 227 101.5 409.5t286.5 287t419 104.5q148 0 278.5 -51t221.5 -145q11 -11 0 -23l-162 -191q-12 -15 -23 0q-59 71 -143.5 109.5t-181.5 38.5q-210 0 -351.5 -155
t-141.5 -384q0 -235 136 -383.5t345 -148.5q106 0 196 39t149 112q11 15 23 0z" />
    <glyph glyph-name="D" unicode="D" horiz-adv-x="1357" 
d="M469 1536q253 0 440.5 -95.5t287 -269t99.5 -403.5t-99.5 -403.5t-287 -269t-440.5 -95.5h-350q-17 0 -17 16v1504q0 16 17 16h350zM489 254q233 0 368.5 141t135.5 373t-135.5 373t-368.5 141h-88v-1028h88z" />
    <glyph glyph-name="E" unicode="E" horiz-adv-x="1021" 
d="M975 258q16 0 16 -16v-226q0 -16 -16 -16h-856q-17 0 -17 16v1504q0 16 17 16h821q16 0 16 -16v-222q0 -16 -16 -16h-539v-352h498q16 0 16 -17v-213q0 -16 -16 -16h-498v-426h574z" />
    <glyph glyph-name="F" unicode="F" horiz-adv-x="933" 
d="M887 1536q16 0 16 -16v-222q0 -16 -16 -16h-486v-352h445q16 0 16 -17v-213q0 -16 -16 -16h-445v-668q0 -16 -16 -16h-266q-17 0 -17 16v1504q0 16 17 16h768z" />
    <glyph glyph-name="G" unicode="G" horiz-adv-x="1699" 
d="M1628 821q16 0 16 -16q-2 -135 -36.5 -259.5t-101 -230t-159 -183t-218.5 -121.5t-271 -44q-229 0 -411.5 104.5t-284 287.5t-101.5 409q0 235 103 417.5t287.5 283t420.5 100.5q206 0 378.5 -98t281.5 -277q10 -14 -6 -23l-223 -132q-15 -10 -23 6q-68 125 -176 193.5
t-238 68.5q-136 0 -250.5 -70t-182.5 -194.5t-68 -274.5q0 -233 136.5 -386t352.5 -153q170 0 285.5 84.5t156.5 237.5h-434q-16 0 -16 16v238q0 16 16 16h766z" />
    <glyph glyph-name="H" unicode="H" horiz-adv-x="1349" 
d="M1233 1536q16 0 16 -16v-1504q0 -16 -16 -16h-266q-17 0 -17 16v654h-547v-654q0 -16 -16 -16h-266q-17 0 -17 16v1504q0 16 17 16h266q16 0 16 -16v-592h547v592q0 16 17 16h266z" />
    <glyph glyph-name="I" unicode="I" horiz-adv-x="503" 
d="M119 0q-17 0 -17 16v1504q0 16 17 16h270q17 0 17 -16v-1504q0 -16 -17 -16h-270z" />
    <glyph glyph-name="J" unicode="J" horiz-adv-x="925" 
d="M410 -33q-130 0 -235 55.5t-163 157.5q-8 15 6 23l223 128q14 9 22 -7q22 -43 57 -67t77 -24q64 0 99.5 42.5t35.5 117.5v1127q0 16 17 16h270q17 0 17 -16v-1106q0 -195 -120 -321t-306 -126z" />
    <glyph glyph-name="K" unicode="K" horiz-adv-x="1376" 
d="M1331 20q6 -8 3 -14t-13 -6h-354q-13 0 -20 10l-544 765v-759q0 -16 -16 -16h-266q-17 0 -17 16v1504q0 16 17 16h266q16 0 16 -16v-606l507 613q6 9 20 9h364q10 0 13 -6t-4 -14l-539 -609q-41 -46 -70 -57q33 -8 72 -62z" />
    <glyph glyph-name="L" unicode="L" horiz-adv-x="989" 
d="M956 279q17 0 17 -17v-246q0 -16 -17 -16h-835q-17 0 -17 16v1504q0 16 17 16h270q17 0 17 -16v-1241h548z" />
    <glyph glyph-name="M" unicode="M" horiz-adv-x="1802" 
d="M65 0q-17 0 -14 18l319 1504q3 14 18 14h220q14 0 19 -14l248 -772q23 -72 28 -140q2 63 27 140l251 773q4 13 19 13h215q15 0 18 -14l318 -1504q3 -18 -14 -18h-270q-15 0 -18 15l-161 806q-21 104 -26 154q-7 -48 -43 -156l-266 -806q-4 -13 -19 -13h-60q-14 0 -18 13
l-270 806q-35 107 -43 156q-2 -42 -25 -154l-161 -806q-3 -15 -18 -15h-274z" />
    <glyph glyph-name="N" unicode="N" horiz-adv-x="1490" 
d="M121 0q-17 0 -17 16v1504q0 16 17 16h251q13 0 20 -10l708 -985q-8 44 -8 131v848q0 16 16 16h266q17 0 17 -16v-1504q0 -16 -17 -16h-247q-13 0 -20 10l-712 981q8 -44 8 -131v-844q0 -16 -16 -16h-266z" />
    <glyph glyph-name="O" unicode="O" horiz-adv-x="1685" 
d="M843 -33q-226 0 -404 102.5t-277 285t-99 413.5q0 228 100.5 411.5t278.5 286.5t401 103q226 0 404.5 -104.5t277 -287t98.5 -409.5q0 -169 -59 -317.5t-161.5 -254.5t-248 -167.5t-311.5 -61.5zM843 229q137 0 247 70.5t171 193.5t59 275q-3 232 -138 385.5t-339 153.5
q-209 0 -343 -148.5t-134 -390.5q0 -238 130.5 -388.5t346.5 -150.5z" />
    <glyph glyph-name="P" unicode="P" 
d="M471 1536q278 0 430 -119t152 -336q0 -218 -141 -335t-420 -117h-89v-613q0 -16 -16 -16h-266q-17 0 -17 16v1504q0 16 17 16h350zM512 883q114 0 176 52t62 146q0 95 -67.5 148t-190.5 53h-89v-399h109z" />
    <glyph glyph-name="Q" unicode="Q" horiz-adv-x="1712" 
d="M1632 187q18 -5 10 -21l-110 -219q-8 -15 -22 -8q-116 55 -231 147q-189 -119 -426 -119q-169 0 -316 60t-251 165t-163.5 254t-59.5 322q0 228 103 411.5t283.5 286.5t403.5 103q169 0 316.5 -61.5t251.5 -167.5t163.5 -254.5t59.5 -317.5q0 -296 -175 -514
q83 -47 163 -67zM366 768q0 -236 135 -387.5t352 -151.5q122 0 229 58q-44 57 -76 110q-7 12 4 23l137 121q13 12 23 -3q34 -52 76 -100q98 145 95 330q-3 230 -143 384.5t-345 154.5q-210 0 -348.5 -149t-138.5 -390z" />
    <glyph glyph-name="R" unicode="R" horiz-adv-x="1286" 
d="M1241 22q6 -8 3 -14t-13 -6h-326q-12 0 -19 10l-439 617h-44v-613q0 -16 -16 -16h-266q-17 0 -17 16v1504q0 16 17 16h350q278 0 430 -119t152 -336q0 -318 -291 -414zM492 1282h-89v-399h109q114 0 176 52t62 146q0 95 -67.5 148t-190.5 53z" />
    <glyph glyph-name="S" unicode="S" horiz-adv-x="1167" 
d="M598 -33q-162 0 -304 69.5t-238 195.5q-9 13 1 23l172 188q13 13 23 -1q70 -96 161 -148t189 -52q91 0 146 49t55 131q0 42 -10.5 73t-30.5 54.5t-61 46t-87 40.5t-125 44q-195 65 -289 177.5t-94 287.5q0 181 138.5 302.5t345.5 121.5q113 0 214 -35.5t176 -100.5
q10 -9 3 -22l-129 -209q-10 -17 -23 -2q-101 107 -235 107q-84 0 -135.5 -43.5t-51.5 -114.5q0 -39 13.5 -68t34.5 -46.5t58.5 -34t74 -27.5t93 -31t103.5 -41q171 -75 249.5 -189t78.5 -278q0 -207 -143 -337t-373 -130z" />
    <glyph glyph-name="T" unicode="T" horiz-adv-x="907" 
d="M876 1536q16 0 16 -16v-234q0 -16 -16 -16h-271v-1254q0 -16 -16 -16h-271q-16 0 -16 16v1254h-270q-17 0 -17 16v234q0 16 17 16h844z" />
    <glyph glyph-name="U" unicode="U" horiz-adv-x="1458" 
d="M729 -33q-283 0 -454 178t-171 473v902q0 16 17 16h266q16 0 16 -16v-881q0 -197 82.5 -303.5t243.5 -106.5t243.5 106.5t82.5 303.5v881q0 16 16 16h270q17 0 17 -16v-902q0 -295 -172.5 -473t-456.5 -178z" />
    <glyph glyph-name="V" unicode="V" horiz-adv-x="1386" 
d="M567 0q-15 0 -19 13l-511 1504q-7 19 13 19h294q14 0 19 -14l294 -926q33 -100 41 -182q9 80 41 184l293 924q5 14 18 14h286q9 0 13 -5.5t1 -13.5l-502 -1504q-4 -13 -18 -13h-263z" />
    <glyph glyph-name="W" unicode="W" horiz-adv-x="1896" 
d="M459 0q-13 0 -18 14l-405 1504q-5 18 14 18h306q15 0 18 -14l197 -848q26 -114 29 -174q2 51 31 176l207 846q3 14 18 14h203q15 0 18 -14l217 -846q24 -100 31 -176q4 44 27 174l181 847q3 15 18 15h296q19 0 14 -18l-381 -1504q-3 -14 -18 -14h-274q-15 0 -18 14
l-179 742q-25 102 -33 227q-6 -101 -34 -227l-169 -742q-3 -14 -18 -14h-278z" />
    <glyph glyph-name="X" unicode="X" horiz-adv-x="1417" 
d="M1374 20q5 -8 2 -14t-13 -6h-316q-13 0 -19 11l-317 567l-324 -567q-5 -11 -19 -11h-314q-10 0 -13 6t2 14l504 814l-412 682q-5 8 -2 14t13 6h322q13 0 19 -12l230 -434l233 434q6 12 20 12h309q10 0 13.5 -6t-1.5 -14l-414 -678z" />
    <glyph glyph-name="Y" unicode="Y" horiz-adv-x="1409" 
d="M586 0q-17 0 -17 16v591l-527 909q-5 8 -2 14t13 6h323q13 0 19 -12l320 -623l305 623q6 12 19 12h317q10 0 13.5 -6t-1.5 -14l-496 -902v-598q0 -16 -16 -16h-270z" />
    <glyph glyph-name="Z" unicode="Z" horiz-adv-x="1374" 
d="M778 1194q35 56 60 72h-639q-17 0 -17 16l-2 238q0 16 17 16h1123q10 0 13 -6t-2 -14l-729 -1172q-31 -50 -57 -70h723q16 0 16 -16v-242q0 -16 -16 -16h-1214q-10 0 -13 6t2 14z" />
    <glyph glyph-name="bracketleft" unicode="[" horiz-adv-x="708" 
d="M684 1370q0 -16 -16 -16h-267v-1415h267q16 0 16 -17v-221q0 -16 -16 -16h-545q-17 0 -17 16v1888q0 17 17 17h545q16 0 16 -17v-219z" />
    <glyph glyph-name="backslash" unicode="\" horiz-adv-x="1095" 
d="M1065 -295h-277q-15 0 -19 13l-709 1889q-7 19 13 19h278q14 0 18 -13l709 -1889q7 -19 -13 -19z" />
    <glyph glyph-name="bracketright" unicode="]" horiz-adv-x="708" 
d="M25 1370v219q0 17 16 17h545q16 0 16 -17v-1888q0 -16 -16 -16h-545q-16 0 -16 16v221q0 17 16 17h266v1415h-266q-16 0 -16 16z" />
    <glyph glyph-name="asciicircum" unicode="^" horiz-adv-x="1048" 
d="M968 937q5 -8 1.5 -13.5t-13.5 -5.5h-267q-13 0 -19 11l-146 296l-145 -296q-5 -11 -20 -11h-267q-21 0 -11 19l332 588q5 11 20 11h183q14 0 19 -11z" />
    <glyph glyph-name="underscore" unicode="_" horiz-adv-x="845" 
d="M80 -260q-17 0 -17 16v178q0 17 17 17h686q16 0 16 -17v-178q0 -16 -16 -16h-686z" />
    <glyph glyph-name="a" unicode="a" horiz-adv-x="1101" 
d="M991 860q17 0 17 -16v-828q0 -16 -17 -16h-263q-17 0 -15 17l16 147q-30 -102 -94.5 -147.5t-175.5 -45.5q-178 0 -285.5 125.5t-107.5 333.5t108.5 333.5t288.5 125.5q111 0 175 -46t93 -150l-18 150q-2 17 15 17h263zM545 223q81 0 125.5 56t44.5 151q0 94 -46 150.5
t-122 56.5q-86 0 -133 -54.5t-47 -152.5q0 -99 46.5 -153t131.5 -54z" />
    <glyph glyph-name="b" unicode="b" horiz-adv-x="1101" 
d="M649 889q175 0 281 -125.5t106 -333.5t-107 -333.5t-284 -125.5q-85 0 -152.5 26.5t-103.5 72.5l2 -53q0 -17 -16 -17h-262q-17 0 -17 16v1504q0 16 17 16h262q16 0 16 -16v-760q41 60 110 94.5t148 34.5zM568 223q80 0 123.5 54t43.5 153q0 98 -42.5 152.5t-120.5 54.5
q-82 0 -133.5 -57t-51.5 -150t51 -150t130 -57z" />
    <glyph glyph-name="c" unicode="c" horiz-adv-x="942" 
d="M543 -29q-220 0 -353 126.5t-133 334.5t129.5 332.5t350.5 124.5q103 0 192.5 -35t152.5 -100q11 -13 -2 -24l-179 -156q-12 -11 -23 2q-57 67 -148 67q-82 0 -127 -54.5t-45 -156.5q0 -100 45 -155.5t127 -55.5q48 0 90.5 22t65.5 59q8 14 22 5l201 -140q12 -9 6 -20
q-49 -80 -150 -128t-222 -48z" />
    <glyph glyph-name="d" unicode="d" 
d="M989 1536q17 0 17 -16v-1504q0 -16 -17 -16h-262q-16 0 -16 17l4 106q-33 -80 -94.5 -116t-161.5 -36q-178 0 -285.5 125.5t-107.5 333.5t108.5 333.5t288.5 125.5q167 0 248 -115v746q0 16 16 16h262zM539 223q78 0 127 57t49 150q0 94 -47.5 150.5t-126.5 56.5
q-83 0 -128.5 -54.5t-45.5 -152.5q0 -99 45 -153t127 -54z" />
    <glyph glyph-name="e" unicode="e" horiz-adv-x="1044" 
d="M991 394q0 -17 -16 -17h-615q13 -86 70.5 -132t155.5 -46q133 0 229 77q12 11 23 -2l135 -167q11 -12 -1 -21q-156 -115 -397 -115q-233 0 -371 125t-138 334t125.5 334t338.5 125q214 0 333.5 -129t127.5 -366zM369 555h313q-22 147 -152 147q-125 0 -161 -147z" />
    <glyph glyph-name="f" unicode="f" horiz-adv-x="526" 
d="M494 860q16 0 16 -16v-185q0 -16 -16 -16h-84v-627q0 -16 -17 -16h-262q-16 0 -16 16v627h-82q-17 0 -17 16v185q0 16 17 16h82v406q0 143 77.5 221t219.5 78q41 0 82 -9q14 -3 14 -18v-216q0 -16 -15 -13q-10 2 -16 2q-32 0 -49.5 -21t-17.5 -59v-371h84z" />
    <glyph glyph-name="g" unicode="g" 
d="M989 860q17 0 17 -16v-795q0 -223 -122.5 -347t-344.5 -124q-125 0 -231 41.5t-180 112.5q-12 12 1 23l167 160q12 10 23 0q95 -87 218 -87q174 0 174 225v48q-72 -130 -252 -130q-178 0 -285.5 125.5t-107.5 333.5t104 333.5t276 125.5q94 0 163.5 -39t105.5 -112
l-4 105q0 17 16 17h262zM539 223q82 0 129 53.5t47 151.5q0 94 -48.5 151.5t-125.5 57.5q-83 0 -128.5 -54.5t-45.5 -154.5q0 -97 45 -151t127 -54z" />
    <glyph glyph-name="h" unicode="h" horiz-adv-x="1038" 
d="M113 0q-16 0 -16 16v1504q0 16 16 16h262q16 0 16 -16v-783q30 68 98 106t165 38q145 0 220 -89t75 -255v-521q0 -16 -17 -16h-262q-16 0 -16 16v459q0 158 -113 158q-68 0 -109 -52.5t-41 -140.5v-424q0 -16 -16 -16h-262z" />
    <glyph glyph-name="i" unicode="i" horiz-adv-x="485" 
d="M244 1001q-74 0 -123 50.5t-49 124.5t49.5 124t122.5 50q76 0 124 -49t48 -125q0 -74 -49.5 -124.5t-122.5 -50.5zM113 0q-17 0 -17 16v828q0 16 17 16h262q16 0 16 -16v-828q0 -16 -16 -16h-262z" />
    <glyph glyph-name="j" unicode="j" horiz-adv-x="485" 
d="M244 1001q-74 0 -123 50.5t-49 124.5t49.5 124t122.5 50q76 0 124 -49t48 -125q0 -74 -49.5 -124.5t-122.5 -50.5zM113 -418q-17 0 -17 17v1245q0 16 17 16h262q16 0 16 -16v-1245q0 -17 -16 -17h-262z" />
    <glyph glyph-name="k" unicode="k" horiz-adv-x="1034" 
d="M990 20q5 -8 2 -14t-13 -6h-323q-14 0 -19 11l-246 438v-433q0 -16 -16 -16h-262q-17 0 -17 16v1504q0 16 17 16h262q16 0 16 -16v-972l245 303q6 9 20 9h313q10 0 13 -6t-4 -14l-247 -283q-33 -37 -57 -51q24 -10 47 -49z" />
    <glyph glyph-name="l" unicode="l" horiz-adv-x="485" 
d="M113 0q-17 0 -17 16v1504q0 16 17 16h262q16 0 16 -16v-1504q0 -16 -16 -16h-262z" />
    <glyph glyph-name="m" unicode="m" horiz-adv-x="1556" 
d="M111 0q-17 0 -17 16v828q0 16 17 16h261q16 0 16 -17l-3 -89q68 127 256 127q194 0 264 -152q90 152 285 152q144 0 216.5 -88.5t72.5 -255.5v-521q0 -16 -17 -16h-262q-16 0 -16 16v459q0 78 -25.5 118t-83.5 40q-67 0 -104 -52t-37 -141v-424q0 -16 -16 -16h-263
q-16 0 -16 16v459q0 158 -113 158q-66 0 -101.5 -51.5t-35.5 -141.5v-424q0 -16 -16 -16h-262z" />
    <glyph glyph-name="n" unicode="n" horiz-adv-x="1034" 
d="M111 0q-17 0 -17 16v828q0 16 17 16h261q16 0 16 -17l-3 -89q32 60 100.5 93.5t163.5 33.5q145 0 220 -89t75 -255v-521q0 -16 -16 -16h-262q-17 0 -17 16v459q0 158 -112 158q-67 0 -107.5 -52.5t-40.5 -140.5v-424q0 -16 -16 -16h-262z" />
    <glyph glyph-name="o" unicode="o" horiz-adv-x="1077" 
d="M539 -29q-215 0 -344 126t-129 335q0 203 128.5 330t344.5 127q217 0 345 -124.5t128 -332.5t-131 -334.5t-342 -126.5zM539 221q79 0 126.5 58t45.5 153q-2 100 -46.5 155.5t-125.5 55.5q-78 0 -125 -58t-47 -153q0 -96 46.5 -153.5t125.5 -57.5z" />
    <glyph glyph-name="p" unicode="p" 
d="M637 889q180 0 288.5 -125.5t108.5 -333.5t-107.5 -333.5t-285.5 -125.5q-101 0 -160.5 27t-91.5 91v-490q0 -17 -16 -17h-262q-17 0 -17 17v1245q0 16 17 16h261q17 0 17 -17l-4 -108q33 83 94.5 118.5t157.5 35.5zM565 223q80 0 124 54t44 153q0 98 -42.5 152.5
t-119.5 54.5q-83 0 -134.5 -57t-51.5 -150t50 -150t130 -57z" />
    <glyph glyph-name="q" unicode="q" 
d="M989 860q17 0 17 -16v-1245q0 -17 -17 -17h-262q-16 0 -16 17v502q-72 -130 -252 -130q-178 0 -285.5 125.5t-107.5 333.5q0 209 102.5 334t277.5 125q193 0 268 -124l-3 78q0 17 16 17h262zM541 223q79 0 126.5 56.5t47.5 150.5t-47 150.5t-125 56.5q-84 0 -130 -54.5
t-46 -152.5q0 -99 45.5 -153t128.5 -54z" />
    <glyph glyph-name="r" unicode="r" horiz-adv-x="786" 
d="M111 0q-17 0 -17 16v828q0 16 17 16h261q18 0 16 -17l-7 -122q33 80 92 120t123 40q113 0 175 -94q7 -12 1 -22l-126 -217q-10 -19 -22 0q-36 52 -98 52t-99.5 -52.5t-37.5 -139.5v-392q0 -16 -16 -16h-262z" />
    <glyph glyph-name="s" unicode="s" horiz-adv-x="837" 
d="M428 -29q-105 0 -206.5 35t-167.5 94q-11 10 -1 23l127 164q11 13 23 1q94 -91 213 -91q63 0 63 49q0 21 -19.5 38t-43.5 27t-67 26.5t-70 29.5q-87 43 -128.5 99t-41.5 152q0 122 94 196.5t252 74.5q175 0 287 -89q11 -9 4 -22l-100 -165q-9 -14 -23 -3q-76 64 -154 64
q-68 0 -68 -51q0 -16 10 -28.5t31.5 -23t43 -18.5t56 -20.5t58.5 -22.5q45 -19 76 -38t60 -48t44 -71t15 -97q0 -129 -100.5 -207t-266.5 -78z" />
    <glyph glyph-name="t" unicode="t" horiz-adv-x="526" 
d="M494 860q16 0 16 -16v-185q0 -16 -16 -16h-84v-627q0 -16 -17 -16h-262q-16 0 -16 16v627h-82q-17 0 -17 16v185q0 16 17 16h82v414q0 16 16 16h262q17 0 17 -16v-414h84z" />
    <glyph glyph-name="u" unicode="u" horiz-adv-x="1030" 
d="M516 -25q-192 0 -309 100.5t-117 264.5v504q0 16 16 16h263q16 0 16 -16v-475q0 -69 33 -106.5t98 -37.5q64 0 96.5 37.5t32.5 106.5v475q0 16 17 16h262q16 0 16 -16v-504q0 -165 -115 -265t-309 -100z" />
    <glyph glyph-name="v" unicode="v" horiz-adv-x="999" 
d="M368 0q-15 0 -19 13l-309 828q-7 19 13 19h285q14 0 18 -13l129 -419q18 -56 25 -109q3 23 25 109l110 418q5 14 19 14h283q20 0 13 -19l-310 -828q-4 -13 -19 -13h-263z" />
    <glyph glyph-name="w" unicode="w" horiz-adv-x="1495" 
d="M348 0l-315 860h317l121 -438q15 -54 18 -103q6 59 17 103l121 438h235l131 -446q12 -51 17 -95q2 39 16 93l121 448h315l-315 -860h-266l-107 336q-22 77 -29 139q-7 -65 -28 -141l-103 -334h-266z" />
    <glyph glyph-name="x" unicode="x" horiz-adv-x="925" 
d="M40 0q-10 0 -12.5 6t2.5 14l277 416l-261 404q-5 8 -2.5 14t12.5 6h299q14 0 20 -12l96 -189l100 190q5 11 20 11h288q10 0 13.5 -6t-2.5 -14l-269 -400l275 -420q5 -8 2.5 -14t-12.5 -6h-303q-14 0 -20 12l-102 193l-107 -194q-6 -11 -19 -11h-295z" />
    <glyph glyph-name="y" unicode="y" horiz-adv-x="1007" 
d="M649 846q5 14 19 14h287q20 0 13 -19l-441 -1246q-4 -13 -19 -13h-279q-20 0 -13 19l128 325l-305 915q-7 19 13 19h282q13 0 18 -14l117 -424q19 -67 25 -129q10 77 26 127z" />
    <glyph glyph-name="z" unicode="z" horiz-adv-x="966" 
d="M41 0q-11 0 -14 6t3 14l369 527q33 48 60 71h-328q-16 0 -16 17v209q0 16 16 16h795q10 0 13 -6t-3 -14l-365 -527q-29 -41 -61 -69h387q16 0 16 -17v-211q0 -16 -16 -16h-856z" />
    <glyph glyph-name="braceleft" unicode="{" horiz-adv-x="755" 
d="M535 -311q-169 0 -261 82.5t-92 234.5v486q0 71 -69 71h-33q-17 0 -17 17v221q0 16 17 16h33q69 0 69 72v399q0 152 92 235t261 83h180q16 0 16 -17v-219q0 -16 -16 -16h-92q-81 0 -113.5 -32t-32.5 -110v-432q0 -75 -65 -90q65 -15 65 -92v-514q0 -78 32.5 -109.5
t113.5 -31.5h92q16 0 16 -17v-221q0 -16 -16 -16h-180z" />
    <glyph glyph-name="bar" unicode="|" horiz-adv-x="557" 
d="M152 -229q-17 0 -17 16v1860q0 16 17 16h254q16 0 16 -16v-1860q0 -16 -16 -16h-254z" />
    <glyph glyph-name="braceright" unicode="}" horiz-adv-x="755" 
d="M221 -311h-180q-16 0 -16 16v221q0 17 16 17h92q81 0 113.5 31.5t32.5 109.5v514q0 77 65 92q-65 15 -65 90v432q0 78 -32.5 110t-113.5 32h-92q-16 0 -16 16v219q0 17 16 17h180q169 0 260.5 -83t91.5 -235v-399q0 -72 70 -72h33q16 0 16 -16v-221q0 -17 -16 -17h-33
q-70 0 -70 -71v-486q0 -152 -91.5 -234.5t-260.5 -82.5z" />
    <glyph glyph-name="asciitilde" unicode="~" horiz-adv-x="999" 
d="M911 895q19 8 19 -13v-193q0 -13 -12 -19q-104 -47 -222 -47q-88 0 -203 38.5t-186 38.5q-109 0 -218 -44q-19 -8 -19 12v193q0 13 12 19q106 48 221 48q89 0 204.5 -39t184.5 -39q108 0 219 45z" />
    <glyph glyph-name="uni00A0" unicode="&#xa0;" horiz-adv-x="471" 
 />
    <glyph glyph-name="cent" unicode="&#xa2;" horiz-adv-x="942" 
d="M910 492q14 -9 5 -21q-54 -75 -135 -122t-178 -61v-177q0 -17 -16 -17h-127q-17 0 -17 17v178q-172 26 -272 147t-100 307q0 182 100 302.5t272 147.5v179q0 17 17 17h127q16 0 16 -17v-176q183 -23 287 -149q10 -12 -3 -23l-184 -151q-13 -10 -23 4q-31 45 -77 62v-393
q56 19 93 69q9 14 23 5zM371 743q0 -126 71 -177v352q-71 -51 -71 -175z" />
    <glyph glyph-name="sterling" unicode="&#xa3;" horiz-adv-x="1255" 
d="M1215 135l9 -12q-7 -8 -18.5 -19.5t-46.5 -37.5t-74 -46.5t-99 -36.5t-122 -16q-85 0 -166 22t-153.5 44t-138.5 22q-110 0 -223 -73q-15 -10 -23 5l-93 197q-6 13 5 22q109 98 245 119q17 70 17 128q0 49 -8 97l-154 -5q-16 0 -16 16v192q0 16 16 16l71 -2
q-13 23 -41.5 68t-43.5 71.5t-33 66.5t-26.5 80t-8.5 84q0 169 123.5 271.5t327.5 102.5q136 0 261.5 -54t199.5 -144q11 -12 -2 -23l-192 -182q-13 -13 -23 3q-98 144 -236 144q-71 0 -113.5 -37t-42.5 -98q0 -43 25.5 -94.5t69.5 -125t70 -135.5l222 5q17 0 17 -17v-192
q0 -16 -17 -16l-168 4q4 -36 4 -84q0 -92 -26 -178q129 -45 213 -45q106 0 219 102q13 11 23 -1z" />
    <glyph glyph-name="yen" unicode="&#xa5;" horiz-adv-x="1363" 
d="M1299 1483q10 0 13 -6t-2 -14l-349 -639l102 3q16 0 16 -16v-172q0 -16 -16 -16l-210 5l-22 -40v-50l232 4q16 0 16 -16v-172q0 -16 -16 -16l-232 5v-327q0 -16 -16 -16h-266q-17 0 -17 16v327l-231 -5q-16 0 -16 16v172q0 16 16 16l231 -4v44l-25 46l-206 -5
q-16 0 -16 16v172q0 16 16 16l100 -3l-347 639q-5 8 -2 14t13 6h319q13 0 19 -12l226 -472q39 -82 51 -147q5 50 55 149l238 470q6 12 19 12h307z" />
    <glyph glyph-name="copyright" unicode="&#xa9;" horiz-adv-x="1736" 
d="M868 -29q-168 0 -316 61t-254 166.5t-167 253.5t-61 316t61 316t167 253.5t254 166.5t316 61t316.5 -61t254 -166.5t167 -253.5t61.5 -316t-61.5 -316t-167 -253.5t-254 -166.5t-316.5 -61zM868 197q162 0 293.5 74.5t206 205t74.5 291.5t-74.5 291.5t-206 205
t-293.5 74.5t-293 -74.5t-205.5 -205t-74.5 -291.5t74.5 -291.5t205.5 -205t293 -74.5zM881 401q-175 0 -281 101t-106 268q0 164 107 264.5t284 100.5q182 0 293 -113q12 -12 -1 -23l-181 -153q-12 -10 -23 3q-33 36 -84 36q-48 0 -77.5 -31.5t-29.5 -83.5t28.5 -84.5
t74.5 -32.5q64 0 102 41q11 12 23 4l189 -130q13 -9 5 -20q-52 -70 -136 -108.5t-187 -38.5z" />
    <glyph glyph-name="guillemotleft" unicode="&#xab;" horiz-adv-x="1054" 
d="M342 105l-279 314q-10 11 0 23l281 317q11 13 23 1l180 -181q11 -12 0 -23l-126 -126l124 -122q11 -10 0 -23l-180 -181q-12 -12 -23 1zM817 105l-279 314q-10 11 0 23l281 317q12 13 24 1l179 -181q11 -12 0 -23l-126 -126l124 -122q11 -10 0 -23l-180 -181
q-12 -12 -23 1z" />
    <glyph glyph-name="uni00AD" unicode="&#xad;" horiz-adv-x="829" 
d="M104 375q-16 0 -16 16v217q0 17 16 17h621q16 0 16 -17v-217q0 -16 -16 -16h-621z" />
    <glyph glyph-name="registered" unicode="&#xae;" horiz-adv-x="1736" 
d="M868 1565q168 0 316.5 -61t254 -166.5t167 -253.5t61.5 -316t-61.5 -316t-167 -253.5t-254 -166.5t-316.5 -61t-316 61t-254 166.5t-167 253.5t-61 316t61 316t167 253.5t254 166.5t316 61zM868 197q162 0 293.5 74.5t206 205t74.5 291.5t-74.5 291.5t-206 205
t-293.5 74.5t-293 -74.5t-205.5 -205t-74.5 -291.5t74.5 -291.5t205.5 -205t293 -74.5zM995 715l178 -279q5 -8 2 -14t-13 -6h-200q-14 0 -20 12l-122 248h-11v-244q0 -16 -16 -16h-162q-17 0 -17 16v674q0 16 17 16h207q129 0 200.5 -60t71.5 -169q0 -116 -115 -178z
M846 934h-37v-82h37q65 0 65 41t-65 41z" />
    <glyph glyph-name="guillemotright" unicode="&#xbb;" horiz-adv-x="1054" 
d="M237 105q-12 -13 -24 -1l-179 181q-11 13 0 23l124 122l-126 126q-11 11 0 23l179 181q12 12 23 -1l282 -317q10 -12 0 -23zM712 105q-12 -13 -24 -1l-179 181q-11 13 0 23l124 122l-126 126q-11 11 0 23l179 181q12 12 24 -1l281 -317q10 -12 0 -23z" />
    <glyph glyph-name="uni2000" unicode="&#x2000;" horiz-adv-x="847" 
 />
    <glyph glyph-name="uni2001" unicode="&#x2001;" horiz-adv-x="1694" 
 />
    <glyph glyph-name="uni2002" unicode="&#x2002;" horiz-adv-x="847" 
 />
    <glyph glyph-name="uni2003" unicode="&#x2003;" horiz-adv-x="1694" 
 />
    <glyph glyph-name="uni2004" unicode="&#x2004;" horiz-adv-x="564" 
 />
    <glyph glyph-name="uni2005" unicode="&#x2005;" horiz-adv-x="423" 
 />
    <glyph glyph-name="uni2006" unicode="&#x2006;" horiz-adv-x="282" 
 />
    <glyph glyph-name="uni2007" unicode="&#x2007;" horiz-adv-x="282" 
 />
    <glyph glyph-name="uni2008" unicode="&#x2008;" horiz-adv-x="211" 
 />
    <glyph glyph-name="uni2009" unicode="&#x2009;" horiz-adv-x="338" 
 />
    <glyph glyph-name="uni200A" unicode="&#x200a;" horiz-adv-x="94" 
 />
    <glyph glyph-name="uni2010" unicode="&#x2010;" horiz-adv-x="829" 
d="M104 375q-16 0 -16 16v217q0 17 16 17h621q16 0 16 -17v-217q0 -16 -16 -16h-621z" />
    <glyph glyph-name="uni2011" unicode="&#x2011;" horiz-adv-x="829" 
d="M104 375q-16 0 -16 16v217q0 17 16 17h621q16 0 16 -17v-217q0 -16 -16 -16h-621z" />
    <glyph glyph-name="figuredash" unicode="&#x2012;" horiz-adv-x="829" 
d="M104 375q-16 0 -16 16v217q0 17 16 17h621q16 0 16 -17v-217q0 -16 -16 -16h-621z" />
    <glyph glyph-name="endash" unicode="&#x2013;" horiz-adv-x="1038" 
d="M104 375q-16 0 -16 16v217q0 17 16 17h830q16 0 16 -17v-217q0 -16 -16 -16h-830z" />
    <glyph glyph-name="emdash" unicode="&#x2014;" horiz-adv-x="1482" 
d="M104 375q-16 0 -16 16v217q0 17 16 17h1274q17 0 17 -17v-217q0 -16 -17 -16h-1274z" />
    <glyph glyph-name="quoteleft" unicode="&#x2018;" horiz-adv-x="534" 
d="M443 1536q9 0 13 -5.5t1 -13.5l-127 -389q-5 -14 -19 -14h-219q-9 0 -13 5.5t0 13.5l158 390q6 13 18 13h188z" />
    <glyph glyph-name="quoteright" unicode="&#x2019;" horiz-adv-x="534" 
d="M91 1114q-20 0 -13 19l127 390q4 13 18 13h219q9 0 13 -5.5t0 -13.5l-157 -390q-6 -13 -19 -13h-188z" />
    <glyph glyph-name="quotesinglbase" unicode="&#x201a;" horiz-adv-x="518" 
d="M83 -143q-20 0 -13 18l126 390q5 14 19 14h219q9 0 13 -5.5t0 -13.5l-157 -391q-5 -12 -19 -12h-188z" />
    <glyph glyph-name="quotedblleft" unicode="&#x201c;" horiz-adv-x="890" 
d="M443 1536q9 0 13 -5.5t1 -13.5l-127 -389q-5 -14 -19 -14h-219q-9 0 -13 5.5t0 13.5l158 390q6 13 18 13h188zM800 1536q20 0 13 -19l-127 -389q-5 -14 -18 -14h-219q-9 0 -13 5.5t0 13.5l157 390q6 13 19 13h188z" />
    <glyph glyph-name="quotedblright" unicode="&#x201d;" horiz-adv-x="890" 
d="M91 1114q-20 0 -13 19l127 390q4 13 18 13h219q9 0 13 -5.5t0 -13.5l-157 -390q-6 -13 -19 -13h-188zM448 1114q-9 0 -13 5.5t-1 13.5l127 390q4 13 18 13h220q9 0 13 -5.5t0 -13.5l-158 -390q-6 -13 -19 -13h-187z" />
    <glyph glyph-name="quotedblbase" unicode="&#x201e;" horiz-adv-x="874" 
d="M83 -143q-20 0 -13 18l126 390q5 14 19 14h219q9 0 13 -5.5t0 -13.5l-157 -391q-5 -12 -19 -12h-188zM439 -143q-20 0 -13 18l127 390q5 14 18 14h220q9 0 12.5 -5.5t-0.5 -13.5l-157 -391q-5 -12 -19 -12h-188z" />
    <glyph glyph-name="ellipsis" unicode="&#x2026;" horiz-adv-x="1400" 
d="M252 -20q-82 0 -135.5 53t-53.5 135q0 79 54.5 133.5t134.5 54.5q82 0 135 -54t53 -134t-54 -134t-134 -54zM700 -20q-82 0 -135 53t-53 135q0 80 54 134t134 54q82 0 135.5 -54t53.5 -134q0 -79 -54.5 -133.5t-134.5 -54.5zM1149 -20q-82 0 -135 53t-53 135
q0 80 54.5 134t133.5 54q82 0 135 -54t53 -134t-54.5 -134t-133.5 -54z" />
    <glyph glyph-name="uni202F" unicode="&#x202f;" horiz-adv-x="338" 
 />
    <glyph glyph-name="guilsinglleft" unicode="&#x2039;" horiz-adv-x="579" 
d="M342 105l-279 314q-10 11 0 23l281 317q11 13 23 1l180 -181q11 -12 0 -23l-126 -126l124 -122q11 -10 0 -23l-180 -181q-12 -12 -23 1z" />
    <glyph glyph-name="guilsinglright" unicode="&#x203a;" horiz-adv-x="579" 
d="M237 105q-12 -13 -24 -1l-179 181q-11 13 0 23l124 122l-126 126q-11 11 0 23l179 181q12 12 23 -1l282 -317q10 -12 0 -23z" />
    <glyph glyph-name="uni205F" unicode="&#x205f;" horiz-adv-x="423" 
 />
    <glyph glyph-name="Euro" unicode="&#x20ac;" horiz-adv-x="1339" 
d="M1297 209q12 -10 1 -23q-89 -103 -212 -160t-257 -57q-220 0 -388.5 137.5t-236.5 364.5l-123 -4q-20 0 -15 18l43 172q3 14 18 14l41 -1q-2 22 -2 67q0 46 2 69l-87 -3q-20 0 -15 18l43 172q3 14 18 14l78 -2q69 226 239.5 363t393.5 137q127 0 241.5 -50t196.5 -141
q10 -12 -1 -23l-175 -184q-13 -13 -23 2q-42 62 -103.5 96t-133.5 34q-107 0 -191.5 -63t-131.5 -174l433 5q19 0 14 -18l-43 -172q-3 -14 -18 -14l-433 6q-3 -35 -3 -72t3 -71l398 5q19 0 14 -18l-43 -172q-3 -14 -18 -14l-304 5q47 -110 131.5 -172t193.5 -62
q156 0 250 136q10 16 23 3z" />
    <glyph glyph-name="trademark" unicode="&#x2122;" horiz-adv-x="1765" 
d="M630 1536q16 0 16 -16v-226q0 -16 -16 -16h-156v-616q0 -17 -16 -17h-236q-16 0 -16 17v616h-154q-16 0 -16 16v226q0 16 16 16h578zM1726 663q3 -18 -15 -18h-241q-14 0 -17 15l-53 341q-7 47 -15 123q-11 -78 -28 -123l-127 -343q-4 -13 -19 -13h-21q-14 0 -18 13
l-127 348q-21 57 -30 118q-3 -44 -15 -123l-55 -341q-3 -15 -17 -15h-248q-17 0 -14 18l155 858q3 15 18 15h260q14 0 18 -13l70 -216q7 -22 12 -60q4 31 14 60l74 216q4 13 18 13h245q15 0 18 -15z" />
    <glyph glyph-name="uni25FC" unicode="&#x25fc;" horiz-adv-x="860" 
d="M0 860h860v-860h-860v860z" />
    </font>
</defs>
</svg>
