<?xml version="1.0" encoding="utf-8"?>
<!-- Generator: Adobe Illustrator 22.0.1, SVG Export Plug-In . SVG Version: 6.00 Build 0)  -->
<svg version="1.1" id="Layer_1" xmlns="http://www.w3.org/2000/svg" xmlns:xlink="http://www.w3.org/1999/xlink" x="0px" y="0px"
	 viewBox="0 0 635.8 213.7" style="enable-background:new 0 0 635.8 213.7;" xml:space="preserve">
<style type="text/css">
	.st0{fill:url(#SVGID_1_);}
	.st1{fill:#FFFFFF;}
</style>
<g>
	<g>
		<linearGradient id="SVGID_1_" gradientUnits="userSpaceOnUse" x1="16.2492" y1="114.4219" x2="619.5202" y2="114.4219">
			<stop  offset="0" style="stop-color:#FF2A2A"/>
			<stop  offset="0.1396" style="stop-color:#FF332A"/>
			<stop  offset="0.3716" style="stop-color:#FF4D2A"/>
			<stop  offset="0.6676" style="stop-color:#FF762A"/>
			<stop  offset="0.9944" style="stop-color:#FFAC2A"/>
		</linearGradient>
		<path class="st0" d="M46,104.4c-12.6,14.4-25,29.2-34.4,45.9C5.9,160.5,0,172.1,0,184c-0.1,24.5,28.3,30.1,47.5,29.7
			c21.9-0.4,43.3-6.1,64.3-11.6c29.7-7.8,59.1-16.1,88.2-26c31.4-10.7,62.5-22.2,93.1-34.9c30.4-12.6,60.4-26,90.8-38.6
			c30.4-12.6,61.2-24.4,92.8-33.8c27.2-8.1,55.7-15,84.2-16.6c10.6-0.6,22.9-0.3,32,6c12.3,8.4,10.2,23.7,4.2,35.5
			c-3.2,6.2-7.2,11.8-11.5,17.3c-1.9,2.4-3.7,4.8-5.2,6.6c-0.6,0.8-3.4,4.2-1.4,1.7c-0.3,0.4-2.3,2.7-0.4,0.5
			c2.7-3.1-2.8,3.1,0.6-0.6c3.4-3.8-2.6,2.9,0.8-0.9c2.3-2.6,0.2-0.2-0.2,0.2c0.1-0.2,2.8-2.9,1-1c-0.6,0.7-1.3,1.3-1.9,2
			c2.2-2.3-0.9,0.9-1.6,1.6c-1.7,1.7-3.4,3.5-5.2,5.2c-4.4,4.3-10.6,10.1-15.8,14.9c-5.8,5.4-11.7,10.7-17.6,15.9
			c-8.4,7.6-15.9,16.5-23.2,25.1c-2.3,2.7-5.8,5.7-7.2,9c-1,2.3,2.1-1.1,2.3-1.3c30.1-27,58.6-55.3,85-86
			c11-12.8,22.6-26.1,31.4-40.6c6.8-11.1,13.7-27.8,3.3-39c-7.5-8-19.7-9.4-30-9.4c-11.6,0-23.2,1.8-34.6,3.6
			c-33.3,5.4-65.8,15.5-97.5,27c-62.7,22.7-122.6,52.4-185.1,75.6c-32.1,11.9-64.4,23.3-97.2,32.8c-23.7,6.9-48,13.6-72.2,18.5
			c-20.5,4.1-45.9,8.2-65.3-2.2c-25.9-13.9-11.8-43.7,0-62.5c2-3.1,4-6.2,6.2-9.2c1-1.4,2.4-3.2,3.2-4.2c-0.3,0.5,1.1-1.3,1.1-1.3
			c-0.2,0-3.1,3.6-2.5,2.9c3.3-3.7,6.6-7.5,9.6-11.4c0.2-0.3,3.2-3.6,1-2.5c-3,1.6-6,5.7-8.2,8.1C54.6,94.9,50.2,99.6,46,104.4
			L46,104.4z"/>
	</g>
</g>
<g>
	<path class="st1" d="M129.6,102c-5.7,0-8.9-2.4-10.6-4.4c-1.8-2-3-4.9-3.8-9c-1.9-9.8-4.7-22.8-8.2-38.4l-5.5-24.3v-0.7
		c0-3.8,2.2-7.1,6-8.8c2.2-1,4.6-1.6,7-1.6c7.3,0,12.7,4.6,14.6,12.5l0.1,0.3c0,0,0.4,2.6,0.6,3.8c0.6-2.7,1.3-5.6,2-8.5
		c0.5-2.2,2.1-5.1,6.5-6.8c2-0.8,4.2-1.3,6.3-1.3c2.2,0,4.6,0.6,7,1.7c5.6,2.7,6.4,6.9,6.4,9.2v0.7l-0.2,0.7
		c-0.2,0.6-2.6,11.6-3.4,15.2l-5.2,23.2c-1.5,6.6-2.8,12.7-4,18.1c-1.7,7.8-2.5,10-3.1,11.3l-0.1,0.1
		C140.8,97.7,137.3,102,129.6,102z"/>
	<path d="M149.1,21.9c-1.6-0.8-3.1-1.2-4.4-1.2c-1.4,0-2.8,0.3-4.1,0.8c-1.7,0.6-2.7,1.5-2.9,2.6c-3.6,15-6.3,26.7-8.1,35
		c-0.4-1.5-1.2-4.8-2.2-10.1c-0.8-4.1-1.5-6.8-2.1-8.3c-0.7-4.1-1.4-8.1-2-12.2c-1.3-5.3-4.3-8-8.8-8c-1.5,0-3,0.4-4.5,1
		c-1.7,0.8-2.5,1.9-2.5,3.4l5.4,23.7c3.5,15.8,6.3,28.7,8.2,38.6c0.6,2.9,1.4,5,2.4,6.2c1.3,1.5,3.4,2.3,6.1,2.3
		c3.5,0,5.9-1.3,7.2-3.8c0.6-1.1,1.4-4.4,2.6-9.9c1.2-5.5,2.5-11.5,4-18.2l5.2-23.2c2.2-9.9,3.4-15,3.5-15.3
		C152.2,24.2,151.1,22.9,149.1,21.9z"/>
	<path class="st1" d="M173.5,102c-7.3,0-13.4-2.4-18.1-7.2c-4.7-4.7-7.1-10.8-7.1-18c0-9.4,3.6-17.3,10.7-23.4
		c-4.1-2-5.7-5.9-5.7-9.4c0-4.1,1.3-8.4,3.9-12.6c2.1-3.3,4.7-6.3,7.8-8.9c6.2-5.1,13-7.7,20.3-7.7c1.8,0,3.9,0.2,6.1,0.6
		c5.2,1,9.8,3.9,13.7,8.8c3.8,4.8,5.8,9.9,5.8,15.1c0,1-0.1,1.9-0.3,2.8l-5.4,34.6c-0.7,4.4-2.9,8.8-6.6,13
		c-3.2,3.8-6.8,6.6-10.8,8.5C182.6,100.8,177.8,102,173.5,102z M175.5,75.1c0,0,0.1,0,0.3,0c0,0,0.6-0.1,2.1-1
		c0.4-0.2,0.6-0.4,0.7-0.5l0.3-1.7h-1.6c-0.2,0.1-0.4,0.3-0.7,0.7c-1.1,1.2-1.3,1.8-1.3,1.8c0,0.3,0,0.4,0,0.4l0,0
		c0,0,0,0.1,0.1,0.2C175.5,75,175.5,75.1,175.5,75.1C175.5,75.1,175.5,75.1,175.5,75.1z M180.3,43.5c-0.1,0.4-0.2,0.8-0.3,1.2
		c1.1-0.1,2.2-0.1,3.3-0.2c0-0.5,0.1-0.9,0.1-1.3c0-0.8-0.1-1.3-0.1-1.6c0,0-0.1,0-0.2,0c-0.2,0-0.7,0-1.7,0.7
		C180.6,42.9,180.4,43.3,180.3,43.5z"/>
	<path class="st1" d="M225.9,102c-4.1,0-7-0.2-9-0.7c-5.2-1.1-9.8-4.1-13.6-8.8c-3.8-4.7-5.7-9.8-5.7-15.1c0-0.9,0.1-1.9,0.3-2.8
		l10.2-65c0.4-2.5,2-5.9,7.4-8.1c2.4-1,4.6-1.5,6.8-1.5c2.4,0,4.8,0.6,7.1,1.8c6.1,3,5.8,8.1,5.6,9.6l-10,63.1
		c1.3,0.2,3.9,0.5,8.8,0.6l0.4,0l0.3,0.1c3.7,0.5,6.6,3.1,7.9,6.9c0.8,2.3,1,4.8,0.5,7.4c-1.1,6.8-4.7,9.8-7.5,11.1
		C233.3,101.6,230.4,102,225.9,102z"/>
	<path d="M203.6,77.5c0,3.9,1.5,7.7,4.4,11.3c2.9,3.6,6.3,5.9,10.2,6.7c1.6,0.3,4.2,0.5,7.8,0.5c3.4,0,5.7-0.3,6.9-0.8
		c2.2-1,3.5-3.2,4.1-6.7c0.3-1.6,0.2-3.1-0.3-4.5c-0.6-1.7-1.6-2.6-3-2.9c-7.8-0.2-12.1-0.9-13-2c-1.4-1.8-2-3.1-1.9-4L229,10.4
		c0.2-1.3-0.6-2.4-2.3-3.3c-1.5-0.8-3-1.2-4.4-1.2c-1.3,0-2.8,0.4-4.5,1c-2.3,0.9-3.5,2.1-3.7,3.5l-10.3,65.3
		C203.6,76.3,203.6,76.9,203.6,77.5z"/>
	<path class="st1" d="M264.3,102c-4.1,0-7-0.2-9-0.7c-5.2-1.1-9.8-4.1-13.6-8.8c-3.8-4.7-5.7-9.8-5.7-15.1c0-0.9,0.1-1.9,0.3-2.8
		l10.2-65c0.4-2.5,2-5.9,7.4-8.1c2.4-1,4.6-1.5,6.8-1.5c2.4,0,4.8,0.6,7.1,1.8c6.1,3,5.8,8.1,5.6,9.6l-10,63.1
		c1.3,0.2,3.9,0.5,8.8,0.6l0.4,0l0.3,0.1c3.7,0.5,6.6,3.1,7.9,6.9c0.8,2.3,1,4.8,0.5,7.4c-1.1,6.8-4.7,9.8-7.5,11.1
		C271.7,101.6,268.8,102,264.3,102z"/>
	<path d="M256.5,95.5c1.6,0.3,4.2,0.5,7.8,0.5c3.4,0,5.7-0.3,6.9-0.8c2.2-1,3.5-3.2,4.1-6.7c0.3-1.6,0.2-3.1-0.3-4.5
		c-0.6-1.7-1.6-2.6-3-2.9c-7.8-0.2-12.1-0.9-13-2c-1.4-1.8-2-3.1-1.9-4l10.3-64.7c0.2-1.3-0.6-2.4-2.3-3.3c-1.5-0.8-3-1.2-4.4-1.2
		c-1.3,0-2.8,0.4-4.5,1c-2.3,0.9-3.5,2.1-3.7,3.5l-10.3,65.3c-0.1,0.6-0.2,1.1-0.2,1.7c0,3.9,1.5,7.7,4.4,11.3
		C249.3,92.4,252.7,94.7,256.5,95.5z"/>
	<path class="st1" d="M301,102c-8,0-14.8-3.3-19.7-9.5c-3.8-4.7-5.7-9.8-5.7-14.9c0-1.1,0.1-2,0.2-2.8l5.4-34.7
		c0.7-4.4,2.9-8.8,6.7-13.1c3.2-3.7,6.9-6.5,10.7-8.4c5.1-2.5,9.9-3.8,14.2-3.8c7.3,0,13.4,2.4,18.1,7.2c4.7,4.8,7.1,10.8,7.1,18
		c0,9.4-3.6,17.3-10.8,23.4c4.1,2,5.7,5.9,5.7,9.4c0,4.2-1.4,8.5-4.1,12.8c-2.2,3.5-5,6.6-8.3,9.1C314.5,99.6,307.9,102,301,102z
		 M303.3,75.1c0.8,0,1.8,0,2.8-2c0.1-0.4,0.2-0.7,0.3-1.1c-1.1,0.1-2.2,0.2-3.3,0.2c-0.1,0.6-0.1,1.2-0.1,1.7c0,0.6,0,1,0.1,1.2
		C303.2,75.1,303.3,75.1,303.3,75.1z M309,44.9c0.2-0.1,0.4-0.4,0.8-0.8c1-1.1,1.3-1.7,1.3-1.8l0,0c0-0.2,0-0.3,0-0.3l0,0
		c0,0,0-0.1-0.1-0.2c-0.1-0.1-0.1-0.1-0.2-0.2l0,0c0,0-0.1,0-0.3,0c0,0-0.6,0-2.1,1c-0.4,0.2-0.6,0.4-0.7,0.5l-0.3,1.7H309z"/>
	<path d="M301,96c5.5,0,10.9-2,16.1-6c2.7-2.1,5-4.6,6.8-7.6c2.1-3.4,3.1-6.6,3.1-9.7c0-3.2-2.2-4.8-6.5-4.8c-3.7,0-6.2,1.1-7.6,3.4
		c-0.6,1.6-1,2.8-1.2,3.7c-1.7,4.1-4.6,6.1-8.5,6.1c-4.2,0-6.3-2.4-6.3-7.2c0-2.1,0.4-4.7,1.2-7.7c1.3,0,2.7,0,4,0
		c8,0,14.9-2.3,20.7-6.9c6.2-5,9.2-11.5,9.2-19.3c0-5.6-1.8-10.2-5.4-13.8c-3.6-3.6-8.2-5.4-13.8-5.4c-3.4,0-7.3,1-11.5,3.1
		c-3.2,1.6-6.2,4-8.9,7c-3,3.4-4.8,6.8-5.2,10.1l-5.5,34.7c-0.1,0.4-0.1,1-0.1,1.8c0,3.8,1.5,7.5,4.4,11.2
		C289.8,93.6,294.8,96,301,96z M301.9,41.8c0.2-1.5,1.3-2.8,3.3-4.1c2-1.3,3.8-1.9,5.4-1.9c2,0,3.7,0.8,5,2.3
		c1.3,1.5,1.8,3.3,1.4,5.4c-0.2,1.4-1.1,3-2.8,4.8c-1.6,1.8-3.1,2.7-4.5,2.7h-9.2L301.9,41.8z"/>
	<path class="st1" d="M336.3,102c-2.4,0-4.9-0.6-7.2-1.8c-4-2.1-6-5.7-5.4-9.7l8-50.4c0.5-3.2,2-6.6,4.6-10.3c7-10,17.1-15,30-15
		c3.8,0,6.2,0.3,7.9,0.9c4.3,1.5,6.9,5.3,6.9,10.2c0,1.1-0.1,2.2-0.3,3.4c-0.6,4.1-2.1,7.2-4.4,9.3c-2.4,2.1-5.7,3.2-9.8,3.2h-3.8
		c-1.2,0-2.4,0.3-3.7,0.9c-0.4,0.2-0.7,0.4-0.9,0.5l-7.8,49.4c-0.4,2.3-1.8,5.6-6.6,7.9C341.4,101.4,338.8,102,336.3,102z"/>
	<path class="st1" d="M388.7,116.9c-7,0-13-2.4-17.8-7c-5-4.7-7.5-10.7-7.5-17.8c0-1.4,0.1-2.7,0.3-3.9c0.9-5.7,4.5-9.6,10.1-10.8
		c-3.8-4.8-5.7-9.8-5.7-15.1c0-1,0.1-1.9,0.2-2.7l5.6-35.1c0.4-2.4,1.9-5.7,7.1-8c2.6-1.1,4.9-1.7,6.9-1.7c2.4,0,4.7,0.6,7.1,1.8
		c5.9,3.2,5.8,7.8,5.5,9.6l-5.1,33.2c0.1,0.1,0.3,0.4,0.4,0.5h2.7l5.6-35.4c0.4-2.4,1.8-5.7,6.6-8c2.4-1.1,4.9-1.7,7.5-1.7
		c2.4,0,4.8,0.6,7.1,1.8c5.9,3.2,5.9,7.8,5.5,9.7l-10.4,65.4c-0.7,4.6-2.9,8.9-6.5,13.1c-3.1,3.6-6.8,6.4-10.8,8.4
		C397.7,115.7,393.1,116.9,388.7,116.9z M390.3,89.6c0,0,0.1,0.1,0.2,0.2c0.2,0.2,0.4,0.3,0.5,0.3c0,0,0.6-0.1,2-1
		c0.4-0.3,0.7-0.5,0.8-0.6l0.3-1.7c-1.1-0.1-2.4-0.2-3.7-0.3V89.6z"/>
	<path d="M374.1,62.2c0,3.9,1.5,7.7,4.5,11.4c3,3.7,6.3,5.9,10.1,6.6c5.5,0.5,9.7,0.7,12.4,0.7l-1.4,8.9c-0.2,1.4-1.3,2.8-3.3,4.1
		c-2,1.3-3.8,2-5.3,2c-1.6,0-3.1-0.6-4.5-1.8c-1.4-1.2-2.1-2.6-2.2-4.2c0-1.7,0-2.9,0-3.6c-0.1-1.1-0.9-2-2.5-2.6
		c-1.3-0.6-2.6-0.8-3.9-0.8c-4.9,0-7.7,2.1-8.3,6.2c-0.1,0.9-0.2,1.9-0.2,3c0,5.4,1.9,9.9,5.6,13.4c3.7,3.6,8.3,5.4,13.7,5.4
		c3.4,0,7.2-1,11.5-3.1c3.4-1.6,6.3-3.9,8.9-6.9c2.9-3.3,4.6-6.6,5.1-10.1l10.4-65.5c0.2-1.3-0.6-2.4-2.4-3.4
		c-1.5-0.8-2.9-1.2-4.3-1.2c-1.7,0-3.3,0.4-4.9,1.2c-2,0.9-3,2.1-3.3,3.5l-6.4,40.5h-9.2c-0.9,0-2-0.8-3.3-2.4
		c-1.3-1.6-1.9-2.8-1.7-3.6l5.4-34.6c0.2-1.3-0.6-2.4-2.4-3.3c-1.5-0.8-2.9-1.1-4.3-1.1c-1.2,0-2.7,0.4-4.5,1.2
		c-2.2,1-3.4,2.1-3.6,3.5l-5.6,35.1C374.1,61,374.1,61.5,374.1,62.2z"/>
	<path class="st1" d="M193.8,212c-2.5,0-5-0.6-7.4-1.8c-5.3-2.6-6-6.7-6-8.8v-65.3c0-3.5,1-7.1,3.1-10.7
		c5.6-10.1,15.4-15.4,28.3-15.4c5.1,0,8.2,0.6,10.5,1.9l0.1,0.1c2.4,1.5,5.3,4.7,5.3,11.5c0,4.3-1.2,7.7-3.5,9.9
		c-2.3,2.2-5.5,3.3-9.7,3.3h-3.7c-2.1,0-2.7,0.4-2.7,0.5c-0.3,0.3-0.6,0.6-0.7,0.8v0.5h1.2c4.3,0,7.5,1,9.9,3c2.7,2.2,4,5.7,4,10.3
		c0,10.4-7.3,12.6-9.5,13l-0.5,0.1l-0.5,0c-1.5,0-2.9,0.1-4.4,0.1l-0.3,36.2l0,0.3C206.9,204,205.1,212,193.8,212z"/>
	<path d="M214.5,146c-1.3-1-3.3-1.6-6-1.6H207c-0.6,0-1.1,0-1.5,0c-1.8,0-3.2-0.1-4.3-0.4v-7.2c0-1,0.8-2.3,2.5-4
		c1.5-1.5,3.8-2.2,6.9-2.2c0.2,0,0.9,0,1.9,0h1.8c2.6,0,4.4-0.5,5.6-1.6c1.1-1.1,1.7-3,1.7-5.6c0-3.3-0.8-5.4-2.4-6.4
		c-1.2-0.7-3.7-1-7.4-1c-10.8,0-18.5,4.1-23.1,12.4c-1.5,2.7-2.3,5.3-2.3,7.8v65.3c0,1.4,0.9,2.6,2.7,3.5c1.5,0.8,3.1,1.2,4.7,1.2
		c4.5,0,7-1.7,7.4-5.2l0.3-41.7c3.4-0.1,6.8-0.2,10.2-0.3c3.1-0.6,4.6-2.9,4.6-7.1C216.4,148.9,215.7,147,214.5,146z"/>
	<path class="st1" d="M237.1,212c-8,0-14.8-3.3-19.7-9.5c-3.8-4.7-5.7-9.8-5.7-14.9c0-1.1,0.1-2,0.2-2.8l5.4-34.7
		c0.7-4.4,2.9-8.8,6.7-13.1c3.2-3.7,6.9-6.5,10.7-8.4c5.1-2.5,9.9-3.8,14.2-3.8c7.3,0,13.4,2.4,18.1,7.2c4.7,4.8,7.1,10.8,7.1,18
		c0,9.4-3.6,17.3-10.8,23.4c4.1,2,5.7,5.9,5.7,9.4c0,4.2-1.4,8.5-4.1,12.8c-2.2,3.5-5,6.6-8.3,9.1C250.6,209.6,244,212,237.1,212z
		 M239.4,185.1c0.8,0,1.8,0,2.8-2c0.1-0.4,0.2-0.7,0.3-1.1c-1.1,0.1-2.2,0.2-3.3,0.2c-0.1,0.6-0.1,1.2-0.1,1.7c0,0.6,0,1,0.1,1.2
		C239.3,185.1,239.4,185.1,239.4,185.1z M245.1,154.9c0.2-0.1,0.4-0.4,0.8-0.8c1-1.1,1.3-1.7,1.3-1.8l0,0c0-0.2,0-0.3,0-0.3l0,0
		c0,0,0-0.1-0.1-0.2c-0.1-0.1-0.1-0.1-0.2-0.2l0,0c0,0-0.1,0-0.3,0c0,0-0.6,0-2.1,1c-0.4,0.2-0.6,0.4-0.7,0.5l-0.3,1.7H245.1z"/>
	<path class="st1" d="M287.5,212c-6.9,0-12.9-2.4-17.8-7.1c-5-4.8-7.5-10.7-7.5-17.7c0-1.4,0.1-2.7,0.3-4c0.8-5.6,4.4-9.4,9.7-10.7
		c-0.8-1.1-1.5-2.3-2.1-3.6c-1.9-3.8-2.9-8.1-2.9-12.7c0-8.9,3.8-16.8,11.4-23.4c6.2-5.4,13.2-8.1,20.8-8.1c7,0,13,2.4,17.8,7
		c5,4.7,7.5,10.7,7.5,17.8c0,1.4-0.1,2.7-0.3,4c-0.9,5.6-4.4,9.4-9.8,10.8c0.1,0.1,0.1,0.2,0.2,0.3c3.4,4.5,5.1,9.8,5.1,15.7
		c0,8.4-3.3,15.9-9.9,22.3C303.4,208.8,295.8,212,287.5,212z M289.4,184.8c0.3,0.3,0.5,0.3,0.5,0.3c0.4,0,1-0.1,1.8-0.8
		c0.8-0.7,0.9-1.2,1-1.7l0-0.1c0-0.3,0-0.5,0-0.6l-3.5-0.5C289.3,183.7,289.3,184.5,289.4,184.8
		C289.3,184.8,289.3,184.8,289.4,184.8z M297.5,155.2v-3.2c-0.3-0.2-0.4-0.2-0.5-0.2c-0.4,0-1,0.1-1.7,0.8c-0.9,0.8-1.1,1.4-1.2,1.9
		c0,0.1,0,0.2,0,0.4L297.5,155.2z"/>
	<path class="st1" d="M339.6,212c-4.1,0-7-0.2-9-0.7c-5.2-1.1-9.8-4.1-13.6-8.8c-3.8-4.7-5.7-9.8-5.7-15.1c0-0.9,0.1-1.9,0.3-2.8
		l10.2-65c0.4-2.5,1.9-5.9,7.3-8.1c2.4-1,4.6-1.5,6.8-1.5c9.2,0,12.4,5.9,12.4,11v0.4l-0.5,3.4h0.3c3.4,0,5.9,0.5,7.8,1.5
		c2,1.1,5.3,3.8,5.3,9.7c0,0.8-0.1,1.8-0.3,3c-1.4,9.5-7.9,11.6-10.6,12.1l-0.4,0.1l-0.4,0c-1.8,0.1-3.7,0.1-5.5,0.2l-5.5,33.2
		c0,0.1,0,0.3,0.1,0.4c0.4,0.1,1.1,0.2,2.3,0.2h2.7c9.7,0,13.1,5.8,13.1,11.2c0,1-0.1,2-0.3,3.2c-1.1,6.9-4.7,9.9-7.5,11.1
		C347.1,211.6,344.1,212,339.6,212z"/>
	<path class="st1" d="M373,134.7c-9.3,0-12.6-5.9-12.6-11c0-0.7,0.1-1.5,0.2-2.2c1.1-7.2,6.5-11.4,14.4-11.4c9.2,0,12.5,5.9,12.5,11
		C387.5,129.5,381.9,134.7,373,134.7z"/>
	<path class="st1" d="M360.7,212c-2.5,0-4.9-0.6-7.3-1.8c-4-2-6-5.6-5.4-9.7l10.6-66.1c0.4-2.3,1.8-5.4,6.5-7.8
		c2.6-1.3,5.1-1.9,7.5-1.9c2.2,0,4.5,0.6,6.9,1.8c6.2,3.1,6.2,7.8,5.9,9.7l-10.5,66.2c-0.3,2-1.6,5.7-6.8,7.9
		C365.6,211.5,363.1,212,360.7,212z"/>
	<path d="M376.8,131.9c-1.5-0.8-2.9-1.2-4.2-1.2c-1.5,0-3.1,0.4-4.8,1.3c-2,1-3,2.1-3.3,3.4l-10.6,66c-0.2,1.5,0.5,2.6,2.2,3.5
		c1.5,0.8,3,1.2,4.5,1.2c1.6,0,3.3-0.4,5-1.2c2-0.8,3.1-2,3.3-3.4l10.5-66.2C379.6,134,378.7,132.9,376.8,131.9z"/>
	<path class="st1" d="M397.9,212c-5.8,0-8.9-2.6-10.5-4.8l-0.1-0.2c-1.5-2.2-2.3-5.2-2.5-9.2c-0.3-8.5-1-21.4-2.2-38.5l-1.6-24.4
		l0.1-0.6c0.3-2,1.5-5.6,6.5-7.9c2.3-1.1,4.8-1.6,7.2-1.6c7.8,0,13,5.1,13.4,13.3c0,0,0,2,0.1,3.1c1.1-2.9,2.3-5.9,3.6-9.1
		c1.1-2.7,3.3-4.7,6.6-6c2.1-0.8,4.3-1.3,6.4-1.3c2.7,0,5.2,0.7,7.5,2.1c3.9,2.2,5.8,6,5.1,10l-0.1,0.6l-0.2,0.5
		c-0.7,1.7-2.6,6.8-5.8,15.2l-8.8,23.2c-1.3,3.4-3.6,9.3-6.9,18.1c-2.8,7.7-4.1,10-4.9,11.2C408.7,208.6,404.8,212,397.9,212z"/>
	<path d="M429.3,132.1c-1.4-0.8-2.9-1.3-4.5-1.3c-1.4,0-2.8,0.3-4.2,0.8c-1.7,0.7-2.8,1.6-3.2,2.6c-6.6,16.7-11.1,28.3-13.6,35.1
		c-0.2-1.4-0.5-4.8-0.7-10.1c-0.2-4-0.5-6.8-0.7-8.3c-0.1-5.5-0.1-9.7-0.2-12.5c-0.3-5.1-2.8-7.7-7.4-7.7c-1.6,0-3.2,0.4-4.7,1
		c-1.8,0.8-2.8,2-3,3.4l1.6,23.7c1.2,17.2,1.9,30.1,2.2,38.6c0.1,2.9,0.6,4.9,1.5,6.2c1.1,1.5,3,2.3,5.7,2.3c3.5,0,6.1-1.3,7.9-3.8
		c0.8-1.2,2.2-4.5,4.2-9.9c3.3-8.7,5.6-14.7,6.9-18.2l8.8-23.2c3.2-8.5,5.2-13.6,5.8-15.3C431.8,134.3,431.1,133,429.3,132.1z"/>
	<path class="st1" d="M447.8,212c-7.3,0-13.4-2.4-18.1-7.2c-4.7-4.7-7.1-10.8-7.1-18c0-9.4,3.6-17.3,10.7-23.4
		c-4.1-2-5.7-5.9-5.7-9.4c0-4.1,1.3-8.4,3.9-12.6c2.1-3.3,4.7-6.3,7.8-8.9c6.2-5.1,13-7.7,20.3-7.7c1.8,0,3.9,0.2,6.1,0.6
		c5.2,1,9.8,3.9,13.7,8.8c3.8,4.8,5.8,9.9,5.8,15.1c0,1-0.1,1.9-0.3,2.8l-5.4,34.6c-0.7,4.4-2.9,8.8-6.6,13
		c-3.2,3.8-6.8,6.6-10.8,8.5C456.9,210.8,452.1,212,447.8,212z M449.9,185.1c0,0,0.1,0,0.3,0c0,0,0.6-0.1,2.1-1
		c0.4-0.2,0.6-0.4,0.7-0.5l0.3-1.7h-1.6c-0.2,0.1-0.4,0.3-0.7,0.7c-1.1,1.2-1.3,1.8-1.3,1.8c0,0.3,0,0.4,0,0.4l0,0
		c0,0,0,0.1,0.1,0.2C449.8,185,449.9,185.1,449.9,185.1C449.9,185.1,449.9,185.1,449.9,185.1z M454.6,153.5
		c-0.1,0.4-0.2,0.8-0.3,1.2c1.1-0.1,2.2-0.1,3.3-0.2c0-0.5,0.1-0.9,0.1-1.3c0-0.8-0.1-1.3-0.1-1.6c0,0-0.1,0-0.2,0
		c-0.2,0-0.7,0-1.7,0.7C455,152.9,454.7,153.3,454.6,153.5z"/>
	<path class="st1" d="M500.3,212c-4.1,0-7-0.2-9-0.7c-5.2-1.1-9.8-4.1-13.6-8.8c-3.8-4.7-5.7-9.8-5.7-15.1c0-0.9,0.1-1.9,0.3-2.8
		l10.2-65c0.4-2.5,2-5.9,7.4-8.1c2.4-1,4.6-1.5,6.8-1.5c2.4,0,4.8,0.6,7.1,1.8c6.1,3,5.8,8.1,5.6,9.6l-10,63.1
		c1.3,0.2,3.9,0.5,8.8,0.6l0.4,0l0.3,0.1c3.7,0.5,6.6,3.1,7.9,6.9c0.8,2.3,1,4.8,0.5,7.4c-1.1,6.8-4.7,9.8-7.5,11.1
		C507.7,211.6,504.8,212,500.3,212z"/>
	<path d="M511,194c-0.6-1.7-1.6-2.6-3-2.9c-7.8-0.2-12.1-0.9-13-2c-1.4-1.8-2-3.1-1.9-4l10.3-64.7c0.2-1.3-0.6-2.4-2.3-3.3
		c-1.5-0.8-3-1.2-4.4-1.2c-1.3,0-2.8,0.4-4.5,1c-2.3,0.9-3.5,2.1-3.7,3.5l-10.3,65.3c-0.1,0.6-0.2,1.1-0.2,1.7
		c0,3.9,1.5,7.7,4.4,11.3c2.9,3.6,6.3,5.9,10.2,6.7c1.6,0.3,4.2,0.5,7.8,0.5c3.4,0,5.7-0.3,6.9-0.8c2.2-1,3.5-3.2,4.1-6.7
		C511.6,196.9,511.5,195.4,511,194z"/>
	<path d="M375,116c-5,0-7.9,2.1-8.5,6.3c-0.1,0.5-0.1,0.9-0.1,1.4c0,3.4,2.2,5,6.6,5c5.7,0,8.5-2.6,8.5-7.7
		C381.5,117.7,379.3,116,375,116z"/>
	<path d="M310.1,158.8c5,0,7.8-2.1,8.4-6.2c0.1-0.9,0.2-1.9,0.2-3c0-5.4-1.9-9.9-5.6-13.4c-3.7-3.6-8.3-5.4-13.7-5.4
		c-6.2,0-11.8,2.2-16.9,6.6c-6.2,5.5-9.3,11.8-9.3,18.9c0,3.6,0.8,7,2.3,10.1c1.7,3.5,4.1,5.9,7.1,7.2c1.5,0.6,3.4,1.2,5.8,1.6
		l5.5,0.8c1.7,0.3,3.1,1.1,3.9,2.6c0.9,1.4,1.2,3.1,0.9,4.9c-0.3,2.1-1.3,3.9-3,5.4c-1.7,1.5-3.7,2.3-5.8,2.3c-1.5,0-3-0.6-4.4-1.8
		c-1-0.8-1.7-2.1-2-3.7c-0.1-0.4-0.1-1.9-0.2-4.4c-0.1-1-0.9-1.8-2.6-2.4c-1.3-0.6-2.6-0.8-3.8-0.8c-5,0-7.8,2.1-8.4,6.2
		c-0.1,0.9-0.2,1.9-0.2,3c0,5.3,1.9,9.8,5.7,13.4c3.8,3.6,8.3,5.4,13.6,5.4c6.8,0,12.9-2.6,18.3-7.8c5.4-5.2,8.1-11.2,8.1-17.9
		c0-4.6-1.3-8.7-3.9-12.2c-2.6-3.5-6.1-5.7-10.5-6.7l-6.4-0.7c-1.7-0.1-3-1-3.9-2.5c-0.9-1.5-1.2-3.1-0.9-4.8c0.3-2,1.4-3.8,3.1-5.4
		c1.7-1.5,3.6-2.3,5.7-2.3c1.7,0,3.2,0.6,4.5,1.8c1.3,1.2,2,2.6,2,4.3v3.7C304,157.7,306.2,158.8,310.1,158.8z"/>
	<path d="M256.6,178c-3.7,0-6.2,1.1-7.6,3.4c-0.6,1.6-1,2.8-1.2,3.7c-1.7,4.1-4.6,6.1-8.5,6.1c-4.2,0-6.3-2.4-6.3-7.2
		c0-2.1,0.4-4.7,1.2-7.7c1.3,0,2.7,0,4,0c8,0,14.9-2.3,20.7-6.9c6.2-5,9.2-11.5,9.2-19.3c0-5.6-1.8-10.2-5.4-13.8
		c-3.6-3.6-8.2-5.4-13.8-5.4c-3.4,0-7.3,1-11.5,3.1c-3.2,1.6-6.2,4-8.9,7c-3,3.4-4.8,6.8-5.2,10.1l-5.5,34.7c-0.1,0.4-0.1,1-0.1,1.8
		c0,3.8,1.5,7.5,4.4,11.2c3.8,4.8,8.8,7.2,15,7.2c5.5,0,10.9-2,16.1-6c2.7-2.1,5-4.6,6.8-7.6c2.1-3.4,3.1-6.6,3.1-9.7
		C263.2,179.6,261,178,256.6,178z M238,151.8c0.2-1.5,1.3-2.8,3.3-4.1c2-1.3,3.8-1.9,5.4-1.9c2,0,3.7,0.8,5,2.3
		c1.3,1.5,1.8,3.3,1.4,5.4c-0.2,1.4-1.1,3-2.8,4.8c-1.6,1.8-3.1,2.7-4.5,2.7h-9.2L238,151.8z"/>
	<path d="M479.2,149.4c0-3.8-1.5-7.6-4.5-11.4c-3-3.7-6.3-6-10.1-6.7c-1.8-0.3-3.5-0.5-4.9-0.5c-5.9,0-11.4,2.1-16.5,6.3
		c-2.6,2.2-4.8,4.7-6.5,7.4c-2,3.3-3,6.4-3,9.4c0,3.2,2.2,4.8,6.5,4.8c3.6,0,6.1-1.1,7.6-3.4c0.6-1.5,0.9-2.8,1.2-3.7
		c0.6-1.7,1.7-3.1,3.4-4.3c1.7-1.2,3.4-1.8,5.1-1.8c4.2,0,6.3,2.5,6.3,7.6c0,2.2-0.4,4.8-1.3,7.7c-1.5-0.2-2.9-0.3-4.4-0.3
		c-7.9,0-14.7,2.3-20.4,7c-6,5-9,11.4-9,19.2c0,5.6,1.8,10.2,5.4,13.8s8.2,5.4,13.8,5.4c3.4,0,7.3-1,11.6-3.1c3.2-1.5,6.2-3.9,8.8-7
		c3-3.4,4.8-6.7,5.2-10l5.5-34.9C479.1,150.5,479.2,149.9,479.2,149.4z M458.8,185.1c-0.2,1.4-1.3,2.7-3.3,4s-3.8,1.9-5.3,1.9
		c-2,0-3.7-0.8-5-2.3c-1.3-1.5-1.8-3.3-1.4-5.4c0.2-1.5,1.1-3.1,2.7-4.9c1.6-1.8,3.1-2.7,4.5-2.7h9.2L458.8,185.1z"/>
	<path d="M331.9,94.9c1.5,0.8,2.9,1.2,4.4,1.2c1.7,0,3.3-0.4,4.9-1.2c2-0.9,3-2,3.2-3.4l7.9-49.8c0.3-1.8,1.6-3.3,4.1-4.5
		c2.1-1,4.2-1.5,6.3-1.5c0.2,0,0.9,0,1.9,0h1.9c2.7,0,4.6-0.5,5.8-1.6c1.2-1.1,2-3,2.5-5.8c0.1-0.8,0.2-1.7,0.2-2.4
		c0-2.4-0.9-3.9-2.8-4.5c-1-0.4-3-0.5-6-0.5c-10.8,0-19.2,4.2-25.1,12.5c-2,2.9-3.2,5.5-3.6,7.8l-8,50.4
		C329.4,92.8,330.1,94,331.9,94.9z"/>
	<path d="M193.9,85.8c3-3.4,4.8-6.7,5.2-10l5.5-34.9c0.1-0.5,0.2-1,0.2-1.6c0-3.8-1.5-7.6-4.5-11.4c-3-3.7-6.3-6-10.1-6.7
		c-1.8-0.3-3.5-0.5-4.9-0.5c-5.9,0-11.4,2.1-16.5,6.3c-2.6,2.2-4.8,4.7-6.5,7.4c-2,3.3-3,6.4-3,9.4c0,3.2,2.2,4.8,6.5,4.8
		c3.6,0,6.1-1.1,7.6-3.4c0.6-1.5,0.9-2.8,1.2-3.7c0.6-1.7,1.7-3.1,3.4-4.3c1.7-1.2,3.4-1.8,5.1-1.8c4.2,0,6.3,2.5,6.3,7.6
		c0,2.2-0.4,4.8-1.3,7.7c-1.5-0.2-2.9-0.3-4.4-0.3c-7.9,0-14.7,2.3-20.4,7c-6,5-9,11.4-9,19.2c0,5.6,1.8,10.2,5.4,13.8
		s8.2,5.4,13.8,5.4c3.4,0,7.3-1,11.6-3.1C188.3,91.3,191.3,89,193.9,85.8z M184.4,75.1c-0.2,1.4-1.3,2.7-3.3,4s-3.8,1.9-5.3,1.9
		c-2,0-3.7-0.8-5-2.3c-1.3-1.5-1.8-3.3-1.4-5.4c0.2-1.5,1.1-3.1,2.7-4.9c1.6-1.8,3.1-2.7,4.5-2.7h9.2L184.4,75.1z"/>
	<path d="M349.4,145.2c3.1-0.6,5-2.9,5.7-7.1c0.1-0.9,0.2-1.6,0.2-2.1c0-2.2-0.7-3.6-2.1-4.4c-1-0.6-2.7-0.8-5-0.8h-1.4
		c-0.6,0-1,0-1.4,0c-1.8,0-3.3-0.1-4.4-0.4l1.4-9.4c0-3.3-2.1-5-6.4-5c-1.3,0-2.8,0.4-4.5,1c-2.2,0.9-3.5,2.1-3.7,3.5l-10.3,65.3
		c-0.1,0.6-0.2,1.1-0.2,1.7c0,3.9,1.5,7.7,4.4,11.3c2.9,3.6,6.3,5.9,10.2,6.7c1.6,0.3,4.2,0.5,7.8,0.5c3.4,0,5.7-0.3,6.9-0.8
		c2.2-1,3.5-3.2,4.1-6.7c0.1-0.8,0.2-1.6,0.2-2.2c0-3.5-2.4-5.2-7.1-5.2H341c-2.8,0-4.9-0.5-6.1-1.4c-1.3-1-2-2.7-2.3-5.3l6.4-38.7
		C342.4,145.5,345.9,145.3,349.4,145.2z"/>
</g>
</svg>
