<?xml version="1.0" encoding="utf-8"?>
<!-- Generator: Adobe Illustrator 22.0.1, SVG Export Plug-In . SVG Version: 6.00 Build 0)  -->
<svg version="1.1" id="Layer_1" xmlns="http://www.w3.org/2000/svg" xmlns:xlink="http://www.w3.org/1999/xlink" x="0px" y="0px"
	 viewBox="0 0 635.8 213.7" style="enable-background:new 0 0 635.8 213.7;" xml:space="preserve">
<style type="text/css">
	.st0{fill:url(#SVGID_1_);}
	.st1{fill:url(#SVGID_2_);}
	.st2{fill:url(#SVGID_3_);}
	.st3{fill:url(#SVGID_4_);}
	.st4{fill:url(#SVGID_5_);}
	.st5{fill:url(#SVGID_6_);}
</style>
<g>
	<path d="M149.1,21.9c-1.6-0.8-3.1-1.2-4.4-1.2c-1.4,0-2.8,0.3-4.1,0.8c-1.7,0.6-2.7,1.5-2.9,2.6c-3.6,15-6.3,26.7-8.1,35
		c-0.4-1.5-1.2-4.8-2.2-10.1c-0.8-4.1-1.5-6.8-2.1-8.3c-0.7-4.1-1.4-8.1-2-12.2c-1.3-5.3-4.3-8-8.8-8c-1.5,0-3,0.4-4.5,1
		c-1.7,0.8-2.5,1.9-2.5,3.4l5.4,23.7c3.5,15.8,6.3,28.7,8.2,38.6c0.6,2.9,1.4,5,2.4,6.2c1.3,1.5,3.4,2.3,6.1,2.3
		c3.5,0,5.9-1.3,7.2-3.8c0.6-1.1,1.4-4.4,2.6-9.9c1.2-5.5,2.5-11.5,4-18.2l5.2-23.2c2.2-9.9,3.4-15,3.5-15.3
		C152.2,24.2,151.1,22.9,149.1,21.9z"/>
	<path d="M203.6,77.5c0,3.9,1.5,7.7,4.4,11.3c2.9,3.6,6.3,5.9,10.2,6.7c1.6,0.3,4.2,0.5,7.8,0.5c3.4,0,5.7-0.3,6.9-0.8
		c2.2-1,3.5-3.2,4.1-6.7c0.3-1.6,0.2-3.1-0.3-4.5c-0.6-1.7-1.6-2.6-3-2.9c-7.8-0.2-12.1-0.9-13-2c-1.4-1.8-2-3.1-1.9-4L229,10.4
		c0.2-1.3-0.6-2.4-2.3-3.3c-1.5-0.8-3-1.2-4.4-1.2c-1.3,0-2.8,0.4-4.5,1c-2.3,0.9-3.5,2.1-3.7,3.5l-10.3,65.3
		C203.6,76.3,203.6,76.9,203.6,77.5z"/>
	<path d="M256.5,95.5c1.6,0.3,4.2,0.5,7.8,0.5c3.4,0,5.7-0.3,6.9-0.8c2.2-1,3.5-3.2,4.1-6.7c0.3-1.6,0.2-3.1-0.3-4.5
		c-0.6-1.7-1.6-2.6-3-2.9c-7.8-0.2-12.1-0.9-13-2c-1.4-1.8-2-3.1-1.9-4l10.3-64.7c0.2-1.3-0.6-2.4-2.3-3.3c-1.5-0.8-3-1.2-4.4-1.2
		c-1.3,0-2.8,0.4-4.5,1c-2.3,0.9-3.5,2.1-3.7,3.5l-10.3,65.3c-0.1,0.6-0.2,1.1-0.2,1.7c0,3.9,1.5,7.7,4.4,11.3
		C249.3,92.4,252.7,94.7,256.5,95.5z"/>
	<path d="M301,96c5.5,0,10.9-2,16.1-6c2.7-2.1,5-4.6,6.8-7.6c2.1-3.4,3.1-6.6,3.1-9.7c0-3.2-2.2-4.8-6.5-4.8c-3.7,0-6.2,1.1-7.6,3.4
		c-0.6,1.6-1,2.8-1.2,3.7c-1.7,4.1-4.6,6.1-8.5,6.1c-4.2,0-6.3-2.4-6.3-7.2c0-2.1,0.4-4.7,1.2-7.7c1.3,0,2.7,0,4,0
		c8,0,14.9-2.3,20.7-6.9c6.2-5,9.2-11.5,9.2-19.3c0-5.6-1.8-10.2-5.4-13.8c-3.6-3.6-8.2-5.4-13.8-5.4c-3.4,0-7.3,1-11.5,3.1
		c-3.2,1.6-6.2,4-8.9,7c-3,3.4-4.8,6.8-5.2,10.1l-5.5,34.7c-0.1,0.4-0.1,1-0.1,1.8c0,3.8,1.5,7.5,4.4,11.2
		C289.8,93.6,294.8,96,301,96z M301.9,41.8c0.2-1.5,1.3-2.8,3.3-4.1c2-1.3,3.8-1.9,5.4-1.9c2,0,3.7,0.8,5,2.3
		c1.3,1.5,1.8,3.3,1.4,5.4c-0.2,1.4-1.1,3-2.8,4.8c-1.6,1.8-3.1,2.7-4.5,2.7h-9.2L301.9,41.8z"/>
	<path d="M374.1,62.2c0,3.9,1.5,7.7,4.5,11.4c3,3.7,6.3,5.9,10.1,6.6c5.5,0.5,9.7,0.7,12.4,0.7l-1.4,8.9c-0.2,1.4-1.3,2.8-3.3,4.1
		c-2,1.3-3.8,2-5.3,2c-1.6,0-3.1-0.6-4.5-1.8c-1.4-1.2-2.1-2.6-2.2-4.2c0-1.7,0-2.9,0-3.6c-0.1-1.1-0.9-2-2.5-2.6
		c-1.3-0.6-2.6-0.8-3.9-0.8c-4.9,0-7.7,2.1-8.3,6.2c-0.1,0.9-0.2,1.9-0.2,3c0,5.4,1.9,9.9,5.6,13.4c3.7,3.6,8.3,5.4,13.7,5.4
		c3.4,0,7.2-1,11.5-3.1c3.4-1.6,6.3-3.9,8.9-6.9c2.9-3.3,4.6-6.6,5.1-10.1l10.4-65.5c0.2-1.3-0.6-2.4-2.4-3.4
		c-1.5-0.8-2.9-1.2-4.3-1.2c-1.7,0-3.3,0.4-4.9,1.2c-2,0.9-3,2.1-3.3,3.5l-6.4,40.5h-9.2c-0.9,0-2-0.8-3.3-2.4
		c-1.3-1.6-1.9-2.8-1.7-3.6l5.4-34.6c0.2-1.3-0.6-2.4-2.4-3.3c-1.5-0.8-2.9-1.1-4.3-1.1c-1.2,0-2.7,0.4-4.5,1.2
		c-2.2,1-3.4,2.1-3.6,3.5l-5.6,35.1C374.1,61,374.1,61.5,374.1,62.2z"/>
	<path d="M214.5,146c-1.3-1-3.3-1.6-6-1.6H207c-0.6,0-1.1,0-1.5,0c-1.8,0-3.2-0.1-4.3-0.4v-7.2c0-1,0.8-2.3,2.5-4
		c1.5-1.5,3.8-2.2,6.9-2.2c0.2,0,0.9,0,1.9,0h1.8c2.6,0,4.4-0.5,5.6-1.6c1.1-1.1,1.7-3,1.7-5.6c0-3.3-0.8-5.4-2.4-6.4
		c-1.2-0.7-3.7-1-7.4-1c-10.8,0-18.5,4.1-23.1,12.4c-1.5,2.7-2.3,5.3-2.3,7.8v65.3c0,1.4,0.9,2.6,2.7,3.5c1.5,0.8,3.1,1.2,4.7,1.2
		c4.5,0,7-1.7,7.4-5.2l0.3-41.7c3.4-0.1,6.8-0.2,10.2-0.3c3.1-0.6,4.6-2.9,4.6-7.1C216.4,148.9,215.7,147,214.5,146z"/>
	<path d="M376.8,131.9c-1.5-0.8-2.9-1.2-4.2-1.2c-1.5,0-3.1,0.4-4.8,1.3c-2,1-3,2.1-3.3,3.4l-10.6,66c-0.2,1.5,0.5,2.6,2.2,3.5
		c1.5,0.8,3,1.2,4.5,1.2c1.6,0,3.3-0.4,5-1.2c2-0.8,3.1-2,3.3-3.4l10.5-66.2C379.6,134,378.7,132.9,376.8,131.9z"/>
	<path d="M429.3,132.1c-1.4-0.8-2.9-1.3-4.5-1.3c-1.4,0-2.8,0.3-4.2,0.8c-1.7,0.7-2.8,1.6-3.2,2.6c-6.6,16.7-11.1,28.3-13.6,35.1
		c-0.2-1.4-0.5-4.8-0.7-10.1c-0.2-4-0.5-6.8-0.7-8.3c-0.1-5.5-0.1-9.7-0.2-12.5c-0.3-5.1-2.8-7.7-7.4-7.7c-1.6,0-3.2,0.4-4.7,1
		c-1.8,0.8-2.8,2-3,3.4l1.6,23.7c1.2,17.2,1.9,30.1,2.2,38.6c0.1,2.9,0.6,4.9,1.5,6.2c1.1,1.5,3,2.3,5.7,2.3c3.5,0,6.1-1.3,7.9-3.8
		c0.8-1.2,2.2-4.5,4.2-9.9c3.3-8.7,5.6-14.7,6.9-18.2l8.8-23.2c3.2-8.5,5.2-13.6,5.8-15.3C431.8,134.3,431.1,133,429.3,132.1z"/>
	<path d="M511,194c-0.6-1.7-1.6-2.6-3-2.9c-7.8-0.2-12.1-0.9-13-2c-1.4-1.8-2-3.1-1.9-4l10.3-64.7c0.2-1.3-0.6-2.4-2.3-3.3
		c-1.5-0.8-3-1.2-4.4-1.2c-1.3,0-2.8,0.4-4.5,1c-2.3,0.9-3.5,2.1-3.7,3.5l-10.3,65.3c-0.1,0.6-0.2,1.1-0.2,1.7
		c0,3.9,1.5,7.7,4.4,11.3c2.9,3.6,6.3,5.9,10.2,6.7c1.6,0.3,4.2,0.5,7.8,0.5c3.4,0,5.7-0.3,6.9-0.8c2.2-1,3.5-3.2,4.1-6.7
		C511.6,196.9,511.5,195.4,511,194z"/>
	<path d="M375,116c-5,0-7.9,2.1-8.5,6.3c-0.1,0.5-0.1,0.9-0.1,1.4c0,3.4,2.2,5,6.6,5c5.7,0,8.5-2.6,8.5-7.7
		C381.5,117.7,379.3,116,375,116z"/>
	<path d="M310.1,158.8c5,0,7.8-2.1,8.4-6.2c0.1-0.9,0.2-1.9,0.2-3c0-5.4-1.9-9.9-5.6-13.4c-3.7-3.6-8.3-5.4-13.7-5.4
		c-6.2,0-11.8,2.2-16.9,6.6c-6.2,5.5-9.3,11.8-9.3,18.9c0,3.6,0.8,7,2.3,10.1c1.7,3.5,4.1,5.9,7.1,7.2c1.5,0.6,3.4,1.2,5.8,1.6
		l5.5,0.8c1.7,0.3,3.1,1.1,3.9,2.6c0.9,1.4,1.2,3.1,0.9,4.9c-0.3,2.1-1.3,3.9-3,5.4c-1.7,1.5-3.7,2.3-5.8,2.3c-1.5,0-3-0.6-4.4-1.8
		c-1-0.8-1.7-2.1-2-3.7c-0.1-0.4-0.1-1.9-0.2-4.4c-0.1-1-0.9-1.8-2.6-2.4c-1.3-0.6-2.6-0.8-3.8-0.8c-5,0-7.8,2.1-8.4,6.2
		c-0.1,0.9-0.2,1.9-0.2,3c0,5.3,1.9,9.8,5.7,13.4c3.8,3.6,8.3,5.4,13.6,5.4c6.8,0,12.9-2.6,18.3-7.8c5.4-5.2,8.1-11.2,8.1-17.9
		c0-4.6-1.3-8.7-3.9-12.2c-2.6-3.5-6.1-5.7-10.5-6.7l-6.4-0.7c-1.7-0.1-3-1-3.9-2.5c-0.9-1.5-1.2-3.1-0.9-4.8c0.3-2,1.4-3.8,3.1-5.4
		c1.7-1.5,3.6-2.3,5.7-2.3c1.7,0,3.2,0.6,4.5,1.8c1.3,1.2,2,2.6,2,4.3v3.7C304,157.7,306.2,158.8,310.1,158.8z"/>
	<path d="M256.6,178c-3.7,0-6.2,1.1-7.6,3.4c-0.6,1.6-1,2.8-1.2,3.7c-1.7,4.1-4.6,6.1-8.5,6.1c-4.2,0-6.3-2.4-6.3-7.2
		c0-2.1,0.4-4.7,1.2-7.7c1.3,0,2.7,0,4,0c8,0,14.9-2.3,20.7-6.9c6.2-5,9.2-11.5,9.2-19.3c0-5.6-1.8-10.2-5.4-13.8
		c-3.6-3.6-8.2-5.4-13.8-5.4c-3.4,0-7.3,1-11.5,3.1c-3.2,1.6-6.2,4-8.9,7c-3,3.4-4.8,6.8-5.2,10.1l-5.5,34.7c-0.1,0.4-0.1,1-0.1,1.8
		c0,3.8,1.5,7.5,4.4,11.2c3.8,4.8,8.8,7.2,15,7.2c5.5,0,10.9-2,16.1-6c2.7-2.1,5-4.6,6.8-7.6c2.1-3.4,3.1-6.6,3.1-9.7
		C263.2,179.6,261,178,256.6,178z M238,151.8c0.2-1.5,1.3-2.8,3.3-4.1c2-1.3,3.8-1.9,5.4-1.9c2,0,3.7,0.8,5,2.3
		c1.3,1.5,1.8,3.3,1.4,5.4c-0.2,1.4-1.1,3-2.8,4.8c-1.6,1.8-3.1,2.7-4.5,2.7h-9.2L238,151.8z"/>
	<path d="M479.2,149.4c0-3.8-1.5-7.6-4.5-11.4c-3-3.7-6.3-6-10.1-6.7c-1.8-0.3-3.5-0.5-4.9-0.5c-5.9,0-11.4,2.1-16.5,6.3
		c-2.6,2.2-4.8,4.7-6.5,7.4c-2,3.3-3,6.4-3,9.4c0,3.2,2.2,4.8,6.5,4.8c3.6,0,6.1-1.1,7.6-3.4c0.6-1.5,0.9-2.8,1.2-3.7
		c0.6-1.7,1.7-3.1,3.4-4.3c1.7-1.2,3.4-1.8,5.1-1.8c4.2,0,6.3,2.5,6.3,7.6c0,2.2-0.4,4.8-1.3,7.7c-1.5-0.2-2.9-0.3-4.4-0.3
		c-7.9,0-14.7,2.3-20.4,7c-6,5-9,11.4-9,19.2c0,5.6,1.8,10.2,5.4,13.8s8.2,5.4,13.8,5.4c3.4,0,7.3-1,11.6-3.1c3.2-1.5,6.2-3.9,8.8-7
		c3-3.4,4.8-6.7,5.2-10l5.5-34.9C479.1,150.5,479.2,149.9,479.2,149.4z M458.8,185.1c-0.2,1.4-1.3,2.7-3.3,4s-3.8,1.9-5.3,1.9
		c-2,0-3.7-0.8-5-2.3c-1.3-1.5-1.8-3.3-1.4-5.4c0.2-1.5,1.1-3.1,2.7-4.9c1.6-1.8,3.1-2.7,4.5-2.7h9.2L458.8,185.1z"/>
	<path d="M331.9,94.9c1.5,0.8,2.9,1.2,4.4,1.2c1.7,0,3.3-0.4,4.9-1.2c2-0.9,3-2,3.2-3.4l7.9-49.8c0.3-1.8,1.6-3.3,4.1-4.5
		c2.1-1,4.2-1.5,6.3-1.5c0.2,0,0.9,0,1.9,0h1.9c2.7,0,4.6-0.5,5.8-1.6c1.2-1.1,2-3,2.5-5.8c0.1-0.8,0.2-1.7,0.2-2.4
		c0-2.4-0.9-3.9-2.8-4.5c-1-0.4-3-0.5-6-0.5c-10.8,0-19.2,4.2-25.1,12.5c-2,2.9-3.2,5.5-3.6,7.8l-8,50.4
		C329.4,92.8,330.1,94,331.9,94.9z"/>
	<path d="M193.9,85.8c3-3.4,4.8-6.7,5.2-10l5.5-34.9c0.1-0.5,0.2-1,0.2-1.6c0-3.8-1.5-7.6-4.5-11.4c-3-3.7-6.3-6-10.1-6.7
		c-1.8-0.3-3.5-0.5-4.9-0.5c-5.9,0-11.4,2.1-16.5,6.3c-2.6,2.2-4.8,4.7-6.5,7.4c-2,3.3-3,6.4-3,9.4c0,3.2,2.2,4.8,6.5,4.8
		c3.6,0,6.1-1.1,7.6-3.4c0.6-1.5,0.9-2.8,1.2-3.7c0.6-1.7,1.7-3.1,3.4-4.3c1.7-1.2,3.4-1.8,5.1-1.8c4.2,0,6.3,2.5,6.3,7.6
		c0,2.2-0.4,4.8-1.3,7.7c-1.5-0.2-2.9-0.3-4.4-0.3c-7.9,0-14.7,2.3-20.4,7c-6,5-9,11.4-9,19.2c0,5.6,1.8,10.2,5.4,13.8
		s8.2,5.4,13.8,5.4c3.4,0,7.3-1,11.6-3.1C188.3,91.3,191.3,89,193.9,85.8z M184.4,75.1c-0.2,1.4-1.3,2.7-3.3,4s-3.8,1.9-5.3,1.9
		c-2,0-3.7-0.8-5-2.3c-1.3-1.5-1.8-3.3-1.4-5.4c0.2-1.5,1.1-3.1,2.7-4.9c1.6-1.8,3.1-2.7,4.5-2.7h9.2L184.4,75.1z"/>
	<path d="M349.4,145.2c3.1-0.6,5-2.9,5.7-7.1c0.1-0.9,0.2-1.6,0.2-2.1c0-2.2-0.7-3.6-2.1-4.4c-1-0.6-2.7-0.8-5-0.8h-1.4
		c-0.6,0-1,0-1.4,0c-1.8,0-3.3-0.1-4.4-0.4l1.4-9.4c0-3.3-2.1-5-6.4-5c-1.3,0-2.8,0.4-4.5,1c-2.2,0.9-3.5,2.1-3.7,3.5l-10.3,65.3
		c-0.1,0.6-0.2,1.1-0.2,1.7c0,3.9,1.5,7.7,4.4,11.3c2.9,3.6,6.3,5.9,10.2,6.7c1.6,0.3,4.2,0.5,7.8,0.5c3.4,0,5.7-0.3,6.9-0.8
		c2.2-1,3.5-3.2,4.1-6.7c0.1-0.8,0.2-1.6,0.2-2.2c0-3.5-2.4-5.2-7.1-5.2H341c-2.8,0-4.9-0.5-6.1-1.4c-1.3-1-2-2.7-2.3-5.3l6.4-38.7
		C342.4,145.5,345.9,145.3,349.4,145.2z"/>
</g>
<g>
	<linearGradient id="SVGID_1_" gradientUnits="userSpaceOnUse" x1="390.4344" y1="88.2366" x2="393.9482" y2="88.2366">
		<stop  offset="0" style="stop-color:#FF2A2A"/>
		<stop  offset="0.1396" style="stop-color:#FF332A"/>
		<stop  offset="0.3716" style="stop-color:#FF4D2A"/>
		<stop  offset="0.6676" style="stop-color:#FF762A"/>
		<stop  offset="0.9944" style="stop-color:#FFAC2A"/>
	</linearGradient>
	<path class="st0" d="M393,89c0.4-0.3,0.7-0.5,0.8-0.6l0.3-1.7c-1.1-0.1-2.4-0.2-3.7-0.3v3.1c0,0,0.1,0.1,0.2,0.2
		c0.2,0.2,0.4,0.3,0.5,0.3C391,90,391.6,89.9,393,89z"/>
	<linearGradient id="SVGID_2_" gradientUnits="userSpaceOnUse" x1="265.8015" y1="114.1471" x2="366.9998" y2="114.1471">
		<stop  offset="0" style="stop-color:#FF2A2A"/>
		<stop  offset="0.1396" style="stop-color:#FF332A"/>
		<stop  offset="0.3716" style="stop-color:#FF4D2A"/>
		<stop  offset="0.6676" style="stop-color:#FF762A"/>
		<stop  offset="0.9944" style="stop-color:#FFAC2A"/>
	</linearGradient>
	<path class="st1" d="M363.4,92.1c0-1.3,0.1-2.5,0.2-3.6c-4.6,2-9.3,4-13.9,5.9c-0.8,2-2.5,4.2-6.1,5.9c-2.4,1.1-4.9,1.7-7.5,1.7
		c-1.2,0-2.3-0.1-3.4-0.4c-16.4,6.9-32.9,13.5-49.6,19.7c-6.7,2.5-13.4,5-20.2,7.4c1.4,0.9,2.8,2,4,3.3c2.3,2.3,4,4.9,5.2,7.8
		c1.7-2.4,3.7-4.7,6.2-6.9c6.2-5.4,13.2-8.1,20.8-8.1c6.7,0,12.6,2.2,17.4,6.6c1.2-0.5,2.3-1,3.5-1.5l1.6-10.3
		c0.4-2.5,1.9-5.9,7.3-8.1c2.4-1,4.6-1.5,6.8-1.5c7.4,0,10.9,3.8,12,8c7.2-3.1,14.5-6.2,21.7-9.3C365.6,104.2,363.4,98.6,363.4,92.1
		z"/>
	<linearGradient id="SVGID_3_" gradientUnits="userSpaceOnUse" x1="207.6525" y1="168.8271" x2="214.9751" y2="168.8271">
		<stop  offset="0" style="stop-color:#FF2A2A"/>
		<stop  offset="0.1396" style="stop-color:#FF332A"/>
		<stop  offset="0.3716" style="stop-color:#FF4D2A"/>
		<stop  offset="0.6676" style="stop-color:#FF762A"/>
		<stop  offset="0.9944" style="stop-color:#FFAC2A"/>
	</linearGradient>
	<path class="st2" d="M212.8,164.7l-0.5,0.1l-0.5,0c-1.5,0-2.9,0.1-4.4,0.1l-0.1,8.7c2.2-0.8,4.4-1.5,6.6-2.3l1.2-7.3
		C214.2,164.4,213.4,164.6,212.8,164.7z"/>
	<linearGradient id="SVGID_4_" gradientUnits="userSpaceOnUse" x1="243.7113" y1="153.2996" x2="247.1016" y2="153.2996">
		<stop  offset="0" style="stop-color:#FF2A2A"/>
		<stop  offset="0.1396" style="stop-color:#FF332A"/>
		<stop  offset="0.3716" style="stop-color:#FF4D2A"/>
		<stop  offset="0.6676" style="stop-color:#FF762A"/>
		<stop  offset="0.9944" style="stop-color:#FFAC2A"/>
	</linearGradient>
	<path class="st3" d="M245.8,154.2c1-1.1,1.3-1.7,1.3-1.8l0,0c0-0.2,0-0.3,0-0.3c0,0,0-0.1-0.1-0.2c-0.1-0.1-0.1-0.1-0.2-0.2
		c0,0-0.1,0-0.3,0c0,0-0.6,0-2.1,1c-0.4,0.2-0.6,0.4-0.7,0.5l-0.3,1.7h1.5C245.3,154.8,245.5,154.5,245.8,154.2z"/>
	<linearGradient id="SVGID_5_" gradientUnits="userSpaceOnUse" x1="426.3512" y1="101.2797" x2="630.2799" y2="101.2797">
		<stop  offset="0" style="stop-color:#FF2A2A"/>
		<stop  offset="0.1396" style="stop-color:#FF332A"/>
		<stop  offset="0.3716" style="stop-color:#FF4D2A"/>
		<stop  offset="0.6676" style="stop-color:#FF762A"/>
		<stop  offset="0.9944" style="stop-color:#FFAC2A"/>
	</linearGradient>
	<path class="st4" d="M630.5,24.5c-7.5-8-19.7-9.4-30-9.4c-11.6,0-23.2,1.8-34.6,3.6c-33.3,5.4-65.8,15.5-97.5,27
		c-14.6,5.3-29.1,11-43.4,16.8l-4,25.5c18.4-7,37.1-13.5,56-19.1c27.2-8.1,55.7-15,84.2-16.6c10.6-0.6,22.9-0.3,32,6
		c12.3,8.4,10.2,23.7,4.2,35.5c-3.2,6.2-7.2,11.8-11.5,17.3c-1.9,2.4-3.7,4.8-5.2,6.6c-0.2,0.2-0.6,0.7-1,1.2
		c-0.4,0.4-1.8,1.9-2.2,2.3c-1.7,1.7-3.4,3.5-5.2,5.2c-4.4,4.3-10.6,10.1-15.8,14.9c-5.8,5.4-11.7,10.7-17.6,15.9
		c-8.4,7.6-15.9,16.5-23.2,25.1c-1,1.2-2.3,2.5-3.6,3.9c0.6,0.3,1.2,0.7,1.7,1.2c29-26.2,56.5-53.7,82-83.3
		c11-12.8,22.6-26.1,31.4-40.6C633.9,52.4,640.9,35.7,630.5,24.5z M579.5,119C579.5,119,579.5,119.1,579.5,119
		c-0.2,0.2-0.4,0.4-0.6,0.7C579.2,119.4,579.4,119.2,579.5,119z M578.9,119.8c0,0,0.1-0.1,0.1-0.1
		C578.4,120.4,578.2,120.7,578.9,119.8z"/>
	<linearGradient id="SVGID_6_" gradientUnits="userSpaceOnUse" x1="4.6095" y1="147.8197" x2="175.7415" y2="147.8197">
		<stop  offset="0" style="stop-color:#FF2A2A"/>
		<stop  offset="0.1396" style="stop-color:#FF332A"/>
		<stop  offset="0.3716" style="stop-color:#FF4D2A"/>
		<stop  offset="0.6676" style="stop-color:#FF762A"/>
		<stop  offset="0.9944" style="stop-color:#FFAC2A"/>
	</linearGradient>
	<path class="st5" d="M180.4,155.8c-21.9,6.3-44.2,12.4-66.6,16.8c-20.5,4.1-45.9,8.2-65.3-2.2c-25.9-13.9-11.8-43.7,0-62.5
		c2-3.1,4-6.2,6.2-9.2c1-1.4,2.4-3.2,3.2-4.2c-0.3,0.3,0.5-0.5,0.9-1c2.5-2.9,5.1-5.8,7.4-8.9c0.2-0.3,3.2-3.6,1-2.5
		c-3,1.6-6,5.7-8.2,8.1c-4.4,4.7-8.8,9.4-13,14.2c-12.6,14.4-25,29.2-34.4,45.9C5.9,160.5,0,172.1,0,184
		c-0.1,24.5,28.3,30.1,47.5,29.7c21.9-0.4,43.3-6.1,64.3-11.6c23-6,45.8-12.4,68.5-19.5V155.8z"/>
</g>
</svg>
