<?xml version="1.0" encoding="utf-8"?>
<!-- Generator: Adobe Illustrator 22.0.1, SVG Export Plug-In . SVG Version: 6.00 Build 0)  -->
<svg version="1.1" id="Layer_1" xmlns="http://www.w3.org/2000/svg" xmlns:xlink="http://www.w3.org/1999/xlink" x="0px" y="0px"
	 viewBox="0 0 641.9 211.1" style="enable-background:new 0 0 641.9 211.1;" xml:space="preserve">
<style type="text/css">
	.st0{fill:url(#SVGID_1_);}
	.st1{fill:url(#SVGID_2_);}
	.st2{fill:url(#SVGID_3_);}
	.st3{fill:url(#SVGID_4_);}
	.st4{fill:url(#SVGID_5_);}
</style>
<g>
	<path d="M151.1,15.9c-1.6-0.8-3.1-1.2-4.4-1.2c-1.4,0-2.8,0.3-4.1,0.8c-1.7,0.6-2.7,1.5-2.9,2.6c-3.6,15-6.3,26.7-8.1,35
		c-0.4-1.5-1.2-4.8-2.2-10.1c-0.8-4.1-1.5-6.8-2.1-8.3c-0.7-4.1-1.4-8.1-2-12.2c-1.3-5.3-4.3-8-8.8-8c-1.5,0-3,0.4-4.5,1
		c-1.7,0.8-2.5,1.9-2.5,3.4l5.4,23.7c3.5,15.8,6.3,28.7,8.2,38.6c0.6,2.9,1.4,5,2.4,6.2c1.3,1.5,3.4,2.3,6.1,2.3
		c3.5,0,5.9-1.3,7.2-3.8c0.6-1.1,1.4-4.4,2.6-9.9c1.2-5.5,2.5-11.5,4-18.2l5.2-23.2c2.2-9.9,3.4-15,3.5-15.3
		C154.1,18.2,153.1,16.9,151.1,15.9z"/>
	<path d="M205.5,71.5c0,3.9,1.5,7.7,4.4,11.3c2.9,3.6,6.3,5.9,10.2,6.7c1.6,0.3,4.2,0.5,7.8,0.5c3.4,0,5.7-0.3,6.9-0.8
		c2.2-1,3.5-3.2,4.1-6.7c0.3-1.6,0.2-3.1-0.3-4.5c-0.6-1.7-1.6-2.6-3-2.9c-7.8-0.2-12.1-0.9-13-2c-1.4-1.8-2-3.1-1.9-4L231,4.4
		c0.2-1.3-0.6-2.4-2.3-3.3c-1.5-0.8-3-1.2-4.4-1.2c-1.3,0-2.8,0.4-4.5,1c-2.3,0.9-3.5,2.1-3.7,3.5l-10.3,65.3
		C205.6,70.3,205.5,70.9,205.5,71.5z"/>
	<path d="M258.5,89.5c1.6,0.3,4.2,0.5,7.8,0.5c3.4,0,5.7-0.3,6.9-0.8c2.2-1,3.5-3.2,4.1-6.7c0.3-1.6,0.2-3.1-0.3-4.5
		c-0.6-1.7-1.6-2.6-3-2.9c-7.8-0.2-12.1-0.9-13-2c-1.4-1.8-2-3.1-1.9-4l10.3-64.7c0.2-1.3-0.6-2.4-2.3-3.3c-1.5-0.8-3-1.2-4.4-1.2
		c-1.3,0-2.8,0.4-4.5,1c-2.3,0.9-3.5,2.1-3.7,3.5l-10.3,65.3c-0.1,0.6-0.2,1.1-0.2,1.7c0,3.9,1.5,7.7,4.4,11.3
		C251.3,86.4,254.7,88.7,258.5,89.5z"/>
	<path d="M303,90c5.5,0,10.9-2,16.1-6c2.7-2.1,5-4.6,6.8-7.6c2.1-3.4,3.1-6.6,3.1-9.7c0-3.2-2.2-4.8-6.5-4.8c-3.7,0-6.2,1.1-7.6,3.4
		c-0.6,1.6-1,2.8-1.2,3.7c-1.7,4.1-4.6,6.1-8.5,6.1c-4.2,0-6.3-2.4-6.3-7.2c0-2.1,0.4-4.7,1.2-7.7c1.3,0,2.7,0,4,0
		c8,0,14.9-2.3,20.7-6.9c6.2-5,9.2-11.5,9.2-19.3c0-5.6-1.8-10.2-5.4-13.8c-3.6-3.6-8.2-5.4-13.8-5.4c-3.4,0-7.3,1-11.5,3.1
		c-3.2,1.6-6.2,4-8.9,7c-3,3.4-4.8,6.8-5.2,10.1l-5.5,34.7c-0.1,0.4-0.1,1-0.1,1.8c0,3.8,1.5,7.5,4.4,11.2
		C291.8,87.6,296.8,90,303,90z M303.9,35.8c0.2-1.5,1.3-2.8,3.3-4.1c2-1.3,3.8-1.9,5.4-1.9c2,0,3.7,0.8,5,2.3
		c1.3,1.5,1.8,3.3,1.4,5.4c-0.2,1.4-1.1,3-2.8,4.8c-1.6,1.8-3.1,2.7-4.5,2.7h-9.2L303.9,35.8z"/>
	<path d="M376,56.2c0,3.9,1.5,7.7,4.5,11.4c3,3.7,6.3,5.9,10.1,6.6c5.5,0.5,9.7,0.7,12.4,0.7l-1.4,8.9c-0.2,1.4-1.3,2.8-3.3,4.1
		c-2,1.3-3.8,2-5.3,2c-1.6,0-3.1-0.6-4.5-1.8c-1.4-1.2-2.1-2.6-2.2-4.2c0-1.7,0-2.9,0-3.6c-0.1-1.1-0.9-2-2.5-2.6
		c-1.3-0.6-2.6-0.8-3.9-0.8c-4.9,0-7.7,2.1-8.3,6.2c-0.1,0.9-0.2,1.9-0.2,3c0,5.4,1.9,9.9,5.6,13.4c3.7,3.6,8.3,5.4,13.7,5.4
		c3.4,0,7.2-1,11.5-3.1c3.4-1.6,6.3-3.9,8.9-6.9c2.9-3.3,4.6-6.6,5.1-10.1l10.4-65.5c0.2-1.3-0.6-2.4-2.4-3.4
		c-1.5-0.8-2.9-1.2-4.3-1.2c-1.7,0-3.3,0.4-4.9,1.2c-2,0.9-3,2.1-3.3,3.5l-6.4,40.5h-9.2c-0.9,0-2-0.8-3.3-2.4
		c-1.3-1.6-1.9-2.8-1.7-3.6l5.4-34.6c0.2-1.3-0.6-2.4-2.4-3.3c-1.5-0.8-2.9-1.1-4.3-1.1c-1.2,0-2.7,0.4-4.5,1.2
		c-2.2,1-3.4,2.1-3.6,3.5l-5.6,35.1C376,55,376,55.5,376,56.2z"/>
	<path d="M216.4,140c-1.3-1-3.3-1.6-6-1.6h-1.5c-0.6,0-1.1,0-1.5,0c-1.8,0-3.2-0.1-4.3-0.4v-7.2c0-1,0.8-2.3,2.5-4
		c1.5-1.5,3.8-2.2,6.9-2.2c0.2,0,0.9,0,1.9,0h1.8c2.6,0,4.4-0.5,5.6-1.6c1.1-1.1,1.7-3,1.7-5.6c0-3.3-0.8-5.4-2.4-6.4
		c-1.2-0.7-3.7-1-7.4-1c-10.8,0-18.5,4.1-23.1,12.4c-1.5,2.7-2.3,5.3-2.3,7.8v65.3c0,1.4,0.9,2.6,2.7,3.5c1.5,0.8,3.1,1.2,4.7,1.2
		c4.5,0,7-1.7,7.4-5.2l0.3-41.7c3.4-0.1,6.8-0.2,10.2-0.3c3.1-0.6,4.6-2.9,4.6-7.1C218.3,142.9,217.7,141,216.4,140z"/>
	<path d="M378.7,125.9c-1.5-0.8-2.9-1.2-4.2-1.2c-1.5,0-3.1,0.4-4.8,1.3c-2,1-3,2.1-3.3,3.4l-10.6,66c-0.2,1.5,0.5,2.6,2.2,3.5
		c1.5,0.8,3,1.2,4.5,1.2c1.6,0,3.3-0.4,5-1.2c2-0.8,3.1-2,3.3-3.4l10.5-66.2C381.6,128,380.7,126.9,378.7,125.9z"/>
	<path d="M431.3,126.1c-1.4-0.8-2.9-1.3-4.5-1.3c-1.4,0-2.8,0.3-4.2,0.8c-1.7,0.7-2.8,1.6-3.2,2.6c-6.6,16.7-11.1,28.3-13.6,35.1
		c-0.2-1.4-0.5-4.8-0.7-10.1c-0.2-4-0.5-6.8-0.7-8.3c-0.1-5.5-0.1-9.7-0.2-12.5c-0.3-5.1-2.8-7.7-7.4-7.7c-1.6,0-3.2,0.4-4.7,1
		c-1.8,0.8-2.8,2-3,3.4l1.6,23.7c1.2,17.2,1.9,30.1,2.2,38.6c0.1,2.9,0.6,4.9,1.5,6.2c1.1,1.5,3,2.3,5.7,2.3c3.5,0,6.1-1.3,7.9-3.8
		c0.8-1.2,2.2-4.5,4.2-9.9c3.3-8.7,5.6-14.7,6.9-18.2l8.8-23.2c3.2-8.5,5.2-13.6,5.8-15.3C433.8,128.3,433.1,127,431.3,126.1z"/>
	<path d="M512.9,188c-0.6-1.7-1.6-2.6-3-2.9c-7.8-0.2-12.1-0.9-13-2c-1.4-1.8-2-3.1-1.9-4l10.3-64.7c0.2-1.3-0.6-2.4-2.3-3.3
		c-1.5-0.8-3-1.2-4.4-1.2c-1.3,0-2.8,0.4-4.5,1c-2.3,0.9-3.5,2.1-3.7,3.5l-10.3,65.3c-0.1,0.6-0.2,1.1-0.2,1.7
		c0,3.9,1.5,7.7,4.4,11.3c2.9,3.6,6.3,5.9,10.2,6.7c1.6,0.3,4.2,0.5,7.8,0.5c3.4,0,5.7-0.3,6.9-0.8c2.2-1,3.5-3.2,4.1-6.7
		C513.5,190.9,513.4,189.4,512.9,188z"/>
	<path d="M377,110c-5,0-7.9,2.1-8.5,6.3c-0.1,0.5-0.1,0.9-0.1,1.4c0,3.4,2.2,5,6.6,5c5.7,0,8.5-2.6,8.5-7.7
		C383.5,111.7,381.3,110,377,110z"/>
	<path d="M312,152.8c5,0,7.8-2.1,8.4-6.2c0.1-0.9,0.2-1.9,0.2-3c0-5.4-1.9-9.9-5.6-13.4c-3.7-3.6-8.3-5.4-13.7-5.4
		c-6.2,0-11.8,2.2-16.9,6.6c-6.2,5.5-9.3,11.8-9.3,18.9c0,3.6,0.8,7,2.3,10.1c1.7,3.5,4.1,5.9,7.1,7.2c1.5,0.6,3.4,1.2,5.8,1.6
		l5.5,0.8c1.7,0.3,3.1,1.1,3.9,2.6c0.9,1.4,1.2,3.1,0.9,4.9c-0.3,2.1-1.3,3.9-3,5.4c-1.7,1.5-3.7,2.3-5.8,2.3c-1.5,0-3-0.6-4.4-1.8
		c-1-0.8-1.7-2.1-2-3.7c-0.1-0.4-0.1-1.9-0.2-4.4c-0.1-1-0.9-1.8-2.6-2.4c-1.3-0.6-2.6-0.8-3.8-0.8c-5,0-7.8,2.1-8.4,6.2
		c-0.1,0.9-0.2,1.9-0.2,3c0,5.3,1.9,9.8,5.7,13.4c3.8,3.6,8.3,5.4,13.6,5.4c6.8,0,12.9-2.6,18.3-7.8c5.4-5.2,8.1-11.2,8.1-17.9
		c0-4.6-1.3-8.7-3.9-12.2c-2.6-3.5-6.1-5.7-10.5-6.7l-6.4-0.7c-1.7-0.1-3-1-3.9-2.5c-0.9-1.5-1.2-3.1-0.9-4.8c0.3-2,1.4-3.8,3.1-5.4
		c1.7-1.5,3.6-2.3,5.7-2.3c1.7,0,3.2,0.6,4.5,1.8c1.3,1.2,2,2.6,2,4.3v3.7C306,151.7,308.2,152.8,312,152.8z"/>
	<path d="M258.6,172c-3.7,0-6.2,1.1-7.6,3.4c-0.6,1.6-1,2.8-1.2,3.7c-1.7,4.1-4.6,6.1-8.5,6.1c-4.2,0-6.3-2.4-6.3-7.2
		c0-2.1,0.4-4.7,1.2-7.7c1.3,0,2.7,0,4,0c8,0,14.9-2.3,20.7-6.9c6.2-5,9.2-11.5,9.2-19.3c0-5.6-1.8-10.2-5.4-13.8
		c-3.6-3.6-8.2-5.4-13.8-5.4c-3.4,0-7.3,1-11.5,3.1c-3.2,1.6-6.2,4-8.9,7c-3,3.4-4.8,6.8-5.2,10.1l-5.5,34.7c-0.1,0.4-0.1,1-0.1,1.8
		c0,3.8,1.5,7.5,4.4,11.2c3.8,4.8,8.8,7.2,15,7.2c5.5,0,10.9-2,16.1-6c2.7-2.1,5-4.6,6.8-7.6c2.1-3.4,3.1-6.6,3.1-9.7
		C265.1,173.6,262.9,172,258.6,172z M240,145.8c0.2-1.5,1.3-2.8,3.3-4.1c2-1.3,3.8-1.9,5.4-1.9c2,0,3.7,0.8,5,2.3
		c1.3,1.5,1.8,3.3,1.4,5.4c-0.2,1.4-1.1,3-2.8,4.8c-1.6,1.8-3.1,2.7-4.5,2.7h-9.2L240,145.8z"/>
	<path d="M481.1,143.4c0-3.8-1.5-7.6-4.5-11.4c-3-3.7-6.3-6-10.1-6.7c-1.8-0.3-3.5-0.5-4.9-0.5c-5.9,0-11.4,2.1-16.5,6.3
		c-2.6,2.2-4.8,4.7-6.5,7.4c-2,3.3-3,6.4-3,9.4c0,3.2,2.2,4.8,6.5,4.8c3.6,0,6.1-1.1,7.6-3.4c0.6-1.5,0.9-2.8,1.2-3.7
		c0.6-1.7,1.7-3.1,3.4-4.3c1.7-1.2,3.4-1.8,5.1-1.8c4.2,0,6.3,2.5,6.3,7.6c0,2.2-0.4,4.8-1.3,7.7c-1.5-0.2-2.9-0.3-4.4-0.3
		c-7.9,0-14.7,2.3-20.4,7c-6,5-9,11.4-9,19.2c0,5.6,1.8,10.2,5.4,13.8s8.2,5.4,13.8,5.4c3.4,0,7.3-1,11.6-3.1c3.2-1.5,6.2-3.9,8.8-7
		c3-3.4,4.8-6.7,5.2-10l5.5-34.9C481.1,144.5,481.1,143.9,481.1,143.4z M460.7,179.1c-0.2,1.4-1.3,2.7-3.3,4s-3.8,1.9-5.3,1.9
		c-2,0-3.7-0.8-5-2.3c-1.3-1.5-1.8-3.3-1.4-5.4c0.2-1.5,1.1-3.1,2.7-4.9c1.6-1.8,3.1-2.7,4.5-2.7h9.2L460.7,179.1z"/>
	<path d="M333.8,88.9c1.5,0.8,2.9,1.2,4.4,1.2c1.7,0,3.3-0.4,4.9-1.2c2-0.9,3-2,3.2-3.4l7.9-49.8c0.3-1.8,1.6-3.3,4.1-4.5
		c2.1-1,4.2-1.5,6.3-1.5c0.2,0,0.9,0,1.9,0h1.9c2.7,0,4.6-0.5,5.8-1.6c1.2-1.1,2-3,2.5-5.8c0.1-0.8,0.2-1.7,0.2-2.4
		c0-2.4-0.9-3.9-2.8-4.5c-1-0.4-3-0.5-6-0.5c-10.8,0-19.2,4.2-25.1,12.5c-2,2.9-3.2,5.5-3.6,7.8l-8,50.4
		C331.3,86.8,332.1,88,333.8,88.9z"/>
	<path d="M195.9,79.8c3-3.4,4.8-6.7,5.2-10l5.5-34.9c0.1-0.5,0.2-1,0.2-1.6c0-3.8-1.5-7.6-4.5-11.4c-3-3.7-6.3-6-10.1-6.7
		c-1.8-0.3-3.5-0.5-4.9-0.5c-5.9,0-11.4,2.1-16.5,6.3c-2.6,2.2-4.8,4.7-6.5,7.4c-2,3.3-3,6.4-3,9.4c0,3.2,2.2,4.8,6.5,4.8
		c3.6,0,6.1-1.1,7.6-3.4c0.6-1.5,0.9-2.8,1.2-3.7c0.6-1.7,1.7-3.1,3.4-4.3c1.7-1.2,3.4-1.8,5.1-1.8c4.2,0,6.3,2.5,6.3,7.6
		c0,2.2-0.4,4.8-1.3,7.7c-1.5-0.2-2.9-0.3-4.4-0.3c-7.9,0-14.7,2.3-20.4,7c-6,5-9,11.4-9,19.2c0,5.6,1.8,10.2,5.4,13.8
		s8.2,5.4,13.8,5.4c3.4,0,7.3-1,11.6-3.1C190.3,85.3,193.2,83,195.9,79.8z M186.4,69.1c-0.2,1.4-1.3,2.7-3.3,4s-3.8,1.9-5.3,1.9
		c-2,0-3.7-0.8-5-2.3c-1.3-1.5-1.8-3.3-1.4-5.4c0.2-1.5,1.1-3.1,2.7-4.9c1.6-1.8,3.1-2.7,4.5-2.7h9.2L186.4,69.1z"/>
	<path d="M351.4,139.2c3.1-0.6,5-2.9,5.7-7.1c0.1-0.9,0.2-1.6,0.2-2.1c0-2.2-0.7-3.6-2.1-4.4c-1-0.6-2.7-0.8-5-0.8h-1.4
		c-0.6,0-1,0-1.4,0c-1.8,0-3.3-0.1-4.4-0.4l1.4-9.4c0-3.3-2.1-5-6.4-5c-1.3,0-2.8,0.4-4.5,1c-2.2,0.9-3.5,2.1-3.7,3.5l-10.3,65.3
		c-0.1,0.6-0.2,1.1-0.2,1.7c0,3.9,1.5,7.7,4.4,11.3c2.9,3.6,6.3,5.9,10.2,6.7c1.6,0.3,4.2,0.5,7.8,0.5c3.4,0,5.7-0.3,6.9-0.8
		c2.2-1,3.5-3.2,4.1-6.7c0.1-0.8,0.2-1.6,0.2-2.2c0-3.5-2.4-5.2-7.1-5.2h-2.7c-2.8,0-4.9-0.5-6.1-1.4c-1.3-1-2-2.7-2.3-5.3l6.4-38.7
		C344.4,139.5,347.9,139.3,351.4,139.2z"/>
</g>
<g>
	<linearGradient id="SVGID_1_" gradientUnits="userSpaceOnUse" x1="299.6488" y1="110.125" x2="322.0345" y2="110.125">
		<stop  offset="0" style="stop-color:#FF3C2A"/>
		<stop  offset="1" style="stop-color:#CB00FF"/>
	</linearGradient>
	<path class="st0" d="M301.3,112.8c5.8,0,11.2,1.4,15.9,4.1l0.7-4.3c0.3-2.3,1.5-6.1,5.3-9.3c-8.2,3.3-16.4,6.4-24.7,9.6
		C299.4,112.8,300.4,112.8,301.3,112.8z"/>
	<linearGradient id="SVGID_2_" gradientUnits="userSpaceOnUse" x1="273.9124" y1="121.7999" x2="279.3622" y2="121.7999">
		<stop  offset="0" style="stop-color:#FF3C2A"/>
		<stop  offset="1" style="stop-color:#CB00FF"/>
	</linearGradient>
	<path class="st1" d="M279.6,119.9c-2,0.7-4,1.5-6,2.2c0.5,0.5,1,1.1,1.4,1.6c0.5-0.4,0.9-0.9,1.4-1.3
		C277.5,121.5,278.6,120.7,279.6,119.9z"/>
	<linearGradient id="SVGID_3_" gradientUnits="userSpaceOnUse" x1="348.1678" y1="99.4769" x2="362.9601" y2="99.4769">
		<stop  offset="0" style="stop-color:#FF3C2A"/>
		<stop  offset="1" style="stop-color:#CB00FF"/>
	</linearGradient>
	<path class="st2" d="M363.7,102.1c-2.5-4-3.9-8.6-4.2-13.5c-0.6,0.2-1.1,0.5-1.7,0.7c-0.9,3.2-3.3,7.6-9.5,10.5
		c-0.3,0.1-0.6,0.3-0.9,0.4c4.5,2.3,7.2,6.2,8.3,10.3c0.8-0.3,1.5-0.6,2.3-1C359.3,106.5,361.2,104,363.7,102.1z"/>
	<linearGradient id="SVGID_4_" gradientUnits="userSpaceOnUse" x1="8.1694" y1="142.4704" x2="168.0217" y2="142.4704">
		<stop  offset="0" style="stop-color:#FF3C2A"/>
		<stop  offset="1" style="stop-color:#CB00FF"/>
	</linearGradient>
	<path class="st3" d="M176.3,152.2c-4.6,1.2-9.2,2.4-13.9,3.6c-19.4,5-39.2,9.7-59.3,9.7c-10.4-0.3-21.4-1.9-30.2-8
		c-11.1-7.7-12.7-19.7-9.3-31.9c2.5-7.7,6.2-14.9,10.3-21.9c5.2-8.7,12.1-18.2,18-25c1.5-1,2.5-2.2,2.9-3.8c0.6-1.1,0.1-1.4-1.5-0.8
		c-3.4-0.3-13.7,7.3-15.7,8.6C69.4,88,61.3,93.7,53.5,99.8c-6,4.7-12.6,9.3-17.6,15c-18.7,21.4-62.5,79.2-13.6,93.5
		c15.9,4.7,33.6,2.7,49.6,0c15.1-2.6,29.7-6.7,44.5-10.5c20.1-5.1,40-10.8,59.8-17.1V152.2z"/>
	<linearGradient id="SVGID_5_" gradientUnits="userSpaceOnUse" x1="438.8148" y1="92.4376" x2="631.8651" y2="92.4376">
		<stop  offset="0" style="stop-color:#FF3C2A"/>
		<stop  offset="1" style="stop-color:#CB00FF"/>
	</linearGradient>
	<path class="st4" d="M601.4,10.1c-22.4,1-45,5.9-66.6,11.6c-34.9,9.3-68.7,22-102,35.7l-3.8,24.2c16.1-5.6,32.4-10.7,48.9-15.1
		c22.4-5.9,46.3-11.1,69.6-11.3c8,0.2,16.4,1.2,23.1,5.7c8.9,5.9,10.3,15.8,7.8,25.5c-3.2,9.5-9.1,17.9-15.2,25.8
		c-6.7,8.7-12.8,16-19.9,23.8c-7.6,8.3-15.6,16.3-23.7,24.1c-0.3,0.3-0.6,0.6-0.8,0.8c-0.9,0.9-1.8,1.7-2.7,2.6c-2,1.9-4,3.7-6,5.6
		c-0.4,0.4-0.8,0.8-1.3,1.1l-0.4,2.7c0.6,0,1.3,0,2,0.1l0.7,0l0.7,0.1c1.8,0.3,3.5,0.8,5,1.6c9.4-6.5,18.5-13.6,27-21.2
		c20.3-18.2,40.5-36.6,58.7-56.9c8.6-9.5,16.8-19.4,24.5-29.7c6.8-9.1,13.3-19.3,14.8-30.8C644.7,12.8,618.7,9.3,601.4,10.1z"/>
</g>
</svg>
