<?xml version="1.0" encoding="utf-8"?>
<!-- Generator: Adobe Illustrator 22.0.1, SVG Export Plug-In . SVG Version: 6.00 Build 0)  -->
<svg version="1.1" id="Layer_1" xmlns="http://www.w3.org/2000/svg" xmlns:xlink="http://www.w3.org/1999/xlink" x="0px" y="0px"
	 viewBox="0 0 374.1 191.3" style="enable-background:new 0 0 374.1 191.3;" xml:space="preserve">
<g>
	<path d="M52.1,58c0,7.3-2.4,13.2-7.1,17.6c-4.8,4.5-11.1,6.7-18.9,6.7H0.9C0.3,82.3,0,82,0,81.5V2.6C0,2,0.3,1.7,0.9,1.7h18.8
		c16,0,25.1,7.6,25.1,20.9c0,8.1-3.8,13.6-10.7,15.4C45.6,38.3,52.1,45.6,52.1,58z M15.7,15.1v18.8h4.4c5.5,0,8.8-3.6,8.8-9.4
		c0-5.7-3.4-9.3-8.8-9.3H15.7z M24,68.8c8.2,0,12.3-3.6,12.3-10.9c0-7.2-4.5-10.9-13.3-10.9h-7.2v21.7H24z"/>
	<path d="M77.1,78.6c-6.2-3.6-11.1-8.6-14.5-15c-3.5-6.3-5.2-13.6-5.2-21.7c0-8,1.8-15.2,5.3-21.6C66.1,14,71,9,77.2,5.4
		C83.5,1.8,90.4,0,98.3,0c7.9,0,15,1.8,21.2,5.5c6.2,3.7,11.1,8.7,14.5,15.1c3.4,6.4,5.1,13.6,5.1,21.5c0,11.8-4.4,22.6-11.5,30
		c-3.6,3.7-7.9,6.6-13,8.8C109.5,83,104.1,84,98.3,84C90.3,84,83.3,82.3,77.1,78.6z M123.3,42c-0.1-8.1-2.5-14.8-7.2-20.2
		c-4.7-5.4-10.6-8-17.8-8c-7.3,0-13.3,2.6-18,7.8s-7,12.1-7,20.5c0,8.3,2.3,15.1,6.9,20.4c4.6,5.3,10.6,7.9,18.2,7.9
		C112.6,70.6,123.7,57.9,123.3,42z"/>
	<path d="M148.8,82.3c-0.6,0-0.9-0.3-0.9-0.8V2.6c0-0.6,0.3-0.8,0.9-0.8h13.2c0.5,0,0.8,0.2,1,0.5l37.1,51.7
		c-0.3-1.5-0.4-3.8-0.4-6.9V2.6c0-0.6,0.3-0.8,0.8-0.8h14c0.6,0,0.9,0.3,0.9,0.8v78.9c0,0.6-0.3,0.8-0.9,0.8h-13
		c-0.5,0-0.8-0.2-1-0.5l-37.4-51.5c0.3,1.5,0.4,3.8,0.4,6.9v44.3c0,0.6-0.3,0.8-0.8,0.8H148.8z"/>
	<path d="M226.8,82.3c-0.6,0-0.9-0.3-0.9-0.8V2.6c0-0.6,0.3-0.8,0.9-0.8H241c0.6,0,0.9,0.3,0.9,0.8v78.9c0,0.6-0.3,0.8-0.9,0.8
		H226.8z"/>
	<path d="M291.3,1.7c0.6,0,0.8,0.3,0.8,0.8v12.3c0,0.6-0.3,0.8-0.8,0.8h-14.2v65.8c0,0.6-0.3,0.8-0.8,0.8H262
		c-0.6,0-0.8-0.3-0.8-0.8V15.7H247c-0.6,0-0.9-0.3-0.9-0.8V2.6c0-0.6,0.3-0.8,0.9-0.8H291.3z"/>
	<path d="M312,78.6c-6.2-3.6-11.1-8.6-14.5-15c-3.5-6.3-5.2-13.6-5.2-21.7c0-8,1.8-15.2,5.3-21.6c3.5-6.4,8.3-11.4,14.6-15
		c6.2-3.6,13.2-5.4,21-5.4c7.9,0,15,1.8,21.2,5.5c6.2,3.7,11.1,8.7,14.5,15.1c3.4,6.4,5.1,13.6,5.1,21.5c0,11.8-4.4,22.6-11.5,30
		c-3.6,3.7-7.9,6.6-13,8.8C344.4,83,339,84,333.1,84C325.2,84,318.2,82.3,312,78.6z M358.2,42c-0.1-8.1-2.5-14.8-7.2-20.2
		c-4.7-5.4-10.6-8-17.8-8c-7.3,0-13.3,2.6-18,7.8s-7,12.1-7,20.5c0,8.3,2.3,15.1,6.9,20.4c4.6,5.3,10.6,7.9,18.2,7.9
		C347.5,70.6,358.6,57.9,358.2,42z"/>
	<path d="M70.7,110.7c0.6,0,0.8,0.3,0.8,0.8v12.3c0,0.6-0.3,0.8-0.8,0.8H56.4v65.8c0,0.6-0.3,0.8-0.8,0.8H41.4
		c-0.6,0-0.8-0.3-0.8-0.8v-65.8H26.4c-0.6,0-0.9-0.3-0.9-0.8v-12.3c0-0.6,0.3-0.8,0.9-0.8H70.7z"/>
	<path d="M140.8,190.3c0.2,0.6-0.1,1-0.7,1h-15.8c-0.5,0-0.8-0.3-1-0.7l-8.9-28H94.5l-8.8,28c-0.2,0.5-0.5,0.7-1,0.7H69.1
		c-0.6,0-0.9-0.4-0.7-1l28.1-78.9c0.2-0.5,0.5-0.7,1-0.7h14.2c0.5,0,0.8,0.2,0.9,0.7L140.8,190.3z M98.5,149.7h11.8l-3.1-9.8
		c-1.4-4.5-2.3-8.6-2.8-12.3c-0.2,2.8-1.2,6.9-2.8,12.2L98.5,149.7z"/>
	<path d="M182.9,110.7c0.6,0,0.8,0.3,0.8,0.8v12.3c0,0.6-0.3,0.8-0.8,0.8h-14.2v65.8c0,0.6-0.3,0.8-0.8,0.8h-14.2
		c-0.6,0-0.8-0.3-0.8-0.8v-65.8h-14.2c-0.6,0-0.9-0.3-0.9-0.8v-12.3c0-0.6,0.3-0.8,0.9-0.8H182.9z"/>
	<path d="M253,190.3c0.2,0.6-0.1,1-0.7,1h-15.8c-0.5,0-0.8-0.3-1-0.7l-8.9-28h-19.9l-8.8,28c-0.2,0.5-0.5,0.7-1,0.7h-15.6
		c-0.6,0-0.9-0.4-0.7-1l28.1-78.9c0.2-0.5,0.5-0.7,1-0.7h14.2c0.5,0,0.8,0.2,0.9,0.7L253,190.3z M210.7,149.7h11.8l-3.1-9.8
		c-1.4-4.5-2.3-8.6-2.8-12.3c-0.2,2.8-1.2,6.9-2.8,12.2L210.7,149.7z"/>
	<path d="M322.4,190.3c0.4,0.6,0.2,1-0.5,1h-18.6c-0.5,0-0.8-0.2-1-0.5l-28.5-40.1v39.8c0,0.6-0.3,0.8-0.8,0.8h-14
		c-0.6,0-0.9-0.3-0.9-0.8v-78.9c0-0.6,0.3-0.8,0.9-0.8h14c0.6,0,0.8,0.3,0.8,0.8v31.8l26.6-32.2c0.2-0.3,0.6-0.5,1-0.5h19.1
		c0.7,0,0.9,0.5,0.5,1l-28.3,31.9c-1.4,1.6-2.7,2.6-3.7,3c1.2,0.3,2.4,1.4,3.8,3.3L322.4,190.3z"/>
	<path d="M327.1,191.3c-0.6,0-0.9-0.3-0.9-0.8v-78.9c0-0.6,0.3-0.8,0.9-0.8h14.2c0.6,0,0.9,0.3,0.9,0.8v78.9c0,0.6-0.3,0.8-0.9,0.8
		H327.1z"/>
</g>
</svg>
