<?xml version="1.0" encoding="utf-8"?>
<!-- Generator: Adobe Illustrator 22.0.1, SVG Export Plug-In . SVG Version: 6.00 Build 0)  -->
<svg version="1.1" id="Layer_1" xmlns="http://www.w3.org/2000/svg" xmlns:xlink="http://www.w3.org/1999/xlink" x="0px" y="0px"
	 viewBox="0 0 400 170.8" style="enable-background:new 0 0 400 170.8;" xml:space="preserve">
<g>
	<path d="M93.1,36.3c0.5,0,0.8,0.2,0.8,0.8c-0.2,13.1-5.3,25-14.4,32.6c-6,5-14.4,8.1-23.8,8.1c-7.4,0-14.1-1.7-19.9-5.1
		c-5.9-3.3-10.5-8-13.8-13.9c-3.3-5.9-4.9-12.5-4.9-19.8c0-7.6,1.6-14.4,5-20.3c3.3-5.9,8-10.5,14-13.7C42,1.6,48.8,0,56.4,0
		C63,0,69.2,1.6,74.8,4.8c5.6,3.2,10.1,7.7,13.6,13.4c0.3,0.4,0.2,0.8-0.3,1.1l-10.8,6.4c-0.5,0.3-0.9,0.2-1.1-0.3
		c-4.4-8.1-11.7-12.7-20.1-12.7c-4.4,0-8.4,1.1-12.1,3.4c-3.7,2.3-6.7,5.4-8.9,9.4c-2.2,4-3.3,8.5-3.3,13.3c0,7.5,2.2,13.8,6.6,18.7
		c4.4,4.9,10.1,7.4,17.1,7.4c11,0,18.8-5.7,21.4-15.6H55.9c-0.5,0-0.8-0.2-0.8-0.8V37.1c0-0.5,0.2-0.8,0.8-0.8H93.1z"/>
	<path d="M155.3,75c0.4,0.5,0.1,1-0.5,1H139c-0.4,0-0.7-0.1-0.9-0.5l-21.3-29.9h-2.1v29.7c0,0.5-0.2,0.8-0.8,0.8H101
		c-0.5,0-0.8-0.2-0.8-0.8v-73c0-0.5,0.3-0.8,0.8-0.8h17c9,0,16,1.9,20.9,5.8c4.9,3.8,7.4,9.3,7.4,16.3c0,10.3-4.7,17-14.1,20.1
		L155.3,75z M114.7,13.9v19.4h5.3c7.4,0,11.5-3.5,11.5-9.6c0-6.2-4.6-9.8-12.5-9.8H114.7z"/>
	<path d="M159.5,76.1c-0.5,0-0.8-0.2-0.8-0.8v-73c0-0.5,0.3-0.8,0.8-0.8h13.1c0.5,0,0.8,0.2,0.8,0.8v73c0,0.5-0.3,0.8-0.8,0.8H159.5
		z"/>
	<path d="M224.4,62.6c0.5,0,0.8,0.3,0.8,0.8v11.9c0,0.5-0.3,0.8-0.8,0.8h-40.5c-0.5,0-0.8-0.2-0.8-0.8v-73c0-0.5,0.3-0.8,0.8-0.8
		H197c0.5,0,0.8,0.2,0.8,0.8v60.2H224.4z"/>
	<path d="M271.1,62.6c0.5,0,0.8,0.3,0.8,0.8v11.9c0,0.5-0.3,0.8-0.8,0.8h-40.5c-0.5,0-0.8-0.2-0.8-0.8v-73c0-0.5,0.3-0.8,0.8-0.8
		h13.1c0.5,0,0.8,0.2,0.8,0.8v60.2H271.1z"/>
	<path d="M318.8,63.6c0.5,0,0.8,0.2,0.8,0.8v11c0,0.5-0.2,0.8-0.8,0.8h-41.5c-0.5,0-0.8-0.2-0.8-0.8v-73c0-0.5,0.3-0.8,0.8-0.8h39.8
		c0.5,0,0.8,0.2,0.8,0.8v10.8c0,0.5-0.2,0.8-0.8,0.8H291V31h24.2c0.5,0,0.8,0.3,0.8,0.8v10.3c0,0.5-0.2,0.8-0.8,0.8H291v20.7H318.8z
		"/>
	<path d="M342.8,1.6c24.5-0.2,40.4,15,40.1,37.3c0.3,22.2-15.6,37.4-40.1,37.3h-17c-0.5,0-0.8-0.2-0.8-0.8v-73
		c0-0.5,0.3-0.8,0.8-0.8H342.8z M343.8,63.8c7.5,0,13.5-2.3,17.9-6.8c4.4-4.6,6.5-10.6,6.5-18.1s-2.2-13.5-6.5-18.1
		c-4.4-4.6-10.4-6.8-17.9-6.8h-4.3v49.9H343.8z"/>
	<path d="M174.8,157.6c0.5,0,0.8,0.2,0.8,0.8v11c0,0.5-0.2,0.8-0.8,0.8h-41.5c-0.5,0-0.8-0.2-0.8-0.8v-73c0-0.5,0.3-0.8,0.8-0.8
		h39.8c0.5,0,0.8,0.2,0.8,0.8v10.8c0,0.5-0.2,0.8-0.8,0.8h-26.1V125h24.2c0.5,0,0.8,0.3,0.8,0.8v10.3c0,0.5-0.2,0.8-0.8,0.8h-24.2
		v20.7H174.8z"/>
	<path d="M223.3,157.6c0.5,0,0.8,0.2,0.8,0.8v11c0,0.5-0.2,0.8-0.8,0.8h-41.5c-0.5,0-0.8-0.2-0.8-0.8v-73c0-0.5,0.3-0.8,0.8-0.8
		h39.8c0.5,0,0.8,0.2,0.8,0.8v10.8c0,0.5-0.2,0.8-0.8,0.8h-26.1V125h24.2c0.5,0,0.8,0.3,0.8,0.8v10.3c0,0.5-0.2,0.8-0.8,0.8h-24.2
		v20.7H223.3z"/>
	<path d="M270.9,156.6c0.5,0,0.8,0.3,0.8,0.8v11.9c0,0.5-0.3,0.8-0.8,0.8h-40.5c-0.5,0-0.8-0.2-0.8-0.8v-73c0-0.5,0.3-0.8,0.8-0.8
		h13.1c0.5,0,0.8,0.2,0.8,0.8v60.2H270.9z"/>
</g>
</svg>
