<?xml version="1.0" encoding="utf-8"?>
<!-- Generator: Adobe Illustrator 22.0.1, SVG Export Plug-In . SVG Version: 6.00 Build 0)  -->
<svg version="1.1" id="Layer_1" xmlns="http://www.w3.org/2000/svg" xmlns:xlink="http://www.w3.org/1999/xlink" x="0px" y="0px"
	 viewBox="0 0 400 171.3" style="enable-background:new 0 0 400 171.3;" xml:space="preserve">
<g>
	<path d="M138.9,63.6c0.5,0,0.8,0.2,0.8,0.8v11c0,0.5-0.2,0.8-0.8,0.8H97.4c-0.5,0-0.8-0.2-0.8-0.8v-73c0-0.5,0.3-0.8,0.8-0.8h39.8
		c0.5,0,0.8,0.2,0.8,0.8v10.8c0,0.5-0.2,0.8-0.8,0.8h-26.1V31h24.2c0.5,0,0.8,0.3,0.8,0.8v10.3c0,0.5-0.2,0.8-0.8,0.8h-24.2v20.7
		H138.9z"/>
	<path d="M218.5,36.3c0.5,0,0.8,0.2,0.8,0.8c-0.2,13.1-5.3,25-14.4,32.6c-6,5-14.4,8.1-23.8,8.1c-7.4,0-14.1-1.7-19.9-5.1
		c-5.9-3.3-10.5-8-13.8-13.9c-3.3-5.9-4.9-12.5-4.9-19.8c0-7.6,1.6-14.4,5-20.3c3.3-5.9,8-10.5,14-13.7c6-3.3,12.8-4.9,20.4-4.9
		c6.6,0,12.8,1.6,18.4,4.8c5.6,3.2,10.1,7.7,13.6,13.4c0.3,0.4,0.2,0.8-0.3,1.1l-10.8,6.4c-0.5,0.3-0.9,0.2-1.1-0.3
		c-4.4-8.1-11.7-12.7-20.1-12.7c-4.4,0-8.4,1.1-12.1,3.4c-3.7,2.3-6.7,5.4-8.9,9.4c-2.2,4-3.3,8.5-3.3,13.3c0,7.5,2.2,13.8,6.6,18.7
		C168.3,62.5,174,65,181,65c11,0,18.8-5.7,21.4-15.6h-21.1c-0.5,0-0.8-0.2-0.8-0.8V37.1c0-0.5,0.2-0.8,0.8-0.8H218.5z"/>
	<path d="M300.6,36.3c0.5,0,0.8,0.2,0.8,0.8c-0.2,13.1-5.3,25-14.4,32.6c-6,5-14.4,8.1-23.8,8.1c-7.4,0-14.1-1.7-19.9-5.1
		c-5.9-3.3-10.5-8-13.8-13.9c-3.3-5.9-4.9-12.5-4.9-19.8c0-7.6,1.6-14.4,5-20.3c3.3-5.9,8-10.5,14-13.7c6-3.3,12.8-4.9,20.4-4.9
		c6.6,0,12.8,1.6,18.4,4.8c5.6,3.2,10.1,7.7,13.6,13.4c0.3,0.4,0.2,0.8-0.3,1.1l-10.8,6.4c-0.5,0.3-0.9,0.2-1.1-0.3
		c-4.4-8.1-11.7-12.7-20.1-12.7c-4.4,0-8.4,1.1-12.1,3.4c-3.7,2.3-6.7,5.4-8.9,9.4s-3.3,8.5-3.3,13.3c0,7.5,2.2,13.8,6.6,18.7
		c4.4,4.9,10.1,7.4,17.1,7.4c11,0,18.8-5.7,21.4-15.6h-21.1c-0.5,0-0.8-0.2-0.8-0.8V37.1c0-0.5,0.2-0.8,0.8-0.8H300.6z"/>
	<path d="M44.3,166.7c-5.8-3.3-10.2-7.9-13.4-13.8c-3.2-5.9-4.8-12.6-4.8-20c0-7.4,1.6-14,4.9-20c3.3-5.9,7.7-10.5,13.5-13.9
		s12.2-5,19.5-5c7.3,0,13.9,1.7,19.6,5c5.8,3.4,10.2,8.1,13.4,13.9c3.2,5.9,4.8,12.6,4.8,19.9c0,10.9-4.1,20.9-10.7,27.7
		c-3.3,3.4-7.3,6.1-12,8.1c-4.7,2-9.8,3-15.1,3C56.6,171.7,50.1,170.1,44.3,166.7z M87,132.8c-0.1-7.5-2.3-13.7-6.7-18.7
		c-4.4-4.9-9.8-7.4-16.4-7.4c-6.7,0-12.3,2.4-16.6,7.2c-4.3,4.8-6.5,11.2-6.5,19c0,7.7,2.1,14,6.4,18.8c4.2,4.9,9.8,7.3,16.8,7.3
		C77.2,159.2,87.5,147.5,87,132.8z"/>
	<path d="M104.1,170.1c-0.5,0-0.8-0.3-0.7-0.9l15.5-73c0.1-0.4,0.4-0.7,0.9-0.7h10.7c0.4,0,0.8,0.2,0.9,0.7l12,37.4
		c0.7,2.3,1.2,4.6,1.4,6.8c0-2,0.5-4.3,1.3-6.8l12.2-37.5c0.1-0.4,0.4-0.6,0.9-0.6h10.4c0.5,0,0.8,0.2,0.9,0.7l15.4,73
		c0.1,0.6-0.1,0.9-0.7,0.9h-13.1c-0.5,0-0.8-0.2-0.9-0.7l-7.8-39.1c-0.7-3.3-1.1-5.9-1.3-7.5c-0.2,1.6-0.9,4.1-2.1,7.6l-12.9,39.1
		c-0.1,0.4-0.4,0.6-0.9,0.6h-2.9c-0.4,0-0.7-0.2-0.9-0.6l-13.1-39.1c-1.1-3.4-1.8-6-2.1-7.6c0,1.4-0.5,3.8-1.2,7.5l-7.8,39.1
		c-0.1,0.5-0.4,0.7-0.9,0.7H104.1z"/>
	<path d="M233.7,157.6c0.5,0,0.8,0.2,0.8,0.8v11c0,0.5-0.2,0.8-0.8,0.8h-41.5c-0.5,0-0.8-0.2-0.8-0.8v-73c0-0.5,0.3-0.8,0.8-0.8H232
		c0.5,0,0.8,0.2,0.8,0.8v10.8c0,0.5-0.2,0.8-0.8,0.8h-26.1V125H230c0.5,0,0.8,0.3,0.8,0.8v10.3c0,0.5-0.2,0.8-0.8,0.8h-24.2v20.7
		H233.7z"/>
	<path d="M281.4,156.6c0.5,0,0.8,0.3,0.8,0.8v11.9c0,0.5-0.3,0.8-0.8,0.8h-40.5c-0.5,0-0.8-0.2-0.8-0.8v-73c0-0.5,0.3-0.8,0.8-0.8
		H254c0.5,0,0.8,0.2,0.8,0.8v60.2H281.4z"/>
	<path d="M329.2,157.6c0.5,0,0.8,0.2,0.8,0.8v11c0,0.5-0.2,0.8-0.8,0.8h-41.5c-0.5,0-0.8-0.2-0.8-0.8v-73c0-0.5,0.3-0.8,0.8-0.8
		h39.8c0.5,0,0.8,0.2,0.8,0.8v10.8c0,0.5-0.2,0.8-0.8,0.8h-26.1V125h24.2c0.5,0,0.8,0.3,0.8,0.8v10.3c0,0.5-0.2,0.8-0.8,0.8h-24.2
		v20.7H329.2z"/>
	<path d="M373.2,95.6c0.5,0,0.8,0.2,0.8,0.8v11.4c0,0.5-0.2,0.8-0.8,0.8H360v60.8c0,0.5-0.2,0.8-0.8,0.8h-13.1
		c-0.5,0-0.8-0.2-0.8-0.8v-60.8h-13.1c-0.5,0-0.8-0.2-0.8-0.8V96.4c0-0.5,0.3-0.8,0.8-0.8H373.2z"/>
</g>
</svg>
