<?xml version="1.0" encoding="utf-8"?>
<!-- Generator: Adobe Illustrator 22.0.1, SVG Export Plug-In . SVG Version: 6.00 Build 0)  -->
<svg version="1.1" id="Layer_1" xmlns="http://www.w3.org/2000/svg" xmlns:xlink="http://www.w3.org/1999/xlink" x="0px" y="0px"
	 viewBox="0 0 400.3 171.7" style="enable-background:new 0 0 400.3 171.7;" xml:space="preserve">
<g>
	<path d="M56.4,72.7c-5.8-3.3-10.2-7.9-13.4-13.8c-3.2-5.9-4.8-12.6-4.8-20c0-7.4,1.6-14,4.9-20C46.3,13,50.8,8.3,56.5,5
		S68.8,0,76,0c7.3,0,13.9,1.7,19.6,5c5.8,3.4,10.2,8.1,13.4,13.9c3.2,5.9,4.8,12.6,4.8,19.9c0,10.9-4.1,20.9-10.7,27.7
		c-3.3,3.4-7.3,6.1-12,8.1c-4.7,2-9.8,3-15.1,3C68.7,77.7,62.2,76.1,56.4,72.7z M99.1,38.9c-0.1-7.5-2.3-13.7-6.7-18.7
		c-4.4-4.9-9.8-7.4-16.4-7.4c-6.7,0-12.3,2.4-16.6,7.2c-4.3,4.8-6.5,11.2-6.5,19c0,7.7,2.1,14,6.4,18.8C63.4,62.6,69,65,76,65
		C89.2,65.2,99.6,53.5,99.1,38.9z"/>
	<path d="M122.7,76.1c-0.5,0-0.8-0.2-0.8-0.8v-73c0-0.5,0.3-0.8,0.8-0.8h12.2c0.4,0,0.7,0.1,1,0.5l34.3,47.8
		c-0.2-1.4-0.4-3.5-0.4-6.4V2.4c0-0.5,0.2-0.8,0.8-0.8h12.9c0.5,0,0.8,0.2,0.8,0.8v73c0,0.5-0.3,0.8-0.8,0.8h-12
		c-0.4,0-0.7-0.1-1-0.5L136,28c0.2,1.4,0.4,3.5,0.4,6.4v40.9c0,0.5-0.2,0.8-0.8,0.8H122.7z"/>
	<path d="M194.9,76.1c-0.5,0-0.8-0.2-0.8-0.8v-73c0-0.5,0.3-0.8,0.8-0.8H208c0.5,0,0.8,0.2,0.8,0.8v73c0,0.5-0.3,0.8-0.8,0.8H194.9z
		"/>
	<path d="M234.8,72.7c-5.8-3.3-10.2-7.9-13.4-13.8c-3.2-5.9-4.8-12.6-4.8-20c0-7.4,1.6-14,4.9-20c3.3-5.9,7.7-10.5,13.5-13.9
		s12.2-5,19.5-5c7.3,0,13.9,1.7,19.6,5c5.8,3.4,10.2,8.1,13.4,13.9c3.2,5.9,4.8,12.6,4.8,19.9c0,10.9-4.1,20.9-10.7,27.7
		c-3.3,3.4-7.3,6.1-12,8.1c-4.7,2-9.8,3-15.1,3C247.1,77.7,240.6,76.1,234.8,72.7z M277.5,38.9c-0.1-7.5-2.3-13.7-6.7-18.7
		c-4.4-4.9-9.8-7.4-16.4-7.4c-6.7,0-12.3,2.4-16.6,7.2c-4.3,4.8-6.5,11.2-6.5,19c0,7.7,2.1,14,6.4,18.8c4.2,4.9,9.8,7.3,16.8,7.3
		C267.6,65.2,278,53.5,277.5,38.9z"/>
	<path d="M301.1,76.1c-0.5,0-0.8-0.2-0.8-0.8v-73c0-0.5,0.3-0.8,0.8-0.8h12.2c0.4,0,0.7,0.1,1,0.5l34.3,47.8
		c-0.2-1.4-0.4-3.5-0.4-6.4V2.4c0-0.5,0.2-0.8,0.8-0.8h12.9c0.5,0,0.8,0.2,0.8,0.8v73c0,0.5-0.3,0.8-0.8,0.8h-12
		c-0.4,0-0.7-0.1-1-0.5L314.4,28c0.2,1.4,0.4,3.5,0.4,6.4v40.9c0,0.5-0.2,0.8-0.8,0.8H301.1z"/>
	<path d="M11.8,168.3c-4.6-2.2-8.4-5.4-11.5-9.5c-0.3-0.4-0.3-0.8,0-1.1l8.3-9.1c0.4-0.4,0.8-0.4,1.1,0c4.5,6.2,10.6,9.7,17,9.7
		c5.9,0,9.8-3.4,9.8-8.7c-0.2-4.2-1.1-6.2-4.9-8.4c-1.3-0.7-2.7-1.4-4.2-1.9s-3.5-1.3-6.1-2.1c-12.6-4.2-18.6-11.3-18.6-22.6
		c0-5.9,2.2-10.8,6.7-14.7c4.5-3.9,10-5.9,16.7-5.9c7.3,0,14.1,2.4,18.9,6.6c0.3,0.3,0.4,0.6,0.1,1.1l-6.3,10.1
		c-0.3,0.5-0.7,0.6-1.1,0.1c-3.3-3.4-7.1-5.2-11.4-5.2c-5.4,0-9.1,3.1-9.1,7.7c0.2,4,1.7,5.7,5.2,7.2c2.4,1.1,4.4,1.6,8.1,2.9
		c1.8,0.6,3.5,1.3,5,2c11.1,4.9,15.9,12,15.9,22.7c0,6.7-2.3,12.1-6.9,16.3c-4.6,4.2-10.7,6.3-18.1,6.3
		C21.3,171.7,16.4,170.6,11.8,168.3z"/>
	<path d="M120.6,169.2c0.2,0.5-0.1,0.9-0.7,0.9h-14.6c-0.4,0-0.8-0.2-0.9-0.7l-8.2-25.9H77.7l-8.1,25.9c-0.1,0.4-0.5,0.7-0.9,0.7
		H54.3c-0.6,0-0.9-0.4-0.7-0.9l26-73c0.1-0.4,0.4-0.6,0.9-0.6h13.1c0.4,0,0.7,0.2,0.9,0.6L120.6,169.2z M81.5,131.6h10.9l-2.9-9
		c-1.3-4.1-2.1-7.9-2.6-11.4c-0.2,2.6-1.1,6.4-2.6,11.3L81.5,131.6z"/>
	<path d="M166.5,156.6c0.5,0,0.8,0.3,0.8,0.8v11.9c0,0.5-0.3,0.8-0.8,0.8H126c-0.5,0-0.8-0.2-0.8-0.8v-73c0-0.5,0.3-0.8,0.8-0.8
		h13.1c0.5,0,0.8,0.2,0.8,0.8v60.2H166.5z"/>
	<path d="M170.6,170.1c-0.5,0-0.8-0.3-0.7-0.9l15.5-73c0.1-0.4,0.4-0.7,0.9-0.7H197c0.4,0,0.8,0.2,0.9,0.7l12,37.4
		c0.7,2.3,1.2,4.6,1.4,6.8c0-2,0.5-4.3,1.3-6.8l12.2-37.5c0.1-0.4,0.4-0.6,0.9-0.6h10.4c0.5,0,0.8,0.2,0.9,0.7l15.4,73
		c0.1,0.6-0.1,0.9-0.7,0.9h-13.1c-0.5,0-0.8-0.2-0.9-0.7l-7.8-39.1c-0.7-3.3-1.1-5.9-1.3-7.5c-0.2,1.6-0.9,4.1-2.1,7.6l-12.9,39.1
		c-0.1,0.4-0.4,0.6-0.9,0.6h-2.9c-0.4,0-0.7-0.2-0.9-0.6l-13.1-39.1c-1.1-3.4-1.8-6-2.1-7.6c0,1.4-0.5,3.8-1.2,7.5l-7.8,39.1
		c-0.1,0.5-0.4,0.7-0.9,0.7H170.6z"/>
	<path d="M272.4,166.7c-5.8-3.3-10.2-7.9-13.4-13.8c-3.2-5.9-4.8-12.6-4.8-20c0-7.4,1.6-14,4.9-20c3.3-5.9,7.7-10.5,13.5-13.9
		s12.2-5,19.5-5c7.3,0,13.9,1.7,19.6,5c5.8,3.4,10.2,8.1,13.4,13.9c3.2,5.9,4.8,12.6,4.8,19.9c0,10.9-4.1,20.9-10.7,27.7
		c-3.3,3.4-7.3,6.1-12,8.1c-4.7,2-9.8,3-15.1,3C284.7,171.7,278.2,170,272.4,166.7z M315.1,132.8c-0.1-7.5-2.3-13.7-6.7-18.7
		c-4.4-4.9-9.8-7.4-16.4-7.4c-6.7,0-12.3,2.4-16.6,7.2c-4.3,4.8-6.5,11.2-6.5,19c0,7.7,2.1,14,6.4,18.8c4.2,4.9,9.8,7.3,16.8,7.3
		C305.2,159.2,315.6,147.5,315.1,132.8z"/>
	<path d="M338.7,170.1c-0.5,0-0.8-0.2-0.8-0.8v-73c0-0.5,0.3-0.8,0.8-0.8h12.2c0.4,0,0.7,0.1,1,0.5l34.3,47.8
		c-0.2-1.4-0.4-3.5-0.4-6.4V96.4c0-0.5,0.2-0.8,0.8-0.8h12.9c0.5,0,0.8,0.2,0.8,0.8v73c0,0.5-0.3,0.8-0.8,0.8h-12
		c-0.4,0-0.7-0.1-1-0.5L352,122c0.2,1.4,0.4,3.5,0.4,6.4v40.9c0,0.5-0.2,0.8-0.8,0.8H338.7z"/>
</g>
</svg>
