<?xml version="1.0" encoding="utf-8"?>
<!-- Generator: Adobe Illustrator 22.0.1, SVG Export Plug-In . SVG Version: 6.00 Build 0)  -->
<svg version="1.1" id="Layer_1" xmlns="http://www.w3.org/2000/svg" xmlns:xlink="http://www.w3.org/1999/xlink" x="0px" y="0px"
	 viewBox="0 0 464.3 193" style="enable-background:new 0 0 464.3 193;" xml:space="preserve">
<g>
	<path d="M63.7,80.4c-5-2.4-9.1-5.8-12.5-10.2c-0.3-0.5-0.3-0.8,0.1-1.2l9-9.9c0.5-0.5,0.8-0.4,1.2,0.1c4.9,6.7,11.5,10.5,18.4,10.5
		c6.3,0,10.5-3.7,10.5-9.4c-0.2-4.5-1.2-6.7-5.4-9.1c-1.4-0.8-2.9-1.5-4.6-2.1c-1.6-0.6-3.8-1.4-6.6-2.3
		c-13.6-4.6-20.1-12.2-20.1-24.4c0-6.3,2.4-11.6,7.3-15.9C65.9,2.1,71.9,0,79.2,0c7.9,0,15.2,2.6,20.5,7.1c0.4,0.3,0.4,0.7,0.2,1.2
		l-6.8,11c-0.4,0.6-0.7,0.6-1.2,0.1c-3.5-3.7-7.7-5.6-12.3-5.6c-5.9,0-9.8,3.3-9.8,8.3c0.2,4.3,1.8,6.2,5.6,7.8
		c2.6,1.2,4.8,1.7,8.8,3.1c1.9,0.7,3.8,1.4,5.4,2.2c12,5.2,17.2,13,17.2,24.5c0,7.2-2.5,13.1-7.5,17.7S87.6,84,79.6,84
		C73.9,84,68.6,82.8,63.7,80.4z"/>
	<path d="M173.5,1.7c0.6,0,0.8,0.3,0.8,0.8v78.9c0,0.6-0.3,0.8-0.8,0.8h-14c-0.6,0-0.9-0.3-0.9-0.8V47.2H130v34.3
		c0,0.6-0.3,0.8-0.8,0.8h-14c-0.6,0-0.9-0.3-0.9-0.8V2.6c0-0.6,0.3-0.8,0.9-0.8h14c0.6,0,0.8,0.3,0.8,0.8v31.1h28.7V2.6
		c0-0.6,0.3-0.8,0.9-0.8H173.5z"/>
	<path d="M185.8,82.3c-0.6,0-0.9-0.3-0.9-0.8V2.6c0-0.6,0.3-0.8,0.9-0.8H200c0.6,0,0.9,0.3,0.9,0.8v78.9c0,0.6-0.3,0.8-0.9,0.8
		H185.8z"/>
	<path d="M271.1,81.2c0.4,0.6,0.2,1-0.5,1h-17.1c-0.4,0-0.7-0.2-1-0.5l-23-32.4h-2.3v32.2c0,0.6-0.3,0.8-0.8,0.8h-14
		c-0.6,0-0.9-0.3-0.9-0.8V2.6c0-0.6,0.3-0.8,0.9-0.8h18.4c9.7,0,17.3,2.1,22.6,6.2c5.3,4.1,8,10,8,17.6c0,11.1-5.1,18.4-15.3,21.7
		L271.1,81.2z M227.1,15.1V36h5.7c8,0,12.5-3.8,12.5-10.4c0-6.7-4.9-10.5-13.5-10.5H227.1z"/>
	<path d="M273.7,82.3c-0.6,0-0.8-0.3-0.7-0.9l16.7-78.9c0.1-0.5,0.4-0.7,0.9-0.7h11.5c0.5,0,0.8,0.3,1,0.7l13,40.5
		c0.8,2.5,1.3,5,1.5,7.3c0.1-2.2,0.5-4.7,1.4-7.3l13.2-40.6c0.2-0.5,0.5-0.7,1-0.7h11.3c0.5,0,0.8,0.3,0.9,0.7l16.7,78.9
		c0.1,0.6-0.2,0.9-0.7,0.9h-14.2c-0.5,0-0.8-0.3-0.9-0.8l-8.4-42.3c-0.7-3.6-1.2-6.3-1.4-8.1c-0.3,1.7-1,4.4-2.3,8.2l-14,42.3
		c-0.2,0.5-0.5,0.7-1,0.7h-3.1c-0.5,0-0.8-0.2-0.9-0.7l-14.2-42.3c-1.2-3.7-2-6.5-2.3-8.2c-0.1,1.5-0.5,4.1-1.3,8.1l-8.4,42.3
		c-0.1,0.5-0.4,0.8-0.9,0.8H273.7z"/>
	<path d="M387.4,1.7c9.7,0,17.3,2.1,22.6,6.2c5.3,4.1,8,10,8,17.6c0,15.3-9.9,23.7-29.4,23.7h-4.7v32.2c0,0.6-0.3,0.8-0.8,0.8h-14
		c-0.6,0-0.9-0.3-0.9-0.8V2.6c0-0.6,0.3-0.8,0.9-0.8H387.4z M389.6,36c8,0,12.5-3.8,12.5-10.4c0-6.7-4.9-10.5-13.5-10.5h-4.7V36
		H389.6z"/>
	<path d="M45.2,110.7c0.6,0,0.8,0.3,0.8,0.8v12.3c0,0.6-0.3,0.8-0.8,0.8H31v65.8c0,0.6-0.3,0.8-0.8,0.8H15.9c-0.6,0-0.8-0.3-0.8-0.8
		v-65.8H0.9c-0.6,0-0.9-0.3-0.9-0.8v-12.3c0-0.6,0.3-0.8,0.9-0.8H45.2z"/>
	<path d="M96,177.8c0.6,0,0.8,0.3,0.8,0.8v11.9c0,0.6-0.3,0.8-0.8,0.8H51.1c-0.6,0-0.9-0.3-0.9-0.8v-78.9c0-0.6,0.3-0.8,0.9-0.8
		h43.1c0.6,0,0.8,0.3,0.8,0.8v11.6c0,0.6-0.3,0.8-0.8,0.8H65.9v18.5H92c0.6,0,0.8,0.3,0.8,0.9v11.2c0,0.6-0.3,0.8-0.8,0.8H65.9v22.3
		H96z"/>
	<path d="M101.8,191.3c-0.6,0-0.8-0.3-0.7-0.9l16.7-78.9c0.1-0.5,0.4-0.7,0.9-0.7h11.5c0.5,0,0.8,0.3,1,0.7l13,40.5
		c0.8,2.5,1.3,5,1.5,7.3c0.1-2.2,0.5-4.7,1.4-7.3l13.2-40.6c0.2-0.5,0.5-0.7,1-0.7h11.3c0.5,0,0.8,0.3,0.9,0.7l16.7,78.9
		c0.1,0.6-0.2,0.9-0.7,0.9h-14.2c-0.5,0-0.8-0.3-0.9-0.8l-8.4-42.3c-0.7-3.6-1.2-6.3-1.4-8.1c-0.3,1.7-1,4.4-2.3,8.2l-14,42.3
		c-0.2,0.5-0.5,0.7-1,0.7h-3.1c-0.5,0-0.8-0.2-0.9-0.7l-14.2-42.3c-1.2-3.7-2-6.5-2.3-8.2c-0.1,1.5-0.5,4.1-1.3,8.1l-8.4,42.3
		c-0.1,0.5-0.4,0.8-0.9,0.8H101.8z"/>
	<path d="M215.5,110.7c9.7,0,17.3,2.1,22.6,6.2c5.3,4.1,8,10,8,17.6c0,15.3-9.9,23.7-29.4,23.7h-4.7v32.2c0,0.6-0.3,0.8-0.8,0.8h-14
		c-0.6,0-0.9-0.3-0.9-0.8v-78.9c0-0.6,0.3-0.8,0.9-0.8H215.5z M217.6,145c8,0,12.5-3.8,12.5-10.4c0-6.7-4.9-10.5-13.5-10.5h-4.7V145
		H217.6z"/>
	<path d="M262.9,183.7c-6-6.2-9-14.5-9-24.8v-47.3c0-0.6,0.3-0.8,0.9-0.8h14c0.6,0,0.8,0.3,0.8,0.8v46.2c0,13.8,5.8,21.5,17.1,21.5
		c11.3,0,17.1-7.7,17.1-21.5v-46.2c0-0.6,0.3-0.8,0.8-0.8h14.2c0.6,0,0.9,0.3,0.9,0.8v47.3c0,10.3-3,18.6-9,24.8
		c-6,6.2-14.1,9.3-24,9.3S268.8,189.9,262.9,183.7z"/>
	<path d="M390,190.2c0.4,0.6,0.2,1-0.5,1h-17.1c-0.4,0-0.7-0.2-1-0.5l-23-32.4h-2.3v32.2c0,0.6-0.3,0.8-0.8,0.8h-14
		c-0.6,0-0.9-0.3-0.9-0.8v-78.9c0-0.6,0.3-0.8,0.9-0.8h18.4c9.7,0,17.3,2.1,22.6,6.2c5.3,4.1,8,10,8,17.6c0,11.1-5.1,18.4-15.3,21.7
		L390,190.2z M346.1,124.1V145h5.7c8,0,12.5-3.8,12.5-10.4c0-6.7-4.9-10.5-13.5-10.5H346.1z"/>
	<path d="M464.2,190.3c0.2,0.6-0.1,1-0.7,1h-15.8c-0.5,0-0.8-0.3-1-0.7l-8.9-28h-19.9l-8.8,28c-0.2,0.5-0.5,0.7-1,0.7h-15.6
		c-0.6,0-0.9-0.4-0.7-1l28.1-78.9c0.2-0.5,0.5-0.7,1-0.7h14.2c0.5,0,0.8,0.2,0.9,0.7L464.2,190.3z M422,149.7h11.8l-3.1-9.8
		c-1.4-4.5-2.3-8.6-2.8-12.3c-0.2,2.8-1.2,6.9-2.8,12.2L422,149.7z"/>
</g>
</svg>
