<?xml version="1.0" encoding="utf-8"?>
<!-- Generator: Adobe Illustrator 22.0.1, SVG Export Plug-In . SVG Version: 6.00 Build 0)  -->
<svg version="1.1" id="Layer_1" xmlns="http://www.w3.org/2000/svg" xmlns:xlink="http://www.w3.org/1999/xlink" x="0px" y="0px"
	 viewBox="0 0 400 171.5" style="enable-background:new 0 0 400 171.5;" xml:space="preserve">
<g>
	<path d="M74.5,74.3c-4.6-2.2-8.4-5.4-11.5-9.5c-0.3-0.4-0.3-0.8,0-1.1l8.3-9.1c0.4-0.4,0.8-0.4,1.1,0c4.5,6.2,10.6,9.7,17,9.7
		c5.9,0,9.8-3.4,9.8-8.7c-0.2-4.2-1.1-6.2-4.9-8.4c-1.3-0.7-2.7-1.4-4.2-1.9s-3.5-1.3-6.1-2.1c-12.6-4.2-18.6-11.3-18.6-22.6
		c0-5.9,2.2-10.8,6.7-14.7C76.6,1.9,82.2,0,88.9,0c7.3,0,14.1,2.4,18.9,6.6c0.3,0.3,0.4,0.6,0.1,1.1l-6.3,10.1
		c-0.3,0.5-0.7,0.6-1.1,0.1c-3.3-3.4-7.1-5.2-11.4-5.2c-5.4,0-9.1,3.1-9.1,7.7c0.2,4,1.7,5.7,5.2,7.2c2.4,1.1,4.4,1.6,8.1,2.9
		c1.8,0.6,3.5,1.3,5,2c11.1,4.9,15.9,12,15.9,22.7c0,6.7-2.3,12.1-6.9,16.3c-4.6,4.2-10.7,6.3-18.1,6.3C84,77.7,79.1,76.6,74.5,74.3
		z"/>
	<path d="M176,1.6c0.5,0,0.8,0.2,0.8,0.8v73c0,0.5-0.2,0.8-0.8,0.8h-12.9c-0.5,0-0.8-0.2-0.8-0.8V43.6h-26.5v31.7
		c0,0.5-0.2,0.8-0.8,0.8h-12.9c-0.5,0-0.8-0.2-0.8-0.8v-73c0-0.5,0.3-0.8,0.8-0.8H135c0.5,0,0.8,0.2,0.8,0.8v28.7h26.5V2.4
		c0-0.5,0.3-0.8,0.8-0.8H176z"/>
	<path d="M187.3,76.1c-0.5,0-0.8-0.2-0.8-0.8v-73c0-0.5,0.3-0.8,0.8-0.8h13.1c0.5,0,0.8,0.2,0.8,0.8v73c0,0.5-0.3,0.8-0.8,0.8H187.3
		z"/>
	<path d="M207,76.1c-0.5,0-0.8-0.3-0.7-0.9l15.5-73c0.1-0.4,0.4-0.7,0.9-0.7h10.7c0.4,0,0.8,0.2,0.9,0.7l12,37.4
		c0.7,2.3,1.2,4.6,1.4,6.8c0-2,0.5-4.3,1.3-6.8l12.2-37.5c0.1-0.4,0.4-0.6,0.9-0.6h10.4c0.5,0,0.8,0.2,0.9,0.7l15.4,73
		c0.1,0.6-0.1,0.9-0.7,0.9H275c-0.5,0-0.8-0.2-0.9-0.7l-7.8-39.1c-0.7-3.3-1.1-5.9-1.3-7.5c-0.2,1.6-0.9,4.1-2.1,7.6l-12.9,39.1
		c-0.1,0.4-0.4,0.6-0.9,0.6h-2.9c-0.4,0-0.7-0.2-0.9-0.6l-13.1-39.1c-1.1-3.4-1.8-6-2.1-7.6c0,1.4-0.5,3.8-1.2,7.5l-7.8,39.1
		c-0.1,0.5-0.4,0.7-0.9,0.7H207z"/>
	<path d="M336.5,63.6c0.5,0,0.8,0.2,0.8,0.8v11c0,0.5-0.2,0.8-0.8,0.8h-41.5c-0.5,0-0.8-0.2-0.8-0.8v-73c0-0.5,0.3-0.8,0.8-0.8h39.8
		c0.5,0,0.8,0.2,0.8,0.8v10.8c0,0.5-0.2,0.8-0.8,0.8h-26.1V31h24.2c0.5,0,0.8,0.3,0.8,0.8v10.3c0,0.5-0.2,0.8-0.8,0.8h-24.2v20.7
		H336.5z"/>
	<path d="M91.1,168.3c-4.6-2.2-8.4-5.4-11.5-9.5c-0.3-0.4-0.3-0.8,0-1.1l8.3-9.1c0.4-0.4,0.8-0.4,1.1,0c4.5,6.2,10.6,9.7,17,9.7
		c5.9,0,9.8-3.4,9.8-8.7c-0.2-4.2-1.1-6.2-4.9-8.4c-1.3-0.7-2.7-1.4-4.2-1.9s-3.5-1.3-6.1-2.1c-12.6-4.2-18.6-11.3-18.6-22.6
		c0-5.9,2.2-10.8,6.7-14.7c4.5-3.9,10-5.9,16.7-5.9c7.3,0,14.1,2.4,18.9,6.6c0.3,0.3,0.4,0.6,0.1,1.1l-6.3,10.1
		c-0.3,0.5-0.7,0.6-1.1,0.1c-3.3-3.4-7.1-5.2-11.4-5.2c-5.4,0-9.1,3.1-9.1,7.7c0.2,4,1.7,5.7,5.2,7.2c2.4,1.1,4.4,1.6,8.1,2.9
		c1.8,0.6,3.5,1.3,5,2c11.1,4.9,15.9,12,15.9,22.7c0,6.7-2.3,12.1-6.9,16.3c-4.6,4.2-10.7,6.3-18.1,6.3
		C100.6,171.7,95.7,170.6,91.1,168.3z"/>
	<path d="M199.8,169.2c0.2,0.5-0.1,0.9-0.7,0.9h-14.6c-0.4,0-0.8-0.2-0.9-0.7l-8.2-25.9h-18.4l-8.1,25.9c-0.1,0.4-0.5,0.7-0.9,0.7
		h-14.4c-0.6,0-0.9-0.4-0.7-0.9l26-73c0.1-0.4,0.4-0.6,0.9-0.6h13.1c0.4,0,0.7,0.2,0.9,0.6L199.8,169.2z M160.7,131.6h10.9l-2.9-9
		c-1.3-4.1-2.1-7.9-2.6-11.4c-0.2,2.6-1.1,6.4-2.6,11.3L160.7,131.6z"/>
	<path d="M252.4,147.6c0,6.7-2.2,12.2-6.6,16.3c-4.4,4.1-10.2,6.2-17.5,6.2h-23.3c-0.5,0-0.8-0.2-0.8-0.8v-73c0-0.5,0.3-0.8,0.8-0.8
		h17.4c14.8,0,23.2,7,23.2,19.4c0,7.5-3.5,12.6-9.9,14.2C246.4,129.4,252.4,136.2,252.4,147.6z M218.7,107.9v17.4h4.1
		c5.1,0,8.1-3.3,8.1-8.7c0-5.2-3.1-8.6-8.1-8.6H218.7z M226.4,157.6c7.6,0,11.4-3.3,11.4-10c0-6.7-4.1-10-12.3-10h-6.7v20.1H226.4z"
		/>
	<path d="M320.4,169.2c0.2,0.5-0.1,0.9-0.7,0.9h-14.6c-0.4,0-0.8-0.2-0.9-0.7l-8.2-25.9h-18.4l-8.1,25.9c-0.1,0.4-0.5,0.7-0.9,0.7
		h-14.4c-0.6,0-0.9-0.4-0.7-0.9l26-73c0.1-0.4,0.4-0.6,0.9-0.6h13.1c0.4,0,0.7,0.2,0.9,0.6L320.4,169.2z M281.3,131.6h10.9l-2.9-9
		c-1.3-4.1-2.1-7.9-2.6-11.4c-0.2,2.6-1.1,6.4-2.6,11.3L281.3,131.6z"/>
</g>
</svg>
