<?xml version="1.0" encoding="utf-8"?>
<!-- Generator: Adobe Illustrator 22.0.1, SVG Export Plug-In . SVG Version: 6.00 Build 0)  -->
<svg version="1.1" id="Layer_1" xmlns="http://www.w3.org/2000/svg" xmlns:xlink="http://www.w3.org/1999/xlink" x="0px" y="0px"
	 viewBox="0 0 97.6 90.4" style="enable-background:new 0 0 97.6 90.4;" xml:space="preserve">
<style type="text/css">
	.st0{fill:#FFFFFF;}
</style>
<g>
	<path class="st0" d="M83.1,61.1H14.5v-4c0-23.9,15.4-43.4,34.3-43.4s34.3,19.5,34.3,43.4V61.1z M22.6,53.1h52.3
		c-1.5-17.6-12.6-31.4-26.1-31.4S24.1,35.4,22.6,53.1z"/>
</g>
<g>
	<path class="st0" d="M97.6,90.4H0l13.9-26.6h69.8L97.6,90.4z M13.2,82.4h71.2l-5.5-10.6H18.7L13.2,82.4z"/>
</g>
<g>
	<g>
		<path class="st0" d="M48.8,20.2c-2.2,0-4-1.8-4-4V5.4c0-2.2,1.8-4,4-4s4,1.8,4,4v10.9C52.8,18.4,51,20.2,48.8,20.2z"/>
	</g>
	<g>
		<path class="st0" d="M61.1,8H36.5c-2.2,0-4-1.8-4-4s1.8-4,4-4h24.6c2.2,0,4,1.8,4,4S63.3,8,61.1,8z"/>
	</g>
</g>
</svg>
